<?xml version="1.0" encoding="UTF-8"?><svg id="Layer_2" xmlns="http://www.w3.org/2000/svg" viewBox="0 0 321.7324 78.6079"><g id="Components"><g id="cab1a9a0-5b73-4b57-b70c-f0ba68ac6b7f_1"><path d="M106.1846,10.8806c.5195.0249,1.2012.0498,2.0439.0742.8418.0249,1.6729.0371,2.4902.0371,1.165,0,2.2793-.0122,3.3457-.0371,1.0645-.0244,1.8213-.0371,2.2676-.0371,2.6016,0,4.5586.5454,5.8721,1.6357s1.9707,2.4902,1.9707,4.2002c0,.8677-.1807,1.7158-.5391,2.5459-.3594.8306-.9541,1.5864-1.7842,2.2676-.8311.6816-1.9395,1.2329-3.3271,1.6538v.0747c1.957.2476,3.4883.7124,4.5908,1.3936,1.1025.6821,1.877,1.481,2.3232,2.3975.4463.917.6689,1.8838.6689,2.8994,0,1.4126-.3535,2.6577-1.0596,3.7354-.706,1.0781-1.7285,1.9272-3.0664,2.5464-1.3379.6196-2.9365.9292-4.7949.9292-.5449,0-1.3633-.0186-2.4531-.0557-1.0908-.0371-2.4043-.0557-3.9404-.0557-.8672,0-1.7227.0063-2.5645.0186-.8428.0127-1.5244.0435-2.0439.0928v-.7432c.8418-.0498,1.4805-.1489,1.9141-.2974.4326-.1489.7246-.4463.873-.8921.1494-.4463.2236-1.1152.2236-2.0073V14.8206c0-.9165-.0742-1.5918-.2236-2.0259-.1484-.4331-.4404-.7305-.873-.8921-.4336-.1606-1.0723-.2534-1.9141-.2783v-.7437ZM115.4023,11.6243c-1.1396,0-1.8838.2104-2.2305.6318-.3467.4214-.5205,1.2764-.5205,2.5645v18.4365c0,.8677.0752,1.5239.2236,1.9697.1484.4463.4209.7437.8174.8921.3965.1489.9785.2231,1.7471.2231,2.4287,0,4.1943-.5635,5.2969-1.6914,1.1025-1.127,1.6543-2.7319,1.6543-4.8135,0-1.9077-.5146-3.3823-1.543-4.4229-1.0283-1.041-2.7197-1.5615-5.0732-1.5615h-3.8291v-.6318h3.1973c1.4609,0,2.5889-.2788,3.3818-.8359.793-.5576,1.3379-1.3013,1.6357-2.2305.2969-.9292.4463-1.9263.4463-2.9922,0-1.8335-.4033-3.2153-1.208-4.1445-.8057-.9292-2.1377-1.3936-3.9961-1.3936Z" style="fill:#666766;"/><path d="M147.6289,10.8806c-.0996.8677-.168,1.71-.2051,2.5278-.0371.8174-.0557,1.437-.0557,1.8584,0,.4458.0127.8735.0371,1.2822s.0498.75.0742,1.022h-.8545c-.1484-1.4614-.3594-2.6201-.6318-3.4751-.2734-.855-.7373-1.4619-1.3936-1.8213-.6572-.3589-1.6426-.5391-2.9551-.5391h-3.0859c-.8418,0-1.4805.0684-1.9141.2046s-.7246.4214-.873.8545c-.1484.4341-.2236,1.1094-.2236,2.0259v18.4365c0,.8921.0752,1.561.2236,2.0073.1484.4458.4395.7373.873.873.4336.1367,1.0723.2046,1.9141.2046h2.7139c1.5615,0,2.7441-.21,3.5498-.6318.8047-.4209,1.3877-1.1089,1.7471-2.063.3584-.9536.625-2.2485.7988-3.8843h.8555c-.0752.6689-.1123,1.561-.1123,2.6763,0,.4712.0186,1.1465.0557,2.0259.0381.8799.1055,1.7905.2051,2.7319-1.2637-.0493-2.6895-.0801-4.2744-.0928-1.5859-.0122-2.999-.0186-4.2373-.0186h-2.1006c-.8545,0-1.7783.0063-2.7695.0186-.9912.0127-1.9941.0249-3.0107.0371-1.0156.0127-1.9824.0312-2.8984.0557v-.7432c.8418-.0498,1.4805-.1489,1.9141-.2974.4326-.1489.7246-.4463.873-.8921.1494-.4463.2236-1.1152.2236-2.0073V14.8206c0-.9165-.0742-1.5918-.2236-2.0259-.1484-.4331-.4404-.7305-.873-.8921-.4336-.1606-1.0723-.2534-1.9141-.2783v-.7437c.916.0249,1.8828.0435,2.8984.0557,1.0166.0127,2.0195.0249,3.0107.0371.9912.0132,1.915.0186,2.7695.0186h2.1006c1.1387,0,2.4346-.0054,3.8838-.0186,1.4502-.0122,2.7441-.043,3.8848-.0928ZM141.2354,23.593v.7432h-6.8018v-.7432h6.8018ZM142.3135,18.6863c-.0996,1.4126-.1436,2.4902-.1299,3.2339.0117.7432.0186,1.4253.0186,2.0444,0,.6196.0117,1.3008.0371,2.0444.0244.7432.0859,1.8213.1855,3.2334h-.8555c-.0986-.7925-.2168-1.5669-.3525-2.3228-.1367-.7559-.4336-1.3755-.8926-1.8589-.458-.4829-1.2324-.7246-2.3223-.7246v-.7432c.8174,0,1.4424-.1675,1.877-.502.4326-.3345.749-.7622.9473-1.2822.1982-.5205.335-1.0596.4092-1.6172s.1484-1.0591.2227-1.5054h.8555Z" style="fill:#666766;"/><path d="M175.0605,10.8806v.7437c-.8428.0249-1.4814.1484-1.915.3716-.4336.2231-.7246.5825-.873,1.0776-.1484.4961-.2227,1.2026-.2227,2.1187v22.1909h-.8555l-15.6113-24.1235v19.626c0,.8921.0801,1.5923.2412,2.1001s.4834.8677.9668,1.0776c.4834.2109,1.208.3408,2.1748.3906v.7432c-.4463-.0493-1.0293-.0801-1.7471-.0928-.7188-.0122-1.4004-.0186-2.0449-.0186-.6191,0-1.2451.0063-1.877.0186-.6318.0127-1.1582.0435-1.5791.0928v-.7432c.8418-.0498,1.4805-.1797,1.9141-.3906.4326-.21.7246-.5698.873-1.0776.1494-.5078.2236-1.208.2236-2.1001V14.8206c0-.9165-.0742-1.5918-.2236-2.0259-.1484-.4331-.4404-.7305-.873-.8921-.4336-.1606-1.0723-.2534-1.9141-.2783v-.7437c.4209.0249.9473.0498,1.5791.0742.6318.0249,1.2578.0371,1.877.0371.5449,0,1.0654-.0122,1.5615-.0371.4951-.0244.9414-.0493,1.3379-.0742l13.1211,20.2207v-15.9092c0-.916-.0811-1.6226-.2412-2.1187-.1621-.4951-.4834-.8545-.9668-1.0776s-1.208-.3467-2.1738-.3716v-.7437c.4453.0249,1.0342.0498,1.7646.0742.7314.0249,1.4062.0371,2.0264.0371.6436,0,1.2822-.0122,1.9141-.0371.6318-.0244,1.1455-.0493,1.543-.0742Z" style="fill:#666766;"/><path d="M198.4023,10.8806c-.0996.9419-.168,1.8525-.2051,2.7319-.0371.8799-.0557,1.5557-.0557,2.0259,0,.5947.0127,1.1523.0371,1.6729.0244.52.0498.979.0752,1.375h-.8555c-.1738-1.7344-.4092-3.1035-.7061-4.1074-.2979-1.0034-.8174-1.728-1.5615-2.1743-.7432-.4458-1.8955-.6689-3.4561-.6689h-2.0078v21.1499c0,.9912.0928,1.7344.2793,2.23.1855.4961.5508.8306,1.0957,1.0034.5449.1738,1.3389.2852,2.3789.335v.7432c-.6445-.0493-1.4619-.0801-2.4531-.0928-.9912-.0122-1.9951-.0186-3.0107-.0186-1.1152,0-2.1621.0063-3.1406.0186-.9795.0127-1.7656.0435-2.3604.0928v-.7432c1.041-.0498,1.834-.1611,2.3789-.335.5449-.1729.9111-.5073,1.0967-1.0034.1855-.4956.2783-1.2388.2783-2.23V11.7356h-2.0068c-1.5371,0-2.6826.2231-3.4385.6689-.7559.4463-1.2822,1.1709-1.5791,2.1743-.2979,1.0039-.5332,2.373-.707,4.1074h-.8545c.0498-.396.0801-.855.0928-1.375.0127-.5205.0186-1.0781.0186-1.6729,0-.4702-.0186-1.146-.0557-2.0259-.0371-.8794-.1055-1.79-.2041-2.7319,1.041.0249,2.1738.0498,3.4004.0742,1.2275.0249,2.46.0371,3.6992.0371h6.7461c1.2265,0,2.459-.0122,3.6982-.0371,1.2393-.0244,2.3662-.0493,3.3828-.0742Z" style="fill:#666766;"/><path d="M210.5185,10.8806v.7437c-.8418.0249-1.4805.1177-1.914.2783-.4336.1616-.7246.459-.873.8921-.1484.4341-.2236,1.1094-.2236,2.0259v18.4365c0,.8921.0752,1.561.2236,2.0073.1484.4458.4395.7373.873.873.4336.1367,1.0723.2046,1.914.2046h2.7139c1.1641,0,2.1123-.1235,2.8438-.3716.7305-.2476,1.3125-.6377,1.7471-1.1709.4326-.5327.7617-1.2451.9844-2.1372.2236-.8921.3965-1.9824.5205-3.271h.8555c-.0752.7686-.1123,1.7842-.1123,3.0479,0,.4712.0186,1.1465.0557,2.0259.0381.8799.1055,1.7905.2051,2.7319-1.2637-.0493-2.6895-.0801-4.2744-.0928-1.5859-.0122-2.999-.0186-4.2373-.0186h-2.1006c-.8545,0-1.7783.0063-2.7695.0186-.9912.0127-1.9941.0249-3.0107.0371-1.0156.0127-1.9824.0312-2.8984.0557v-.7432c.8418-.0498,1.4805-.1489,1.9141-.2974.4326-.1489.7246-.4463.873-.8921.1494-.4463.2236-1.1152.2236-2.0073V14.8206c0-.9165-.0742-1.5918-.2236-2.0259-.1484-.4331-.4404-.7305-.873-.8921-.4336-.1606-1.0723-.2534-1.9141-.2783v-.7437c.5195.0249,1.2012.0498,2.0439.0742.8418.0249,1.7471.0371,2.7139.0371.8662,0,1.7275-.0122,2.583-.0371.8545-.0244,1.5664-.0493,2.1367-.0742Z" style="fill:#666766;"/><path d="M241.4453,10.8806c-.0996.8677-.168,1.71-.2051,2.5278-.0371.8174-.0557,1.437-.0557,1.8584,0,.4458.0127.8735.0371,1.2822s.0498.75.0742,1.022h-.8545c-.1484-1.4614-.3594-2.6201-.6318-3.4751-.2734-.855-.7373-1.4619-1.3936-1.8213-.6572-.3589-1.6426-.5391-2.9551-.5391h-3.0859c-.8418,0-1.4805.0684-1.9141.2046s-.7246.4214-.873.8545c-.1484.4341-.2236,1.1094-.2236,2.0259v18.4365c0,.8921.0752,1.561.2236,2.0073.1484.4458.4395.7373.873.873.4336.1367,1.0723.2046,1.9141.2046h2.7139c1.5615,0,2.7441-.21,3.5498-.6318.8047-.4209,1.3877-1.1089,1.7471-2.063.3584-.9536.625-2.2485.7988-3.8843h.8555c-.0752.6689-.1123,1.561-.1123,2.6763,0,.4712.0186,1.1465.0557,2.0259.0381.8799.1055,1.7905.2051,2.7319-1.2637-.0493-2.6895-.0801-4.2744-.0928-1.5859-.0122-2.999-.0186-4.2373-.0186h-2.1006c-.8545,0-1.7783.0063-2.7695.0186-.9912.0127-1.9941.0249-3.0107.0371-1.0156.0127-1.9824.0312-2.8984.0557v-.7432c.8418-.0498,1.4805-.1489,1.9141-.2974.4326-.1489.7246-.4463.873-.8921.1494-.4463.2236-1.1152.2236-2.0073V14.8206c0-.9165-.0742-1.5918-.2236-2.0259-.1484-.4331-.4404-.7305-.873-.8921-.4336-.1606-1.0723-.2534-1.9141-.2783v-.7437c.916.0249,1.8828.0435,2.8984.0557,1.0166.0127,2.0195.0249,3.0107.0371.9912.0132,1.915.0186,2.7695.0186h2.1006c1.1387,0,2.4346-.0054,3.8838-.0186,1.4502-.0122,2.7441-.043,3.8848-.0928ZM235.0518,23.593v.7432h-6.8018v-.7432h6.8018ZM236.1299,18.6863c-.0996,1.4126-.1436,2.4902-.1299,3.2339.0117.7432.0185,1.4253.0185,2.0444,0,.6196.0117,1.3008.0371,2.0444.0244.7432.0859,1.8213.1855,3.2334h-.8555c-.0986-.7925-.2168-1.5669-.3525-2.3228-.1367-.7559-.4336-1.3755-.8926-1.8589-.458-.4829-1.2324-.7246-2.3223-.7246v-.7432c.8174,0,1.4424-.1675,1.877-.502.4326-.3345.749-.7622.9473-1.2822.1982-.5205.335-1.0596.4092-1.6172.0742-.5576.1484-1.0591.2227-1.5054h.8555Z" style="fill:#666766;"/><path d="M265.8281,10.8806v.7437c-.4717.0991-.9424.4028-1.4131.9106-.4707.5078-.9912,1.3071-1.5605,2.3975l-7.5088,14.8677h-.6318l-8.6982-16.0571c-.4951-.9165-.9102-1.4927-1.2451-1.7285-.334-.2354-.6377-.353-.9102-.353v-.7808c.4951.0249,1.0088.0498,1.542.0742.5332.0249,1.1094.0371,1.7285.0371.8184,0,1.6914-.0054,2.6211-.0186.9287-.0122,1.79-.043,2.583-.0928v.7808c-.6201,0-1.165.0742-1.6357.2227-.4707.1489-.7803.4219-.9287.8179-.1494.397-.0371.9541.334,1.6729l6.2822,12.043-.2979.2231,4.9443-9.8501c.6934-1.3628,1.0342-2.416,1.0215-3.1597-.0127-.7432-.3037-1.2573-.873-1.5425-.5703-.2847-1.376-.4395-2.416-.4644v-.7437c.7178.0249,1.4492.0498,2.1924.0742.7441.0249,1.4375.0371,2.082.0371.6436,0,1.1768-.0122,1.5986-.0371.4209-.0244.8174-.0493,1.1895-.0742ZM257.0185,25.8972v7.3599c0,.8921.0742,1.561.2227,2.0073.1484.4458.4395.7432.874.8921.4326.1484,1.0713.2476,1.9141.2974v.7432c-.5703-.0493-1.2822-.0801-2.1377-.0928-.8545-.0122-1.7158-.0186-2.583-.0186-.9668,0-1.8711.0063-2.7139.0186-.8428.0127-1.5234.0435-2.0439.0928v-.7432c.8418-.0498,1.4805-.1489,1.9141-.2974.4336-.1489.7246-.4463.874-.8921.1484-.4463.2227-1.1152.2227-2.0073v-7.6201l2.0068,2.3047,1.4502-2.0444Z" style="fill:#666766;"/><path d="M124.7324,43.9895c-.0996.8682-.168,1.71-.2051,2.5273-.0371.8184-.0557,1.4375-.0557,1.8584,0,.4463.0127.874.0371,1.2832.0244.4082.0498.749.0742,1.0215h-.8545c-.1484-1.4619-.3594-2.6201-.6318-3.4756-.2734-.8545-.7373-1.4619-1.3936-1.8213-.6572-.3584-1.6426-.5391-2.9551-.5391h-3.0859c-.8418,0-1.4805.0693-1.9141.2051-.4336.1367-.7246.4219-.873.8545-.1484.4336-.2236,1.1094-.2236,2.0264v18.4355c0,.8926.0752,1.5615.2236,2.0078.1484.4463.4395.7373.873.873.4336.1367,1.0723.2051,1.9141.2051h2.7139c1.5615,0,2.7441-.2109,3.5498-.6318.8047-.4219,1.3877-1.1094,1.7471-2.0635.3584-.9531.625-2.249.7988-3.8838h.8555c-.0752.6689-.1123,1.5605-.1123,2.6758,0,.4707.0186,1.1465.0557,2.0254.0381.8799.1055,1.791.2051,2.7324-1.2637-.0498-2.6895-.0801-4.2744-.0928-1.5859-.0127-2.999-.0186-4.2373-.0186h-2.1006c-.8545,0-1.7783.0059-2.7695.0186s-1.9941.0244-3.0107.0371c-1.0156.0127-1.9824.0312-2.8984.0557v-.7432c.8418-.0498,1.4805-.1484,1.9141-.2979.4326-.1484.7246-.4453.873-.8916.1494-.4463.2236-1.1152.2236-2.0078v-18.4355c0-.917-.0742-1.5928-.2236-2.0264-.1484-.4326-.4404-.7305-.873-.8916-.4336-.1611-1.0723-.2539-1.9141-.2793v-.7432c.916.0254,1.8828.0439,2.8984.0557,1.0166.0127,2.0195.0254,3.0107.0371.9912.0127,1.915.0186,2.7695.0186h2.1006c1.1387,0,2.4346-.0059,3.8838-.0186,1.4502-.0117,2.7441-.043,3.8848-.0928ZM118.3389,56.7014v.7441h-6.8018v-.7441h6.8018ZM119.417,51.7952c-.0996,1.4121-.1436,2.4902-.1299,3.2334.0117.7441.0186,1.4258.0186,2.0449s.0117,1.3008.0371,2.0439c.0244.7441.0859,1.8213.1855,3.2344h-.8555c-.0986-.793-.2168-1.5674-.3525-2.3232-.1367-.7559-.4336-1.375-.8926-1.8584-.458-.4834-1.2324-.7246-2.3223-.7246v-.7441c.8174,0,1.4424-.167,1.877-.502.4326-.334.749-.7617.9473-1.2822s.335-1.0586.4092-1.6162.1484-1.0596.2227-1.5059h.8555Z" style="fill:#666766;"/><path d="M141.0498,43.469c1.6357,0,2.9795.2422,4.0332.7246,1.0527.4834,1.9883,1.0479,2.8057,1.6914.4961.3721.874.415,1.1338.1299.2607-.2842.4404-.96.5391-2.0254h.8555c-.0498.917-.0879,2.0322-.1113,3.3457-.0254,1.3135-.0381,3.0479-.0381,5.2031h-.8545c-.1738-1.0645-.335-1.9141-.4834-2.5459-.1484-.6318-.3281-1.1709-.5391-1.6172-.2109-.4453-.4893-.8916-.8359-1.3379-.7686-1.0156-1.7354-1.7529-2.8994-2.2119-1.165-.458-2.3916-.6875-3.6797-.6875-1.2148,0-2.3105.3037-3.29.9111-.9785.6074-1.8213,1.4805-2.5273,2.6201-.7061,1.1406-1.251,2.5156-1.6357,4.126-.3838,1.6113-.5752,3.4199-.5752,5.4268,0,2.082.21,3.9219.6318,5.5195.4209,1.5986,1.0088,2.9434,1.7656,4.0332.7549,1.0908,1.6475,1.9141,2.6758,2.4717s2.1377.8369,3.3271.8369c1.1143,0,2.2793-.2236,3.4932-.6689,1.2139-.4463,2.168-1.165,2.8623-2.1562.5449-.7188.9229-1.499,1.1338-2.3418.21-.8418.4023-2.0195.5762-3.5312h.8545c0,2.2549.0127,4.0703.0381,5.4453.0234,1.375.0615,2.5342.1113,3.4756h-.8555c-.0986-1.0654-.2666-1.7344-.502-2.0068s-.626-.2354-1.1709.1113c-.917.6445-1.8896,1.208-2.917,1.6914-1.0293.4824-2.3486.7246-3.959.7246-2.3545,0-4.417-.5322-6.1885-1.5986-1.7725-1.0654-3.1475-2.6016-4.126-4.6094-.9795-2.0068-1.4687-4.4229-1.4687-7.248,0-2.7744.5078-5.2031,1.5244-7.2852,1.0156-2.0811,2.4092-3.7041,4.1816-4.8691,1.7715-1.1641,3.8096-1.7471,6.1143-1.7471Z" style="fill:#666766;"/><path d="M163.8711,43.9895v.7432c-.8418.0254-1.4805.1182-1.9141.2793s-.7246.459-.873.8916c-.1484.4336-.2236,1.1094-.2236,2.0264v18.4355c0,.8926.0752,1.5615.2236,2.0078s.4395.7432.873.8916c.4336.1494,1.0723.248,1.9141.2979v.7432c-.5703-.0498-1.2822-.0801-2.1367-.0928-.8555-.0127-1.7168-.0186-2.583-.0186-.9668,0-1.8721.0059-2.7139.0186-.8428.0127-1.5244.043-2.044.0928v-.7432c.8418-.0498,1.4805-.1484,1.9141-.2979.4326-.1484.7246-.4453.873-.8916.1494-.4463.2236-1.1152.2236-2.0078v-18.4355c0-.917-.0742-1.5928-.2236-2.0264-.1484-.4326-.4404-.7305-.873-.8916-.4336-.1611-1.0723-.2539-1.9141-.2793v-.7432c.5195.0254,1.2012.0498,2.044.0742.8418.0254,1.7471.0371,2.7139.0371.8662,0,1.7275-.0117,2.583-.0371.8545-.0244,1.5664-.0488,2.1367-.0742ZM175.6914,43.9895v.7432c-.7686.0996-1.5117.3477-2.2305.7441s-1.4365,1.0527-2.1553,1.9697l-7.1738,9.1807.8174-1.8213,8.9209,12.4893c.4209.6201.8799,1.1025,1.375,1.4492.4961.3477,1.1279.6201,1.8965.8184v.7432c-.5947-.0498-1.333-.0801-2.2119-.0928-.8799-.0127-1.6299-.0186-2.249-.0186-.4219,0-.9355.0059-1.542.0186-.6074.0127-1.3701.043-2.2861.0928v-.7432c.8418-.0498,1.375-.1982,1.5977-.4463.2236-.2471.1367-.6562-.2598-1.2266l-5.4268-8.1777c-.4961-.7676-.9355-1.3438-1.3193-1.7285-.3848-.3838-.7812-.6377-1.1895-.7617-.4092-.124-.9238-.1982-1.543-.2227v-.7432c1.041-.0244,1.9141-.2295,2.6211-.6143.7061-.3838,1.2939-.873,1.7646-1.4678l3.5684-4.5352c.8184-1.04,1.376-1.9199,1.6729-2.6387.2979-.7188.2852-1.2695-.0371-1.6543-.3223-.3838-1.0029-.5879-2.0439-.6133v-.7432c.4697.0254.9531.0439,1.4492.0557.4951.0127.9854.0254,1.4688.0371.4824.0127.9346.0186,1.3564.0186.6436,0,1.2383-.0117,1.7842-.0371.5449-.0244,1.0039-.0488,1.375-.0742Z" style="fill:#666766;"/><path d="M197.2871,43.9895c-.0996.8682-.168,1.71-.2051,2.5273-.0371.8184-.0557,1.4375-.0557,1.8584,0,.4463.0127.874.0371,1.2832.0244.4082.0498.749.0742,1.0215h-.8545c-.1484-1.4619-.3594-2.6201-.6318-3.4756-.2734-.8545-.7373-1.4619-1.3936-1.8213-.6572-.3584-1.6426-.5391-2.9551-.5391h-3.0859c-.8418,0-1.4805.0693-1.9141.2051-.4336.1367-.7246.4219-.873.8545-.1484.4336-.2236,1.1094-.2236,2.0264v18.4355c0,.8926.0752,1.5615.2236,2.0078s.4395.7373.873.873c.4336.1367,1.0723.2051,1.9141.2051h2.7139c1.5615,0,2.7441-.2109,3.5498-.6318.8047-.4219,1.3877-1.1094,1.7471-2.0635.3584-.9531.625-2.249.7988-3.8838h.8555c-.0752.6689-.1123,1.5605-.1123,2.6758,0,.4707.0186,1.1465.0557,2.0254.0381.8799.1055,1.791.2051,2.7324-1.2637-.0498-2.6895-.0801-4.2744-.0928-1.5859-.0127-2.999-.0186-4.2373-.0186h-2.1006c-.8545,0-1.7783.0059-2.7695.0186s-1.9941.0244-3.0107.0371c-1.0156.0127-1.9824.0312-2.8984.0557v-.7432c.8418-.0498,1.4805-.1484,1.9141-.2979.4326-.1484.7246-.4453.873-.8916.1494-.4463.2236-1.1152.2236-2.0078v-18.4355c0-.917-.0742-1.5928-.2236-2.0264-.1484-.4326-.4404-.7305-.873-.8916-.4336-.1611-1.0723-.2539-1.9141-.2793v-.7432c.916.0254,1.8828.0439,2.8984.0557,1.0166.0127,2.0195.0254,3.0107.0371.9912.0127,1.915.0186,2.7695.0186h2.1006c1.1387,0,2.4346-.0059,3.8838-.0186,1.4502-.0117,2.7441-.043,3.8848-.0928ZM190.8935,56.7014v.7441h-6.8017v-.7441h6.8017ZM191.9717,51.7952c-.0996,1.4121-.1436,2.4902-.1299,3.2334.0117.7441.0186,1.4258.0186,2.0449s.0117,1.3008.0371,2.0439c.0244.7441.0859,1.8213.1855,3.2344h-.8555c-.0986-.793-.2168-1.5674-.3525-2.3232-.1367-.7559-.4336-1.375-.8926-1.8584-.458-.4834-1.2324-.7246-2.3223-.7246v-.7441c.8174,0,1.4424-.167,1.877-.502.4326-.334.749-.7617.9473-1.2822.1982-.5205.335-1.0586.4092-1.6162.0742-.5576.1485-1.0596.2227-1.5059h.8555Z" style="fill:#666766;"/><path d="M210.8535,43.9895v.7432c-.8418.0254-1.4805.1182-1.9141.2793s-.7246.459-.873.8916c-.1484.4336-.2236,1.1094-.2236,2.0264v18.4355c0,.8926.0752,1.5615.2236,2.0078s.4395.7373.873.873c.4336.1367,1.0723.2051,1.9141.2051h2.7139c1.1641,0,2.1123-.124,2.8437-.3721.7305-.2471,1.3125-.6377,1.7471-1.1709.4326-.5322.7617-1.2451.9844-2.1377.2236-.8916.3965-1.9814.5205-3.2705h.8555c-.0752.7686-.1123,1.7842-.1123,3.0479,0,.4707.0186,1.1465.0557,2.0254.0381.8799.1055,1.791.2051,2.7324-1.2637-.0498-2.6895-.0801-4.2744-.0928-1.5859-.0127-2.999-.0186-4.2373-.0186h-2.1006c-.8545,0-1.7783.0059-2.7695.0186s-1.9941.0244-3.0107.0371c-1.0156.0127-1.9824.0312-2.8984.0557v-.7432c.8418-.0498,1.4805-.1484,1.9141-.2979.4326-.1484.7246-.4453.873-.8916.1494-.4463.2236-1.1152.2236-2.0078v-18.4355c0-.917-.0742-1.5928-.2236-2.0264-.1484-.4326-.4404-.7305-.873-.8916-.4336-.1611-1.0723-.2539-1.9141-.2793v-.7432c.5195.0254,1.2012.0498,2.0439.0742.8418.0254,1.7471.0371,2.7139.0371.8662,0,1.7275-.0117,2.583-.0371.8545-.0244,1.5664-.0488,2.1367-.0742Z" style="fill:#666766;"/><path d="M232.709,43.9895v.7432c-.8418.0254-1.4805.1182-1.9141.2793s-.7246.459-.873.8916c-.1484.4336-.2236,1.1094-.2236,2.0264v18.4355c0,.8926.0752,1.5615.2236,2.0078s.4395.7432.873.8916c.4336.1494,1.0723.248,1.9141.2979v.7432c-.5703-.0498-1.2822-.0801-2.1367-.0928-.8555-.0127-1.7168-.0186-2.583-.0186-.9668,0-1.8721.0059-2.7139.0186-.8428.0127-1.5244.043-2.0439.0928v-.7432c.8418-.0498,1.4805-.1484,1.9141-.2979.4326-.1484.7246-.4453.873-.8916.1494-.4463.2237-1.1152.2237-2.0078v-18.4355c0-.917-.0742-1.5928-.2237-2.0264-.1484-.4326-.4404-.7305-.873-.8916-.4336-.1611-1.0723-.2539-1.9141-.2793v-.7432c.5195.0254,1.2012.0498,2.0439.0742.8418.0254,1.7471.0371,2.7139.0371.8662,0,1.7275-.0117,2.583-.0371.8545-.0244,1.5664-.0488,2.1367-.0742ZM244.5293,43.9895v.7432c-.7686.0996-1.5117.3477-2.2305.7441s-1.4365,1.0527-2.1553,1.9697l-7.1738,9.1807.8174-1.8213,8.9209,12.4893c.4209.6201.8799,1.1025,1.375,1.4492.4961.3477,1.1279.6201,1.8965.8184v.7432c-.5947-.0498-1.333-.0801-2.2119-.0928-.8799-.0127-1.6299-.0186-2.249-.0186-.4219,0-.9355.0059-1.542.0186-.6074.0127-1.3701.043-2.2861.0928v-.7432c.8418-.0498,1.375-.1982,1.5977-.4463.2236-.2471.1367-.6562-.2598-1.2266l-5.4268-8.1777c-.4961-.7676-.9355-1.3438-1.3193-1.7285-.3848-.3838-.7812-.6377-1.1895-.7617-.4092-.124-.9238-.1982-1.543-.2227v-.7432c1.041-.0244,1.9141-.2295,2.6211-.6143.7061-.3838,1.2939-.873,1.7646-1.4678l3.5684-4.5352c.8184-1.04,1.376-1.9199,1.6729-2.6387.2979-.7188.2852-1.2695-.0371-1.6543-.3223-.3838-1.0029-.5879-2.0439-.6133v-.7432c.4697.0254.9531.0439,1.4492.0557.4951.0127.9854.0254,1.4688.0371.4824.0127.9346.0186,1.3564.0186.6436,0,1.2383-.0117,1.7842-.0371.5449-.0244,1.0039-.0488,1.375-.0742Z" style="fill:#666766;"/><path d="M258.0225,43.804l9.0693,23.3799c.3721.9414.793,1.5674,1.2637,1.877.4707.3105.9043.4775,1.3008.502v.7432c-.4951-.0498-1.1025-.0801-1.8213-.0928s-1.4365-.0186-2.1553-.0186c-.9668,0-1.8711.0059-2.7139.0186s-1.5234.043-2.0439.0928v-.7432c1.2637-.0498,2.0684-.2666,2.416-.6504.3467-.3838.2725-1.208-.2227-2.4717l-6.9141-18.4736.5947-.4834-6.4678,16.8008c-.3965.9912-.6318,1.8281-.7061,2.5088-.0742.6816-.0068,1.2207.2041,1.6172.2109.3965.5703.6816,1.0781.8545.5078.1738,1.1465.2734,1.9141.2979v.7432c-.6934-.0498-1.4189-.0801-2.1738-.0928-.7568-.0127-1.4561-.0186-2.1006-.0186-.6191,0-1.1465.0059-1.5791.0186-.4346.0127-.8369.043-1.208.0928v-.7432c.4951-.124,1.0029-.415,1.5234-.874.5205-.458.9912-1.2451,1.4121-2.3604l8.7354-22.5244h.5947ZM262.5576,59.6008v.7432h-11.0771l.3721-.7432h10.7051Z" style="fill:#666766;"/><path d="M299.5039,43.9895v.7432c-.8418.0254-1.4805.1182-1.9141.2793s-.7246.459-.873.8916c-.1484.4336-.2236,1.1094-.2236,2.0264v18.4355c0,.8926.0752,1.5615.2236,2.0078s.4395.7432.873.8916c.4336.1494,1.0723.248,1.9141.2979v.7432c-.5703-.0498-1.2822-.0801-2.1367-.0928-.8555-.0127-1.7158-.0186-2.583-.0186-.9668,0-1.8721.0059-2.7139.0186-.8428.0127-1.5234.043-2.0439.0928v-.7432c.8418-.0498,1.4805-.1484,1.9141-.2979.4336-.1484.7246-.4453.873-.8916.1494-.4463.2236-1.1152.2236-2.0078v-20.4434l.1484.1113-9.1064,24.458h-.5947l-9.3672-24.123v19.626c0,.8916.0801,1.5928.2412,2.0996.1611.5088.4834.8682.9668,1.0781.4834.2109,1.208.3408,2.1748.3906v.7432c-.4463-.0498-1.0293-.0801-1.7471-.0928-.7188-.0127-1.4004-.0186-2.0449-.0186-.6191,0-1.2451.0059-1.877.0186s-1.1582.043-1.5791.0928v-.7432c.8418-.0498,1.4805-.1797,1.9141-.3906.4326-.21.7246-.5693.873-1.0781.1494-.5068.2236-1.208.2236-2.0996v-18.0645c0-.917-.0742-1.5928-.2236-2.0264-.1484-.4326-.4404-.7305-.873-.8916-.4336-.1611-1.0723-.2539-1.9141-.2793v-.7432c.4209.0254.9473.0498,1.5791.0742.6318.0254,1.2578.0371,1.877.0371.5449,0,1.1094-.0117,1.6914-.0371.582-.0244,1.0713-.0488,1.4688-.0742l8.4375,22.2275-.6318.2979,8.3633-22.4141h1.7471c.8672,0,1.7275-.0117,2.583-.0371.8545-.0244,1.5664-.0488,2.1367-.0742Z" style="fill:#666766;"/><path d="M302.627,43.9895c.5195.0254,1.2012.0498,2.0439.0742.8418.0254,1.6729.0371,2.4902.0371,1.165,0,2.2793-.0117,3.3457-.0371,1.0645-.0244,1.8213-.0371,2.2676-.0371,2.998,0,5.2402.6816,6.7275,2.0449,1.4863,1.3623,2.2305,3.1221,2.2305,5.2773,0,.8926-.1494,1.8281-.4463,2.8066-.2979.9795-.8125,1.8838-1.543,2.7139-.7314.8301-1.7285,1.5049-2.9922,2.0254-1.2637.5205-2.8623.7803-4.7949.7803h-3.5684v-.7432h3.1973c1.7588,0,3.1035-.335,4.0322-1.0039.9297-.6689,1.5615-1.5479,1.8955-2.6387.335-1.0898.502-2.2676.502-3.5312,0-2.3535-.4639-4.1133-1.3936-5.2783-.9297-1.1641-2.5215-1.7471-4.7764-1.7471-1.1396,0-1.8838.2109-2.2305.6318-.3467.4219-.5205,1.2773-.5205,2.5654v18.4355c0,.8926.0938,1.5615.2793,2.0078s.5508.7432,1.0967.8916c.5449.1494,1.3379.248,2.3789.2979v.7432c-.6445-.0498-1.4629-.0801-2.4531-.0928-.9922-.0127-1.9951-.0186-3.0107-.0186-.9668,0-1.8721.0059-2.7139.0186-.8428.0127-1.5244.043-2.0439.0928v-.7432c.8418-.0498,1.4805-.1484,1.9141-.2979.4326-.1484.7246-.4453.873-.8916.1494-.4463.2236-1.1152.2236-2.0078v-18.4355c0-.917-.0742-1.5928-.2236-2.0264-.1484-.4326-.4404-.7305-.873-.8916-.4336-.1611-1.0723-.2539-1.9141-.2793v-.7432Z" style="fill:#666766;"/><path d="M280.0887,36.4042c-2.0214,0-3.7842-.4215-5.2877-1.2651-1.5042-.8436-2.6702-2.0331-3.4979-3.5686-.827-1.5361-1.2408-3.3308-1.2408-5.3834,0-2.0214.3861-3.875,1.1576-5.5622.7715-1.6872,1.8023-3.0397,3.0917-4.0587,1.2887-1.0183,2.7048-1.5278,4.2493-1.5278,1.1292,0,2.0207.2787,2.6737.836.6523.5566.9788,1.3129.9788,2.2674,0,.8914-.3383,1.8183-1.0148,2.7811-.6766.9635-1.7704,2.0893-3.2823,3.3779,1.925-1.1777,3.6642-2.4109,5.2156-3.7003,1.5521-1.2887,2.7853-2.5343,3.7003-3.7356.915-1.202,1.3732-2.248,1.3732-3.1395,0-.445-.1754-.863-.5254-1.2533-.3501-.3896-.7008-.8076-1.0502-1.2533-.3508-.445-.5254-.9628-.5254-1.5514,0-.5573.1872-1.0107.5608-1.3607.3743-.3501.8318-.5254,1.3732-.5254.6682,0,1.2055.2745,1.611.8235.4062.549.6086,1.2692.6086,2.1607,0,1.5597-.6169,3.2622-1.8501,5.1088-1.2332,1.846-2.9281,3.6725-5.0846,5.4783-2.1565,1.8065-4.6354,3.4417-7.4359,4.9057l-.287-.6925c.7161-.3972,1.3926-.9788,2.0297-1.7427.6357-.7639,1.1535-1.6311,1.5514-2.6016.3979-.9705.5968-1.9493.5968-2.9364,0-1.7032-.4776-2.5544-1.4321-2.5544-.7805,0-1.5479.4776-2.3042,1.4321-.7556.9552-1.3808,2.1607-1.8737,3.6171-.4936,1.4557-.7403,2.9565-.7403,4.4995,0,1.8141.3501,3.414,1.0509,4.7983.7001,1.385,1.6664,2.4671,2.9003,3.2469,1.2332.7798,2.6459,1.1694,4.2375,1.1694,5.061,0,9.0074-3.9152,11.8405-11.7448-.5733-.1275-1.1978-.2308-1.8737-.3106-.6773-.0797-1.4287-.1192-2.2564-.1192-2.0526,0-3.0792.4617-3.0792,1.3843,0,.2551.1587.5892.4769,1.0031.3182.4138.6364.8755.9552,1.3843.3182.5095.4776,1.0266.4776,1.5521,0,.5407-.1795.9906-.5372,1.3483-.3584.3584-.8235.5372-1.3968.5372-.5726,0-1.0266-.2468-1.3607-.7396-.3341-.4936-.5012-1.1701-.5012-2.0297,0-1.2089.3022-2.3395.9074-3.3897.6045-1.0502,1.3885-1.9014,2.3513-2.5544.9628-.6523,1.9853-.9788,3.0674-.9788.8277,0,1.6235.1671,2.3874.5012.7639.3348,1.4876.7168,2.1725,1.1459.6842.4298,1.3205.8117,1.9098,1.1465.5885.3341,1.114.5012,1.5756.5012.5726,0,.9823-.2586,1.229-.7764.2468-.5164.4499-1.1174.6093-1.8023.1587-.6835.3736-1.2845.644-1.8023.271-.5164.7168-.7757,1.3372-.7757.5254,0,.931.1913,1.2173.5733.287.382.4298.8914.4298,1.5278,0,1.114-.4735,2.0214-1.4204,2.7215s-2.1766,1.0502-3.6885,1.0502c-.8914,0-1.715-.1033-2.4705-.3106-.7563-.2066-1.5874-.4138-2.4948-.6204-2.7853,8.9921-7.4643,13.4875-14.0365,13.4875Z" style="fill:#666766;"/><path d="M77.5651,30.8502c-.4033-.5381-.9746-.8076-1.7148-.8076-.874,0-1.502.3652-1.8838,1.0928-.3809.7295-.6836,1.5762-.9072,2.5391-.2246.9648-.5107,1.8115-.8584,2.5391-.3477.7295-.9248,1.0938-1.7314,1.0938-.6504,0-1.3906-.2354-2.2197-.7061-.8301-.4717-1.7266-1.0098-2.6904-1.6152-.6349-.3978-1.3026-.756-1.9855-1.0963-.3548-.1768-.7071-.3566-1.0751-.5179-1.0762-.4707-2.1973-.7061-3.3633-.7061-1.1989,0-2.3439.2952-3.4389.8638-.2973.1544-.5928.3189-.8824.5151-1.3564.9199-2.4609,2.1191-3.3125,3.5986-.8525,1.4795-1.2783,3.0723-1.2783,4.7754,0,1.2109.2354,2.1641.7061,2.8594.4707.6943,1.1104,1.042,1.917,1.042.8076,0,1.4629-.252,1.9678-.7568.5039-.5039.7568-1.1377.7568-1.8994,0-.7402-.2246-1.4688-.6729-2.1865-.4492-.7168-.8975-1.3672-1.3457-1.9502s-.6719-1.0537-.6719-1.4131c0-1.0468.9548-1.6649,2.8306-1.8688.4532-.0493.9446-.0814,1.5073-.0814,1.166,0,2.2246.0557,3.1787.168.9521.1123,1.832.2578,2.6396.4375-2.0309,5.6128-4.4702,9.7898-7.3136,12.5466-2.7444,2.6609-5.8652,3.9993-9.3671,3.9993-1.4563,0-2.795-.2563-4.0385-.7196-.0063-.0024-.0126-.0044-.0189-.0068-1.1373.9114-2.4083,1.7249-3.8009,2.4412.0057.0022.012.0034.0178.0055,1.7.6428,3.5936.9701,5.6881.9701,4.4611,0,8.2966-1.4855,11.5192-4.4262,3.2357-2.9525,5.8458-7.3903,7.8328-13.3077.1414-.421.2873-.8311.4224-1.2671,1.2783.291,2.4492.583,3.5146.874,1.0645.292,2.2246.4375,3.4805.4375,2.1299,0,3.8623-.4932,5.1963-1.4795,1.334-.9863,2.001-2.2646,2.001-3.834,0-.8965-.2012-1.6143-.6055-2.1523Z" style="fill:#666766;"/><path d="M54.7158,22.0804s.0003.0004.0005.0005c.0724.0027.1456.0054.2187.0081.0045.0001.0092.0003.0137.0005.4235.0157.8575.0303,1.299.0436.0342.001.068.0021.1023.0032.4404.0131.8882.0245,1.3427.0341.0466.001.0938.0018.1406.0027.1303.0026.2603.0054.3915.0076.0002-.0006.0002-.0012.0004-.0017.1975-.7866.3049-1.5521.3049-2.2928,0-1.2559-.2852-2.2705-.8574-3.0439-.5713-.7734-1.3281-1.1602-2.2695-1.1602-.7627,0-1.4072.2471-1.9346.7402-.5264.4932-.79,1.1318-.79,1.917,0,.8291.2461,1.5586.7402,2.1855.4316.5506.8646,1.0656,1.2972,1.5555Z" style="fill:#666766;"/><path d="M36.3005,47.0933c-.9873-1.9502-1.4805-4.2041-1.4805-6.7598,0-2.1738.3477-4.2881,1.043-6.3389.1464-.4327.3058-.841.4688-1.2423.0029-.0071.0053-.0149.0082-.022-.3734-.3731-.7824-.7167-1.2117-1.0433-.001-.0008-.0022-.0015-.0032-.0023-.368-.2799-.7562-.5427-1.1642-.788-.0009-.0005-.002-.001-.0029-.0016-.1335-.0803-.2738-.1545-.4115-.231-.002.0027-.0037.0059-.0057.0086-.6937.9269-1.3071,1.9573-1.8311,3.1031-1.0869,2.377-1.6309,4.9883-1.6309,7.8359,0,2.8916.583,5.4199,1.748,7.584.7775,1.4423,1.7866,2.6475,2.9877,3.6565.0026.0022.005.0046.0076.0068.0828-.051.1575-.1119.2385-.1652.1456-.0959.2894-.194.4289-.2971.1264-.0934.2512-.1888.3726-.2881.1486-.1218.2911-.2507.4321-.3815.0977-.0906.1995-.1763.2935-.2713.2123-.2146.4133-.4424.6061-.6793.0874-.1072.1686-.2213.252-.3331.1208-.1625.2383-.3288.3505-.5009.069-.1059.1394-.2102.2051-.3198-.0008-.0009-.0015-.002-.0023-.0029-.6526-.7441-1.2216-1.5829-1.6986-2.5266Z" style="fill:#666766;"/><path d="M47.7832,35.5718c.3237-.2579.6632-.5074.9772-.7704,2.7559-2.3077,4.9709-4.6397,6.6564-6.9941.0004-.0005.0006-.0009.0009-.0013-.0018-.0098-.0039-.0189-.0057-.0286-.0049-.0256-.0101-.0503-.0151-.0754-.0279-.1385-.0588-.2693-.093-.392-.0049-.0178-.0096-.0367-.0147-.0542-.0812-.2775-.1808-.5153-.3049-.7209-.007-.0115-.0148-.0223-.022-.0336h0c-.3124.6229-.7278,1.2807-1.2585,1.9778-1.2891,1.6924-3.0264,3.4473-5.2129,5.2627-.3424.2846-.7029.5638-1.0583.8445-1.913,1.5109-4.0023,2.9692-6.2894,4.3684,2.1299-1.8154,3.6709-3.4014,4.624-4.7588.3209-.4567.5676-.9055.7804-1.3507.4194-.8771.6493-1.7343.6493-2.5673,0-1.3447-.46-2.4102-1.3789-3.1943-.9199-.7852-2.1758-1.1777-3.7666-1.1777-1.2422,0-2.4235.2422-3.5482.71-.0112.0046-.0225.0091-.0336.0138.5841.2191,1.1485.4623,1.6985.7263.0117-.007.0234-.0122.035-.019.5113-.3,1.0262-.4554,1.5455-.4554,1.1611,0,1.8185.8987,1.9772,2.6873.0251.283.0403.5836.0403.9113,0,1.3906-.2803,2.7695-.8408,4.1367-.5605,1.3672-1.29,2.5889-2.1855,3.665-.3643.4368-.7402.8199-1.1227,1.1719-.5601.5152-1.1373.9507-1.7366,1.2832l.4043.9756c.5101-.2667.9915-.5487,1.4865-.8235,2.9374-1.6305,5.6086-3.4026,8.0118-5.3172Z" style="fill:#666766;"/><path d="M41.1432,38.9547c2.287-1.3992,4.3763-2.8575,6.2894-4.3684-.2495-.6146-.5515-1.1901-.8849-1.7411-.2128.4452-.4595.894-.7804,1.3507-.9531,1.3574-2.4941,2.9434-4.624,4.7588Z" style="fill:#f4d352;"/><path d="M48.4219,39.9161c0-1.5881-.228-3.031-.6387-4.3444-2.4033,1.9146-5.0744,3.6867-8.0118,5.3172.0215.3508.0486.698.0486,1.0626,0,2.6626-.4542,4.8887-1.2978,6.6967h0c-.0469.1005-.1011.1928-.1503.2906-.1098.2181-.2236.4319-.3452.6372-.0089.015-.0163.0317-.0253.0467-.0657.1096-.136.2139-.2051.3198-.1122.1721-.2296.3386-.3505.5009-.0833.1119-.1646.2258-.252.3331-.1929.2368-.3937.4648-.6061.6793-.0939.095-.1958.1807-.2935.2713-.1411.1307-.2834.2598-.4321.3815-.1214.0995-.2462.1947-.3726.2881-.1396.1031-.2833.2013-.4289.2971-.0809.0533-.1557.1142-.2385.1652-.0515.0317-.1061.0594-.1583.0903-.2506.1483-.5082.2877-.7748.416-.0018.0009-.0034.0018-.0052.0027-1.6509.7937-3.6065,1.2002-5.8051,1.2428-.127.0024-.2482.0133-.3768.0133-2.1272,0-5.5501-.278-7.1226-1.2957-1.1095-.6465-1.9423-2.3121-2.1272-3.5147-.278-3.7928-.278-15.0767-.278-20.9048,0-.1849.278-.3698.463-.3698.6478-.1849,3.0531-.1849,4.4393-.1849,1.7974,0,3.462.1525,5.0024.4327,1.6995.3091,3.2363.7849,4.5952,1.4242.3013.1417.5887.2955.8724.4531.1377.0765.278.1507.4115.231.001.0006.0019.001.0029.0016.4081.2454.7961.5081,1.1642.788.001.0008.0022.0015.0032.0023.4293.3267.8384.6702,1.2117,1.0433.2683.2681.5142.5543.7529.8461,1.3148,1.6073,2.1688,3.5751,2.5243,5.8772.3826-.352.7585-.7351,1.1227-1.1719.8955-1.0762,1.625-2.2979,2.1855-3.665.5605-1.3672.8408-2.7461.8408-4.1367,0-.3278-.0153-.6284-.0403-.9113-.7778-.6503-1.6545-1.2018-2.5712-1.7079l.0141-.022c-.14-.0775-.2906-.1418-.4374-.2111-.1794-.0931-.3446-.2026-.5282-.2908-.0117.0068-.0234.0121-.035.019-.55-.264-1.1144-.5073-1.6985-.7263.0112-.0047.0224-.0092.0336-.0138-.3934-.1478-.798-.2791-1.2037-.4084-.0456-.0148-.0881-.0342-.1342-.0484-.001.0005-.0021.0013-.0031.0018-.5833-.1823-1.1757-.3497-1.783-.4899-.1849-.0918-.1849-.2767,0-.3699,5.2894-2.1876,8.8635-6.4462,8.9636-11.6189.0015-.0742.0095-.1465.0095-.221C44.3524,2.5471,34.3616.5117,28.0718.5117c-6.0118,0-9.5278.1849-14.8917.1849S4.67.4186,2.5428.4186c-.3712.1862-.463,2.3134-.0931,2.5901,1.7574.1849,4.0695.463,5.3652.8328,1.5724.463,2.4052,1.2957,2.4971,3.8846.1849,3.4229.0931,9.436.0931,20.9979,0,9.8976,0,18.0379-.1849,20.9979-.278,3.3298-.9258,4.1626-2.96,4.7173-1.5724.3698-4.2557.5547-5.92.7396-.463.2781-.3712,2.4053.0918,2.682,6.1049-.1849,16.9271.278,21.0897.278,1.8345,0,3.7078-.0651,5.5571-.2431,3.0927-.2977,6.118-.9118,8.7812-2.069.1553-.0674.2981-.1451.4502-.2152.0023.001.0044.0023.0067.0033.129-.0587.2494-.1245.3752-.1859.274-.1317.5565-.2563.8236-.3937-.0057-.0021-.012-.0033-.0178-.0055,1.3926-.7164,2.6636-1.5298,3.8009-2.4412.0062.0024.0126.0044.0189.0068.1399-.1121.2623-.2365.3981-.3516.1545-.1257.3135-.2481.4594-.38l-.0127-.0146c3.3013-2.9863,5.2595-6.9183,5.2595-11.933ZM18.4522,5.5071c0-.463.3698-1.2958.7397-1.4807.9246-.1849,2.2203-.2767,3.238-.2767,8.0935,0,12.9592,3.1485,13.6784,9.9324.0616.5812.1038,1.1794.1038,1.8144,0,3.6078-1.3875,6.8445-4.3475,8.6019-.7395.4318-1.8135.7804-3.7858.9656-.987.0927-2.195.1451-3.7066.1451-2.5901,0-4.7173-.0931-5.735-.1849-.1849,0-.463-.2781-.463-.463,0-6.5679.1849-16.3724.278-19.0543Z" style="fill:#f4d352;"/><path d="M63.6365,27.6573c0-.4553.4553-1.5463,1.0923-1.7281,1.1826-.0916,12.1884-.0916,13.9166,0,.5957.054,1.0851.1459,1.5252.2608,1.7778.4642,2.4393,1.4453,3.0234,3.1954.3636,1.3644.7274,2.9108,1.0007,5.5481.2722.2734,2.4555.2734,2.8192-.1819.2734-3.6381.9092-9.7316,1.6378-12.4605,0-.0916-.2734-.365-.365-.4553-1.5641.2239-5.0181.3249-8.1161.3541-.6851.0065-1.3533.0095-1.9792.0095h-17.9196c-.3503,0-.6984-.002-1.0447-.0052-.3368-.0031-.6708-.0077-1.0024-.0134-.1313-.0023-.2612-.005-.3915-.0076-.0469-.0009-.0938-.0018-.1406-.0027-.4545-.0096-.9022-.021-1.3427-.0341-.0344-.001-.068-.0021-.1023-.0032-.4414-.0134-.8754-.028-1.299-.0436-.0046-.0001-.0092-.0004-.0137-.0005-.0731-.0027-.1462-.0054-.2187-.0081-.3686-.014-.7269-.0286-1.0788-.0434-2.312-.097-4.2437-.2017-5.4639-.2017-.3636.4553-.5455,2.1833-.0903,2.5471,2.0918.2721,3.6381.5455,4.8207.9092.5288.1321.949.2813,1.2877.4765.1108.0639.2127.1334.3065.2084.0047.0037.0089.0081.0135.0118.0835.068.1599.1421.2309.2208.0134.0148.0262.0301.0392.0453.0649.0764.1251.1582.1802.2457.0001.0002.0002.0003.0003.0005h0c.0071.0113.015.022.022.0336.124.2053.2238.4437.3049.7209.0051.0175.0098.0364.0147.0542.0342.1226.0651.2534.093.392.0051.025.0103.0499.0151.0754.0018.0098.0039.0188.0057.0286.0593.3201.1055.6824.1424,1.0951.0281.3144.0519.6542.0728,1.03.0303.549.0502,1.835.0636,3.5984,1.095-.5685,2.24-.8638,3.4389-.8638,1.166,0,2.2871.2354,3.3633.7061.368.1613.7203.3411,1.0751.5179.0134-2.3554.0331-4.5636.0627-6.2322Z" style="fill:#f4d352;"/><path d="M63.0368,36.7691c-.8076-.1797-1.6875-.3252-2.6396-.4375-.9541-.1123-2.0127-.168-3.1787-.168-.5627,0-1.0541.0322-1.5073.0814.012,3.2961.0121,7.4694.0121,11.6958v1.3749c2.8434-2.7568,5.2827-6.9338,7.3136-12.5466Z" style="fill:#f4d352;"/><path d="M90.5617,63.5869c-1.1826,2.7289-3.0926,6.3669-4.5486,8.0048-1.6365,2.0918-2.8192,2.9107-6.7307,3.001-3.7297,0-11.6429-.0903-13.4626-.5455-1.0911-.3636-2.0919-1.6378-2.0919-3.4562-.1213-2.9119-.1615-8.1646-.1749-12.5854-.0067-2.2087-.0069-4.2133-.0069-5.6075,0-.2722.2734-.7274.4553-.7274,3.3647-.0903,10.9142-.0903,13.6431.1818,1.3295.1155,2.0687.6361,2.526,1.3261.2627.3964.4339.8477.5666,1.3125.3637,1.0911.4553,1.8184.7286,3.7284.454.4552,2.6373.3649,3.0926-.0903-.0916-2.2737-.1818-4.9123-.1818-8.277,0-3.1841.3636-6.7319.6357-8.5504-.3636-.4553-2.4554-.5468-3.001-.2734-.2734,1.3644-.6371,2.6373-1.0007,3.6381-.2048.6551-.4541,1.2295-.84,1.6873-.4717.5596-1.1516.9416-2.2526,1.0416-3.2744.2734-10.2785.2734-13.9166.1819-.2734,0-.4553-.3637-.4553-.6358,0-1.9351.0001-5.2142.0096-8.6699-1.9871,5.9174-4.5972,10.3552-7.8328,13.3077-.0003,2.2333-.0011,4.3991-.0034,6.4262-.0069,6.0517-.0271,10.8077-.0867,11.9484-.2734,3.1841-.9105,4.3655-3.0925,4.9123-1.6379.4539-4.0933.6358-6.9138.9092-.3636.4553-.2721,2.3652.0916,2.6373,3.7297,0,8.277-.2721,14.3718-.2721,9.4595,0,16.0084.3636,23.6495.3636,4.5472,0,5.0941-.4553,5.6396-1.456,1.3644-2.7289,3.3647-9.6414,3.8199-12.4606-.3637-.4552-2.1833-1.0923-2.6373-1.0007Z" style="fill:#f4d352;"/><polygon points="85.7377 19.2386 86.5862 19.2386 86.5862 3.2866 85.7377 3.2866 85.7377 3.2911 44.6981 3.2911 44.6981 4.2141 85.7377 4.2141 85.7377 19.2386" style="fill:#f4d352;"/><polygon points="88.417 16.4517 89.8027 16.4517 89.8027 0 45.5762 .0044 45.5762 1.4272 88.417 1.4272 88.417 16.4517" style="fill:#f4d352;"/><polygon points="4.6487 59.377 3.8523 59.377 3.8523 75.329 4.6487 75.329 4.6487 75.3245 43.1669 75.3245 43.1669 74.4015 4.6487 74.4015 4.6487 59.377" style="fill:#f4d352;"/><polygon points="2.1416 62.1719 .8252 62.1719 .8252 78.6079 1.8994 78.6079 42.3506 78.6035 42.3506 77.1963 2.1416 77.1963 2.1416 62.1719" style="fill:#f4d352;"/><rect x="3.2788" y="9.7611" width=".923" height="38.1541" style="fill:#f4d352;"/><rect y="9.2729" width="1.4072" height="39.1304" style="fill:#f4d352;"/></g></g></svg>