<?xml version="1.0" encoding="UTF-8"?>
<svg id="Layer_1" xmlns="http://www.w3.org/2000/svg" xmlns:xlink="http://www.w3.org/1999/xlink" version="1.1" viewBox="0 0 284 90">
  <!-- Generator: Adobe Illustrator 29.6.0, SVG Export Plug-In . SVG Version: 2.1.1 Build 207)  -->
  <defs>
    <style>
      .st0 {
        fill: none;
      }

      .st1 {
        fill: #060701;
      }

      .st2 {
        fill: #f9e415;
      }

      .st3 {
        fill: #fbe513;
      }

      .st4 {
        fill: #686b6c;
      }

      .st5 {
        fill: #d6d5d6;
      }

      .st6 {
        fill: #171803;
      }

      .st7 {
        fill: #efd905;
      }

      .st8 {
        fill: #685f09;
      }

      .st9 {
        clip-path: url(#clippath);
      }

      .st10 {
        fill: #060601;
      }
    </style>
    <clipPath id="clippath">
      <rect class="st0" width="284" height="90"/>
    </clipPath>
  </defs>
  <g class="st9">
    <g>
      <path class="st1" d="M11.5,42.4c0-.1-.1-.3-.2-.3-1.5,0-3.1-.3-4.6.3-1.8.6-3.6,1.4-5.9.9.3-.3.4-.6.6-.7,2.2-.6,4.3-1.3,6.5-1.8.9-.2,1.9,0,2.9,0,.3,0,.8-.3.8-.6.1-1.4.2-2.8.3-4.3,0-.6-.2-1-.8-1.2-2.4-.7-4.7-1.5-7.1-2.1-.8-.2-1.6-.2-2.4-.3-.2,0-.4-.4-.6-.6.3-.2.5-.5.8-.5,3.2.2,6.2,1,9.1,2.3,1.2.5,1.5.3,2.1-.8.1-.2.1-.5.3-.6.7-.9.2-1.4-.5-1.9-.5-.3-.9-.6-1.4-.9,0-.1.1-.3.2-.4.6.2,1.3.3,1.8.5.7.3,1.2.7,1.8-.2.8-1.2.7-1.3-.1-2.1-1.6-1.7-3-3.5-4.5-5.3-.6-.7-1.1-1.5-1.7-2.3.9-.3,1.4,0,1.9.7,1.5,2,3.1,3.9,4.8,5.7,1.1,1.2,2.4.7,2.7-.8,0-.3,0-.7-.2-.9-.5-.9-1.2-1.7-1.7-2.6,0-.2,0-.5,0-.7.3,0,.6,0,.8.2.3.3.4.8.7,1.2.3.4.7.6,1,1,.3-.3.7-.6.8-1,.5-1.4.7-2.8-.3-4.3-1-1.4-1.6-3-2.5-4.4-.3-.6-1-.9-1.5-1.4-.3-.2-.5-.5-.9-.9,1.1-.4,1.8,0,2.3.6,1.4,1.3,2.3,2.9,3.1,4.6.2.4.3.8.5,1.2.2.5.3,1.2,1.1.7.6-.4,1-.9.7-1.7-.4-1-.7-2-1-3,0-.3.1-.9.4-1,.5-.2.7.2.8.7.1.8.4,1.7.7,2.6,1.9-1.3,2-1.8,1.5-3.6-.7-2.6-1.6-5.1-3.1-7.4-.4-.6-.8-1.2-1.2-1.8,1.1-.5,1.5.2,1.9.8,1.7,2.6,2.9,5.4,3.7,8.4.4,1.3.6,1.4,1.7.6,0,0,0,0,.2-.1.5-.3,1.4-.5,1.4-.8,0-.7-.3-1.4-.5-2.1,0-.4-.1-.7,0-1.1,0,0,.6-.3.7-.2.3.3.4.6.6,1,.1.3.2.6.2.9,0,1,.5,1.4,1.5,1.3,1.3,0,1.5-.2,1.3-1.5-.3-2.2-.7-4.4-1.2-6.6-.3-1-1.1-1.8-1.6-2.7-.2-.3-.4-.7-.7-1.1,1-.4,1.4.1,1.8.6,1.3,1.7,2.1,3.6,2.4,5.7.2,1.5.4,3,.6,4.5,0,.2.1.3.2.5.9,0,1.3-.5,1.2-1.4,0-.4,0-.8,0-1.2.1-.3.4-.6.7-.9.1,0,.2.1.3.2,0,.7,0,1.3,0,2,0,.3.2.8.4.9.9.3,1.9.4,2.8.5.2,0,.6-.4.6-.7,0-2.2.1-4.5-.5-6.7-.3-1-.2-2.2-.3-3.2,0-.7.3-.9,1-.8.2,3.8,1.5,7.4.9,11.5.7.2,1.5.4,2.2.6.5-1.9-.8-4.3,1.8-5.5-.1.4-.3.8-.3,1.3-.1,1-.3,2-.3,3,0,1.1,1.1,1,1.9,1.2.6.2,1.4.2,2,.5.6.3.9,0,1-.5.4-1.7.7-3.4,1.1-5.1.3-1.4.5-2.8.9-4.2,0-.3.5-.4.7-.6.1,0,.2.1.3.2-.3,1.6-.5,3.1-.8,4.7-.3,1.8-.7,3.5-1.1,5.3-.1.6,0,1.1.7,1.2.5.1,1,.5,1.6.8.1-.6.3-1.1.3-1.6,0-.9.6-1.4,1.3-1.7.2,0,.6.2.9.2-.1.2-.2.5-.4.6-.7.5-1.3,2.2-.9,2.9.3.7.9,1.2,1.8,1.2.2,0,.5-.2.6-.3,1.3-3.2,3.9-5.5,5.8-8.3.3-.5.6-1.1,1-1.6.2-.3.6-.4.9-.5,0,0,.2.1.2.2-.2.4-.2.8-.5,1.2-1.7,2.3-3.4,4.6-5.1,7-.6.8-1,1.8-1.5,2.7,0,.1-.2.3-.1.5.2.8,2.1,1.5,2.8,1.1.3-.2.7-.4,1.1-.4.3,0,.5.2.8.3-.2.2-.3.4-.5.5-.1.1-.4.2-.5.3-.4.2-.9.5-.5,1,.4.5,1,.7,1.4.1.9-1.1,1.7-2.3,2.5-3.5,1.5-2.3,2.8-4.7,4.3-7,.5-.7,1.2-1.4,1.8-1.9.4-.3.9-.6,1.5.2-.7.6-1.6,1.2-2.2,2-1.5,2.1-2.8,4.4-4.2,6.6-.9,1.5-1.9,3-2.8,4.5,1.1,1.3,2.3,1.2,3.3-.1.3-.4,1-.5,1.5-.7,0,.1.2.2.2.3-.3.3-.6.7-1,1-.4.4-.4.7,0,1.1.3.2.6.5.9.7.5.3.9.3,1.3-.2,1.6-1.9,3.3-3.7,4.8-5.6.5-.7.9-1.5,1.4-2.3.2-.3.6-.7.9-.6.7.1.3.8.2,1-1,1.5-2,2.9-3.1,4.3-1,1.3-2.2,2.5-3.3,3.7-.5.5-.5,1,0,1.5.7.6,1.3,1.4,2,1.9.2.2.7,0,1,0,.4,0,.7-.3,1.2-.2-.2.3-.4.6-.5,1-.1.3-.2.7-.3,1,.4-.1.9-.2,1.1-.5.8-.8,1.6-1.6,2.3-2.5,2.5-2.6,4.9-5.2,7.4-7.7.3-.3.7-.4,1.1-.6.1.1.2.2.3.4-.5.7-1,1.5-1.5,2.1-2.4,2.5-4.8,4.8-7.1,7.3-.7.7-1.4,1.4-2,2.2-.2.2,0,.7,0,1,.3,0,.7.2,1,0,.4-.2.7-.7,1.1-1,.3-.3.8-.4,1.2-.6,0,.1.2.2.3.4-.5.6-1.1,1.1-1.6,1.8-.3.4-.7,1-.5,1.4.3.7,1,.7,1.7.4,2.9-1.3,5.9-2.5,8.8-3.8.7-.3,1.3-.9,2-1.2.5-.2,1-.3,1.5-.5,0,.1.1.2.2.3-.4.4-.7.9-1.2,1.1-2.7,1.4-5.5,2.7-8.3,4-1.1.5-2.2.8-3.3,1.3-.4.2-.8.9-.8,1.4-.1,1.4,0,2.9,0,4.4,1.3-.2,2.5-.3,3.8-.5,0,.2.1.3.2.5-.8.3-1.6.8-2.5,1-2,.5-2.6,1.4-2.4,3.7,4.8-1.5,9.2-4.3,14.4-4.3,0,.1.1.2.2.4-.4.2-.7.6-1.1.7-4.4.7-8.4,2.5-12.5,4.1-1,.4-1.5,1.1-1.3,2.3,1.2,0,2.3-.2,3.5-.2.1,1-.7.9-1.1,1-.5.2-1,.1-1.6.2-1.3.3-1.8.9-1.9,2.3,0,.6.3,1,.8,1,2.5,0,5.1.2,7.6,0,1.7,0,3.4-.4,5.2-.7,0,1-.7,1.1-1.3,1.2-3,.8-6.2.9-9.3.8-.8,0-1.6-.2-2.4-.3-.8-.2-1.2.2-1.3.9-.2,1.4,0,1.7,1.5,2.1.8.2,1.6.6,1.5,1.9-.5-.2-.8-.3-1.2-.4-.5-.2-1-.4-1.5-.5-.5-.1-.9.1-.9.6,0,.3.3.8.5.9,3.1,1.2,6.3,2.3,9.4,3.4.6.2,1.2.7,1.8,1,0,.1,0,.3,0,.4-.4,0-.8.2-1.1,0-3-1.1-6-2.2-9-3.3-.5-.2-1-.5-1.5-.6-.3,0-.7.2-1,.3.1.4.2.8.4,1.1.8,1,1.7,2.1,2.6,3.1-.8.5-1.2.4-1.6-.3-.3-.5-.7-1.1-1.2-1.6-.6-.7-.9-.6-1.3.2-.2.5-.4.9-.5,1.4,0,.4,0,.9.3,1.1,2.4,2,4.4,4.5,7.2,6,.1,0,.2.2.3.3-.5.6-1.2.4-1.6,0-1.1-.8-2.2-1.6-3.3-2.5-1-.8-1.9-1.7-2.8-2.5-.7-.6-1.3-.6-1.8.2-.3.5-.6,1-.7,1.6-.1.7,0,1.3.7,1.7.3.1.6.3.9.5,0,.1-.1.3-.2.4-.4,0-.9.1-1.2,0-1.5-.8-2.9-.5-3.9,1-.1.2-.3.4-.4.7,2.3,4.7,6.1,8.6,7.8,13.6-.1.1-.2.2-.3.3-.3-.2-.7-.4-.9-.7-2.1-3.5-4.3-7-6.4-10.5,0,0-.1,0-.1-.1-1.2-1.9-1.5-1.9-3.4-.7-.2.1-.4.3-.6.4.4,1.7.7,3.4,1.1,5.1,0,0-.1.2-.2.2-.3-.3-.8-.5-.9-.8-.3-1-.6-2.1-.8-3.2-.2-1.1-.9-1.5-1.9-.9-.4.2-.5.4-.4,1,1,4,1.9,8,2.9,12,.2.7.5,1.4.7,2.1-.9.2-1.2,0-1.4-.8-.7-2.7-1.5-5.3-2.2-7.9-.5-1.8-.9-3.6-1.3-5.5-1.1.2-2.1.4-3.1.5,0,.8,0,1.6,0,2.4,0,.3-.5.6-.7,1-.1-.3-.4-.6-.4-1,0-.8.1-1.7.2-2.5,0-.9-.6-1.1-1.2-1.3-.4-.1-.9,0-1.4,0,0,4.6,1.1,9,2.2,13.3-.1,0-.3.1-.4.2-.2-.3-.6-.5-.7-.8-.5-1.8-1.1-3.5-1.5-5.3-.3-1.7-.4-3.4-.6-5.1,0-.8,0-1.5-.2-2.2,0-.3-.5-.7-.8-.7-2.4,0-2-.2-1.9,1.7,0,.6.2,1.3.3,1.9,0,.5.1,1,.2,1.5-.9-.2-1.4-.8-1.5-2,0-1,0-2-.1-2.9-.5-.1-.9-.2-1.3-.3-.3,0-.7-.1-1.1-.2.3,5.3.6,10.6.9,15.9-.8.2-1.2,0-1.2-.7-.1-3-.2-6.1-.4-9.1,0-1.7-.2-3.3-.4-5,0-.9-.5-1.3-1.5-1.4-1.2,0-1.7.3-1.9,1.4-.2.8-.7,1.5-1.1,2.2-.4.6-.9.8-1.8.4.3-.3.5-.6.7-.9.5-.9,1-1.8,1.3-2.8,0-.2-.5-.8-.8-.9-.9-.2-1.8-.2-2.8-.3-.2,2.1-.4,4.2-.6,6.2-.3,2.5-.5,5.1-.9,7.6,0,.4-.4.8-.6,1.3-1-1-.3-1.9-.3-2.8,0-1.2.4-2.3.5-3.5.3-2.8.5-5.6.6-8.5,0-.3-.2-.7-.5-.9-.4-.3-.9-.4-.9.5s0,1.4-.2,2c0,.2-.3.4-.4.7-.2-.2-.5-.4-.5-.6,0-1,.1-2,.2-3.1-.3,0-.6,0-1,0-.4,3.5-2.1,6.6-3.2,9.8-.3.8-.4,1.6-.5,2.5-.1,1-.5,1.3-1.4.9.4-3.2,1.8-6,2.9-9,.4-1,.6-2,.9-3,0-.4.2-.9.3-1.3-.1,0-.2-.1-.3-.2-.3.5-.6,1-.9,1.4h-1.3c.5-.9,1-1.7,1.5-2.4-1.1-1.2-3.2-1-3.8.5-1,2.3-1.9,4.6-2.8,6.9-.2.6-.3,1.4-1.5,1.4,0-.5,0-.9.2-1.3,1.1-2.7,2.3-5.4,3.4-8.1.4-1-.6-2.9-1.6-3.1-.2,0-.4,0-.5.2-.5.7-.9,1.5-1.4,2.2-.1.2-.4.5-.6.6-.2,0-.5,0-.7,0,0-.2,0-.5,0-.6.5-.8,1-1.6,1.4-2.3.3-.5.7-1.1.1-1.6-.6-.5-1.3-.4-1.7.2-1.2,1.4-2.3,2.8-3.5,4.1-1.2,1.4-2.6,2.7-3.9,4-.2.2-.5.4-.9.4-.2,0-.6-.1-.6-.3,0-.2,0-.6.3-.7,2.5-1.2,3.7-3.6,5.3-5.6.9-1,1.7-2.1,2.7-3,.7-.6.9-1,.5-1.7-.4-.8-1.3-1-2.1-.6-.6.3-1.2.8-1.8,1.2-.2.1-.5,0-.8,0,0-.3,0-.7.2-.8.6-.5,1.3-1.1,2-1.4.8-.4.8-.9.7-1.5-.4-2.1-.9-2.3-2.8-1.3-2.9,1.5-5.8,3.2-8.8,4.7-.5.3-1.2.3-1.9.5.2-1,7.7-5.2,12.4-7.1-.2-.7-.3-1.5-.7-2.2-.1-.3-.7-.4-1-.4-.9,0-1.7,0-2.8-.2.2-.2.4-.5.6-.6.3-.1.6-.2.9-.2,1.4-.2,1.5-.4,1.5-1.8,0-1-.4-1.3-1.3-.8-2.5,1.3-4.9,2.7-7.5,4-.9.5-1.7,1.5-3.2,1.1.3-.3.4-.6.6-.7,3.4-1.9,6.9-3.7,10.3-5.6.2-.1.5-.4.5-.6,0-.6,0-1.2.1-1.7,0,0,0-.2,0-.3,0-.5,0-.9,0-1.3v-1c0-.5,0-.9,0-1.3,0,0,0-.2,0-.3h0ZM75.7,36.9c0-.2,0-.5,0-.7.2-2-.3-3.8-1.9-5.2-.9-.8-1.5-1.8-2.3-2.7-1.4-1.5-2.6-3.2-4.4-4.3-1.1-.6-2.2-.8-3.3-1.3-1.8-.8-3.7-1.4-5.1-3-1.3-1.6-3.3-2.3-5.1-3.3-.5-.3-.8-.7-1.3-.9-1.4-.6-2.8-1.1-4.2-1.7-1.4-.5-2.8-1-4.3-.6-.3,0-.6,0-.9,0-2-.4-3.9-.8-5.9-1.1-.5,0-1.1,0-1.6.2-.4,0-.8.3-1.2.4-2.1.5-4.3.7-6.4,1.6-2.1.9-3.6,2.2-4.6,4.2-.2.4-.6.8-1,.9-.6.3-1,.6-1,1.3,0,1.5-.9,2.7-1.3,4-.8,2.3-3,3.3-4,5.4,0,0,0,0,0,0-1.5,1.3-1.6,3.4-2.8,4.9,0,0,0,.2,0,.3,0,2.5-.2,5-.2,7.6,0,3.1.3,6.1.4,9.2,0,.3,0,.6.2.7,1.3,1.4,1.1,3.3,1.8,4.9.5,1.2.3,2.7,1.7,3.5.3.2.5.6.6.9.6,1.7,2,2.8,3.4,3.8.4.3.8.7,1.2,1.1.6.6,1,1.2,2,1.3.8,0,1.7.5,2.5.8,2,1,4,2,6.3,2.3.8,0,1.6.1,2.3.3,1.7.5,3.5.8,5.3.7.3,0,.7,0,1,.1,1.1,0,2.1.2,3.2.2.5,0,.9-.2,1.4-.2,1,.1,1.9.5,2.9.6,1.4,0,2.5.3,3.6,1.1.3.2.8.4,1.2.3,1-.3,2-.7,3-1,.7-.2,1.3-.4,2-.5,1.8-.3,3.3-1.1,4.7-2.2.9-.7,1.7-1.4,2.6-2,.5-.3.9-.6,1-1.3.2-1.2.8-2.2,1.8-2.9.4-.3.5-.9.7-1.3.3-.7.5-1.5.9-2.3.7-1.7,1.7-3.3,2.1-5.1.3-1.3.2-2.7.7-4.1.4-1.2.6-2.5.8-3.8.1-.6.3-1.2.4-1.8.1-1,0-2,.3-3,.6-2.1,1.5-4.1,1.1-6.4h0Z"/>
      <path class="st1" d="M138.1,56.7c.8.8,1.7,1.5,2.3,2.4,1.5,2.2.3,5.4-2,6.7-1.9,1.1-3.9,1.3-6,.9-.7-.1-1.5.3-2.4.5,0-.6-.2-1.3-.2-2,0-2.8,0-5.5.2-8.3.1-1.7.5-3.4.8-5.1,0-.2.3-.6.5-.6.3,0,.7.3.8.5.2.5.4,1.1.3,1.6-.5,3.5-.9,7-.7,10.5,0,.9.7.9,1.3,1,2.1.4,4.4.1,5.5-1.5.8-1.1.8-2.2.3-3.4-.5-1.1-1.4-1.4-2.5-1.6-.9-.1-1.7-.3-2.5-.6-.2,0-.4-.4-.4-.6,0-.1.4-.3.6-.4.3-.1.7-.2,1-.3,2.1-.7,2.8-1.8,2.1-3.8-.2-.6-.8-1.1-1.4-1.4-1.8-.9-3.7-.8-5.5-.1-.6.2-1.3.5-1.9.6-.3,0-.7-.2-1.1-.3.1-.3.1-.8.3-.9,1.1-.6,2.3-1.3,3.5-1.5,1.6-.2,3.2-.1,4.8.2,2.7.5,4.1,2.9,3.4,5.5-.2.7-.6,1.3-.8,1.9h0Z"/>
      <path class="st1" d="M273.4,27.5v2.1c.7-.2,1.3-.4,2-.4.5,0,1.1,0,1.4.3.6.5,1,.4,1.4-.1.8-.9,1.7-1.2,2.9-1.2,1.6,0,2.5.8,2.7,2.1.3,2.3.2,4.7.2,7.1,0,.7-.1,1.4-.3,2-.1.7-.4,1.2-1.5,1.4v-2.3c0-2.4.9-4.8,0-7.2-.2-.7-.4-1.5-1.4-1.5-1.1,0-1.7.5-1.9,1.3-.3,1.1-.6,2.3-.7,3.4-.1,1.6,0,3.1,0,4.7,0,.3-.3.6-.4,1-.3-.2-.7-.4-.9-.7-.2-.4-.3-.9-.3-1.4,0-1.9,0-3.8,0-5.7,0-.5-.2-1.3-.4-1.4-.7-.1-1.5-.2-2.1.1-1.1.6-1.5,1.8-1.5,2.9,0,2.3,0,4.6,0,6.9h-1.6c-.3-2.8-.5-5.6,0-8.3.2-1.4.4-2.7.6-4.1.1-1.1.7-1.4,1.8-1.1h0Z"/>
      <path class="st1" d="M170.1,54.7c1.7-.1,1.7,0,1.8,1.3,0,1.6.1,3.3.2,4.9,0,.4.2.8.4,1.1.4.5,1.1,1.2,1.5,1.1.7-.2,1.7-.8,1.9-1.4.4-1.3.5-2.7.4-4,0-1.4-.5-2.8-.7-4.2,0-.3.4-.8.6-1.1.3.2.9.3,1,.6.4,1,.8,2,.9,3,.2,2.6.5,5.3-1.2,7.6-.9,1.2-3.5,2.1-4.8.4-.2-.3-.4-.6-.7-.7-.3-.1-.8-.1-1,0-1,1.2-2.7,1.3-3.9.2-1.4-1.3-1.9-2.9-2.2-4.7-.4-2.3-.2-4.5.5-6.7h1.6c-.1,1.3-.3,2.6-.4,3.9-.1,1.9,0,3.8,1.2,5.4.3.4.9.9,1.1.8.7-.3,1.6-.8,1.7-1.4.3-1.1.2-2.3.2-3.5,0-.9,0-1.8-.1-2.7h0Z"/>
      <path class="st1" d="M204.2,35.2c-.2-2.2,0-4.3.5-6.5.2-.9.3-1.8.5-2.7.4-1.4,1.4-1.8,2.5-.8,1.8,1.5,3.1,3.4,4.2,5.5.4.7.7,1.4,1.2,2.3.3-.7.5-1.2.7-1.7,1.4-2.2,2.7-4.4,4.2-6.5.3-.4,1-.6,1.6-.6.3,0,.7.7.8,1.1.3,1.6.4,3.2.6,4.9-.2.3-.5.6-.7.9-.3.4-.5.7-.8,1.1-.2-1.5-.3-2.9-.5-4.4,0-.2-.2-.4-.3-.7-1.6,1.5-2.5,3.3-3.2,5.1-.5,1.2-.9,2.4-1.5,3.6-.2.4-.7.7-1,1.1-.3-.4-.8-.7-1-1.2-.7-1.5-1.2-3.1-2-4.6-.6-1.2-1.5-2.2-2.3-3.3-.1-.2-.4-.3-.8-.6-.2,1.3-.5,2.4-.7,3.5-.2.9-.3,1.8-.5,2.7-.3.3-.7.6-1,1-.2.3-.4.5-.6.8h0Z"/>
      <path class="st1" d="M106.3,42.8c-3.5-.3-6.3-2.4-7.2-5.8-.8-3.1-.4-5.9,1.2-8.6,1.6-2.8,5.8-4.1,8.7-3.1,1,.3,2,.9,2.9,1.5.3.2.3.9.4,1.4-.5,0-1.1.2-1.5,0-1.5-.7-2.9-1.5-4.6-1.4-2,0-3.5,1-4.5,2.7-1.5,2.4-1.4,5.1-.7,7.7.5,1.8,1.8,2.9,3.7,3.3,2.8.6,5.2.2,7.1-2.1.2-.2.7-.2,1.1-.3.1.4.4.8.3,1.1-.3,1.4-1.5,2-2.7,2.4-1.4.5-2.9.8-4.3,1.2h0Z"/>
      <path class="st1" d="M117.1,25.1c1-.2,1.5.2,1.4,1.1-.1.8-.3,1.6-.5,2.6.2,0,.5,0,.7,0,1.2-.8,2.5-.5,3.8-.5,1.2,0,2.4,1.4,2.6,2.7.6,2.8.7,5.7-.2,8.6-.1.4-.7,1-1.1,1-.7.2-1-.5-.7-1.4.8-2.4.9-4.9.3-7.4-.5-2.2-2.6-2.7-4.4-1.3-.8.6-1.1,1.3-1.1,2.3,0,2.4,0,4.9,0,7.3,0,.6,0,1.2-.7,1.1-.4,0-.8-.8-.9-1.2-.1-1.8-.2-3.5-.2-5.3s0-3.7.1-5.5c.1-1.4.5-2.7.8-4.1Z"/>
      <path class="st1" d="M111.4,58.2c.2,1.5-.2,2.8-1.2,4-1.5,1.8-4.2,2.5-6.5,1.7-1.5-.5-3-2.1-3-4.7,0-1.4,0-2.8.6-4.2,1-2.5,5.1-3.4,7.1-2.4,2.4,1.2,3.3,3,3,5.6h0ZM105.6,62.6c0,0,0,.2.1.3.9-.4,1.9-.8,2.7-1.4,1.5-1.2,1.6-3,1.2-4.7-.4-1.7-1.5-3-3.8-3-2,0-3.3,1.9-3.2,3.3,0,.8,0,1.7,0,2.5,0,1.6,1.5,3,3.1,3Z"/>
      <path class="st1" d="M260.6,27.6c-.1.8-.3,1.6-.4,2.4-.3,2-.8,4-.3,6,.2.6.4,1.1.7,1.6,1,1.5,2.5,1.2,3.7,0,.5-.6.9-1.5,1-2.3.2-2,.3-4,.4-6,0-.2,0-.4.2-.5.1-.2.3-.4.5-.6.2.2.6.4.7.7.1.8.2,1.7.2,2.5,0,1.5,0,3.1.1,4.6,0,1.4.3,2.7.4,4.1-1.1.3-1.6,0-1.8-1-.1-.7-.5-.6-1-.3-1,.8-2.1,1.4-3.5,1.4-1.3,0-2.2-.6-2.7-1.7-.4-.9-.7-2-.8-3-.1-1.7-.1-3.4,0-5.1,0-.9.3-1.8.7-2.6.2-.4,1-.4,1.6-.6,0,.1.2.2.3.3h0Z"/>
      <path class="st1" d="M234.8,40.1c-1,.2-1.6.1-1.7-1,0-.8-.6-1-1.2-.4-.9.9-1.9,1.5-3.3,1.5-1.7-.1-3.4-1.6-3.5-3.3,0-1.5-.2-3.1-.2-4.7,0-1.3.2-2.7.5-4,.1-.7.7-1.1,1.4-.8.8.3.6.9.4,1.5-.6,2.4-.8,4.9-.3,7.3.4,1.7,1.2,2.3,2.4,2.3,1.2,0,2.6-1.1,2.8-2.5.2-1.5.1-3,.3-4.6,0-.9.2-1.8.4-2.7,0-.2.5-.5.7-.5.2,0,.6.3.7.6,0,.8.2,1.6,0,2.4-.4,1.9,0,3.7.4,5.5.2,1,.2,2.1.3,3.2h0Z"/>
      <path class="st1" d="M120.7,60.3h-4.4c0,2.3,0,4.5-.9,6.7-1.2-.2-1.5-.8-1.4-1.9.2-1.4.3-2.9.5-4.3,0-.6-.2-.9-.7-.9-.2,0-.4,0-.5-.2-.3-.2-.5-.4-.7-.5.2-.2.5-.7.7-.7,1.4-.2,1.2-1.1,1.3-2.1,0-1.2.4-2.3.7-3.4.2-.9,1-1.5,1.8-1.8,1.5-.7,3.1-.6,4.6,0,.8.3,1.3.9,1.1,2.1-1-.2-2-.5-3-.7-1.6-.4-2.9.3-3.2,1.9-.2,1.1-.2,2.4-.2,3.5,0,.3.7.6,1.2.7.7.2,1.4.1,2.2.2.7.1,1.1.6,1,1.5h0Z"/>
      <path class="st1" d="M187,64.1c.3-1.4.7-2.8.8-4.2.2-1.5.4-3-.8-4.3-1.1-1.2-3-1.1-3.9.2-.5.7-.9,1.4-.8,2.3.2,1.8.3,3.5.4,5.3,0,.5-.1,1-.2,1.4-1,.3-1.4,0-1.4-1-.2-2.7-.4-5.4-.6-8.2,0-.9,0-1.8.2-2.8,0-.3.5-.8.6-.7.3.1.8.4.9.7.1.5,0,1,0,1.7.6-.4,1.2-.8,1.7-1.1,1.6-1.2,4,0,4.8,1.4,1,1.8.8,3.7.6,5.6,0,.9-.5,1.8-.7,2.7-.2.9-.6,1.2-1.8.8Z"/>
      <path class="st1" d="M174.3,30c.4-.3.7-.4.8-.6,2.3-2.4,5.6-.8,6.2,2,.5,2.5.3,5.1-.8,7.4-.2.4-.8.5-1.2.8-.1-.1-.3-.2-.4-.3.3-1.3.6-2.6.8-4,.2-1.6.4-3.2-.8-4.7-.9-1.1-3.2-.7-3.9.4-1.1,1.5-.7,3.1-.7,4.8,0,1.4.6,2.9,0,4.3-1,.3-1.3,0-1.3-1-.2-2.8-.4-5.6-.6-8.4,0-.8.2-1.7.2-2.5,0-.5.3-.9.7-.8.3,0,.7.5.8.9.1.4,0,1,0,1.7h0Z"/>
      <path class="st1" d="M205.3,61.3c1.1-.7,1.3-1.7,1.5-2.6.5-1.9.9-3.8,1.4-5.8,0-.2,0-.4.2-.5.3-.3.6-.5.9-.8.2.3.5.6.5.9-.1,1.4-.3,2.9-.6,4.3-.6,2.6-1.6,5-3.1,7.2-.2.3-.7.8-.8.7-.4-.2-.8-.6-1-1-.4-.9-.6-1.8-.9-2.8-.7-2.8-1.8-5.4-3.2-7.9-.4-.7,0-1,.3-1.3.5-.4.9-.1,1.1.3.9,1.8,1.8,3.7,2.6,5.6.5,1.1.8,2.4,1.2,3.7h0Z"/>
      <path class="st1" d="M237.8,36.8c.7.9,1.1,1.9,2.4,1.9,1.1,0,1.8-1.2,1.2-2.1-.4-.6-1-1.1-1.5-1.5-2.2-1.5-2.8-4.3-1.2-6.3,1.2-1.6,4.1-1.8,5.3-.2.4.5.4,1.2.6,1.9-.1,0-.2.2-.3.3-.5-.2-1.1-.4-1.5-.7-1.6-1-2-1-2.8,0-.7.9-.4,2.1.7,3.1,1.2,1,2.5,2,2.8,3.7.3,1.7-.8,3.3-2.7,3.6-1.7.3-2.8-.1-3.7-1.6-.6-.9-.4-1.5.7-2h0Z"/>
      <path class="st1" d="M194.5,65.2c-1.6.3-2.4-.8-2.9-2.1-.1-.3.2-1.1.6-1.4.5-.5.7.2.9.6.5.9,1.4,1.3,2.4,1.1.8-.2,1.2-1.1.7-2-.2-.5-.6-.8-1.1-1.2-2.4-2-2.9-3.2-2.2-5.8.3-1.2,1.5-1.8,2.6-2,1.4-.2,2.8,0,3.6,1.3.2.4,0,1,0,1.5-.4,0-.9,0-1.3-.3-.4-.2-.7-.6-1.1-.8-.9-.5-2.1,0-2.2,1.1-.2,1.2.1,2.2,1.2,3,.8.5,1.4,1.3,2,2,1.9,2.6-.6,5.2-3.2,4.9h0Z"/>
      <path class="st1" d="M190.7,40.6c-1.9-.2-2.6-.6-3.2-2.3-.3-.7.2-1.1.7-1.3.1,0,.6.3.8.6.6,1,1.6,1.4,2.6,1.1.6-.2,1-1.2.6-1.9-.2-.5-.7-.9-1.1-1.2-2.2-1.6-3-3.7-2.2-5.8.5-1.2,1.5-1.8,2.7-2,1.4-.2,2.8,0,3.5,1.4.2.3,0,.9,0,1.4-.4,0-.8,0-1.1-.2-.5-.2-.9-.5-1.4-.8-1.1-.5-2,0-2.2,1.3-.2,1.9,1.2,2.6,2.4,3.5,1.9,1.4,2,4.3.1,5.6-.6.4-1.5.5-2.2.7h0Z"/>
      <path class="st1" d="M218.1,63.5c0-2.8-.2-5.7-.2-8.5,0-1.2.2-2.4.4-3.6,0-.2.6-.5.6-.5.4.4,1.1.8,1.1,1.2,0,3.1-.1,6.3-.1,9.4,0,1.3.2,2.5.2,3.8,0,.3-.5.6-.7.9-.3-.3-.7-.5-.8-.8-.2-.6-.2-1.3-.4-1.9,0,0,0,0,0,0Z"/>
      <path class="st1" d="M154.5,30.7c.8-1.2,1.8-1.8,3.1-1.5.5.1,1,.5,1.3,1,.2.2,0,.7,0,1.1-.3,0-.6,0-.9-.1-1.7-.7-3,.8-3.1,2.2-.1,1.5-.2,3-.2,4.4,0,.2,0,.4-.2.5-.4.4-.8.7-1.2,1.1-.1-.5-.4-1-.4-1.5,0-1.3.3-2.7.1-4-.1-1.3-.7-2.4-1.1-3.7-.1-.4-.2-1.1,0-1.4.5-.6,1,0,1.3.3.4.4.7,1,1.1,1.6h0Z"/>
      <path class="st1" d="M145.7,55.5c.8-1.2,1.8-1.7,3.2-1.5.8,0,1.3.6,1.5,1.4,0,.2,0,.6-.2.7-.1.1-.5,0-.7,0-1.5-.6-3.2.5-3.3,2.1,0,1.5,0,3.1-.3,4.6,0,.6-.8,1.1-1.2,1.6-.1,0-.2-.1-.4-.2,0-.4-.2-.7-.2-1.1,0-1.2.4-2.3.3-3.5,0-1.6-.3-3.2-1.2-4.6-.4-.5-.6-1,0-1.4.6-.5,1,0,1.3.3.4.5.7,1,1.2,1.5h0Z"/>
      <path class="st1" d="M134.2,33.3c.1-2.6.2-4.6.4-6.6,0-.2.2-.6.3-.6.2,0,.7,0,.8.3.2.6.5,1.3.5,1.9,0,2.4,0,4.8,0,7.2,0,1.6.2,3.2.2,4.9,0,.4-.5.9-.9,1-.5.2-.6-.4-.6-.8-.2-2.6-.4-5.2-.5-7.2h0Z"/>
      <path class="st1" d="M225.1,57.1c0,1.5,0,3.1,0,4.6,0,1.1.2,2.2.2,3.3,0,.4-.3.9-.5,1.3-.3-.3-.8-.5-1-.9-.2-.3-.2-.7-.2-1.1,0-4.1,0-8.3,0-12.4,0-.3.5-.6.7-1,.3.4.8.8.8,1.2,0,1.7,0,3.4,0,5.1h0Z"/>
      <path class="st1" d="M212.9,53.1c1.6.5,1.9,1.2,1.7,2.8-.2,1.3-.2,2.5-.4,3.8-.2,1.4-.3,2.7-.7,4.1,0,.3-.7.5-1.1.8-.1-.4-.3-.8-.3-1.2.1-2.7.3-5.5.5-8.2,0-.7.2-1.3.3-2.1h0Z"/>
      <path class="st1" d="M128.4,39.9c.3-3.8.6-7.5.8-11.2,1.3,0,1.5.1,1.5,1.4,0,2.9-.1,5.7-.8,8.6-.2.9-.7,1-1.6,1.3Z"/>
      <path class="st1" d="M204.2,35.2c.2-.3.3-.6.6-.8.3-.3.7-.7,1-1v8.4c-1-.2-1.6-.5-1.6-1.5,0-1.7,0-3.4,0-5.1Z"/>
      <path class="st1" d="M219.5,32.2c.3-.4.5-.7.8-1.1.2-.3.5-.6.7-.9,0,2.8,0,5.6,0,8.4-.2-.2-.5-.5-.7-.7-.3-.3-.6-.6-.9-.9v-4.8Z"/>
      <path class="st1" d="M219.5,37c.3.3.6.6.9.9.2.2.5.5.7.7,0,1-.2,2-.2,3,0,.7-.4,1.2-1.1.9-.4-.2-.7-.8-.7-1.3,0-1.4.3-2.9.4-4.3h0Z"/>
      <path class="st1" d="M183.7,29.2c.2-.3.5-.6.8-.9.6-.6.5-1.2-.2-1.6-.3-.2-.6-.5-.9-.8.3-.3.7-.7,1.1-.8.6-.1,1.3-.2,1.5.5.6,1.7.5,3.3-2.3,3.6h0Z"/>
      <path class="st1" d="M131,25.7c0,.8-.4,1.3-1.1,1-.5-.2-.9-.8-1.4-1.2.5-.4.9-1,1.5-1.1.7-.1,1,.5,1,1.2Z"/>
      <path class="st1" d="M212.1,50.6c.5-.7.8-1.6,1.8-1.3.3,0,.6.7.7,1,0,.4-.2,1-.5,1.2-.9.5-1.5-.1-2-.9h0Z"/>
      <path class="st5" d="M25.5,73c.3-.5.6-1,.9-1.4.1,0,.2.1.3.2,0,.4-.2.9-.3,1.3-.3,0-.7,0-1,0Z"/>
      <path class="st4" d="M11.5,46.4c0,0,0,.2,0,.3,0,0,0-.2,0-.3Z"/>
      <path class="st1" d="M149.3,25.4c0-.6-.4-.7-.9-.6-.2,0-.5.2-.7.3-.1,1.1-.2,2.2-.3,3.5-.3,0-.6,0-.9-.2-3-.9-6.1.5-7.2,3.2-.7,1.5-.8,3.1-.6,4.6.2,2,2,3.6,4.1,3.5,1.3,0,2.4-.5,3.6-1,.6-.3.9-.3,1,.5,0,.3.4.9.6.8.4,0,.8-.3,1-.6.2-.3.2-.8.2-1.3,0-1.7,0-3.3,0-5,0-2.6.1-5.2.2-7.9h0ZM147.4,32.1c-.2.8-.1,1.6,0,2.5,0,1.7-2.2,4.3-4.5,3.8-1.1-.2-2.3-1.5-2.3-2.6,0-.3,0-.7,0-1,0-2.6,1.1-4.3,3.2-4.8.9-.2,1.9,0,2.8.2.9.2,1.3.9.9,1.9h0Z"/>
      <path class="st1" d="M229.8,59.5c.2-.1.6,0,.9,0,0,0,0,0,0,.1,1.6-.3,3.2-.6,4.7-.9.6-.1,1.3-.3,1.7-.7.4-.5.5-1.2.4-1.9-.4-3.2-3.6-4.9-6.6-3.1-1.9,1.1-2.7,3-3.2,5.1-.5,1.9,0,3.5,1,5,1.2,1.9,4.5,2,6.6.6.4-.3.7-.7.9-1.1.1-.3,0-.8-.2-1.1-.1-.2-.7,0-1,0-.3.2-.6.5-.9.7-1.2,1-3.3.7-4-.6-.3-.5-.5-1-.7-1.5,0-.2.2-.6.4-.7h0ZM229.9,56.8c.7-.9,1.4-1.8,2.2-2.5.9-.7,1.8,0,2.7.3.7.3.9.8.8,1.5,0,.2,0,.5,0,1.1-1.8.1-3.5.3-5.2.4-.6,0-.8-.4-.4-.8h0Z"/>
      <path class="st1" d="M252.7,27.6c-2.1-.5-4.3.7-5.6,2.5-1.3,2-1.3,4.1-1.1,6.2,0,.9.6,1.9,1.3,2.4,2.4,1.9,5.4,1,7-.8.2-.2,0-.8,0-1.2-.2-.5-.7-.5-1.1-.1-.2.2-.5.4-.8.6-.9.8-2.4,1-3.5.4-.7-.4-1.4-2-1.3-2.9,2.2-.3,4.3-.7,6.4-1,.8-.1,1.3-.4,1.6-1.2.7-2.1-.8-4.6-3-5.1h0ZM253.4,32.3c-1.3.3-2.7.5-3.6.7-1.9,0-2,0-1.3-1.4.3-.6.6-1.2,1.1-1.6,1.4-1.4,3.7-.8,4.4,1,.3.7.1,1.2-.6,1.3h0Z"/>
      <path class="st1" d="M168.4,28.2c-2.9-1.8-5.6,0-6.9,2.2-1,1.7-.9,3.5-.9,5.3,0,2.2,1.2,3.4,2.8,3.9,1.9.6,4.6-.2,5.5-1.8.2-.3,0-.9-.2-1.2,0-.1-.7,0-1,0-.3,0-.4.4-.7.6-1.1.7-2.2,1.1-3.4.4-1-.7-1.3-1.8-1.4-2.9,2.2-.3,4.3-.6,6.4-1,.6-.1,1.3-.6,1.6-1.1.7-1.5-.3-3.6-1.7-4.5h0ZM167.7,32.4c-1.3.3-2.6.5-3.4.6-1.8,0-2-.3-1.5-1.4.5-1.2,1.4-2.2,2.8-2.3,1.1,0,2,.5,2.7,1.4.6.9.4,1.5-.6,1.7Z"/>
      <path class="st1" d="M162.4,58v-.5c0-2.5-1.2-4.3-3.5-5.1-2-.7-5.2.3-6.3,1.9-.8,1.3-1,2.7-1.1,4.1,0,1.5.3,3,1.3,4.2,1.7,2.2,5,2,7.3.5,1.8-1.2,2.4-3,2.3-5.1h0ZM160.4,59.6c-.4,2.6-3.8,4-5.7,2.3-1.1-.9-1.5-2.3-1.3-3.7-.1-1.7.5-3,1.8-4,1.9-1.3,5.1,0,5.3,2.5,0,.9.1,1.9,0,2.8h0Z"/>
      <path class="st1" d="M17.9,46.8c1.4-.3,2.8-.5,4.2-.9.5-.1,1-.3,1.3-.6.8-.9,1.5-1.9,2.3-2.8.2-.3.7-.3,1.1-.5,0,.4.2.8.1,1.1-.1.5-.4.9-.7,1.3-.4.6-1,1.1-1.3,1.7-.2.4-.2,1,0,1.4.7,1.3,1.4,2.7,2.4,3.8,1.1,1.2,2.5,2.3,3.9,3.2,2.6,1.6,5.6,2.4,8.6,2.3,4.8-.2,9.2-1.8,12.6-5.4.4-.4.8-.9,1.2-1.3.9-1,1-2,.6-3.3-.1-.3,0-1,.3-1.1.4-.2.8,0,1,.6.6,1.7.6,1.7,2.6,1.7.5,0,1.1-.1,1,.6,0,.3-.7.8-.9.8-2-.4-2.9.8-3.8,2.1-2.7,3.5-6.5,5.5-10.8,6.3-1.9.4-4,.6-5.9.4-4.1-.4-7.8-1.9-10.6-5-1.3-1.4-2.3-3-3.2-4.6-.7-1.2-1-1.4-2.4-1-.8.2-1.7.4-2.6.6-.3-.4-.5-.9-.8-1.3h0Z"/>
      <path class="st10" d="M55.7,39.6c0-.3,0-.8.1-1.2.5-1.7,1.4-2.4,3.3-2.6.7,0,1.3,0,2,0,1.7,0,2.6,1,3.2,2.5.8,2,.8,3.8-.9,5.3-1,.9-2.2,1.3-3.5.8-1.1-.4-2.2-1-3.3-1.6-1.1-.7-.9-1.9-1-3.1h0ZM62.8,41c-.4.7-.8,1.4-1.2,2.2,1.2-.3,1.5-1.2,1.9-2,0,0-.2-.2-.3-.2.3-.6,0-2.3-.5-2.9-.5-.6-1-.1-1.5,0-.2.1-.5.2-.7.2-1.1,0-1.5.7-1.7,1.5-.1.6.1,1.4.5,2,0,.2,1-.1,1.6-.3.2,0,.4-.2.6-.4.5-.5.9-.5,1.5-.2h0Z"/>
      <path class="st1" d="M17.5,37.7c-.7-2.8,1.6-3.9,3.5-5.1,1-.6,2.8.1,3.4,1.3,1,2.3.7,4.5-.4,6.6-.2.4-.9.8-1.4.9-2.7.9-5.4-.6-5-3.7h0ZM21.2,37.4c2.6,0,2.8-.3,1.9-2.5-.3-.6-1.1-1-1.7-.7-.7.4-1.3.8-1.8,1.3-.4.4-.5.9-.7,1.4.5.2,1.1.4,1.6.5.2,0,.5,0,.7,0h0ZM18.9,38.7c1.3,1.9,3.1,2,4,.3-1.4,0-2.7-.2-4-.3Z"/>
      <path class="st1" d="M48.5,29.6c0-.5-.3-.9-.2-1.1.6-1.6,1.1-3.2,1.8-4.8.2-.3.7-.5,1.3-.9,0,.8.1,1.2,0,1.5-.6,1.5-1.2,3.1-1.8,4.6-.1.3-.6.4-1.1.7Z"/>
      <path class="st1" d="M28.1,26.7c.4-1.3.8-2.7,1.2-4,0-.2.5-.5.7-.4.2,0,.5.5.5.7-.1.7-.4,1.4-.5,2.2-.1.8-.1,1.6-.3,2.5,0,.3-.4.5-.6.8-.3-.3-.6-.5-.7-.8-.1-.2,0-.6,0-.9,0,0-.2,0-.2,0h0Z"/>
      <path class="st6" d="M17.9,46.8c.3.4.5.9.8,1.3-.4,0-.8.1-1.2,0-.4-.1-.7-.5-1.1-.8.3-.2.7-.4,1-.6,0,0,.3,0,.4,0h0Z"/>
      <path class="st2" d="M62.8,41c-.5-.3-1-.3-1.5.2-.1.2-.4.3-.6.4-.5.1-1.5.4-1.6.3-.3-.6-.6-1.3-.5-2,.2-.7.6-1.5,1.7-1.5.2,0,.5,0,.7-.2.5-.2,1-.7,1.5,0,.5.6.8,2.3.5,2.9h-.3Z"/>
      <path class="st8" d="M62.8,41h.3c.1,0,.4.2.3.2-.4.8-.7,1.7-1.9,2,.5-.8.8-1.5,1.2-2.2Z"/>
      <path class="st3" d="M21.2,37.4c-.2,0-.5,0-.7,0-.5-.1-1.1-.3-1.6-.5.2-.5.4-1,.7-1.4.5-.5,1.2-.9,1.8-1.3.6-.3,1.4,0,1.7.7.9,2.2.6,2.6-1.9,2.5h0Z"/>
      <path class="st7" d="M18.9,38.7c1.3,0,2.6.2,4,.3-.9,1.7-2.7,1.6-4-.3Z"/>
    </g>
  </g>
</svg>