<?xml version="1.0" encoding="UTF-8" standalone="no"?>
<!DOCTYPE svg PUBLIC "-//W3C//DTD SVG 1.1//EN" "http://www.w3.org/Graphics/SVG/1.1/DTD/svg11.dtd">
<svg xmlns="http://www.w3.org/2000/svg" version="1.1" viewBox="0.00 0.00 3743.00 840.00">
<g stroke-width="2.00" fill="none" stroke-linecap="butt">
<path stroke="#5c608c" vector-effect="non-scaling-stroke" d="
  M 2180.53 712.94
  L 2181.46 712.81"
/>
<path stroke="#5c608c" vector-effect="non-scaling-stroke" d="
  M 1799.95 797.88
  L 1799.85 796.05"
/>
<path stroke="#5c608c" vector-effect="non-scaling-stroke" d="
  M 1799.92 790.97
  L 1799.88 788.89"
/>
<path stroke="#5c608c" vector-effect="non-scaling-stroke" d="
  M 2816.78 736.87
  L 2815.77 736.87"
/>
<path stroke="#5c608c" vector-effect="non-scaling-stroke" d="
  M 1917.84 772.18
  L 1917.94 769.72"
/>
</g>
<path fill="#2e378e" d="
  M 0.00 789.18
  L 0.00 788.10
  Q 0.04 788.07 0.08 788.04
  Q 0.15 787.97 0.17 787.88
  Q 68.59 394.32 137.03 0.82
  A 0.28 0.27 -85.0 0 1 137.30 0.59
  Q 327.09 0.72 522.55 0.58
  Q 533.09 0.58 542.48 1.50
  C 597.00 6.86 652.07 20.00 698.39 50.54
  Q 742.49 79.60 767.08 125.96
  C 782.74 155.48 791.24 188.99 794.31 222.88
  Q 796.69 249.19 795.51 275.89
  Q 793.84 313.71 786.85 352.99
  Q 783.71 370.66 780.58 388.39
  Q 779.29 395.66 777.00 402.44
  Q 771.77 417.94 766.60 433.38
  C 738.75 516.54 705.13 599.67 646.51 665.14
  Q 598.38 718.88 533.88 749.39
  C 488.10 771.04 438.22 783.22 387.21 788.30
  Q 378.26 789.18 367.25 789.18
  Q 183.63 789.16 0.00 789.18
  Z
  M 326.67 601.94
  C 328.78 601.95 330.80 602.50 332.94 602.23
  Q 335.27 601.93 337.59 601.92
  Q 362.14 601.79 385.81 595.95
  Q 430.67 584.87 462.07 553.19
  C 490.45 524.55 507.28 485.97 516.88 446.63
  Q 520.76 430.70 522.76 418.19
  Q 529.10 378.43 530.96 337.50
  Q 531.69 321.49 530.83 304.34
  C 529.67 281.43 525.50 257.93 514.28 238.39
  C 498.36 210.69 470.32 197.74 439.32 193.39
  C 410.12 189.29 380.37 191.02 351.14 194.96
  A 0.63 0.62 -88.7 0 0 350.61 195.47
  L 283.42 598.66
  Q 283.33 599.21 283.88 599.26
  C 298.35 600.44 312.36 601.87 326.67 601.94
  Z"
/>
<path fill="#2e378e" d="
  M 1320.06 1.02
  L 1185.14 786.05
  A 0.31 0.31 0.0 0 1 1184.64 786.23
  L 990.89 622.29
  A 0.31 0.31 0.0 0 1 990.79 622.01
  L 1095.93 0.93
  A 0.31 0.31 0.0 0 1 1096.23 0.67
  L 1319.75 0.66
  A 0.31 0.31 0.0 0 1 1320.06 1.02
  Z"
/>
<path fill="#2e378e" d="
  M 1604.82 1.00
  L 1470.27 783.91
  A 0.32 0.32 0.0 0 1 1469.95 784.18
  L 1249.42 784.18
  A 0.32 0.32 0.0 0 1 1249.10 783.81
  L 1383.65 0.90
  A 0.32 0.32 0.0 0 1 1383.97 0.63
  L 1604.50 0.63
  A 0.32 0.32 0.0 0 1 1604.82 1.00
  Z"
/>
<path fill="#2e378e" d="
  M 1531.66 786.42
  L 1666.65 0.95
  A 0.34 0.34 0.0 0 1 1666.99 0.67
  L 1894.09 0.67
  A 0.34 0.34 0.0 0 1 1894.42 1.07
  L 1789.21 612.79
  A 0.34 0.34 0.0 0 1 1789.07 613.01
  L 1532.18 786.76
  A 0.34 0.34 0.0 0 1 1531.66 786.42
  Z"
/>
<path fill="#2e378e" d="
  M 2621.21 246.53
  C 2617.91 257.32 2618.45 269.24 2620.43 280.70
  C 2621.44 286.55 2623.20 290.32 2626.12 296.82
  Q 2634.77 316.06 2647.75 332.75
  Q 2653.34 339.93 2659.06 347.42
  Q 2671.79 364.08 2679.01 384.28
  C 2685.89 403.50 2690.05 423.28 2693.56 444.04
  Q 2694.97 452.41 2694.86 460.24
  C 2694.53 485.78 2691.51 509.83 2683.60 532.84
  Q 2670.42 571.17 2638.70 593.88
  C 2616.54 609.75 2590.05 617.96 2564.30 625.73
  Q 2554.80 628.60 2546.01 629.69
  Q 2525.85 632.20 2507.57 632.00
  Q 2479.93 631.70 2451.43 627.50
  Q 2412.19 621.72 2370.83 610.38
  Q 2370.32 610.24 2370.44 609.72
  L 2403.07 469.15
  A 0.57 0.57 0.0 0 1 2403.88 468.77
  Q 2424.28 478.85 2443.44 486.35
  C 2454.47 490.66 2466.76 494.49 2478.82 494.98
  Q 2500.82 495.88 2510.85 477.64
  Q 2516.99 466.47 2519.20 452.86
  Q 2521.14 440.84 2517.39 426.61
  C 2513.57 412.16 2504.52 398.89 2495.01 387.35
  Q 2485.09 375.32 2475.86 363.19
  C 2457.06 338.48 2445.91 309.12 2446.21 277.54
  C 2446.73 224.09 2465.71 169.78 2504.15 131.95
  Q 2542.91 93.82 2597.41 85.03
  C 2645.79 77.24 2696.76 88.62 2741.81 107.92
  A 0.31 0.31 0.0 0 1 2742.00 108.28
  L 2709.03 250.30
  A 0.33 0.33 0.0 0 1 2708.47 250.45
  C 2696.17 237.54 2680.18 227.08 2662.44 223.67
  C 2643.88 220.10 2626.95 227.75 2621.21 246.53
  Z"
/>
<path fill="#2e378e" d="
  M 2974.92 85.99
  Q 3006.61 81.22 3038.88 83.73
  Q 3062.08 85.53 3082.95 91.97
  Q 3141.81 110.13 3175.99 160.89
  C 3212.17 214.61 3219.47 283.90 3213.17 347.56
  C 3202.92 451.06 3141.48 547.18 3050.22 597.60
  C 3006.94 621.51 2957.78 633.50 2909.04 632.99
  Q 2842.36 632.28 2793.24 588.76
  Q 2775.91 573.41 2761.75 551.56
  C 2729.49 501.77 2721.99 439.89 2730.31 382.04
  C 2744.12 286.07 2785.53 185.96 2867.59 128.52
  Q 2915.54 94.95 2974.92 85.99
  Z
  M 2905.91 362.41
  Q 2905.10 372.61 2905.11 381.28
  C 2905.11 382.27 2904.79 383.06 2904.82 384.03
  Q 2905.06 391.60 2905.46 398.74
  C 2906.12 410.78 2908.96 423.62 2913.97 433.62
  C 2924.54 454.69 2944.25 461.89 2966.60 462.68
  C 2984.71 463.31 3000.77 451.98 3012.34 438.39
  C 3030.13 417.50 3039.94 390.17 3044.47 362.23
  Q 3048.22 339.16 3045.54 318.53
  C 3042.93 298.47 3035.22 278.57 3021.44 263.99
  C 3012.94 255.00 3001.00 247.54 2988.60 248.67
  Q 2968.83 250.46 2951.13 263.46
  C 2920.04 286.30 2908.88 325.02 2905.91 362.41
  Z"
/>
<path fill="#2e378e" d="
  M 3385.88 411.29
  L 3351.63 610.48
  Q 3351.53 611.04 3350.96 611.03
  L 3202.86 609.04
  Q 3202.27 609.04 3202.21 608.46
  L 3202.09 607.19
  A 0.76 0.75 -6.9 0 0 3201.23 606.52
  Q 3197.06 607.08 3193.10 606.55
  A 0.89 0.88 8.7 0 1 3192.34 605.52
  L 3277.78 108.76
  A 0.51 0.51 0.0 0 0 3277.33 108.17
  L 3276.22 108.05
  A 0.58 0.58 0.0 0 1 3275.69 107.47
  L 3275.71 103.67
  Q 3275.71 103.05 3276.33 103.05
  L 3449.68 103.06
  Q 3450.18 103.06 3450.39 103.50
  L 3533.98 278.57
  Q 3534.50 279.67 3534.71 278.47
  L 3564.76 103.73
  A 0.80 0.79 4.7 0 1 3565.55 103.07
  L 3742.07 105.13
  A 0.59 0.59 0.0 0 1 3742.64 105.82
  L 3656.12 608.90
  Q 3656.10 609.01 3655.98 609.01
  L 3479.50 609.02
  A 0.48 0.48 0.0 0 1 3479.07 608.75
  L 3386.26 411.24
  Q 3385.98 410.65 3385.88 411.29
  Z"
/>
<path fill="#2e378e" d="
  M 1821.88 608.62
  L 1908.66 105.53
  A 0.39 0.39 0.0 0 1 1909.05 105.21
  L 2084.62 105.21
  A 0.39 0.39 0.0 0 1 2085.00 105.67
  L 1998.22 608.76
  A 0.39 0.39 0.0 0 1 1997.83 609.08
  L 1822.26 609.08
  A 0.39 0.39 0.0 0 1 1821.88 608.62
  Z"
/>
<path fill="#2e378e" d="
  M 2245.05 487.46
  L 2363.49 487.45
  Q 2364.28 487.45 2364.15 488.23
  L 2343.45 608.63
  A 0.44 0.43 -85.3 0 1 2343.02 609.00
  L 2054.98 613.04
  A 0.71 0.71 0.0 0 1 2054.27 612.21
  L 2141.27 105.98
  Q 2141.42 105.14 2142.26 105.14
  Q 2223.18 105.14 2305.76 105.14
  Q 2307.82 105.14 2309.74 105.82
  Q 2310.22 105.98 2310.13 106.48
  L 2244.72 487.07
  A 0.34 0.33 -85.6 0 0 2245.05 487.46
  Z"
/>
<circle fill="#2e378e" cx="769.64" cy="718.47" r="59.73"/>
<path fill="#89898a" d="
  M 2180.53 712.94
  L 2181.46 712.81
  Q 2200.94 710.79 2222.78 712.61
  Q 2223.58 712.67 2223.36 713.45
  L 2217.27 735.11
  Q 2216.95 736.23 2215.81 736.05
  Q 2204.02 734.15 2194.90 733.23
  C 2184.65 732.20 2174.84 734.35 2165.96 740.42
  Q 2162.49 742.79 2161.17 746.81
  C 2158.46 755.07 2167.33 760.22 2173.32 763.16
  Q 2176.13 764.53 2179.80 765.14
  Q 2186.77 766.31 2193.63 768.31
  C 2202.42 770.87 2209.05 775.55 2209.53 785.52
  C 2209.81 791.36 2210.05 797.80 2208.97 803.57
  Q 2205.97 819.59 2189.67 828.21
  Q 2176.70 835.07 2162.03 837.07
  Q 2153.73 838.20 2143.28 838.54
  Q 2134.07 838.84 2126.68 836.57
  Q 2118.57 834.07 2109.33 830.26
  Q 2108.79 830.03 2108.94 829.46
  L 2113.57 811.58
  Q 2113.72 810.98 2114.30 811.21
  Q 2120.64 813.73 2127.93 816.35
  Q 2138.39 820.10 2149.50 819.78
  Q 2155.23 819.62 2161.06 819.39
  Q 2166.63 819.17 2169.69 818.12
  C 2181.44 814.10 2185.09 800.19 2174.37 792.34
  C 2170.04 789.16 2165.32 787.24 2159.87 786.84
  C 2145.67 785.80 2126.80 778.75 2125.12 762.31
  C 2124.33 754.54 2126.65 748.03 2129.52 740.93
  C 2137.25 721.81 2162.05 715.17 2180.53 712.94
  Z"
/>
<path fill="#89898a" d="
  M 1799.95 797.88
  L 1799.85 796.05
  Q 1799.47 793.59 1799.92 790.97
  L 1799.88 788.89
  Q 1801.69 764.37 1818.17 745.15
  Q 1827.54 734.21 1838.69 727.09
  C 1857.56 715.04 1879.37 710.27 1901.46 713.69
  C 1910.25 715.05 1919.28 716.84 1927.18 720.56
  Q 1946.91 729.86 1950.02 750.77
  C 1954.17 778.59 1942.87 803.53 1920.78 820.07
  Q 1894.50 839.73 1860.23 839.15
  C 1833.58 838.70 1801.37 830.92 1799.95 797.88
  Z
  M 1917.84 772.18
  L 1917.94 769.72
  Q 1918.67 762.47 1917.08 754.64
  C 1914.74 743.17 1907.58 736.30 1896.38 733.10
  Q 1888.01 730.71 1881.61 730.87
  Q 1868.05 731.20 1856.96 739.48
  Q 1836.42 754.81 1832.95 781.08
  Q 1832.10 787.50 1832.88 794.57
  C 1834.45 808.64 1842.97 817.01 1856.39 819.63
  Q 1865.85 821.48 1873.25 820.51
  Q 1894.66 817.69 1907.64 799.61
  Q 1916.42 787.38 1917.84 772.18
  Z"
/>
<path fill="#89898a" d="
  M 2056.73 798.51
  Q 2057.03 799.32 2057.25 798.49
  L 2080.27 713.23
  Q 2080.43 712.65 2081.02 712.65
  L 2112.98 712.65
  Q 2114.38 712.65 2114.01 714.00
  L 2080.87 834.44
  A 0.88 0.87 7.9 0 1 2080.03 835.07
  L 2041.48 835.08
  A 0.50 0.50 0.0 0 1 2041.01 834.75
  L 2010.36 749.53
  Q 2010.01 748.58 2009.73 749.55
  L 1985.12 834.56
  Q 1984.97 835.08 1984.43 835.08
  L 1955.34 835.09
  Q 1954.57 835.09 1954.78 834.34
  L 1989.38 714.42
  Q 1989.56 713.82 1990.18 713.82
  Q 2007.97 713.84 2024.83 713.82
  Q 2025.23 713.82 2025.50 713.52
  Q 2025.53 713.48 2025.55 713.44
  Q 2025.75 713.09 2025.89 713.47
  Q 2041.38 756.25 2056.73 798.51
  Z"
/>
<path fill="#2e378e" d="
  M 2181.46 712.81
  L 2180.53 712.94
  L 2181.46 712.81
  Z"
/>
<path fill="#89898a" d="
  M 3013.49 839.06
  C 2985.73 839.35 2950.77 832.56 2949.16 797.38
  Q 2947.90 769.75 2964.74 748.23
  C 2983.26 724.57 3011.76 710.90 3041.91 712.67
  Q 3053.46 713.35 3066.32 716.80
  C 3083.65 721.45 3096.62 732.29 3099.28 750.66
  Q 3103.69 781.12 3085.42 804.81
  C 3068.56 826.68 3040.73 838.78 3013.49 839.06
  Z
  M 3066.90 776.29
  Q 3068.99 764.80 3066.61 753.61
  C 3064.16 742.14 3056.77 735.93 3045.34 732.55
  Q 3027.60 727.30 3011.89 735.82
  C 2995.15 744.90 2984.19 763.50 2982.51 782.00
  Q 2981.38 794.44 2984.50 802.58
  C 2990.14 817.35 3006.32 821.23 3021.03 820.37
  Q 3032.41 819.70 3042.17 813.47
  Q 3062.51 800.47 3066.90 776.29
  Z"
/>
<path fill="#89898a" d="
  M 3518.10 838.88
  C 3508.84 838.33 3500.37 837.36 3491.90 834.82
  C 3473.49 829.30 3461.80 817.09 3460.97 796.80
  Q 3459.92 770.96 3475.19 750.21
  C 3494.20 724.39 3525.02 709.76 3557.27 712.94
  C 3581.67 715.35 3606.75 722.93 3611.20 750.69
  Q 3612.88 761.18 3611.04 773.51
  C 3608.04 793.60 3594.98 811.51 3578.16 822.67
  Q 3550.77 840.84 3518.10 838.88
  Z
  M 3548.12 730.76
  C 3533.34 728.88 3518.97 736.51 3509.44 747.39
  Q 3494.48 764.49 3494.03 787.46
  C 3493.76 801.27 3498.75 813.04 3512.64 817.82
  Q 3523.66 821.62 3535.91 820.03
  C 3559.83 816.93 3576.84 795.55 3579.31 772.47
  Q 3580.73 759.23 3577.34 749.74
  C 3572.78 736.97 3561.24 732.42 3548.12 730.76
  Z"
/>
<path fill="#89898a" d="
  M 2743.89 818.67
  L 2740.38 833.90
  Q 2740.26 834.45 2739.70 834.57
  C 2711.32 840.57 2669.89 843.14 2648.56 818.57
  C 2630.13 797.36 2636.85 767.25 2653.40 747.38
  C 2670.23 727.18 2695.06 716.29 2721.30 713.82
  Q 2746.33 711.46 2773.07 718.00
  Q 2773.67 718.14 2773.47 718.73
  L 2767.53 736.09
  Q 2767.32 736.73 2766.67 736.57
  C 2753.09 733.35 2739.91 732.21 2726.27 734.16
  C 2705.86 737.09 2686.58 747.81 2676.70 766.05
  Q 2670.56 777.38 2671.49 789.04
  C 2672.98 807.78 2688.64 818.04 2706.05 820.57
  Q 2717.92 822.30 2731.51 820.51
  Q 2737.73 819.70 2743.73 818.51
  A 0.14 0.13 1.1 0 1 2743.89 818.67
  Z"
/>
<path fill="#89898a" d="
  M 3381.15 838.15
  C 3354.24 836.07 3327.15 821.54 3325.63 791.23
  C 3324.19 762.84 3344.34 738.11 3368.67 725.51
  C 3396.82 710.93 3429.84 710.50 3461.04 717.97
  A 0.52 0.52 0.0 0 1 3461.42 718.64
  L 3455.52 736.10
  Q 3455.31 736.73 3454.66 736.58
  C 3436.19 732.19 3417.79 731.63 3399.68 737.70
  C 3382.22 743.56 3366.69 756.65 3361.12 774.44
  C 3353.45 798.90 3369.60 816.47 3392.81 820.36
  C 3405.43 822.48 3418.42 821.27 3431.25 818.55
  A 0.39 0.38 0.4 0 1 3431.71 819.01
  L 3428.45 833.71
  Q 3428.29 834.42 3427.58 834.57
  Q 3403.10 839.85 3381.15 838.15
  Z"
/>
<path fill="#89898a" d="
  M 1769.94 835.00
  C 1752.55 838.65 1735.22 840.44 1717.82 838.09
  C 1695.99 835.13 1675.94 824.48 1669.24 802.73
  Q 1666.54 793.94 1667.56 783.43
  C 1668.83 770.39 1674.82 757.87 1683.34 747.63
  C 1697.79 730.28 1719.06 719.49 1741.36 715.68
  Q 1770.97 710.61 1803.01 718.62
  A 0.33 0.33 0.0 0 1 1803.24 719.05
  L 1797.26 736.72
  Q 1797.07 737.27 1796.52 737.13
  C 1780.47 733.28 1764.46 732.35 1748.29 736.22
  C 1726.82 741.35 1706.49 756.71 1701.79 779.16
  C 1699.64 789.48 1701.98 800.04 1708.96 807.99
  C 1723.92 825.02 1752.77 823.45 1772.92 819.05
  Q 1773.75 818.87 1773.55 819.69
  Q 1771.75 826.87 1770.05 834.88
  Q 1770.03 834.98 1769.94 835.00
  Z"
/>
<path fill="#89898a" d="
  M 2281.92 736.87
  L 2242.18 736.93
  A 0.31 0.31 0.0 0 1 2241.88 736.54
  L 2247.50 714.92
  A 0.31 0.31 0.0 0 1 2247.80 714.69
  L 2362.75 714.69
  A 0.31 0.31 0.0 0 1 2363.05 715.08
  L 2357.40 735.80
  A 0.31 0.31 0.0 0 1 2357.10 736.03
  L 2314.59 736.04
  A 0.31 0.31 0.0 0 0 2314.29 736.27
  L 2288.44 834.85
  A 0.31 0.31 0.0 0 1 2288.14 835.08
  L 2255.96 835.09
  A 0.31 0.31 0.0 0 1 2255.66 834.70
  L 2282.22 737.26
  A 0.31 0.31 0.0 0 0 2281.92 736.87
  Z"
/>
<path fill="#89898a" d="
  M 2441.46 775.87
  A 0.35 0.35 0.0 0 0 2441.27 776.27
  L 2455.60 834.16
  Q 2455.83 835.08 2454.88 835.08
  L 2421.74 835.09
  A 0.43 0.43 0.0 0 1 2421.32 834.75
  L 2411.77 790.73
  A 1.82 1.80 -78.6 0 0 2411.07 789.66
  C 2406.28 786.19 2400.30 784.56 2394.49 785.47
  Q 2390.89 786.03 2387.19 786.96
  A 0.62 0.62 0.0 0 0 2386.74 787.41
  L 2374.32 834.50
  Q 2374.16 835.08 2373.56 835.08
  L 2345.31 835.08
  A 0.56 0.55 7.2 0 1 2344.77 834.39
  L 2375.60 715.26
  Q 2375.75 714.66 2376.36 714.66
  Q 2406.72 714.77 2437.18 714.63
  C 2447.98 714.57 2461.50 717.17 2468.71 726.07
  C 2475.47 734.42 2473.28 745.76 2467.63 754.37
  C 2461.35 763.96 2451.75 771.22 2441.46 775.87
  Z
  M 2393.93 763.65
  Q 2393.73 764.39 2394.49 764.38
  Q 2405.95 764.28 2418.00 764.42
  C 2422.76 764.47 2427.40 762.05 2430.91 759.25
  Q 2443.02 749.59 2433.73 738.28
  Q 2432.09 736.29 2429.44 734.70
  Q 2427.69 733.64 2425.89 733.65
  Q 2414.37 733.70 2402.53 733.68
  A 0.49 0.48 -81.6 0 0 2402.05 734.04
  L 2393.93 763.65
  Z"
/>
<path fill="#89898a" d="
  M 2579.90 798.66
  Q 2591.77 755.26 2602.74 715.29
  Q 2602.90 714.69 2603.52 714.69
  L 2632.00 714.69
  A 0.37 0.36 -82.6 0 1 2632.35 715.15
  Q 2621.13 758.02 2609.99 800.42
  Q 2608.59 805.73 2602.85 814.20
  C 2591.63 830.73 2574.25 837.96 2554.60 839.33
  Q 2538.35 840.47 2519.38 837.98
  Q 2507.39 836.41 2498.82 831.45
  C 2481.60 821.50 2483.36 799.10 2487.66 782.88
  Q 2496.62 749.14 2505.39 715.14
  A 0.61 0.61 0.0 0 1 2505.98 714.69
  L 2541.06 714.69
  Q 2541.62 714.69 2541.49 715.23
  Q 2531.59 754.95 2521.66 795.32
  C 2519.51 804.06 2521.88 814.64 2532.29 816.55
  Q 2539.35 817.85 2544.43 817.61
  Q 2563.26 816.69 2577.73 802.31
  Q 2579.33 800.72 2579.90 798.66
  Z"
/>
<path fill="#89898a" d="
  M 2816.78 736.87
  L 2815.77 736.87
  L 2778.22 736.93
  Q 2777.20 736.93 2777.46 735.94
  L 2782.85 715.23
  Q 2782.99 714.69 2783.54 714.69
  L 2898.00 714.69
  A 0.44 0.44 0.0 0 1 2898.42 715.24
  L 2892.94 735.49
  A 0.74 0.72 7.1 0 1 2892.23 736.03
  L 2850.26 736.03
  A 0.62 0.61 -82.6 0 0 2849.67 736.49
  L 2823.90 834.76
  A 0.42 0.42 0.0 0 1 2823.49 835.08
  L 2791.73 835.08
  A 0.56 0.56 0.0 0 1 2791.19 834.37
  Q 2803.95 787.64 2817.47 737.36
  Q 2817.63 736.78 2816.78 736.87
  Z"
/>
<path fill="#89898a" d="
  M 2881.96 834.70
  L 2914.36 714.92
  A 0.31 0.31 0.0 0 1 2914.66 714.69
  L 2944.41 714.69
  A 0.31 0.31 0.0 0 1 2944.71 715.08
  L 2911.49 834.85
  A 0.31 0.31 0.0 0 1 2911.19 835.08
  L 2882.26 835.09
  A 0.31 0.31 0.0 0 1 2881.96 834.70
  Z"
/>
<path fill="#89898a" d="
  M 3206.84 800.28
  Q 3207.34 801.67 3207.72 800.25
  L 3230.69 715.15
  Q 3230.82 714.69 3231.30 714.69
  L 3263.44 714.69
  Q 3264.77 714.69 3264.42 715.97
  L 3231.26 836.50
  Q 3231.10 837.08 3230.50 837.08
  L 3192.06 837.09
  Q 3191.48 837.09 3191.28 836.54
  L 3160.88 752.03
  Q 3160.40 750.68 3160.00 752.06
  L 3135.54 836.51
  Q 3135.37 837.09 3134.77 837.09
  L 3105.57 837.08
  Q 3104.97 837.08 3105.14 836.50
  L 3139.78 716.45
  Q 3139.96 715.85 3140.58 715.85
  Q 3157.47 715.80 3174.49 715.86
  Q 3174.97 715.86 3175.38 715.62
  Q 3175.56 715.51 3175.60 715.29
  Q 3175.75 714.34 3176.09 715.24
  Q 3192.18 759.04 3206.84 800.28
  Z"
/>
<path fill="#2e378e" d="
  M 2816.78 736.87
  L 2815.77 736.87
  L 2816.78 736.87
  Z"
/>
<path fill="#2e378e" d="
  M 1917.94 769.72
  L 1917.84 772.18
  L 1917.94 769.72
  Z"
/>
<path fill="#2e378e" d="
  M 1799.88 788.89
  L 1799.92 790.97
  L 1799.88 788.89
  Z"
/>
<path fill="#2e378e" d="
  M 1799.95 797.88
  L 1799.85 796.05
  L 1799.95 797.88
  Z"
/>
<circle fill="#89898a" cx="3629.66" cy="824.33" r="12.69"/>
</svg>
