<?xml version="1.0" encoding="UTF-8"?>
<svg id="Layer_1" xmlns="http://www.w3.org/2000/svg" version="1.1" viewBox="0 0 2243.4 996">
  <!-- Generator: Adobe Illustrator 29.6.0, SVG Export Plug-In . SVG Version: 2.1.1 Build 207)  -->
  <defs>
    <style>
      .st0 {
        isolation: isolate;
      }

      .st1 {
        fill: #08582d;
      }
    </style>
  </defs>
  <g class="st0">
    <g id="Layer_2">
      <g id="Layer_1-2">
        <path class="st1" d="M139.3,306.3c4.6-10.3,12.6-17.9,21.1-24.8,8.7-7,18.6-11.5,30.1-11.4,5.5,0,10.9,1.2,16.4.6.5.6.9,1.2,1.4,1.8-13.4,20.4-31.9,32.7-56.3,35.7-4.2.5-8.5.7-12.8,1v-3h0s0,0,0,0Z"/>
        <path class="st1" d="M341.1,114.6c-5.5-8.4-12.3-16-14-26.4-2.1-12.9.6-24.6,8.8-34.9.5-.6.9-1.3,1.4-2h1c7.6,12.2,11.5,25.4,11.2,40-.2,8.4-1.9,16.3-5.1,24-1.1-.2-2.1-.5-3.2-.7h0Z"/>
        <path class="st1" d="M341.1,114.6c1.1.2,2.1.5,3.2.7,0,10-2.7,29,1.7,37.3,13.3,16.5,22.2,35.9,38.2,50.1,1.4-25.7,3-51,3.2-76.3l1.8-.4c1.6,1.9,1.5,4.5,2.6,7.1,1.8-2.5,1.5-5.3,2.6-7.6.6,0,1.1.2,1.7.3v52.7c.4.2.7.4,1,.6,4.6-4.8,9.5-9.2,14.2-14.1,9.5-9.9,8.1-23,10.8-34.9,1.5-6.8,2.2-13.8,3.3-20.6.5-.3,1.1-.7,1.7-1.1v34.1c8.9-10.6,15.5-22.1,22.8-33.2h2c-5.8,16.5-15.3,30.3-24.6,45,38.1-7.7,29.3-11.8,50.9-40.3.5.5,1,.9,1.4,1.4.5,4.3,2.7-.4,3.7.7,0,.6.2,1.3.2,1.9-9.1,3.6-11,15.9-15.9,23.8,13.8-4.6,28.2-7.2,40.8-14.7.6.3,1.3.6,2,.8-9,6.1-19,9.8-29.2,14.3,11.5,4.4,22.4,11.4,35.8,8,.1.6.2,1.2.3,1.9-15.1,3.5-30.2-3.2-45.2-4.6-3.5-.6-6.7-.2-10,1.4-11.8,5.7-24.3,9.7-36.9,13.3-10.3,3.3-13.6,25.4-26.6,33.5-1.1.9-1.8,1.9-1.8,3.4,0,15.7,0,31.5,0,47.2.5,0,.9.2,1.4.2,9.7-13.6,18.5-27.7,27.9-41.5l2.3.4c-2.1,5.4-4.1,10.8-6.3,16.4,15.6,1.4,33.9-7.3,43-20.5l1.2,1.1c-1.2,2.8-2.5,5.7-4.2,9.6,23.7-6.8,46-14.2,66.9-25.4,0,.9.2,1.7.3,2.6-12.9,7.7-26.8,13.4-40.5,19.5-.7,2.2,3.3,1.1,2.4,3.4-12.8-.8-24.5,1.8-36.2,7.1-11.1,4.8-22.5,8.9-33.9,13.1-4.7,1.7-7.9,4.4-9.8,9.1-2.7,6.4-5.7,12.8-8.8,19-6.3,5.8-4.5,13.3-4.4,20.4.5,43.6,1.3,86.8,1.1,130.4,10-8,43-29.8,44.4-40.9-.1-9.1,5.7-41.6-1.4-46,.1-.6.3-1.3.4-2,1.4,1.1,2.7,1.9,2.6-1-.3-9.9,1.4-19.8,0-29.7.6-.1,1.2-.2,1.9-.4,2.8,8.9.9,17.5,2.1,27.1,1.5-1.1,2.4-1.8,3.2-2.4.7.5.9,1.3.9,2.1-3.5,2-3.9,5-3.6,8.9,1.3,12.8,2.5,25,4.8,37.6,5.9-6.5,31.3-23.7,30.7-29.5-.9-22.5,6.7-50.8-14.4-66.2.2-.8.4-1.6.6-2.4,5,2,8.6,6,13.6,9.4.7-6.3,5.5-11,3.8-17.3.7,0,1.4-.1,2-.2.3,23.9-3.1,49.1,2.8,72.3,5.9-6.5,20.5-14.7,22.7-22.4,2.3-10.6,4.3-21.2,7.9-31.4,1.5-4.2,1-7.2-2.9-9.5l1-1.1c1.2.7,2.5,1.4,4.1,2.4,1.5-3.6,2.9-7,4.3-10.3.7,0,1.4,0,2.1,0-4.5,14.1-7.2,28.5-8.1,44.7,8.5-7.7,16.1-14.4,23.5-21.5,1.9-1.9,1.6-4.9,1.9-7.5,1.3-12.3,4.5-24.1,10.3-35.1.7.1,1.3.2,2,.4-3.3,11.1-6.3,21.7-6.1,33.5,2.2-.1,2.9-1.8,4-2.9,7.7-9,19.3-15.7,24-26.8.5.2.9.5,1.4.7-.8,4.2,2.5,2.9,4.4,3.4,0,.7,0,1.4,0,2-3.4-.4-5.9.9-8.2,3.6-6.5,7.5-13.4,14.8-20.1,22.2-1.6,1.7-3,3.5-3.3,6.1,10.4.3,19.8-4.1,29.6-6.2.6.6,1.3,1.2,1.9,1.8-51.9,17.9-26,.1-66,42.1,14.8.2,28.5-2.4,41.9-6.7.2.6.3,1.3.5,1.9-16.7,8.5-36.9,9.9-54.3,17-8.1,7.6-16.1,15.2-24.7,23.4,9.5,3.1,18.2,6,27.2,7.6,13.9-1.7,27.6-8.7,41.4-12.4.4.4.8.8,1.2,1.2-9.7,5.3-20.5,8.3-30.5,14.9,13.8,4,26.3,9.7,38.6,15.8,3.5,1.7,4.3-2.2,6.7-2.9.2.4.3.8.5,1.3-.9,1.1-1.9,2.2-3,3.7,4.4,2.2,8.7,4.4,12.9,6.6-.1.6-.3,1.3-.4,1.9-13.9-4.6-27.7-9.6-41.5-15.8-.7,7.8.3,14.8,1.2,21.9.5,4,4.1,3.1,6.4,4.3-.3.5-.6,1.1-.9,1.6-1.6,0-3-1.5-4.9-.7-.3,5.8-.4,11.7.2,17.5-.8,0-1.5-.2-2.3-.3-.6-5.4-1.2-10.8-1.8-16.2-2.1-.8-3.4.8-5,.8,0-.5,0-.9-.1-1.4,9.2-2.1.4-17.3.7-24.4-.8-4.1-2.6-6.5-7.1-7.7-14.1-3.7-28.3-7.3-42.6-10.5-2.5-.5-4,.2-5.7,1.8-12.7,11.3-24.6,23.4-36.3,35.8-7.9,8.4-16,16.5-24.1,24.6-6.5,6.4-10.7,14.8-17.9,20.8-1.5,1.3-1,3.1-1,4.7,5.2,60,9.6,120.1,14.9,180.1,1.6,6.2.9,17.1,6.7,20.6,8.5,5.1,17.4,8.9,27.2,10.6,28.2,4.2,47,40.9,26.9,62.5-.2-.2-.4-.2-.6,0,4.7-22-7.7-46.9-30.6-51.7-7.1-1.2-13.4-4.8-19.6-8.1h-.1s.2.1.2.1c11.9,28.6-2.9,58-20.2,80.7-48.4,55,13.2,80.1,58.4,50.9,9.5-5.5,25.1-24.8,8.3-30.9-5-2.5-10.8-2.1-15.9-3.9v-.3c0,0-.2-.2-.2-.2,32.2-5.7,46.9,18.5,20,40.1-29.2,25.3-107.2,31.8-117.9-15-2.6-29.5,25.9-49,40.2-71.7,18.7-22,10.8-48.7-7.5-62.2h-.1c0,0,.2,0,.2,0,7.8,31-9.3,55.8-32.1,75.7-49.7,40.2-41.9,83,13.3,107.7,38.9,17.2,61.3,48.7,53.2,92.1-9.8-24.7-21.7-48.8-48.8-58.5-44.7-17.5-128.6-50.2-84.8-110.2,21.8-28.2,57.4-41.7,78.5-70.5,6.1-9.8,14.3-24.9,4.6-34.9-10.7,20.2-26.3,40.5-50.6,43.5-19.4,3.2-40.9,15.7-37.7,38.6-23.7-27.2,11.1-48.1,36.4-50,15.4-2,34-13.5,40.1-26.6.1.5,1.1.7.9,0-.3,0-.6,0-.9,0-8.3,7.3-18.8,8.6-29.1,10.4-39.7,8.5-101,22.1-95.1,74.3-4.9-8.8-7.6-16.9-4.7-25.6,13.5-50.5,66.7-56.6,111.1-60.6,18.3-3.2,16-34.1,18.1-48.2,5.2-73.8,16.5-149.5,12.6-222.8-6.7-4.5-9.6-11.8-13.3-18.4-6.1-8.8-25.6-47.8-35.5-45.8-7.6,2.7-26.9,2.8-31.2,8.2-5.3,9.1-9.6,18.6-13,28.5-1.7,4.9,1.9,8.7,4.6,12.4,0,.4-.1.8-.2,1.2-6.9-3.5-8-6.3-11.6,2.2-2.1,7.6-13,17.8-7,25-.3.3-.6.6-.9,1-.9-1.3-1.8-2.6-2.9-4-1.9,1.5-1.1,4.1-2.5,5.6-.4-.4-.8-.7-1.2-1.1-.5-3,1.2-6-.2-8.9h.1c-1.3.2-2.6.4-3.9.5l-.7-1.5c4.6-.1,7.2-2.2,8.8-6.9,5.7-18,15.9-35.2,19.4-53.6-16.6,3.2-26.5,1.5-30.8,21.3-6.1,1.6-.8-5.5-6.1-3.2l-.8-.9c4.7-2.3,2.7-7.1,3.9-10.6h0c-9.5,2.8-31.5.5-35.8,9.8-.6,0-1.3-.1-1.9-.2,3-6.8-1.7-3-2.1-6.8,15.3-3.6,30.2-6.3,45.5-10.3-7-3.7-11.9-9.5-19.5-10.5.1-.5.2-1,.3-1.5,2.4-.9,6.3,2,7.1-2.9.5,0,1,.2,1.6.3-.6,6.4,11.1,4.2,15,7.5,7.9,3.9,15,4.2,23.6.8,12.2-4.9,25.3-7.6,37.9-12.8-4.5-4.9-10.3-18.1-15.3-19.6-6,.2-11.9-1.4-17.9-.2-.5-.4-.9-.8-1.3-1.1.8-.9,2-1.7.7-3.1.2-.7.5-1.4.7-2,3.4,1.4,8.9,0,11.3-2.5,2-6.7-17.1-21.1-21.9-26.2-1.3-1.2-2.4-.3-3.7,0-22.2,4.8-43.7,12.7-65.9,17.3-.5-.6-.9-1.2-1.4-1.8,20.9-7.9,41.8-14.6,62.6-23.1-10.4-7.9-20.4-15.5-30.5-23-6-2.9-12.6,1.9-18.6,3.3l-1.1-1.5c2.9-1.8,5.7-3.6,8.6-5.4,0-.3,0-.6,0-.9h-6.4c.1-.6.3-1.3.4-1.9,3.8-2.9,9.1,0,6.8-5,.4-.2.9-.3,1.3-.5,20.4,17.1,43.8,30.5,64.9,47.5,2.6-10.6,1.7-22,2-32.6-3-1.9-2-3.8-.4-5.9.5,0,1.1,0,1.6,0,2.8,4.2,3.6-.8,5.4-1.1.4.2.7.4,1.1.6-8,6.2,1.8,32.9-.5,44.4.9,5.6,6.8,9.2,10,14.1,3.8-4.6,6.8-9,6.6-14.8.5,0,1,.1,1.5.2.7,2.3-.5,6.1,4.2,5.1.1.5.2,1.1.4,1.6-3.1,0-4.3,1.6-4.2,4.7,1.3,5-3.1,10.5-.1,15,17.2,21.3,33.9,43.2,54.8,61.2,5.5-41.2,2.7-82,6.5-123.1.1-1.6.2-3.3-.8-4.8-10.4-15.3-18.1-32.1-27.5-48-2.6-4.4-5.7-6.5-11.1-7.3-12-1.8-23.7-5-35.6-7.6-6.6-.2-14.8-6.6-20-.5-.4-.3-.9-.7-1.3-1,3-3.8-1.3-2.8-3.9-4.1.4-.5.8-1,1.2-1.5,2.3-.3,11,3.1,8.7-1.6.3,0,.7-.1,1-.2,8,7.9,37.3,7.4,49.7,9.3.3-2.6-1.4-3.9-2.5-5.4-9.7-13.1-19.7-25.9-28-40-1.5-2.6-4.2-3-6.3-4.6,0-.4.2-.8.3-1.2,1.4.3,2.9.6,4.3.9,1-1.5.4-3.2.8-4.8.5,0,1.1,0,1.6,0-.8,11.7,15.1,22.1,21.6,32.1,3.1-8.3,4.5-16.5,5.3-24.8h0Z"/>
        <path class="st1" d="M1209.8,655.6c2.7-3.6,4.1-7.5,5.7-11.2,15.6-36.2,32-72,47-108.4,2.8-6.8,5-13.7,6.9-20.8.5-1.8.6-3.8,3.7-3.6,15.8,1.4,31.6.2,47.4.2,23,0,46,1.3,68.9-.3,2.9-.2,4,1.1,4,3.8,0,2.4,0,4.8-3.3,5.1-1.7.1-3.3.5-4.9.8-9.3,1.7-11.9,4.3-12.8,13.7-.5,5.6-.9,11.3-.8,17,.2,29-.9,58,.7,87,.7,11.9,2.9,23.5,7.9,34.3,7.6,16.6,20.3,25.4,38.8,25.6,18.4.2,32-7.6,40.4-24.2,5.7-11.2,8.3-23.3,8.8-35.6,1-31.6,1.4-63.3-.8-94.9-2-15.1-3-21.3-19.4-23.5-3.5-.6-4.6-2.4-4.4-5.4.3-3.3,2.6-3.6,5.4-3.5,17.5,1.1,34.9.5,52.4.2,16.1-.2,32.3,1.4,48.4,0,1.8-.1,3.1-.2,4.1,1.7,11.5,21.8,26.9,40.8,42.2,59.9,20.2,25.1,40.7,49.8,61.1,74.7,1,1.2,2.2,2.3,3.5,3.7,1.1-2,.8-3.7.8-5.3,0-28.5,0-57-.3-85.5,0-8.8-.9-17.6-2.6-26.3-1.5-8-6.4-12-14.1-13.3-1.8-.3-3.6-.7-5.4-.9-3.3-.3-3.6-2.7-3.5-5,0-2.7,1.4-4.1,4.5-3.9,17.8,1.2,35.6,1.3,53.4,0,2.8-.2,4.1.9,4.5,3.4.4,2.6.2,5.1-3.2,5.7-2.3.4-4.5,1.2-6.8,1.6-5.5,1-8.8,4.2-9.8,9.8-2.6,13.2-2.7,26.5-2.6,39.8,0,45.2-.8,90.3.7,135.5.1,3.8-1.7,5.5-4.7,6.7-2.6,1-4.5.4-6.4-2.1-39.2-51.6-79.3-102.5-119.9-153-.4-.5-.9-.8-2-1.8-.1,2.7-.3,4.7-.3,6.8,0,32,0,64,.2,96,0,7.2.5,14.3,1.7,21.4,2.3,14.5,4.6,16.8,19.2,18.9,3.4.5,4.6,2.2,4.5,5.3,0,2.5-1,4-4,3.9-18-1-36-1.3-54,0-2.7.2-3.6-1.3-3.8-3.5-.3-2.4-.2-4.8,2.8-5.5,2.8-.7,5.5-1.3,8.2-2,4.7-1.1,7.4-3.9,8.4-8.8,2.2-10.2,2.4-20.5,2.4-30.8.2-35.8.2-71.7.2-107.5,0-7.8-.4-15.8-6.4-21.9-7.1-7.2-20.4-11.8-31.6-5.7-3.6,1.9-5,5.1-5.8,8.8-2.6,13.2-2.3,26.5-2.5,39.8-.3,21.2-.1,42.3-.5,63.5-.2,11-1.9,21.9-5.2,32.5-8.3,26.9-29.5,43.3-57.9,44.9-58.2,3.1-79.1-27.6-78.5-82.4-.3-31.2,0-62.3-.5-93.5-1-13.2-8.3-18.9-21.4-16.8-10.6,1.9-20.1,2.5-20.5,15.6-1.2,47.4.3,95,2.1,142.4.2,4.2.7,8.3,1.6,12.4,1.1,4.8,4.1,7.4,8.9,8.2,2.3.4,4.6.9,6.9,1.2,3.1.3,4.4,2,4.2,5-.2,3-1.7,4.3-4.9,4.1-20.8-1.2-41.6-1-62.5,0-3.1.2-4.8-.9-5.1-4-.6-5.9,4.3-4.8,8.4-6.1,9.4-1.9,11.4-4,11.5-13.8.3-43.4.2-87,.2-130.4-1.1-.5-1.2.3-1.4.9-21.3,50.3-44.6,99.8-63.6,151.2-.5,1.4-.7,3-2,3.9-2.3,1.4-6,0-6.8-2.6-16.5-51.7-40.6-100.4-59.1-151.3-.3-.9-.5-1.9-2.6-3.3.6,45.6-3.5,90.3-1,135.8.8,4.8,3.5,7.8,8.3,8.8,2.9.6,5.8,1.5,8.8,1.8,3.8.5,3.8,3.1,3.8,5.8,0,3.4-2.3,3.4-4.8,3.2-16.7-1.1-33.3-1-50,0-3.1.2-4.7-.7-4.9-4-.2-3.2.8-4.7,4.3-5.2,12.2-1.5,15.6-5.3,17-18.1,1.9-16.4,3-32.9,3.5-49.3.9-29.1,3.6-58.2,3.7-87.4,0-3.8,0-7.6-.9-11.4-2.4-10.3-10.2-11.8-19.4-13.2-3.7-.3-4.1-2.6-3.9-5.6.3-3.4,2.2-3.8,5.2-3.6,15.6,1.1,31.3,1.1,46.9,0,2.2-.1,3.5,0,3.7,2.6,1.2,15.5,7.2,29.7,13.2,43.7,14,32.7,27,65.6,42.6,97.6h0s0,0,0,0Z"/>
        <path class="st1" d="M1016,881c1.5-2.4,1.2-4.1,1.2-5.7-.1-30.8.7-61.7-.8-92.5-.3-6.2-.9-12.3-2.1-18.3-2-11.7-9.3-13.6-20-14.9-3.4-.4-3.1-2.9-3.1-5.2,0-2.7,1.6-3.7,4.3-3.5,18,1,36,1.1,54,0,2.2-.1,3.6.7,3.9,2.9.2,2.2,1,4.9-2.1,5.9-9.3,2.8-16.2,1.6-17.8,13.2-1.2,6.9-1.9,13.9-1.9,20.9-.4,51-.6,102,.2,153,0,3.8-1.6,5.5-4.7,6.6-3,1.1-4.8-.2-6.6-2.7-38.2-50.3-77.4-99.7-116.6-149.2-1.2-1.5-2.3-3.2-4.2-4.2-1.7.8-1.1,2.3-1.1,3.5.6,39.9-1.8,80.1,1.9,119.9,1.5,13.2,5.2,17,18.3,18.7,3.2.4,5.6,1.2,5.5,4.9,0,2.6-.8,4.5-4.1,4.3-18-.8-36-.3-54-.2-22.7.1-45.5-.8-68.2.2-3,.1-5.6.3-5.9-4-.3-4.3,2-4.9,5.4-5.3,10.5-1.2,11.8-2.9,8.9-13.2-4.3-15-9.2-29.9-13.6-44.8-1.3-4.5-4-6.4-8.8-6.3-12.7.2-25.3.1-38,0-3.6,0-5.8,1-6.9,4.8-4.6,15.8-9.5,31.5-14.1,47.3-2.3,8.2-1,9.8,7.5,11.3,1.8.3,3.6.8,5.4,1,3.8.4,3.8,3,3.7,5.8-.1,2.9-1.9,3.4-4.4,3.3-16.3-.6-32.6-1-49,0-2.3.1-4.1-.2-4.1-3,0-2.5-.5-5.2,3-6,11.3-.5,17.6-5.4,21.3-16.1,17.3-48.5,33.8-97.3,50.7-146,1.6-4.7,3.4-9.4,3.3-14.5,0-1.4.5-2.1,1.8-2.6,5.7-2.1,9.8-6.2,13.8-10.4,4.2-4.5,6.6-3.9,8.4,2.2,5,16.9,9.9,33.8,15.1,50.7,12.7,41,24.9,82,38,122.9,2.4,7.3,7.1,11.7,14.9,12.9,2.3.4,5.1.3,7,2.2.3.3.6.8,1.1.4,3.7-3.1,8.5-2.5,12.7-4.1,4.7-1.7,6.5-5.5,7.2-9.9,1.3-7.9,1.9-15.9,2-23.9.1-38,.2-76,.1-114,0-18.1-5.5-24.7-23.1-29.2-1.7-.4-3.6-.3-4.5-2.6-1.5-3.8.7-6.8,4.8-6.7,14.5.7,29,.7,43.5,0,1.9,0,3.3-.3,4.5,1.9,10.8,20.4,25.1,38.4,39.5,56.3,22.2,27.4,44.2,54.8,67,81.7h0s0,0,0,0ZM766.2,784.4c-7,21-13.4,41-20.1,62-.8,2.3-1.5,4.9,2.3,4.9,11.5,0,23,0,34.5,0,5.2,0,3-5.6,2.1-8.7-5.2-16.8-10.3-33.6-15.5-50.4-.7-2.3-1.2-4.8-3.2-7.7h0Z"/>
        <path class="st1" d="M900.4,555c-1,43.1-2.8,86.1-2.1,129.2-.3,14.1,6.8,13.8,18.6,16.3,3.4.9,2.7,3.7,2.7,6.1,0,2.4-1.6,2.9-3.8,2.8-17.2-1.1-34.3-1-51.5,0-3.2.2-4.2-1.3-4.4-4-.2-2.8.4-4.6,3.8-5.1,13-1.8,16.3-5.3,17.5-18.1,4.2-45.5,5.6-91.1,7.2-136.7.4-12.3-1.5-21.1-14.9-23.6-1.8-.4-3.6-.9-5.4-1-4.2-.3-4.1-3.1-3.8-6.1.3-3.2,2.5-3.3,5.1-3.1,15.6,1.1,31.3,1.1,46.9,0,2.2-.1,3.5,0,3.7,2.6,1.2,15.5,7.2,29.7,13.2,43.7,14,32.5,26.9,65.5,42.4,97.3,1.8-.9,2.1-2.7,2.7-4.1,16.9-38.5,34.2-76.8,50.3-115.6,15-36.4-7.5-19.3,54.2-24,3.2-.2,5.2.4,5.6,3.9.3,3.3-1.1,4.9-4.5,5.2-2.6.2-5.2.9-7.8,1.5-7.8,1.7-11.2,5.2-11.8,13.2-1.3,15-.4,30-.3,45,.2,33.2.8,66.3,2.4,99.4.2,3.8.7,7.6,1.6,11.3,1.1,4.6,4,7.2,8.5,8,2.5.4,4.9,1,7.4,1.3,3.2.4,4.2,2.3,3.9,5.2-.2,2.7-1.6,4.1-4.6,3.9-21.2-1.2-42.3-1-63.5,0-2.9.1-4-1.3-4.3-3.7-.4-2.5,0-4.7,3.1-5.3,10.1-2.5,15.8-.8,16.7-13.5,0-44,0-88,0-131.9-.9-.2-1.1.6-1.3,1.1-20.7,49-43.3,97.1-62,146.9-.7,1.9-1.5,3.7-2,5.6-.7,2.4-2.3,2.9-4.5,2.8-2.1,0-3.3-.9-4-3-16.4-52.1-41-101-59.3-152.3-.2-.5-.5-.8-.8-1.3-.3,0-.6,0-.9,0h0s0,0,0,0Z"/>
        <path class="st1" d="M599.5,938.1c-16.8-.6-30.2,0-43.5.4-2.9,0-5-.2-5.1-3.6-.2-3.3.9-5.1,4.7-5.5,14.2-1.9,16.6-4.3,16.8-18.8,0-49.7,2-99.7-.8-149.3-.8-4.7-3.7-7.3-8.3-8-2.3-.3-4.6-.8-6.9-.9-3.2-.1-4.5-1.8-4.5-4.7,0-3.1,1.5-4.2,4.6-4.4,25.4-2.1,50.9-3.4,76.3-1.7,9,.6,17.8,2.1,26.2,5.7,15.8,6.7,24.2,18.8,25.4,35.7,1.5,21.1-6.7,34.4-26.1,42.9-1.1.5-2.1,1-3.2,1.4-.8.3-1.6.7-1.6,1.7,0,1.2,1.1,1.6,2,1.8,1.4.4,2.9.7,4.3,1.1,56.2,14.2,48.6,97.2-8.5,104.7-18.4,3.3-36.9,2-51.8,1.8h0ZM603.6,877.9c0,7.2-.3,17.3.8,27.5.9,8.1,2.7,16.2,11.7,19.2,16.4,5.5,36.3.9,44.4-18.7,3.9-9.4,4.1-19.1,2.8-28.9-3-26.5-26.3-40.8-51.7-38.6-6.5.3-7.9,1.7-8,8.1,0,9.5,0,19,0,31.4h0ZM603.6,790.5c0,9.7-.1,19.7,0,29.4,0,5.5,1,6.3,6.4,6.7,18.6,1.3,36.2-3.5,40.1-23.8,5.7-27.5-6.3-52.6-37.4-50.2-7.6.6-9,1.8-9.1,9.4-.2,9.5,0,19,0,28.4h0Z"/>
        <path class="st1" d="M934,473.2c-11.2.2-22.1,0-32.9.8-2.8.2-4.6-.4-4.9-3.5-.3-2.9,0-5.4,3.8-5.5,10.5-1.3,16.3-2.2,17.3-14.2.8-6.8.9-13.6.9-20.5v-115c0-5.7,0-11.3-.9-17-.9-6.5-3.4-9-9.8-10.1-2-.3-4-.8-5.9-.8-3.3,0-4.4-1.6-4.4-4.6,0-3.1,1.5-4.3,4.6-4.5,23.3-2,46.6-2.7,69.9-1.9,9.8.3,19.6,1.8,28.9,5.1,17.8,6.5,29.4,18.8,32.4,37.7,4.4,23.6-6.2,44.5-27.7,55.6-4.9,2.8-5.2,3.1-2.6,7.9,13.1,23.8,24.5,49,41.4,70.4,5.7,6.8,12.2,12.3,21.2,14.1,2.2.5,3.1,1.5,3.1,3.7,0,2.5-1.3,3-3.4,3.4-48.5,8.4-63.8-24.6-82.8-62-3.3-6.5-6.6-13.1-10.2-19.4-3.6-6.3-14.1-9.4-20.7-6.7-1.7.7-2.1,2-2.1,3.6.2,20.6-1.2,41.3.9,61.9.8,11.9,7.3,11.8,17.6,13.3,3.4.3,3.4,2.8,3.3,5.1-.1,2.7-1.4,4.1-4.5,3.9-11-1-22-.6-32.5-.8h0ZM949.2,331.9c0,12,0,24,0,36,0,4.2,2,6.2,6,6.3,21.7,1.6,39.2-5,43.3-28.2,5.7-29.9-6.7-59.7-40.6-57.8-6.8.3-8.5,1.9-8.6,8.8-.1,11.7,0,23.3,0,35h0Z"/>
        <path class="st1" d="M862.4,611.2c-.4,27.9-8.4,53-27.6,74-41.5,45.3-130,38-154.2-34.2-25-65.6,18.8-149.5,94.8-143.1,58,2.8,87.2,52.5,87,103.4h0ZM826.2,617.7c-.5-28.5-5.3-57.6-23.6-80.2-20.7-24.7-56-23.7-75.3,2.1-25.3,34.1-21.3,106.8,3.7,140.3,12.6,17.1,29.5,24.5,50.6,20.4,36.8-7.5,44.4-51.2,44.7-82.6h0Z"/>
        <path class="st1" d="M1209.4,938.5c-10.8,0-21.7,0-32.5,0-3,0-4.9-.6-5-3.9-.1-2.9.9-4.6,4.1-5.2,10.3-2,10.6-2.9,4.7-11.4-14.8-21.3-29.6-42.7-44.4-64-2.5-3.5-5.3-6.8-8.2-10.1-3.5-4.5-9.5-2.6-10,3.1-.2,1.2-.5,2.3-.5,3.5.2,21.3-.8,42.7.8,64,.8,6.9,2.1,12.9,10.1,13.9,2.5.3,4.9.9,7.4,1,3.3.2,4.7,1.8,4.5,5.1-.2,3.2-1.8,4.1-4.9,4-21.3-.8-42.7-1-64,0-2.9.1-4.4-.8-4.6-3.7-.1-2.7.2-5,3.7-5.3,11.3-1.1,15.3-2.7,15.5-18.6.5-49,1.3-98-.3-147-1.6-10.4-3.4-12.1-13.8-13.7-2-.3-4.5,0-5.8-2.1-1.1-1.8-1-3.8-.1-5.8,1-2.3,3-1.7,4.7-1.6,20.7.9,41.3.9,62,0,2.8-.1,5,0,5.4,3.4.4,3.3-.7,5.2-4.3,5.9-14.1,2.9-14.8,3.6-15.8,18.2-1.2,18.1-.5,36.3-.4,54.5,0,2.7-.2,6.1,3,7.4,3.2,1.3,5.8-.7,8.1-2.7,2.6-2.3,5.2-4.8,7.4-7.4,14.3-17.2,28.5-34.4,42.6-51.6,1.9-2.3,3.6-4.8,5.3-7.3,4.9-7.3,4.7-7.9-3.5-10.7-4.3-1.5-5.6-3.6-4.3-7.2.6-1.8,1.7-2.7,3.7-2.5,18.3,1.1,36.6,1,55,0,2.8-.2,4,1.5,4.3,3.8.3,2.5-.2,4.6-3.3,5.1-12.6,2-24.7,6.4-33.9,15.6-17.1,16.5-31.9,34.9-47.8,52.5-3.2,3.5-1.7,6.7.6,9.9,20.4,29.8,41.6,59.1,63,88.2,5.9,8.3,13.6,13,23.8,13.7,2.8.2,5.3.7,5.2,4.5,0,3.2-.9,4.8-4.6,4.7-10.8-.2-21.7-.1-32.5,0h0s0,0,0,0Z"/>
        <path class="st1" d="M611,507.6c19.5.3,36,3.4,52.3,7.7,2.2.6,2.9,1.7,3,3.8.5,13.3,1.6,26.6,3.1,39.8.3,2.8.1,5-3.3,5.4-3.2.4-4.8-.9-5.7-4.1-22.6-68.2-105.5-44.3-115.5,18.6-9.3,44.5,1.7,106.1,51.5,120.5,24,6.6,46.2-1.7,60.3-22.1,3.8-5.5,6.8-11.4,9.3-17.6,1.1-2.7,2.4-4.4,5.5-3.7,3.5.8,3.5,3.2,3.1,6.2-1.7,13.1-5,25.8-10.3,37.9-1.1,2.5-2.6,3.7-5.3,4.6-17.7,5.8-35.6,9.7-54.4,8.8-50.7-.8-93.4-34.6-98-86.5-2.8-25.1.6-49.2,13.8-71.2,18.3-32,55.7-47.5,90.7-47.9h0Z"/>
        <path class="st1" d="M796.6,276.8c0,13.4,0,26.7,0,40,0,2.9-1.4,4-3.8,4.2-2.4.3-4.7,0-5.2-3.2-2.3-16.6-7.9-27.6-26-28.4-10-.8-20-.6-30-.4-5.5.1-7.2,1.7-7.3,7.2-.2,22,0,44-.1,66,0,3,1,5,4.2,4.9,12-.1,24,.7,36-.8,6.1-.7,9.7-3.9,10.9-9.9.7-3.4,1.5-6.8,2.1-10.3.6-3.1,2.6-4.1,5.4-3.7,2.7.4,3.4,2.1,3.2,4.6-1.2,18.3-1.1,36.6,0,55,.2,2.6-.5,4.2-3.3,4.5-2.8.3-4.8-.6-5.3-3.8-.6-3.9-1.4-7.9-2.2-11.8-1.1-5.8-4.8-9.1-10.5-9.7-12-1.3-24-.9-36-.8-2.6,0-4.5,1-4.5,4.1.3,22.3-1.2,44.7,1,66.9.8,8.7,3.2,10.6,11.9,11.8,3.3.4,6.6,1.2,9.9,1.4,3.6.2,4.5,2,4.3,5.2-.2,3.8-2.4,4-5.5,3.9-23.3-1-46.7-1.3-70,0-3,.2-4.5-.8-4.6-3.7-.1-2.6,0-5.1,3.6-5.3,9.7-1.2,16.2-2,17.3-13.1.9-6.8,1-13.6,1-20.5,0-39.3,0-78.6,0-118,0-4.3-.3-8.7-.7-13-1.1-11.2-3.1-13.4-14.1-15.1-3.6-.5-5-2.2-4.7-5.6.2-2.4,1.2-3.8,4.1-3.7,39.5,1.8,79.4,0,118.7.6h0Z"/>
        <path class="st1" d="M2055.3,612.2c12.5-26.8,25.2-51.2,36.4-78.2,3.4-9.1,3-9.9-6.3-12.3-1.1-.3-2.2-.7-3.4-.8-3.6-.5-3.9-3.1-3.6-6,.3-3,2.3-3.6,5-3.4,15.8,1.3,31.6,1,47.4,0,2.4-.1,4.1.4,4.4,2.9.3,2.5.6,5.1-2.7,6-.8.2-1.6.6-2.4.7-10.7,1-17.4,7.2-22.4,16.2-14.4,25.7-27.4,52.1-40.2,78.6-2.9,6.1-4.5,12.6-4.7,19.3-.5,17.1-1.2,34.3.5,51.4,1,9.3,3.6,11.7,12.8,12.8,3,.3,5.9.9,8.9,1,3.4.2,4.1,2.3,4,5.1-.1,2.7-1.2,4.1-4.4,4-24.5-1-49-1.2-73.4,0-3.1.2-4.3-1.2-4.4-4,0-2.7.5-4.9,3.9-5.1,2.7-.2,5.3-.7,7.9-1,7.9-1,10.5-3.7,11.7-11.7,1.2-8.5.4-17,1.1-25.4,1.7-21.7-3.1-41.7-13-61.1-10.2-20-19.1-40.6-27.9-61.2-4.4-10.4-10.9-17.2-22.4-18.6-2.7-.3-5.2-1.1-4.9-4.9.2-3.5,1.4-5.1,5.2-4.8,20.3,1.4,40.7,1.1,60.9.1,2.6-.2,4.7-.2,5.1,3.1.3,3.1,0,5.7-3.9,6-2,.2-3.9.6-5.9,1.1-4.8,1.1-5.5,2.1-4.2,7,9.9,28.3,21.9,55.1,34.9,83.4h0s0,0,0,0Z"/>
        <path class="st1" d="M1111.1,478c-14-.3-27.4-3.1-39.6-10.3-3.1-1.8-5.1-4.2-6.2-7.5-4.2-12.5-5.2-25.4-5.3-38.4,0-2.9,1.8-3.8,4-4.1,2.7-.4,4.2,1.1,5.1,3.7,6.1,17.7,18.3,40.1,38.3,43.9,22.7,4.1,39.6-12,37.5-35.1-2.1-24.6-20.6-35.5-39.7-47-9.3-6-17.8-12.9-24.5-21.9-27.4-37.6-5.2-87.5,41-89,13.7-1,26.7,2.4,39.9,5.5,2.5.6,3,2.3,3.5,4.2,2.7,11.2,4,22.6,4.2,34.1,0,2.6-.7,4.2-3.4,4.5-2.6.2-4.9,0-5.7-3.3-4.3-17.6-16.8-34.4-36.7-33.1-33.2,1.5-36.7,42.1-13.5,59.9,7.7,6.7,16.9,11.2,25.6,16.4,9.7,5.8,18.5,12.5,25.2,21.7,13.8,19.2,16.4,40.2,7.6,62-9.4,24.3-32.9,33.4-57.3,33.7h0,0Z"/>
        <path class="st1" d="M1890,607.5c.1,24.2-.3,48.3.2,72.5.6,16.5,2.6,18.7,19.1,20.3,2.2.2,4.9-.6,5.9,2.5,1.4,4.1-.4,6.8-4.9,6.6-24.5-1-49-.9-73.5,0-3.3.1-5.1-.8-5.2-4.2-.2-3.3,1.3-4.8,4.7-5,4.1-.2,8.3-1,12.4-1.5,4.9-.6,7.6-3.5,8.7-8.3,1.5-6.9,1.6-13.9,1.6-20.9,0-45.5,0-91,0-136.5-.3-8.1-.9-8.8-9.1-8.7-18.2.6-39.2-3.7-49,15.8-1.5,2.9-3.3,5.8-4.3,9-1.3,3.8-3.8,3.8-6.7,2.9-3.4-1-2.7-3.4-2-6,3.3-12.4,6.3-24.8,8.6-37.4.2-.8.5-1.6.6-2.4.2-1.8,1.2-2.7,3-2.7,5.6,0,.4,7.1,10.9,8.4,2.6.3,5.3.5,8,.5,39.5,0,79,0,118.5,0,6.7,0,13.5,0,17.3-7.3.8-1.5,3-2,5-1.2,2.3.9,1.4,2.6,1.2,4.2-2.3,13.5-3.7,27.1-3.5,40.8,0,3-.1,5.3-3.8,5.6-3.9.4-4.7-2-5.2-5.1-2-12.8-6-21.8-19.9-23.8-11.1-1.7-22.3-1-33.4-1-3,0-4.7,1.5-4.8,4.6-.6,26.1-.3,52.6-.2,78.5h0Z"/>
        <path class="st1" d="M1275.2,371.2v67.5c0,5,.2,10,1.1,14.9,1.2,6.5,3.4,8.8,10,9.9,3.6.6,7.2,1.2,10.9,1.5,3.9.3,3.3,3,3.3,5.5,0,2.7-1.5,3.6-4.2,3.5-25-1.2-50-1.1-74.9,0-3.1.1-4.3-1.3-4.3-4,0-2.4-.2-4.7,3.3-5,4.3-.4,8.6-1.1,12.9-1.7,5.6-.8,7.9-2.7,9.3-8.2,1.5-5.9,1.7-11.9,1.7-17.9,0-47.3.3-94.6,0-142-.5-5.5-1.3-6.4-6.7-6.4-9,0-18,0-27,.4-10.6.4-18.8,5.1-23.9,14.7-1.7,3.2-3.4,6.5-4.8,9.9-1.3,3.2-3.3,3.8-6.3,2.8-3.2-1-3.3-2.9-2.5-5.8,3.5-12.7,6.4-25.5,8.9-38.4.3-1.8,0-4.2,3-4.5,2.7-.2,3.3,1.4,4,3.4,1.1,3.3,3.8,4.5,7,4.7,4.2.3,8.3.6,12.5.6,40.1-.3,80.3.7,120.4-.4,4.4-.2,8.1-1.8,10.3-5.8,1.4-2.5,3.6-3,5.9-2.1,2.5,1,1.1,3.1.8,4.8-2.1,13.3-3.6,26.7-3.4,40.3,0,2.9-.4,5-3.6,5.4-3.3.4-4.9-1.2-5.2-4.5-2.3-15.6-8.1-24.7-24.8-25-9.1-.5-18.3-.4-27.5-.4-5.1,0-6,.9-6.1,6.3-.1,25.2-.4,50.9,0,76h0Z"/>
        <path class="st1" d="M845.1,276.2c10.8,0,21.7,0,32.5,0,2.7,0,4.6.2,4.8,3.5.5,7.1-4.4,5-9.4,6.4-8.2,1.5-10.6,4.1-11.6,12.5-.8,6.8-1,13.6-1,20.5,0,38.7,0,77.3,0,116,0,5.3.4,10.7.9,16,.7,11.6,6.8,12.8,17,14,3.7.1,4.2,2.5,4,5.5-.2,3.5-2.4,3.7-5.2,3.5-21.5-1-43-1.1-64.5,0-3.1.2-4.9-.7-5-3.8-.2-2.7.3-5.1,3.8-5.2.8,0,1.6-.3,2.5-.5,12.1-1.8,13.9-3.5,15.1-15.7.6-5.8.5-11.6.5-17.5,0-40.3,0-80.7,0-121,0-4.7-.2-9.3-1.1-13.9-1.2-6.6-3.6-9-10.4-10.2-2-.4-3.9-.8-5.9-.9-3.5-.2-4.5-2.2-4.4-5.3.2-3.2,2-3.9,5-3.8,10.8.2,21.7,0,32.5,0h0s0,0,0,0Z"/>
        <path class="st1" d="M1741.2,709.3c-10.7,0-21.3,0-32,0-2.8,0-4.9,0-5.1-3.7-.2-3.4.9-5,4.6-5.5,14.2-1.8,16.1-3.9,16.7-18.4,1.3-29.7.4-59.3.5-89-.2-20.4,1.2-41.1-1.4-61.4-1.1-9-8.6-10.1-16.1-10.8-4.1,0-4.4-2.5-4.3-5.7.2-3.6,2.5-3.6,5.2-3.5,21.3,1.2,42.6,1.2,63.9,0,2.7-.1,5.1-.2,5.3,3.4.2,3.2-.2,5.7-4.2,5.7s-1.6.3-2.4.5c-11.3,1.8-13.8,4.2-14.6,15.7-.4,6.1-.5,12.3-.5,18.5.2,42.3-.2,84.7.4,127,.6,13.4,3.1,16.1,16.2,18,2.1.3,4.4,0,5,2.9.9,4.2-.5,6.2-4.9,6.1-5.5-.1-11-.4-16.5-.5-5.3,0-10.7,0-16,0v.5h0Z"/>
        <path class="st1" d="M286.2,371.6c0-.4.1-.8.2-1.2,8.8-5.1,18.3-6.8,28.3-5.6,14.9,1.8,27.7,7.9,37.5,19.5,3.6,4.3,6.9,9,10.5,13.8-6.8,3.9-13.9,4.1-20.9,3.5-19.6-1.7-35.9-10.2-49.4-24.4-1.9-2-4.2-3.8-6.3-5.6h0Z"/>
        <path class="st1" d="M255.5,390.4l.7,1.5c-5.5,7-10.4,14.5-16.7,20.9-8.2,8.3-18.4,12.8-29.4,15.6-6.1,1.6-12.3,2.7-18.7,1.7-1.6-.2-3.3,0-5.1-1.3,8.6-17.7,20.8-31.1,40.4-36.1,6.6-1.7,13.2-3.4,20-4,3.1-.3,6.3-1.1,8.9,1.6h0Z"/>
        <path class="st1" d="M533.4,404.1c0,.5,0,.9.1,1.4-6.5,13.4-15.1,24.9-29.5,30.1-9.9,3.6-20.3,6.4-31.2,3.8-4.5-1.1-5.4-2.5-3.6-7,1.8-4.2,4.4-8,7.6-11,12.7-12.3,27.6-19.3,45.6-18.3,3.6.2,7.3-.2,10.9,1h0Z"/>
        <path class="st1" d="M260,400.2c.4.4.8.7,1.2,1.1,4.7,17.3,3.5,34.3-3.9,50.6-3.9,8.7-9.5,16.4-16.8,22.6-2.4,2-4.4,2.4-4.4-1.5.1-13.4-2-26.8.3-40.3,2.6-14.9,10.3-25.5,23.5-32.5h0Z"/>
        <path class="st1" d="M212.3,346.1l1.9.2c5.2,14.4,2.1,27.4-6.6,39.4-6.6,9.1-14.3,17-24.9,21.6-3.3,1.5-4.6,1.1-4.4-2.6.4-6.8-.9-13.6.8-20.4,2.5-9.9,7.8-18.3,15.1-25.3,5.4-5.2,11.4-9.6,18.2-12.9h0Z"/>
        <path class="st1" d="M566.6,314.3c-.2-.6-.3-1.3-.5-1.9,9.9-17.4,26.9-18.5,44-19.3,7.5-.3,14.4,1.7,21.3,4.4,4,1.6,4.3,2.8.8,5.1-8.2,5.5-15.5,12.5-25.5,15.1-12,3.1-23.9,3.3-35.5-1.7-1.5-.6-3.1-1.1-4.6-1.7h0Z"/>
        <path class="st1" d="M267.5,398.8c22.2,1.3,45.8,30.5,37.5,56.1-20.9-4.4-37.7-32.7-38.3-55.2.3-.3.6-.6.9-1h0Z"/>
        <path class="st1" d="M585.8,244.1c-.5-.2-.9-.5-1.4-.7-3.8-6.9-2.2-14-.2-20.8,4.2-13.7,13.8-23.2,25-31.3,3.6-2.6,7.8-4.2,11.7-7.7,1.8,9.4-.7,17.6-3,25.8-4.2,14.7-14.3,24.3-27.2,31.5-1.7,1-3.7,1.5-5,3.2h0,0Z"/>
        <path class="st1" d="M557.3,351.2c-.4-.4-.8-.8-1.2-1.2,2.8-6.1,7.9-9.8,13.5-12.7,13.4-7.1,27.4-11,42.7-7.8,2.8.6,6.5.9,7.4,3.4,1,2.5-2.7,4-4.4,6-10.9,13.1-25.7,16.1-41.7,15.7-5.6-.1-11.4,0-16.4-3.3h0Z"/>
        <path class="st1" d="M428.3,205.5l-2.3-.4c-2.8-10.3,1-19.4,7.4-26.7,8.5-9.5,20-15.2,31.8-20,.3-.1.6.1,1.3.2,1.1,13.8-3.4,25.7-13.1,35.5-6.8,6.9-15,11.6-25.2,11.2h0Z"/>
        <path class="st1" d="M572.6,380.2c-.2-.4-.3-.8-.5-1.3.3-.9.3-2.1.9-2.8,11-12.9,24.1-21.6,41.7-22.1,6-.2,11.9-.5,17.7,1.3,3.5,1.1,3.8,2.5,1.4,5.1-15.5,17-34.3,24.4-57.2,20.2-1.3-.2-2.6-.4-3.9-.5h0Z"/>
        <path class="st1" d="M590.2,277c-.6-.6-1.3-1.2-1.9-1.8,12.2-14.5,28.5-18.4,46.5-17.8,6.7.2,11.5,4.5,17.1,8.2-14.6,12.1-30.3,19.2-49.2,17.1-4.7-.5-8.9-2.5-12.5-5.7h0Z"/>
        <path class="st1" d="M582.1,392.4c.1-.6.3-1.3.4-1.9,17-3.6,30.4,3.2,42.5,14.1,4.4,3.9,6.2,9.3,9.1,14.1,1.1,1.9.2,3.2-2.1,3.2-17.6.3-33.7-3.1-45.1-18.2-2.6-3.4-4.2-7.1-4.8-11.3h0Z"/>
        <path class="st1" d="M210.2,339.3c-.5,2.5,3.8,1.3,3.1,3.9-15.9,8.5-32.5,8-49.2,3.2-6.4-1.8-11.4-6.6-17.4-9.8,13.5-9.3,44.8-14.1,63.5,2.7h0Z"/>
        <path class="st1" d="M540.4,420.9c.8,0,1.5.2,2.3.3,13,17.5,13.2,40.5.3,59.1-16.8-11.1-18.1-42.8-2.6-59.4h0Z"/>
        <path class="st1" d="M529.3,189.2c0-.9-.2-1.7-.3-2.6-.4-3.1,1-5.7,2.4-8.4,8.3-17.1,22.4-27,40.1-32.5,1-.3,1.9-.6,2.9-.7,4.2-.6,5.1.4,4.1,4.5-1.8,7.4-6.2,13.3-11.2,18.5-10.5,10.6-23.1,18.1-37.9,21.3h0Z"/>
        <path class="st1" d="M517.2,152.1c-.1-.6-.2-1.2-.3-1.9,8.6-13.3,20.6-22.4,35.3-27.9,7.6-2.9,15.5-5.2,23.9-3.7-3.1,16.8-36.7,35.9-58.8,33.5h0Z"/>
        <path class="st1" d="M389.3,126l-1.8.4c-20.6-.6-36.9-36.2-27.7-55,3.5.7,5.6,3.5,7.6,5.9,11.9,14.1,20.5,29.8,21.9,48.6Z"/>
        <path class="st1" d="M396.1,125.7c-.6,0-1.1-.2-1.7-.3-3-3.5-2.8-8.1-3.7-12.2-3.9-18.7.7-36.1,7.6-53.5,9.2,11.8,10.7,25,10.3,38.8-.2,5.6-1.5,10.8-3.3,16-1.8,4.9-4.6,8.8-9.2,11.2Z"/>
        <path class="st1" d="M547.4,404.4c.3-.5.6-1.1.9-1.6,18.9-2.4,33.2,5.7,44.4,20.1,2.8,3.6,3.5,8.5,4,13.2.4,3.5-2.2,2.6-4,2.2-20.1-4.5-36-14.8-45.3-33.8h0Z"/>
        <path class="st1" d="M562.5,239.5c-.7-.1-1.3-.2-2-.4-2.3-7.3-3.6-14.6-3.5-22.4.2-14.7,6.3-26.5,17.2-36.7,5.9,10.5,6,21.6,5.1,32.7-1,11.1-7.1,19.4-16.1,25.7-.3.4-.5.7-.8,1.1h.2Z"/>
        <path class="st1" d="M483.5,118.1c0-.6-.2-1.3-.2-1.9,11.9-18.7,41-36.9,55.5-35.5,0,.3.2.8,0,.9-9.8,12.9-18.3,27.2-34.4,33.7-6.8,2.7-13.7,4-20.9,2.9h0Z"/>
        <path class="st1" d="M466.3,202.4l-1.2-1.1c.6-19.7,15.5-33.6,32-40,.9-.4,1.9-.8,2.9-.9,2.7-.3,6-3.5,7.6-1,1.6,2.5.2,6.5-1.5,9.4-3.6,6.5-8.3,11.9-13.9,16.9-7.8,6.9-17.3,11.1-25.9,16.7h0Z"/>
        <path class="st1" d="M236.6,316.9c-.1.5-.2,1-.3,1.5-7.2,4.4-15.2,4.2-23.2,3.7-13.3-.9-24.2-7.3-34.4-15.4,18.2-8.7,43-9.1,57.9,10.1h0Z"/>
        <path class="st1" d="M427,108.3c-.5.3-1.1.7-1.7,1.1-5.5-6.5-8.7-13.9-9-22.5-.1-3.8-.3-7.6-.4-11.4-.3-8.8,5.2-15.4,9.1-23.4,8.4,8,8.6,18.6,9.7,28.3,1,9.9-.5,19.9-7.7,28h0Z"/>
        <path class="st1" d="M479.5,115.4c-.5-.5-1-.9-1.4-1.4-.1-.3-.2-.7-.4-.9-12.1-17.8-5.5-34.1,4-50.2,1.3-2.2,3.4-2.9,4.3,0,4.4,13.2,7.4,26.6,2.7,40.5-1.7,5-4.9,9-9.2,12.1h0Z"/>
        <path class="st1" d="M442.6,322.4c-.1.6-.3,1.3-.4,2-10.5-.8-17.7-7.2-23.5-15.1-5.3-7.1-8.5-15.4-9.6-24.3-.3-2.1-1-4.1-1.6-6.2,13.5,1.6,32.3,19.2,35.1,43.6h0Z"/>
        <path class="st1" d="M510.3,128c-.6-.3-1.3-.6-2-.8,4-9.3,11-16.1,18.6-22.4,8.1-6.7,18.2-9.5,27.8-13.2,1.1-.4,2.4-.7,3.3,0,1.4,1.2.2,2.5-.3,3.6-5.9,12.7-15,22.2-28.4,27.1-6.2,2.3-12.6,4.2-19.1,5.6h0Z"/>
        <path class="st1" d="M590.2,249.5c0-.7,0-1.4,0-2,10.3-9.4,22.9-14,36.2-16.9,4.9-1.1,10.2-.9,15.3.5,3,.8,2.9,2,1.2,4.1-6.6,8-15.3,12.8-24.9,15.9-6.9,2.2-14.2,3.7-21.6,1.3-2.2-.7-4.3-1.6-6.2-2.9h0Z"/>
        <path class="st1" d="M451.8,109.3h-2c-6.6-12.7-7.1-26-3.6-39.7,1.6-6.4,4.9-11.8,10-16.6,3.7,9.1,4.3,18.3,5,27.5.8,10.9-1.3,20.8-9.4,28.8h0Z"/>
        <path class="st1" d="M491.1,212.1c.9-2.3-3.1-1.3-2.4-3.4,2,2.4,4.3.9,6.4.2,9.8-3.3,19.8-5.5,30.3-4.4,7,.8,14,1.7,20.1,6.2-15.3,10.6-38.9,14.2-54.4,1.4h0Z"/>
        <path class="st1" d="M471.5,266.5c-.2.8-.4,1.6-.6,2.4-18.7-4.7-29.6-14.6-33.9-34-.8-3.7.6-4.2,3.4-3.8,6.6.9,11.3,5.4,15.9,9.5,7.8,6.9,12,16.2,15.2,25.9h0Z"/>
        <path class="st1" d="M245.2,349.3c3.3,20-9.8,29.4-24.9,38.4-2-9.2-.2-17.4,4.1-25.1,4.3-7.7,11.3-12.1,19.9-14.2.3.3.7.6,1,.9h0Z"/>
        <path class="st1" d="M490.9,258.4c-.7,0-1.4.1-2,.2-10.3-10.4-15.1-24.6-7.5-37.8,2.3-4.1,3.5-4.3,7.1-.9,7.4,6.8,10.4,20.2,6.4,30-1.2,2.9-2.6,5.7-4,8.6h0Z"/>
        <path class="st1" d="M447.1,291.4c-.6.1-1.2.2-1.9.4-.9-.3-2-.4-2.8-.9-8.8-6.3-18.8-23.5-14-36.9.2-.4.5-.8.8-1.2,15,6.7,23.5,27.4,17.9,38.7h0Z"/>
        <path class="st1" d="M453.3,318.2c0-.8-.2-1.6-.9-2.1.6-11.9,6.5-21,14.9-28.8,2.2-2,4.5-6,7.5-4.4,2.8,1.5,1.3,5.9,1.2,8.9-.3,12.7-7.3,22.8-17.9,26.1-1.6.5-3.2.9-4.9.4h0Z"/>
        <path class="st1" d="M522.4,266.3l-1,1.1c-8.5-4.3-13.9-10.7-15-20.6-.8-7.4-1-14.4,3-21.5,7.3,5.3,11.2,12.2,12.8,20.7,1.2,6.8.1,13.6.2,20.4h0Z"/>
        <path class="st1" d="M533,258.5c-.7,0-1.4,0-2.1,0-4-2.7-3.2-6.9-2.7-10.5,1.4-10.3,5.5-19.5,14-26.1,1-.8,2.3-1.3,3.4-2,6.7,7.3-1.5,31.4-12.6,38.6h0Z"/>
        <path class="st1" d="M287.1,289c.5.4.9.8,1.3,1.1-3.5,5.1-5.6,11.1-11.2,14.8-4.7,3.1-9.6,5.2-15.2,5.1-4.3,0-4.8-1-3.6-5.2,3.5-11.7,13.3-17.6,26.6-16.1.7,0,1.3.2,2,.3h0Z"/>
        <path class="st1" d="M245.2,314.4c-.5,0-1-.2-1.6-.3-7.9-13.3-2.8-30.4,10.5-36.9,3,6.4,3.5,13.1,1.4,19.7-2,6.5-5.9,12.2-10.3,17.4h0Z"/>
        <path class="st1" d="M288.6,283.9c-.2.7-.5,1.4-.7,2-7.1-1.2-14.5-1.2-21.2-4.6-5.8-2.9-8.8-8.1-12.9-12.9,14.3-3.8,28.5,2.3,34.8,15.5h0Z"/>
        <path class="st1" d="M250.6,351.3c.8,0,1.6-.1,2.4-.1,8.1,1.3,12,15.3,9.4,22.9-1.1,3.1-2.7,6-4.2,9.4-7.8-7.7-12.2-16-8.8-26.8.6-1.7.8-3.5,1.3-5.3h0Z"/>
        <path class="st1" d="M454.8,759.7l.3.2v.3c-1,.7-1.8-.3-2.7-.2l2.5-.3Z"/>
        <path class="st1" d="M245.2,349.3c-.3-.3-.7-.6-1-.9.4-.7,1-1.2,1.9-1.3l.8.9c-.6.4-1.1.9-1.6,1.3h0Z"/>
        <path class="st1" d="M474.5,722.9c.2-.2.4-.2.6,0-.2.5-.4.6-.6,0Z"/>
        <path class="st1" d="M260,391.4h-.1c0,0,.1,0,.1,0Z"/>
        <path class="st1" d="M562.4,239.5c.3-.4.5-.7.8-1.1,0,.5,0,1.1-.8,1.1Z"/>
        <path class="st1" d="M221.8,218.3c-.1.6-.3,1.3-.4,1.9-6.9,3.5-14.2,2.9-21.5,2.6-17.3-.8-31.1-6.5-43.3-18.2,4.5-2.5,9.5-3.2,14.2-3.8,18.7-2.6,35.6,1.6,49.7,14.9.7.6.9,1.7,1.4,2.6h0,0Z"/>
        <path class="st1" d="M284.6,154.8c-.4.5-.8,1-1.2,1.5-14.4,6.8-29.2,7.2-44.1,2-6.3-2.2-11.9-5.9-17.3-9.8-1.5-1.1-2.7-2.5-2.8-4.7,23.9-8.7,45.2-1.9,65.4,11h0Z"/>
        <path class="st1" d="M229.9,212.8c-.4.2-.9.3-1.3.5-4.7-2.7-9.7-4.9-14.1-8.3-12.8-10.1-18.4-23.5-19.4-39.3-.2-3.6,0-7.2,0-12.1,5.9,4.2,10.9,7.7,14.7,12.4,10.6,13,17.6,27.7,19.6,44.5,0,.8.4,1.6.6,2.4h0,0Z"/>
        <path class="st1" d="M219.3,226.5l1.1,1.5c-3.1,6.2-6,12.5-11.2,17.4-8.3,7.6-17.8,12.7-29,14.5-4,.6-8.1,1.5-12.2,2.3,5.7-21,28.3-36.8,51.3-35.6h0Z"/>
        <path class="st1" d="M322.1,265.2c-.5,0-1-.1-1.5-.2-1-12.8,1.7-24.9,8-35.9,4.2-7.3,10.1-13.4,18.3-17.1,2.4,11.3,1.2,21.7-2.4,31.9-3,8.6-9.1,14.4-17.2,18.4-1.8.9-3.5,1.9-5.2,2.9h0Z"/>
        <path class="st1" d="M292.3,224.4c-6.2,3.1-12.4,3.1-18.8.8-11.3-4.1-20.6-10.7-26.6-21.4-.2-.4-.6-.8-.8-1.3-.8-2.1-2.8-4.5-1.3-6.5,1.3-1.7,4.1-.6,6.2-.3,18.2,2.6,30.6,14.3,42.2,27.2-.3.5-.6,1-.9,1.4h0Z"/>
        <path class="st1" d="M304.5,221.3c-.4-.2-.7-.4-1.1-.6,6.2-15.6,16.6-27.3,31.8-34.7,4.2-2,8.5-2.5,13.7-2.8-5.4,13.1-10.8,25.1-23.6,32.2-6.6,3.7-13.5,5-20.7,5.9h0Z"/>
        <path class="st1" d="M287.2,160.4c.4.3.9.7,1.3,1,.3,3.3-1.3,6-3.4,8-8.5,8.3-17.5,15.9-29.9,17.5-5.6.7-9.8.2-18-3.1,13-16.1,30.8-21.1,50-23.4h0Z"/>
        <path class="st1" d="M294.3,153.1c-.3,0-.7.1-1,.2-6.6-2.2-13.2-4.1-19.2-8-10.4-6.7-16.7-16.5-21.7-27.3-.6-1.2-.6-2.6.2-4.3,10.6,1.6,19.6,6.5,27.2,13.8,6.8,6.6,10.9,15,14.5,23.6.2.6,0,1.3,0,2h0Z"/>
        <path class="st1" d="M326.6,272c-.1-.5-.2-1.1-.4-1.6,6.3-4.8,12.7-9.5,19.7-13.4,8.5-4.7,17.7-6.2,27.4-5.5,4.2.3,4.8,1.4,2.6,4.3-8.6,11.3-20.3,17.2-34.2,18.9-5.2.6-10-1.8-15.1-2.6h0Z"/>
        <path class="st1" d="M298,221.8c-.5,0-1.1,0-1.6,0-10.1-10-10.5-22.4-8.7-35.3.7-5.1,1.5-10.2,4.5-14.7.9-1.4,1.5-2.9,3.6-3.7,2.2,3.9,3,8.3,4,12.6,1.6,7.3,4.5,14.3,3.9,22-.4,5.2-.5,10.3-4.1,14.6-1,1.2-1.8,2.8-1.4,4.6h0Z"/>
        <path class="st1" d="M307.5,111.3c0,.4-.2.8-.3,1.2-15.9,8.4-34.7,2.6-44.3-11.6-2-3-1.6-4.4,2-4.9,11.6-1.5,22.5,0,32.3,6.7,3.6,2.5,6.9,5.7,10.2,8.6h0Z"/>
        <path class="st1" d="M314.2,107.3c-.5,0-1.1,0-1.6,0-3.5-6.3-7.6-12.3-10-19.3-3.7-11.1-.9-22.3,8-28.9,9.4,10.5,11.1,33.5,3.7,48.2h0Z"/>
        <path class="st1" d="M292.3,224.4c.3-.5.6-1,.9-1.4.6.4,1.8.5,1.1,1.6-.6,1-1.4.2-2-.2h0Z"/>
      </g>
    </g>
  </g>
</svg>