<?xml version="1.0" encoding="UTF-8"?>
<svg id="Layer_1" xmlns="http://www.w3.org/2000/svg" xmlns:xlink="http://www.w3.org/1999/xlink" version="1.1" viewBox="0 0 202.2 160.3">
  <!-- Generator: Adobe Illustrator 29.6.0, SVG Export Plug-In . SVG Version: 2.1.1 Build 207)  -->
  <defs>
    <style>
      .st0 {
        fill: none;
      }

      .st1 {
        fill: #231f20;
      }

      .st2 {
        fill: url(#linear-gradient);
      }

      .st3 {
        fill: #ff9949;
      }

      .st4 {
        fill: #fff;
      }

      .st5 {
        fill: #ff6a45;
      }
    </style>
    <linearGradient id="linear-gradient" x1="22" y1="114.4" x2="179.3" y2="114.4" gradientTransform="translate(0 160) scale(1 -1)" gradientUnits="userSpaceOnUse">
      <stop offset="0" stop-color="#ffad48"/>
      <stop offset=".3" stop-color="#ff9949"/>
      <stop offset=".7" stop-color="#ff8147"/>
      <stop offset="1" stop-color="#ff6a45"/>
    </linearGradient>
  </defs>
  <path class="st0" d="M93.4,76.2c0,0,0,0-.1-.2,0,0,0,0,.1.1,0,0,0,0,0,0Z"/>
  <path class="st0" d="M93,75.8c0,0,0,.1,0,.2,0,0,0-.1,0-.2Z"/>
  <path class="st0" d="M93.1,75.1c0,0,0,.1,0,.2,0,0,0-.1,0-.2Z"/>
  <path class="st0" d="M93.1,38.6h0c-2.4,2.8-5.4,3.5-8.9,2-.3-.1-.6,0-.8.2l-12.2,12.2c-.2.2-.2.5,0,.8,2,3.3,2.3,6.8.8,10.3-.1.3,0,.7.3.9l10.2,6.9c.3.2.6.2.9,0,4.3-2.3,7.7-1.5,10.4,2.3.1.6.3,1,.7,1.3.2.2.6.3.9.2l22.7-7c.3,0,.5-.4.5-.7,0-2.2.7-4.2,1.9-6,.2-.3.2-.8-.2-1l-17.3-15-8.8-7.5c-.2-.2-.6-.2-.8,0Z"/>
  <path class="st0" d="M93,75.6v-.2c0,0,0,.1,0,.2Z"/>
  <path class="st0" d="M103.1,8.5c-1.3,0-2.2.6-2.6,1.5-5.5,11.7-8.2,17.6-8.3,17.8-.2.3-.2.8,0,1,1.2,1.3,2,2.9,2.5,4.8.2.7.5,1.2,1,1.7l7.1,6.3,20.1,17.3c.8.7,2.1.6,2.8-.2.3-.3.5-.8.5-1.3v-26.2c0-.3-.2-.6-.5-.6-3.7-1-4-3.7-4.2-7.1,0-.6-.3-1.2-.8-1.6l-15-11.9-1.8-1.3c-.3-.2-.6-.3-.9-.3Z"/>
  <path class="st3" d="M59.5,17.7c-.5-.2-.8-.8-.8-1.3.1-2.7-1.1-4.7-3.5-6.1-7-3.9-13.8,5.9-7.4,11.2,3.3,2.6,6.2,1.4,9.3-.6.3-.2.7-.2,1,0l19.7,8.8c.9-1,2.1-1.7,3.4-2.1l-21.7-9.8Z"/>
  <path class="st2" d="M170.4,27.9c.2-.2.6-.3.9-.2,9.2,3.2,10.9-10,2.8-10.3-3-.1-5.7,2.2-5.6,5.6,0,.8,0,1.2,0,1.4,0,.4-.2.7-.5,1l-14.8,12.6c-.3.2-.6.3-1,0l-15.9-9.3-3.2-2c-.2-.2-.4-.4-.4-.7,0-4.2-1.9-6.6-5.8-7.1-1-.1-2.6.6-3.6.9-.3.1-.7,0-1-.2l-15.9-12.7c-.7-.6-1.4-1.3-1.5-2.2-.4-3.5-3.3-5.7-6.7-4.1-3.1,1.5-2.2,4.4-1.6,6.9,0,.3,0,.6,0,.9l-8.3,17.8c-.2.3-.4.5-.8.6-2.4.8-4.6.9-6.5.4-1.3.4-2.5,1.1-3.4,2.1l2,1c.3.2.5.6.3.9-.8,1.9-.8,3.8,0,5.8.2.5,0,1-.3,1.4l-11.9,11.9c-.2.2-.6.3-.8.1-1.8-1-3.7-1.5-5.6-1.6-4.2,0-7.4,1.7-9.6,5.3-.2.3-.6.4-.9.3l-17.1-8c-.3-.1-.5-.4-.5-.8-.4-7.1-10.2-7.6-11.2-1-.4,2.8.7,4.9,3.4,6.2,1.9.9,4,.5,6.3-1.2.2-.2.5-.2.7,0l17.4,8.1c.3.1.5.4.4.8-.3,3.3.7,6.1,3,8.6.2.2.2.5,0,.7l-8.6,12.7c-.3.4-.7.7-1.2.7-2.3.3-3.7,1.3-4.2,2.9-1.6,5.9,7,8,8.2,1.5,0-.3,0-.6-.2-1-.2-.5-.3-.8-.3-.9,0-.5.2-.9.5-1.3l8.4-12.4c.2-.3.5-.4.8-.3,3.4,1.2,6.5,1,9.3-.6.8-.3,1.5-.8,2.1-1.4.2-.2.5-.2.7,0l10.1,6.8c.4.2.5.7.4,1.1-1.5,7,5.9,12.7,11.6,7.7,1.6-1.4,2-3.9,5-4.6l21.7-6.7c.4-.1.8,0,1,.3,3.4,4.5,7.8,5.4,13,2.8.3-.2.7,0,.9.1l10,10c.3.3.4.6.4,1,0,5.4,7.4,6.9,9.4,2,1-2.6.4-4.7-2-6.2-2.1-1.3-3.4-.4-5.3,0-.4,0-.8,0-1-.3l-9.2-9.2c-.2-.2-.2-.5-.2-.7,2.2-6.1.5-11.2-6-13.2-.2,0-.3-.2-.3-.5v-26c0-.4.1-.9.3-1.2.7-1.2,2.2-1.6,3.3-.9l4.6,2.7,13.9,8.2c.9.5,1.6,1.2,2.1,2,5.5,7.8,11,15.4,16.4,23,.2.3.3.8.2,1.3-.6,5.3,8,4.1,5.9-1-.4-1.1-1.7-1.5-2.7-1.9-.4-.1-.6-.3-.9-.7l-16.2-22.6c-.1-.2,0-.4,0-.5,0,0,14.8-12.6,14.8-12.6ZM92.5,76.2s0,0-.1-.1c0,0,0,.1.1.2,0,0,0,0,0,0ZM119.4,62.2c-1.2,1.8-1.8,3.8-1.9,6,0,.3-.2.6-.5.7l-22.7,7c-.3,0-.7,0-.9-.2-.3-.3-.5-.8-.7-1.3-2.6-3.8-6.1-4.5-10.4-2.3-.3.2-.7.1-.9,0l-10.2-6.9c-.3-.2-.4-.6-.3-.9,1.5-3.5,1.2-7-.8-10.3-.2-.3-.1-.6,0-.8l12.2-12.2c.2-.2.6-.3.8-.2,3.6,1.5,6.6.8,8.9-2h0c.2-.2.6-.3.8,0l8.8,7.5,17.3,15c.3.3.4.7.2,1ZM125.4,57.4c0,.5-.2.9-.5,1.3-.7.8-1.9.9-2.8.2l-20.1-17.3-7.1-6.3c-.5-.4-.9-1-1-1.7-.5-2-1.3-3.6-2.5-4.9-.3-.3-.3-.7,0-1,.1-.1,2.9-6.1,8.3-17.8.4-.9,1.3-1.4,2.6-1.5.3,0,.6,0,.9.3l1.8,1.3,15,11.9c.5.4.8,1,.8,1.6.2,3.3.5,6,4.2,7.1.3,0,.5.4.5.6v26.2h0Z"/>
  <ellipse class="st4" cx="168.3" cy="96" rx="4.6" ry="4.1" transform="translate(-2 3.5) rotate(-1.2)"/>
  <path class="st1" d="M159.9,110c-7.6-.7-8.3,4.2-8.1,10.7,0,2.6,0,5.3,0,8,0,.2-.1.3-.3.3h-6.6c-.2,0-.3-.1-.3-.3v-24.2c0-.4.3-.7.7-.7h5.5c.4,0,.7.3.7.7h0v1.8c0,.2.2.3.4.3s.2,0,.2-.1c2-2.1,4.6-3.2,7.8-3.1.1,0,.3.1.3.3v6.1c0,.1-.1.2-.2.2h0Z"/>
  <path class="st1" d="M184.3,116.3c0,7,7.7,9.6,12.1,4.2.2-.3.6-.3.9-.2l3.9,1.8c.9.4,1.2,1.4.8,2.3,0,.2-.2.3-.4.5-4.7,4.6-10.2,5.7-16.6,3.4-5.1-1.9-8.1-6.5-8.1-11.9,0-5.4,3-10,8.2-11.9,6.4-2.3,11.9-1.2,16.5,3.4s.7,1.7,0,2.4-.3.3-.5.3l-3.9,1.8c-.3.1-.7,0-.9-.2-4.3-5.4-12.1-2.8-12.1,4.1Z"/>
  <path class="st1" d="M6.9,105.6c0,.2.2.5.5.5s.2,0,.3,0c.2-.2.7-.5,1.4-1,3.9-2.7,9.8-2,12.9.3,2.3,1.7,3.6,4.2,3.8,7.6.1,2.4.2,7.7,0,15.7,0,.3-.2.5-.5.5h-6.2c-.3,0-.6-.3-.6-.6h0c0-5.3,0-9.7-.1-13.4-.2-8-10.4-7.1-11,0-.2,1.7-.2,6.2,0,13.3,0,.3-.2.5-.5.6H.5c-.3,0-.5-.2-.5-.5h0s0-24.3,0-24.3c0-.3.3-.6.6-.6h5.7c.3,0,.5.2.5.5h0v1.5h0Z"/>
  <path class="st1" d="M71.8,105.8c0,.2.2.3.3.3s.2,0,.2,0c4.5-3.8,11.6-3.8,15.4.8.2.2.6.3.8,0h0c5.1-4.7,13.6-5.1,17.5.7,1.1,1.6,1.6,5,1.6,10.1,0,3,0,6.6,0,10.8,0,.2-.2.4-.4.4h-6.5c-.2,0-.4-.2-.4-.4h0c0-5.6,0-10.2,0-13.5-.2-8.1-10.3-6.8-10.5.8-.1,4.8-.1,9,0,12.8,0,.2-.2.4-.4.4h-6.5c-.2,0-.4-.2-.4-.4h0c0-5.6,0-10.1,0-13.5,0-2.8-1-4.4-2.8-5.1-4.5-1.5-7.6,1.7-7.7,6.3,0,5.6,0,9.7,0,12.4,0,.2-.1.3-.3.3h-6.6c-.1,0-.3-.1-.3-.2h0v-24.4c0-.3.2-.5.5-.5h5.7c.3,0,.5.2.5.5v1.6h0Z"/>
  <path class="st1" d="M120.3,119.1c2.3,5.2,9,5.6,12.9,2.5.4-.3,1.1-.3,1.5.2l2.5,2.9c.3.4.3.9-.1,1.2h0c-7.6,6.2-22.5,3.8-24-7.6-1.1-8.7,5-15.6,13.8-15.1,8,.5,12.2,5.1,12.7,13.9,0,.6-.4,1.1-1,1.1h-17.9c-.3,0-.5.2-.5.5,0,0,0,.1,0,.2ZM120.3,114.2h12.1c0,0,.1-.1.1-.2h0c0-2.9-2.7-5.2-6.1-5.2h-.3c-3.3,0-6,2.3-6,5.2h0c0,.1,0,.2.1.2h0Z"/>
  <path class="st1" d="M50.6,126.6c-.2.2-.7.5-1.4,1-3.9,2.7-9.7,2-12.8-.3-2.3-1.7-3.5-4.1-3.8-7.5-.2-2.4-.2-7.6-.1-15.6,0-.3.2-.5.5-.5h6.2c.3,0,.5.2.5.6h0c0,5.2,0,9.7.1,13.3.3,7.9,10.3,7.1,10.9-.1.2-1.7.2-6.1,0-13.2,0-.3.2-.5.5-.6h6.3c.3,0,.5.2.5.5h0v24.1c0,.3-.3.6-.6.6h-5.7c-.3,0-.5-.2-.5-.5v-1.5c0-.2-.2-.5-.5-.5s-.2,0-.3,0Z"/>
  <rect class="st1" x="164.7" y="103.7" width="7.1" height="25.2" rx=".3" ry=".3" transform="translate(-.2 .3) rotate(0)"/>
  <path class="st5" d="M32,141c4.1,0,6.5,3.2,6.5,6.7s-.5,1.1-1.2,1.1h-9.7c.2,2.6,2,4.7,4.9,4.7s2.6-.4,3.6-1.3c.1,0,.3-.1.5-.1.5,0,.9.4.9.8s-.1.5-.4.7c-1.3,1-2.9,1.6-4.8,1.6-4,0-6.9-2.9-6.9-7.1s2.8-7.1,6.7-7.1h0ZM27.5,147.2h8.9c0-2-1.4-4.5-4.5-4.5s-4.3,2.4-4.4,4.5h0Z"/>
  <path class="st5" d="M53.8,145.4v8.6c0,.6-.5,1-1.1,1s-1-.5-1-1v-7.9c0-2.4-1.2-3.1-3-3.1s-3.2,1-4,2.1v9c0,.6-.5,1-1,1s-1.1-.5-1.1-1v-11.7c0-.6.5-1,1-1s1.1.5,1.1,1v1.1c.9-1.1,2.7-2.3,4.8-2.3s4.3,1.4,4.3,4.4h0Z"/>
  <path class="st5" d="M70.6,142.2v12.2c0,4.5-3.1,5.9-6.4,5.9s-3.4-.3-4.9-1.5c-.2-.2-.4-.4-.4-.7,0-.5.4-.9.9-.9s.4,0,.5.2c1.1.9,2.2,1.3,3.8,1.3s4.3-1.1,4.3-4.1v-1.9c-1,1.4-2.7,2.4-4.5,2.4-3.5,0-6-2.6-6-7s2.5-7,6-7,3.4.9,4.5,2.4v-1.1c0-.6.5-1,1.1-1s1,.5,1,1h0ZM68.5,151v-5.9c-.7-1.2-2.3-2.2-4-2.2-2.7,0-4.3,2.2-4.3,5.1s1.6,5.1,4.3,5.1,3.3-1,4-2.2h0Z"/>
  <path class="st5" d="M75.1,137.2c0-.8.6-1.4,1.4-1.4s1.4.6,1.4,1.4-.6,1.4-1.4,1.4-1.4-.6-1.4-1.4ZM75.5,153.9v-11.7c0-.6.5-1,1.1-1s1,.5,1,1v11.7c0,.6-.5,1-1.1,1s-1-.5-1-1h0Z"/>
  <path class="st5" d="M93.7,145.4v8.6c0,.6-.5,1-1.1,1s-1-.5-1-1v-7.9c0-2.4-1.2-3.1-3-3.1s-3.2,1-4,2.1v9c0,.6-.5,1-1,1s-1.1-.5-1.1-1v-11.7c0-.6.5-1,1-1s1.1.5,1.1,1v1.1c.9-1.1,2.7-2.3,4.8-2.3s4.3,1.4,4.3,4.4h0Z"/>
  <path class="st5" d="M104.5,141c4.1,0,6.5,3.2,6.5,6.7s-.4,1.1-1.2,1.1h-9.7c.2,2.6,2,4.7,4.9,4.7s2.6-.4,3.6-1.3c.1,0,.3-.1.5-.1.5,0,.9.4.9.8s-.1.5-.4.7c-1.3,1-2.9,1.6-4.8,1.6-4,0-6.9-2.9-6.9-7.1s2.8-7.1,6.7-7.1h0ZM100,147.2h8.9c0-2-1.4-4.5-4.4-4.5s-4.3,2.4-4.4,4.5h0Z"/>
  <path class="st5" d="M120.9,141c4.1,0,6.5,3.2,6.5,6.7s-.4,1.1-1.2,1.1h-9.7c.2,2.6,2,4.7,4.9,4.7s2.6-.4,3.6-1.3c.1,0,.3-.1.5-.1.5,0,.9.4.9.8s-.1.5-.4.7c-1.3,1-2.9,1.6-4.8,1.6-4,0-6.9-2.9-6.9-7.1s2.8-7.1,6.7-7.1h0ZM116.5,147.2h8.9c0-2-1.4-4.5-4.4-4.5s-4.3,2.4-4.4,4.5h0Z"/>
  <path class="st5" d="M138.3,142.1c0,.5-.4.9-1.1,1-1.2,0-2.9,1-3.5,2.1v8.6c0,.6-.5,1-1,1s-1.1-.5-1.1-1v-11.7c0-.6.5-1,1-1s1.1.5,1.1,1v1.3c.8-1.1,1.9-2,3-2.3.3,0,.4-.1.7-.1.6,0,.9.5.9,1h0Z"/>
  <path class="st5" d="M141.1,137.2c0-.8.6-1.4,1.4-1.4s1.4.6,1.4,1.4-.6,1.4-1.4,1.4-1.4-.6-1.4-1.4ZM141.5,153.9v-11.7c0-.6.5-1,1.1-1s1,.5,1,1v11.7c0,.6-.5,1-1.1,1s-1-.5-1-1h0Z"/>
  <path class="st5" d="M159.7,145.4v8.6c0,.6-.5,1-1.1,1s-1-.5-1-1v-7.9c0-2.4-1.2-3.1-3-3.1s-3.2,1-4,2.1v9c0,.6-.5,1-1,1s-1.1-.5-1.1-1v-11.7c0-.6.5-1,1-1s1.1.5,1.1,1v1.1c.9-1.1,2.7-2.3,4.8-2.3s4.3,1.4,4.3,4.4h0Z"/>
  <path class="st5" d="M176.5,142.2v12.2c0,4.5-3.1,5.9-6.4,5.9s-3.4-.3-4.9-1.5c-.2-.2-.4-.4-.4-.7,0-.5.4-.9.9-.9s.4,0,.5.2c1.1.9,2.2,1.3,3.8,1.3s4.3-1.1,4.3-4.1v-1.9c-1,1.4-2.7,2.4-4.5,2.4-3.5,0-6-2.6-6-7s2.5-7,6-7,3.4.9,4.5,2.4v-1.1c0-.6.5-1,1.1-1s1,.5,1,1h0ZM174.4,151v-5.9c-.7-1.2-2.4-2.2-4-2.2-2.7,0-4.3,2.2-4.3,5.1s1.6,5.1,4.3,5.1,3.3-1,4-2.2h0Z"/>
</svg>