<?xml version="1.0" encoding="UTF-8" standalone="no"?>
<!DOCTYPE svg PUBLIC "-//W3C//DTD SVG 1.1//EN" "http://www.w3.org/Graphics/SVG/1.1/DTD/svg11.dtd">
<svg xmlns="http://www.w3.org/2000/svg" version="1.1" viewBox="0.00 0.00 225.00 225.00">
<g stroke-width="2.00" fill="none" stroke-linecap="butt">
<path stroke="#ffd6a4" vector-effect="non-scaling-stroke" d="
  M 92.10 59.17
  L 70.43 49.42
  A 1.36 1.36 0.0 0 1 69.62 48.10
  Q 69.80 44.04 66.09 42.00
  C 59.05 38.11 52.26 47.95 58.68 53.17
  C 61.94 55.81 64.86 54.61 67.97 52.54
  A 1.03 1.00 39.5 0 1 68.95 52.46
  L 88.67 61.29"
/>
<path stroke="#ffcca4" vector-effect="non-scaling-stroke" d="
  M 88.67 61.29
  L 90.71 62.26
  A 0.70 0.70 0.0 0 1 91.04 63.18
  Q 89.78 65.98 91.11 69.01
  A 1.24 1.23 55.9 0 1 90.85 70.37
  L 78.93 82.29
  A 0.70 0.69 37.2 0 1 78.10 82.40
  Q 75.44 80.94 72.47 80.76"
/>
<path stroke="#ffd6a4" vector-effect="non-scaling-stroke" d="
  M 72.47 80.76
  Q 66.18 80.67 62.85 86.10
  A 0.74 0.73 28.1 0 1 61.92 86.38
  L 44.86 78.41
  A 0.89 0.87 -79.4 0 1 44.36 77.66
  C 43.96 70.55 34.15 70.04 33.20 76.62
  Q 32.59 80.85 36.59 82.78
  Q 39.46 84.15 42.85 81.63
  A 0.66 0.66 0.0 0 1 43.53 81.56
  L 60.94 89.70
  A 0.76 0.75 -75.4 0 1 61.38 90.46
  Q 60.93 95.36 64.33 99.10
  A 0.58 0.56 41.9 0 1 64.38 99.80
  L 55.82 112.48
  A 1.72 1.70 12.6 0 1 54.65 113.21
  Q 51.13 113.71 50.49 116.12
  C 48.91 122.05 57.50 124.13 58.64 117.60
  Q 58.72 117.16 58.48 116.58
  Q 58.17 115.83 58.19 115.65
  A 3.02 2.93 -25.7 0 1 58.68 114.32
  L 67.11 101.92
  A 0.69 0.69 0.0 0 1 67.91 101.66
  Q 73.02 103.47 77.24 101.09"
/>
<path stroke="#ffcca4" vector-effect="non-scaling-stroke" d="
  M 77.24 101.09
  Q 78.41 100.58 79.37 99.68
  A 0.61 0.60 -49.3 0 1 80.11 99.62
  L 90.24 106.47
  A 1.08 1.07 23.4 0 1 90.69 107.58
  C 89.15 114.54 96.62 120.25 102.27 115.25
  C 103.88 113.82 104.24 111.37 107.27 110.65"
/>
<path stroke="#ffc0a3" vector-effect="non-scaling-stroke" d="
  M 107.27 110.65
  L 128.94 103.96
  A 0.95 0.93 62.6 0 1 129.96 104.29
  Q 135.11 111.09 142.98 107.04
  A 0.79 0.78 -35.9 0 1 143.89 107.18
  L 153.86 117.15
  A 1.44 1.39 -68.7 0 1 154.27 118.13
  C 154.36 123.53 161.70 125.01 163.63 120.14
  Q 165.17 116.25 161.59 113.95
  C 159.49 112.61 158.22 113.56 156.25 113.99
  A 1.14 1.12 61.1 0 1 155.21 113.68
  L 145.99 104.46
  A 0.71 0.69 -57.9 0 1 145.83 103.73
  C 148.04 97.62 146.37 92.48 139.80 90.57
  A 0.47 0.46 -81.7 0 1 139.47 90.12
  L 139.47 64.07
  A 2.45 2.44 -75.0 0 1 143.14 61.95
  L 147.75 64.62"
/>
<path stroke="#ffb5a2" vector-effect="non-scaling-stroke" d="
  M 147.75 64.62
  L 161.61 72.81
  A 6.83 6.83 0.0 0 1 163.76 74.78
  Q 172.07 86.42 180.20 97.78
  Q 180.53 98.24 180.44 99.11
  C 179.87 104.45 188.47 103.24 186.33 98.07
  C 185.88 96.98 184.66 96.57 183.67 96.21
  A 1.82 1.80 81.8 0 1 182.81 95.56
  L 166.62 72.92
  A 0.40 0.39 -38.3 0 1 166.69 72.39
  L 181.50 59.78
  A 0.96 0.94 34.0 0 1 182.43 59.61
  C 191.59 62.79 193.30 49.59 185.26 49.28
  C 182.22 49.16 179.52 51.49 179.69 54.92
  Q 179.75 56.06 179.72 56.28
  A 1.57 1.52 75.1 0 1 179.19 57.23
  L 164.35 69.87
  A 0.84 0.83 40.1 0 1 163.39 69.95
  L 147.48 60.63"
/>
<path stroke="#ffc0a3" vector-effect="non-scaling-stroke" d="
  M 147.48 60.63
  L 144.24 58.60
  A 0.87 0.85 -74.3 0 1 143.84 57.87
  Q 143.91 51.55 138.03 50.76
  C 136.99 50.62 135.41 51.33 134.42 51.61
  A 1.14 1.12 56.2 0 1 133.40 51.40
  L 117.48 38.70"
/>
<path stroke="#ffcca4" vector-effect="non-scaling-stroke" d="
  M 117.48 38.70
  C 116.75 38.14 116.05 37.44 115.94 36.48
  C 115.54 33.03 112.68 30.79 109.29 32.40
  C 106.15 33.90 107.11 36.84 107.73 39.35
  A 1.43 1.41 -39.5 0 1 107.63 40.30
  L 99.31 58.12
  A 1.23 1.22 3.9 0 1 98.56 58.77
  Q 94.90 59.89 92.10 59.17"
/>
<path stroke="#ff8d48" vector-effect="non-scaling-stroke" d="
  M 117.48 38.70
  L 116.00 41.95"
/>
<path stroke="#ffcca4" vector-effect="non-scaling-stroke" d="
  M 116.00 41.95
  L 114.20 40.62
  A 1.38 1.37 61.0 0 0 113.31 40.36
  Q 111.37 40.49 110.75 41.83
  Q 102.56 59.38 102.40 59.60
  A 0.81 0.80 -48.6 0 0 102.46 60.64
  Q 104.26 62.53 104.99 65.49
  A 3.30 3.27 -76.6 0 0 106.02 67.18
  L 113.08 73.44"
/>
<path stroke="#ff8d48" vector-effect="non-scaling-stroke" d="
  M 113.08 73.44
  Q 113.97 75.89 113.01 77.99"
/>
<path stroke="#ffcca4" vector-effect="non-scaling-stroke" d="
  M 113.01 77.99
  L 104.18 70.45
  A 0.58 0.58 0.0 0 0 103.35 70.52
  Q 99.75 74.78 94.40 72.53
  A 0.78 0.78 0.0 0 0 93.55 72.70
  L 81.39 84.86
  A 0.65 0.65 0.0 0 0 81.30 85.67
  Q 84.32 90.64 82.10 95.97
  A 0.73 0.72 -61.7 0 0 82.36 96.85
  L 92.61 103.78
  A 0.92 0.91 -41.9 0 0 93.54 103.83
  Q 99.95 100.44 103.90 106.10"
/>
<path stroke="#ff8d48" vector-effect="non-scaling-stroke" d="
  M 103.90 106.10
  L 103.40 106.76
  A 0.96 0.95 -54.4 0 0 103.62 108.12
  L 107.27 110.65"
/>
<path stroke="#ffa349" vector-effect="non-scaling-stroke" d="
  M 77.24 101.09
  Q 78.23 95.70 78.03 89.51
  Q 77.82 83.40 72.47 80.76"
/>
<path stroke="#ffa349" vector-effect="non-scaling-stroke" d="
  M 88.67 61.29
  Q 90.09 59.78 92.10 59.17"
/>
<path stroke="#ff7646" vector-effect="non-scaling-stroke" d="
  M 147.48 60.63
  Q 148.84 62.76 147.75 64.62"
/>
<path stroke="#ffc0a3" vector-effect="non-scaling-stroke" d="
  M 103.90 106.10
  Q 104.10 106.96 104.55 107.45
  A 0.87 0.85 60.2 0 0 105.44 107.70
  L 128.09 100.67
  A 0.73 0.73 0.0 0 0 128.61 100.00
  Q 128.75 96.71 130.49 94.02
  A 0.81 0.81 0.0 0 0 130.34 92.97
  L 113.01 77.99"
/>
<path stroke="#ffc0a3" vector-effect="non-scaling-stroke" d="
  M 113.08 73.44
  L 133.20 90.78
  A 1.97 1.97 0.0 0 0 136.45 89.29
  L 136.46 63.12
  A 0.68 0.67 8.0 0 0 135.96 62.47
  C 132.29 61.42 132.00 58.73 131.78 55.39
  A 2.20 2.20 0.0 0 0 130.96 53.81
  L 116.00 41.95"
/>
<path stroke="#9d9d9d" vector-effect="non-scaling-stroke" d="
  M 184.1690 132.2041
  A 4.58 4.08 -1.2 0 0 179.5046 128.2209
  A 4.58 4.08 -1.2 0 0 175.0110 132.3959
  A 4.58 4.08 -1.2 0 0 179.6754 136.3791
  A 4.58 4.08 -1.2 0 0 184.1690 132.2041"
/>
<path stroke="#9d9d9d" vector-effect="non-scaling-stroke" d="
  M 171.45 139.93
  A 0.29 0.28 90.0 0 0 171.17 139.64
  Q 166.42 139.54 163.37 142.73
  A 0.35 0.35 0.0 0 1 162.77 142.49
  L 162.77 140.71
  A 0.74 0.74 0.0 0 0 162.03 139.97
  L 156.55 139.97
  A 0.72 0.72 0.0 0 0 155.83 140.69
  L 155.83 164.94
  A 0.31 0.31 0.0 0 0 156.14 165.25
  L 162.77 165.25
  A 0.30 0.30 0.0 0 0 163.07 164.96
  Q 163.21 160.91 163.07 156.96
  C 162.86 150.50 163.64 145.52 171.19 146.26
  A 0.25 0.24 -87.9 0 0 171.45 146.01
  L 171.45 139.93"
/>
<path stroke="#9d9d9d" vector-effect="non-scaling-stroke" d="
  M 188.31 152.59
  C 188.30 158.04 191.27 162.61 196.40 164.52
  Q 205.96 168.09 212.95 161.16
  A 1.70 1.70 0.0 0 0 212.47 158.41
  L 208.61 156.61
  A 0.73 0.72 -57.7 0 0 207.74 156.81
  C 203.37 162.18 195.63 159.57 195.65 152.61
  C 195.66 145.66 203.43 143.08 207.76 148.48
  A 0.73 0.72 58.0 0 0 208.63 148.68
  L 212.50 146.90
  A 1.70 1.70 0.0 0 0 213.00 144.15
  Q 206.04 137.19 196.47 140.70
  C 191.33 142.59 188.33 147.14 188.31 152.59"
/>
<path stroke="#9d9d9d" vector-effect="non-scaling-stroke" d="
  M 18.18 141.91
  L 18.19 140.40
  A 0.48 0.48 0.0 0 0 17.70 139.92
  L 11.96 139.91
  A 0.61 0.61 0.0 0 0 11.35 140.51
  L 11.31 164.83
  A 0.49 0.49 0.0 0 0 11.80 165.33
  L 18.11 165.34
  A 0.55 0.55 0.0 0 0 18.65 164.79
  Q 18.50 154.13 18.74 151.52
  C 19.41 144.28 29.51 143.44 29.76 151.42
  Q 29.93 156.86 29.86 164.79
  A 0.56 0.56 0.0 0 0 30.42 165.35
  L 36.63 165.36
  A 0.50 0.49 -89.9 0 0 37.12 164.86
  Q 37.27 152.78 37.04 149.14
  Q 36.71 144.07 33.25 141.57
  C 30.10 139.29 24.25 138.60 20.35 141.29
  Q 19.26 142.04 18.90 142.29
  A 0.46 0.46 0.0 0 1 18.18 141.91"
/>
<path stroke="#9d9d9d" vector-effect="non-scaling-stroke" d="
  M 83.14 142.10
  L 83.14 140.47
  A 0.48 0.48 0.0 0 0 82.66 139.99
  L 76.93 139.99
  A 0.54 0.54 0.0 0 0 76.39 140.53
  L 76.39 164.96
  A 0.26 0.25 -0.0 0 0 76.65 165.21
  L 83.25 165.21
  A 0.29 0.29 0.0 0 0 83.54 164.91
  Q 83.45 160.85 83.50 152.50
  C 83.52 147.95 86.67 144.71 91.16 146.24
  Q 93.87 147.17 93.97 151.30
  Q 94.09 156.43 93.96 164.80
  A 0.44 0.44 0.0 0 0 94.40 165.25
  L 100.89 165.25
  A 0.41 0.41 0.0 0 0 101.30 164.83
  Q 101.09 159.22 101.27 152.05
  C 101.45 144.53 111.56 143.21 111.77 151.29
  Q 111.90 156.37 111.80 164.83
  A 0.41 0.41 0.0 0 0 112.21 165.25
  L 118.67 165.25
  A 0.44 0.43 -0.6 0 0 119.11 164.81
  Q 119.05 158.46 119.09 153.99
  Q 119.17 146.31 117.53 143.89
  C 113.60 138.09 105.04 138.52 99.99 143.21
  A 0.58 0.57 48.4 0 1 99.16 143.16
  C 95.32 138.60 88.25 138.56 83.71 142.37
  A 0.35 0.35 0.0 0 1 83.14 142.10"
/>
<path stroke="#9d9d9d" vector-effect="non-scaling-stroke" d="
  M 132.11 154.68
  L 149.91 154.68
  A 1.06 1.06 0.0 0 0 150.97 153.57
  Q 150.28 140.37 138.27 139.64
  C 129.48 139.11 123.31 146.07 124.44 154.74
  C 125.91 166.12 140.83 168.54 148.41 162.31
  A 0.89 0.88 50.2 0 0 148.52 161.05
  L 146.02 158.11
  A 1.07 1.07 0.0 0 0 144.55 157.95
  C 140.58 161.02 133.94 160.65 131.63 155.42
  A 0.53 0.53 0.0 0 1 132.11 154.68"
/>
<path stroke="#9d9d9d" vector-effect="non-scaling-stroke" d="
  M 62.58 163.25
  L 62.58 164.74
  A 0.48 0.48 0.0 0 0 63.06 165.22
  L 68.75 165.22
  A 0.60 0.60 0.0 0 0 69.35 164.62
  L 69.35 140.52
  A 0.49 0.49 0.0 0 0 68.86 140.03
  L 62.61 140.03
  A 0.54 0.54 0.0 0 0 62.07 140.58
  Q 62.24 151.14 62.01 153.73
  C 61.36 160.90 51.35 161.75 51.09 153.85
  Q 50.91 148.45 50.96 140.60
  A 0.55 0.55 0.0 0 0 50.41 140.04
  L 44.26 140.04
  A 0.50 0.49 -90.0 0 0 43.77 140.54
  Q 43.64 152.51 43.88 156.12
  Q 44.22 161.14 47.65 163.61
  C 50.78 165.87 56.57 166.54 60.43 163.87
  Q 61.51 163.12 61.87 162.87
  A 0.46 0.45 72.9 0 1 62.58 163.25"
/>
<path stroke="#9d9d9d" vector-effect="non-scaling-stroke" d="
  M 183.1485 140.2738
  A 0.26 0.26 0.0 0 0 182.8880 140.0142
  L 176.2680 140.0258
  A 0.26 0.26 0.0 0 0 176.0085 140.2862
  L 176.0515 164.9462
  A 0.26 0.26 0.0 0 0 176.3120 165.2058
  L 182.9320 165.1942
  A 0.26 0.26 0.0 0 0 183.1915 164.9338
  L 183.1485 140.2738"
/>
<path stroke="#ffb5a2" vector-effect="non-scaling-stroke" d="
  M 87.25 170.65
  A 1.17 1.17 0.0 0 0 86.08 169.48
  A 1.17 1.17 0.0 0 0 84.91 170.65
  A 1.17 1.17 0.0 0 0 86.08 171.82
  A 1.17 1.17 0.0 0 0 87.25 170.65"
/>
<path stroke="#ffb5a2" vector-effect="non-scaling-stroke" d="
  M 151.93 170.64
  A 1.20 1.20 0.0 0 0 150.73 169.44
  A 1.20 1.20 0.0 0 0 149.53 170.64
  A 1.20 1.20 0.0 0 0 150.73 171.84
  A 1.20 1.20 0.0 0 0 151.93 170.64"
/>
<path stroke="#ffb5a2" vector-effect="non-scaling-stroke" d="
  M 36.22 182.01
  L 45.27 182.01
  A 1.83 1.82 72.2 0 0 46.75 179.12
  L 44.89 176.51
  A 3.51 3.50 78.8 0 0 42.83 175.13
  C 32.93 172.82 30.82 186.30 39.49 188.06
  Q 42.80 188.74 45.63 186.57
  A 0.68 0.68 0.0 0 0 45.80 185.68
  L 45.75 185.60
  A 0.60 0.59 57.1 0 0 44.90 185.41
  C 41.29 187.92 36.73 187.01 35.72 182.62
  A 0.51 0.50 -6.3 0 1 36.22 182.01"
/>
<path stroke="#ffb5a2" vector-effect="non-scaling-stroke" d="
  M 52.22 176.74
  L 52.22 175.42
  A 0.58 0.58 0.0 0 0 51.64 174.84
  L 51.38 174.84
  A 0.68 0.68 0.0 0 0 50.70 175.52
  L 50.70 187.56
  A 0.65 0.65 0.0 0 0 51.35 188.21
  L 51.70 188.21
  A 0.62 0.61 -0.0 0 0 52.32 187.60
  L 52.32 180.72
  A 4.40 4.39 86.9 0 1 56.23 176.35
  L 56.90 176.28
  A 3.83 3.83 0.0 0 1 61.15 180.09
  L 61.15 187.66
  A 0.58 0.58 0.0 0 0 61.73 188.24
  L 62.15 188.24
  A 0.75 0.75 0.0 0 0 62.90 187.45
  Q 62.73 184.71 62.88 181.80
  C 63.14 176.68 60.39 173.73 55.16 175.21
  C 54.04 175.53 53.45 176.40 52.59 176.94
  A 0.24 0.24 0.0 0 1 52.22 176.74"
/>
<path stroke="#ffb5a2" vector-effect="non-scaling-stroke" d="
  M 78.55 185.40
  Q 78.67 189.15 77.04 190.73
  A 2.30 2.25 -75.0 0 1 76.11 191.28
  Q 72.10 192.51 68.68 190.24
  A 0.62 0.62 0.0 0 0 67.76 190.52
  L 67.72 190.61
  A 0.84 0.83 26.4 0 0 68.08 191.67
  C 72.56 194.19 79.82 193.95 80.07 187.24
  Q 80.14 185.37 80.10 175.41
  A 0.61 0.60 -0.0 0 0 79.49 174.81
  L 79.08 174.81
  A 0.58 0.57 -8.8 0 0 78.53 175.56
  Q 78.74 176.24 78.71 176.69
  A 0.39 0.39 0.0 0 1 78.04 176.93
  Q 74.73 173.60 70.37 175.38
  C 61.82 178.86 68.97 193.04 78.36 185.31
  A 0.12 0.12 0.0 0 1 78.55 185.40"
/>
<path stroke="#ffb5a2" vector-effect="non-scaling-stroke" d="
  M 86.96 175.38
  A 0.53 0.53 0.0 0 0 86.43 174.85
  L 85.83 174.85
  A 0.53 0.53 0.0 0 0 85.30 175.38
  L 85.30 187.62
  A 0.53 0.53 0.0 0 0 85.83 188.15
  L 86.43 188.15
  A 0.53 0.53 0.0 0 0 86.96 187.62
  L 86.96 175.38"
/>
<path stroke="#ffb5a2" vector-effect="non-scaling-stroke" d="
  M 93.57 176.68
  L 93.56 175.36
  A 0.58 0.58 0.0 0 0 92.98 174.79
  L 92.72 174.79
  A 0.68 0.68 0.0 0 0 92.04 175.47
  L 92.11 187.51
  A 0.65 0.65 0.0 0 0 92.76 188.15
  L 93.11 188.15
  A 0.62 0.61 -0.3 0 0 93.73 187.54
  L 93.69 180.66
  A 4.40 4.39 86.6 0 1 97.57 176.27
  L 98.24 176.20
  A 3.83 3.83 0.0 0 1 102.51 179.98
  L 102.55 187.55
  A 0.58 0.58 0.0 0 0 103.14 188.13
  L 103.56 188.12
  A 0.75 0.75 0.0 0 0 104.30 187.33
  Q 104.12 184.59 104.25 181.68
  C 104.48 176.56 101.72 173.63 96.50 175.14
  C 95.38 175.46 94.80 176.34 93.94 176.88
  A 0.24 0.24 0.0 0 1 93.57 176.68"
/>
<path stroke="#ffb5a2" vector-effect="non-scaling-stroke" d="
  M 110.13 182.00
  L 119.16 182.00
  A 1.83 1.82 72.2 0 0 120.64 179.12
  L 118.79 176.51
  A 3.51 3.50 78.8 0 0 116.73 175.13
  C 106.84 172.82 104.73 186.28 113.39 188.04
  Q 116.70 188.72 119.52 186.56
  A 0.68 0.68 0.0 0 0 119.69 185.67
  L 119.64 185.59
  A 0.60 0.58 57.1 0 0 118.79 185.40
  C 115.19 187.91 110.63 187.00 109.63 182.61
  A 0.51 0.50 -6.3 0 1 110.13 182.00"
/>
<path stroke="#ffb5a2" vector-effect="non-scaling-stroke" d="
  M 125.42 181.97
  L 134.46 182.02
  A 1.83 1.82 72.5 0 0 135.95 179.14
  L 134.11 176.53
  A 3.50 3.50 0.0 0 0 132.06 175.14
  C 122.19 172.78 120.01 186.23 128.66 188.03
  Q 131.96 188.73 134.80 186.57
  A 0.68 0.68 0.0 0 0 134.97 185.69
  L 134.92 185.61
  A 0.60 0.58 57.4 0 0 134.07 185.41
  C 130.46 187.90 125.91 186.97 124.92 182.58
  A 0.51 0.50 -6.0 0 1 125.42 181.97"
/>
<path stroke="#ffb5a2" vector-effect="non-scaling-stroke" d="
  M 141.36 176.76
  L 141.36 175.21
  A 0.37 0.37 0.0 0 0 140.99 174.84
  L 140.72 174.84
  A 0.83 0.82 0.0 0 0 139.89 175.66
  L 139.89 187.50
  A 0.68 0.67 -0.0 0 0 140.57 188.17
  L 140.87 188.17
  A 0.66 0.66 0.0 0 0 141.53 187.48
  Q 141.40 184.84 141.59 180.81
  Q 141.80 176.54 146.15 176.27
  A 0.43 0.43 0.0 0 0 146.55 175.84
  L 146.55 175.48
  A 0.71 0.70 86.4 0 0 145.76 174.78
  Q 143.58 175.05 141.84 176.95
  A 0.28 0.28 0.0 0 1 141.36 176.76"
/>
<path stroke="#ffb5a2" vector-effect="non-scaling-stroke" d="
  M 151.46 175.35
  A 0.48 0.48 0.0 0 0 150.98 174.87
  L 150.34 174.87
  A 0.48 0.48 0.0 0 0 149.86 175.35
  L 149.86 187.65
  A 0.48 0.48 0.0 0 0 150.34 188.13
  L 150.98 188.13
  A 0.48 0.48 0.0 0 0 151.46 187.65
  L 151.46 175.35"
/>
<path stroke="#ffb5a2" vector-effect="non-scaling-stroke" d="
  M 158.19 176.73
  L 158.18 175.42
  A 0.58 0.58 0.0 0 0 157.60 174.84
  L 157.34 174.84
  A 0.68 0.68 0.0 0 0 156.67 175.52
  L 156.71 187.53
  A 0.65 0.65 0.0 0 0 157.36 188.17
  L 157.71 188.17
  A 0.62 0.61 -0.2 0 0 158.33 187.56
  L 158.30 180.70
  A 4.38 4.38 0.0 0 1 162.18 176.33
  L 162.85 176.26
  A 3.82 3.82 0.0 0 1 167.10 180.04
  L 167.13 187.59
  A 0.58 0.58 0.0 0 0 167.71 188.16
  L 168.13 188.16
  A 0.75 0.75 0.0 0 0 168.88 187.37
  Q 168.70 184.64 168.84 181.74
  C 169.08 176.63 166.32 173.70 161.11 175.20
  C 160.00 175.52 159.41 176.39 158.56 176.93
  A 0.24 0.24 0.0 0 1 158.19 176.73"
/>
<path stroke="#ffb5a2" vector-effect="non-scaling-stroke" d="
  M 184.51 185.39
  Q 184.63 189.14 183.00 190.72
  A 2.30 2.25 -75.0 0 1 182.07 191.27
  Q 178.05 192.50 174.64 190.22
  A 0.62 0.62 0.0 0 0 173.72 190.50
  L 173.68 190.59
  A 0.84 0.83 26.5 0 0 174.04 191.65
  C 178.51 194.18 185.77 193.95 186.03 187.24
  Q 186.10 185.37 186.08 175.41
  A 0.61 0.60 0.1 0 0 185.47 174.81
  L 185.06 174.81
  A 0.58 0.57 -8.8 0 0 184.51 175.55
  Q 184.72 176.24 184.69 176.69
  A 0.39 0.39 0.0 0 1 184.01 176.92
  Q 180.71 173.59 176.35 175.36
  C 167.79 178.83 174.92 193.02 184.32 185.30
  A 0.12 0.12 0.0 0 1 184.51 185.39"
/>
<path stroke="#9d9d9d" vector-effect="non-scaling-stroke" d="
  M 131.61 150.51
  L 143.73 150.43
  A 0.11 0.11 0.0 0 0 143.84 150.32
  L 143.84 150.24
  A 6.03 5.13 -0.4 0 0 137.77 145.15
  L 137.49 145.15
  A 6.03 5.13 -0.4 0 0 131.50 150.32
  L 131.50 150.40
  A 0.11 0.11 0.0 0 0 131.61 150.51"
/>
<path stroke="#ffb5a2" vector-effect="non-scaling-stroke" d="
  M 35.81 180.84
  L 45.21 180.80
  A 0.10 0.10 0.0 0 0 45.31 180.70
  L 45.31 180.63
  A 4.72 4.47 -0.2 0 0 40.57 176.18
  L 40.41 176.18
  A 4.72 4.47 -0.2 0 0 35.71 180.67
  L 35.71 180.74
  A 0.10 0.10 0.0 0 0 35.81 180.84"
/>
<path stroke="#ffb5a2" vector-effect="non-scaling-stroke" d="
  M 78.46 181.15
  A 5.10 5.10 0.0 0 0 73.36 176.05
  A 5.10 5.10 0.0 0 0 68.26 181.15
  A 5.10 5.10 0.0 0 0 73.36 186.25
  A 5.10 5.10 0.0 0 0 78.46 181.15"
/>
<path stroke="#ffb5a2" vector-effect="non-scaling-stroke" d="
  M 109.74 180.78
  L 119.04 180.82
  A 0.12 0.12 0.0 0 0 119.16 180.70
  L 119.16 180.65
  A 4.68 4.43 0.2 0 0 114.50 176.20
  L 114.32 176.20
  A 4.68 4.43 0.2 0 0 109.62 180.61
  L 109.62 180.66
  A 0.12 0.12 0.0 0 0 109.74 180.78"
/>
<path stroke="#ffb5a2" vector-effect="non-scaling-stroke" d="
  M 125.02 180.78
  L 134.42 180.82
  A 0.11 0.11 0.0 0 0 134.53 180.71
  L 134.53 180.66
  A 4.70 4.42 0.2 0 0 129.85 176.22
  L 129.63 176.22
  A 4.70 4.42 0.2 0 0 124.91 180.62
  L 124.91 180.67
  A 0.11 0.11 0.0 0 0 125.02 180.78"
/>
<path stroke="#ffb5a2" vector-effect="non-scaling-stroke" d="
  M 174.1281 180.8497
  A 5.20 4.99 -176.8 0 0 179.0415 186.1222
  A 5.20 4.99 -176.8 0 0 184.5119 181.4303
  A 5.20 4.99 -176.8 0 0 179.5985 176.1578
  A 5.20 4.99 -176.8 0 0 174.1281 180.8497"
/>
</g>
<path fill="#ffffff" d="
  M 225.00 0.00
  L 225.00 225.00
  L 0.00 225.00
  L 0.00 0.00
  L 225.00 0.00
  Z
  M 92.10 59.17
  L 70.43 49.42
  A 1.36 1.36 0.0 0 1 69.62 48.10
  Q 69.80 44.04 66.09 42.00
  C 59.05 38.11 52.26 47.95 58.68 53.17
  C 61.94 55.81 64.86 54.61 67.97 52.54
  A 1.03 1.00 39.5 0 1 68.95 52.46
  L 88.67 61.29
  L 90.71 62.26
  A 0.70 0.70 0.0 0 1 91.04 63.18
  Q 89.78 65.98 91.11 69.01
  A 1.24 1.23 55.9 0 1 90.85 70.37
  L 78.93 82.29
  A 0.70 0.69 37.2 0 1 78.10 82.40
  Q 75.44 80.94 72.47 80.76
  Q 66.18 80.67 62.85 86.10
  A 0.74 0.73 28.1 0 1 61.92 86.38
  L 44.86 78.41
  A 0.89 0.87 -79.4 0 1 44.36 77.66
  C 43.96 70.55 34.15 70.04 33.20 76.62
  Q 32.59 80.85 36.59 82.78
  Q 39.46 84.15 42.85 81.63
  A 0.66 0.66 0.0 0 1 43.53 81.56
  L 60.94 89.70
  A 0.76 0.75 -75.4 0 1 61.38 90.46
  Q 60.93 95.36 64.33 99.10
  A 0.58 0.56 41.9 0 1 64.38 99.80
  L 55.82 112.48
  A 1.72 1.70 12.6 0 1 54.65 113.21
  Q 51.13 113.71 50.49 116.12
  C 48.91 122.05 57.50 124.13 58.64 117.60
  Q 58.72 117.16 58.48 116.58
  Q 58.17 115.83 58.19 115.65
  A 3.02 2.93 -25.7 0 1 58.68 114.32
  L 67.11 101.92
  A 0.69 0.69 0.0 0 1 67.91 101.66
  Q 73.02 103.47 77.24 101.09
  Q 78.41 100.58 79.37 99.68
  A 0.61 0.60 -49.3 0 1 80.11 99.62
  L 90.24 106.47
  A 1.08 1.07 23.4 0 1 90.69 107.58
  C 89.15 114.54 96.62 120.25 102.27 115.25
  C 103.88 113.82 104.24 111.37 107.27 110.65
  L 128.94 103.96
  A 0.95 0.93 62.6 0 1 129.96 104.29
  Q 135.11 111.09 142.98 107.04
  A 0.79 0.78 -35.9 0 1 143.89 107.18
  L 153.86 117.15
  A 1.44 1.39 -68.7 0 1 154.27 118.13
  C 154.36 123.53 161.70 125.01 163.63 120.14
  Q 165.17 116.25 161.59 113.95
  C 159.49 112.61 158.22 113.56 156.25 113.99
  A 1.14 1.12 61.1 0 1 155.21 113.68
  L 145.99 104.46
  A 0.71 0.69 -57.9 0 1 145.83 103.73
  C 148.04 97.62 146.37 92.48 139.80 90.57
  A 0.47 0.46 -81.7 0 1 139.47 90.12
  L 139.47 64.07
  A 2.45 2.44 -75.0 0 1 143.14 61.95
  L 147.75 64.62
  L 161.61 72.81
  A 6.83 6.83 0.0 0 1 163.76 74.78
  Q 172.07 86.42 180.20 97.78
  Q 180.53 98.24 180.44 99.11
  C 179.87 104.45 188.47 103.24 186.33 98.07
  C 185.88 96.98 184.66 96.57 183.67 96.21
  A 1.82 1.80 81.8 0 1 182.81 95.56
  L 166.62 72.92
  A 0.40 0.39 -38.3 0 1 166.69 72.39
  L 181.50 59.78
  A 0.96 0.94 34.0 0 1 182.43 59.61
  C 191.59 62.79 193.30 49.59 185.26 49.28
  C 182.22 49.16 179.52 51.49 179.69 54.92
  Q 179.75 56.06 179.72 56.28
  A 1.57 1.52 75.1 0 1 179.19 57.23
  L 164.35 69.87
  A 0.84 0.83 40.1 0 1 163.39 69.95
  L 147.48 60.63
  L 144.24 58.60
  A 0.87 0.85 -74.3 0 1 143.84 57.87
  Q 143.91 51.55 138.03 50.76
  C 136.99 50.62 135.41 51.33 134.42 51.61
  A 1.14 1.12 56.2 0 1 133.40 51.40
  L 117.48 38.70
  C 116.75 38.14 116.05 37.44 115.94 36.48
  C 115.54 33.03 112.68 30.79 109.29 32.40
  C 106.15 33.90 107.11 36.84 107.73 39.35
  A 1.43 1.41 -39.5 0 1 107.63 40.30
  L 99.31 58.12
  A 1.23 1.22 3.9 0 1 98.56 58.77
  Q 94.90 59.89 92.10 59.17
  Z
  M 184.1690 132.2041
  A 4.58 4.08 -1.2 0 0 179.5046 128.2209
  A 4.58 4.08 -1.2 0 0 175.0110 132.3959
  A 4.58 4.08 -1.2 0 0 179.6754 136.3791
  A 4.58 4.08 -1.2 0 0 184.1690 132.2041
  Z
  M 171.45 139.93
  A 0.29 0.28 90.0 0 0 171.17 139.64
  Q 166.42 139.54 163.37 142.73
  A 0.35 0.35 0.0 0 1 162.77 142.49
  L 162.77 140.71
  A 0.74 0.74 0.0 0 0 162.03 139.97
  L 156.55 139.97
  A 0.72 0.72 0.0 0 0 155.83 140.69
  L 155.83 164.94
  A 0.31 0.31 0.0 0 0 156.14 165.25
  L 162.77 165.25
  A 0.30 0.30 0.0 0 0 163.07 164.96
  Q 163.21 160.91 163.07 156.96
  C 162.86 150.50 163.64 145.52 171.19 146.26
  A 0.25 0.24 -87.9 0 0 171.45 146.01
  L 171.45 139.93
  Z
  M 188.31 152.59
  C 188.30 158.04 191.27 162.61 196.40 164.52
  Q 205.96 168.09 212.95 161.16
  A 1.70 1.70 0.0 0 0 212.47 158.41
  L 208.61 156.61
  A 0.73 0.72 -57.7 0 0 207.74 156.81
  C 203.37 162.18 195.63 159.57 195.65 152.61
  C 195.66 145.66 203.43 143.08 207.76 148.48
  A 0.73 0.72 58.0 0 0 208.63 148.68
  L 212.50 146.90
  A 1.70 1.70 0.0 0 0 213.00 144.15
  Q 206.04 137.19 196.47 140.70
  C 191.33 142.59 188.33 147.14 188.31 152.59
  Z
  M 18.18 141.91
  L 18.19 140.40
  A 0.48 0.48 0.0 0 0 17.70 139.92
  L 11.96 139.91
  A 0.61 0.61 0.0 0 0 11.35 140.51
  L 11.31 164.83
  A 0.49 0.49 0.0 0 0 11.80 165.33
  L 18.11 165.34
  A 0.55 0.55 0.0 0 0 18.65 164.79
  Q 18.50 154.13 18.74 151.52
  C 19.41 144.28 29.51 143.44 29.76 151.42
  Q 29.93 156.86 29.86 164.79
  A 0.56 0.56 0.0 0 0 30.42 165.35
  L 36.63 165.36
  A 0.50 0.49 -89.9 0 0 37.12 164.86
  Q 37.27 152.78 37.04 149.14
  Q 36.71 144.07 33.25 141.57
  C 30.10 139.29 24.25 138.60 20.35 141.29
  Q 19.26 142.04 18.90 142.29
  A 0.46 0.46 0.0 0 1 18.18 141.91
  Z
  M 83.14 142.10
  L 83.14 140.47
  A 0.48 0.48 0.0 0 0 82.66 139.99
  L 76.93 139.99
  A 0.54 0.54 0.0 0 0 76.39 140.53
  L 76.39 164.96
  A 0.26 0.25 -0.0 0 0 76.65 165.21
  L 83.25 165.21
  A 0.29 0.29 0.0 0 0 83.54 164.91
  Q 83.45 160.85 83.50 152.50
  C 83.52 147.95 86.67 144.71 91.16 146.24
  Q 93.87 147.17 93.97 151.30
  Q 94.09 156.43 93.96 164.80
  A 0.44 0.44 0.0 0 0 94.40 165.25
  L 100.89 165.25
  A 0.41 0.41 0.0 0 0 101.30 164.83
  Q 101.09 159.22 101.27 152.05
  C 101.45 144.53 111.56 143.21 111.77 151.29
  Q 111.90 156.37 111.80 164.83
  A 0.41 0.41 0.0 0 0 112.21 165.25
  L 118.67 165.25
  A 0.44 0.43 -0.6 0 0 119.11 164.81
  Q 119.05 158.46 119.09 153.99
  Q 119.17 146.31 117.53 143.89
  C 113.60 138.09 105.04 138.52 99.99 143.21
  A 0.58 0.57 48.4 0 1 99.16 143.16
  C 95.32 138.60 88.25 138.56 83.71 142.37
  A 0.35 0.35 0.0 0 1 83.14 142.10
  Z
  M 132.11 154.68
  L 149.91 154.68
  A 1.06 1.06 0.0 0 0 150.97 153.57
  Q 150.28 140.37 138.27 139.64
  C 129.48 139.11 123.31 146.07 124.44 154.74
  C 125.91 166.12 140.83 168.54 148.41 162.31
  A 0.89 0.88 50.2 0 0 148.52 161.05
  L 146.02 158.11
  A 1.07 1.07 0.0 0 0 144.55 157.95
  C 140.58 161.02 133.94 160.65 131.63 155.42
  A 0.53 0.53 0.0 0 1 132.11 154.68
  Z
  M 62.58 163.25
  L 62.58 164.74
  A 0.48 0.48 0.0 0 0 63.06 165.22
  L 68.75 165.22
  A 0.60 0.60 0.0 0 0 69.35 164.62
  L 69.35 140.52
  A 0.49 0.49 0.0 0 0 68.86 140.03
  L 62.61 140.03
  A 0.54 0.54 0.0 0 0 62.07 140.58
  Q 62.24 151.14 62.01 153.73
  C 61.36 160.90 51.35 161.75 51.09 153.85
  Q 50.91 148.45 50.96 140.60
  A 0.55 0.55 0.0 0 0 50.41 140.04
  L 44.26 140.04
  A 0.50 0.49 -90.0 0 0 43.77 140.54
  Q 43.64 152.51 43.88 156.12
  Q 44.22 161.14 47.65 163.61
  C 50.78 165.87 56.57 166.54 60.43 163.87
  Q 61.51 163.12 61.87 162.87
  A 0.46 0.45 72.9 0 1 62.58 163.25
  Z
  M 183.1485 140.2738
  A 0.26 0.26 0.0 0 0 182.8880 140.0142
  L 176.2680 140.0258
  A 0.26 0.26 0.0 0 0 176.0085 140.2862
  L 176.0515 164.9462
  A 0.26 0.26 0.0 0 0 176.3120 165.2058
  L 182.9320 165.1942
  A 0.26 0.26 0.0 0 0 183.1915 164.9338
  L 183.1485 140.2738
  Z
  M 87.25 170.65
  A 1.17 1.17 0.0 0 0 86.08 169.48
  A 1.17 1.17 0.0 0 0 84.91 170.65
  A 1.17 1.17 0.0 0 0 86.08 171.82
  A 1.17 1.17 0.0 0 0 87.25 170.65
  Z
  M 151.93 170.64
  A 1.20 1.20 0.0 0 0 150.73 169.44
  A 1.20 1.20 0.0 0 0 149.53 170.64
  A 1.20 1.20 0.0 0 0 150.73 171.84
  A 1.20 1.20 0.0 0 0 151.93 170.64
  Z
  M 36.22 182.01
  L 45.27 182.01
  A 1.83 1.82 72.2 0 0 46.75 179.12
  L 44.89 176.51
  A 3.51 3.50 78.8 0 0 42.83 175.13
  C 32.93 172.82 30.82 186.30 39.49 188.06
  Q 42.80 188.74 45.63 186.57
  A 0.68 0.68 0.0 0 0 45.80 185.68
  L 45.75 185.60
  A 0.60 0.59 57.1 0 0 44.90 185.41
  C 41.29 187.92 36.73 187.01 35.72 182.62
  A 0.51 0.50 -6.3 0 1 36.22 182.01
  Z
  M 52.22 176.74
  L 52.22 175.42
  A 0.58 0.58 0.0 0 0 51.64 174.84
  L 51.38 174.84
  A 0.68 0.68 0.0 0 0 50.70 175.52
  L 50.70 187.56
  A 0.65 0.65 0.0 0 0 51.35 188.21
  L 51.70 188.21
  A 0.62 0.61 -0.0 0 0 52.32 187.60
  L 52.32 180.72
  A 4.40 4.39 86.9 0 1 56.23 176.35
  L 56.90 176.28
  A 3.83 3.83 0.0 0 1 61.15 180.09
  L 61.15 187.66
  A 0.58 0.58 0.0 0 0 61.73 188.24
  L 62.15 188.24
  A 0.75 0.75 0.0 0 0 62.90 187.45
  Q 62.73 184.71 62.88 181.80
  C 63.14 176.68 60.39 173.73 55.16 175.21
  C 54.04 175.53 53.45 176.40 52.59 176.94
  A 0.24 0.24 0.0 0 1 52.22 176.74
  Z
  M 78.55 185.40
  Q 78.67 189.15 77.04 190.73
  A 2.30 2.25 -75.0 0 1 76.11 191.28
  Q 72.10 192.51 68.68 190.24
  A 0.62 0.62 0.0 0 0 67.76 190.52
  L 67.72 190.61
  A 0.84 0.83 26.4 0 0 68.08 191.67
  C 72.56 194.19 79.82 193.95 80.07 187.24
  Q 80.14 185.37 80.10 175.41
  A 0.61 0.60 -0.0 0 0 79.49 174.81
  L 79.08 174.81
  A 0.58 0.57 -8.8 0 0 78.53 175.56
  Q 78.74 176.24 78.71 176.69
  A 0.39 0.39 0.0 0 1 78.04 176.93
  Q 74.73 173.60 70.37 175.38
  C 61.82 178.86 68.97 193.04 78.36 185.31
  A 0.12 0.12 0.0 0 1 78.55 185.40
  Z
  M 86.96 175.38
  A 0.53 0.53 0.0 0 0 86.43 174.85
  L 85.83 174.85
  A 0.53 0.53 0.0 0 0 85.30 175.38
  L 85.30 187.62
  A 0.53 0.53 0.0 0 0 85.83 188.15
  L 86.43 188.15
  A 0.53 0.53 0.0 0 0 86.96 187.62
  L 86.96 175.38
  Z
  M 93.57 176.68
  L 93.56 175.36
  A 0.58 0.58 0.0 0 0 92.98 174.79
  L 92.72 174.79
  A 0.68 0.68 0.0 0 0 92.04 175.47
  L 92.11 187.51
  A 0.65 0.65 0.0 0 0 92.76 188.15
  L 93.11 188.15
  A 0.62 0.61 -0.3 0 0 93.73 187.54
  L 93.69 180.66
  A 4.40 4.39 86.6 0 1 97.57 176.27
  L 98.24 176.20
  A 3.83 3.83 0.0 0 1 102.51 179.98
  L 102.55 187.55
  A 0.58 0.58 0.0 0 0 103.14 188.13
  L 103.56 188.12
  A 0.75 0.75 0.0 0 0 104.30 187.33
  Q 104.12 184.59 104.25 181.68
  C 104.48 176.56 101.72 173.63 96.50 175.14
  C 95.38 175.46 94.80 176.34 93.94 176.88
  A 0.24 0.24 0.0 0 1 93.57 176.68
  Z
  M 110.13 182.00
  L 119.16 182.00
  A 1.83 1.82 72.2 0 0 120.64 179.12
  L 118.79 176.51
  A 3.51 3.50 78.8 0 0 116.73 175.13
  C 106.84 172.82 104.73 186.28 113.39 188.04
  Q 116.70 188.72 119.52 186.56
  A 0.68 0.68 0.0 0 0 119.69 185.67
  L 119.64 185.59
  A 0.60 0.58 57.1 0 0 118.79 185.40
  C 115.19 187.91 110.63 187.00 109.63 182.61
  A 0.51 0.50 -6.3 0 1 110.13 182.00
  Z
  M 125.42 181.97
  L 134.46 182.02
  A 1.83 1.82 72.5 0 0 135.95 179.14
  L 134.11 176.53
  A 3.50 3.50 0.0 0 0 132.06 175.14
  C 122.19 172.78 120.01 186.23 128.66 188.03
  Q 131.96 188.73 134.80 186.57
  A 0.68 0.68 0.0 0 0 134.97 185.69
  L 134.92 185.61
  A 0.60 0.58 57.4 0 0 134.07 185.41
  C 130.46 187.90 125.91 186.97 124.92 182.58
  A 0.51 0.50 -6.0 0 1 125.42 181.97
  Z
  M 141.36 176.76
  L 141.36 175.21
  A 0.37 0.37 0.0 0 0 140.99 174.84
  L 140.72 174.84
  A 0.83 0.82 0.0 0 0 139.89 175.66
  L 139.89 187.50
  A 0.68 0.67 -0.0 0 0 140.57 188.17
  L 140.87 188.17
  A 0.66 0.66 0.0 0 0 141.53 187.48
  Q 141.40 184.84 141.59 180.81
  Q 141.80 176.54 146.15 176.27
  A 0.43 0.43 0.0 0 0 146.55 175.84
  L 146.55 175.48
  A 0.71 0.70 86.4 0 0 145.76 174.78
  Q 143.58 175.05 141.84 176.95
  A 0.28 0.28 0.0 0 1 141.36 176.76
  Z
  M 151.46 175.35
  A 0.48 0.48 0.0 0 0 150.98 174.87
  L 150.34 174.87
  A 0.48 0.48 0.0 0 0 149.86 175.35
  L 149.86 187.65
  A 0.48 0.48 0.0 0 0 150.34 188.13
  L 150.98 188.13
  A 0.48 0.48 0.0 0 0 151.46 187.65
  L 151.46 175.35
  Z
  M 158.19 176.73
  L 158.18 175.42
  A 0.58 0.58 0.0 0 0 157.60 174.84
  L 157.34 174.84
  A 0.68 0.68 0.0 0 0 156.67 175.52
  L 156.71 187.53
  A 0.65 0.65 0.0 0 0 157.36 188.17
  L 157.71 188.17
  A 0.62 0.61 -0.2 0 0 158.33 187.56
  L 158.30 180.70
  A 4.38 4.38 0.0 0 1 162.18 176.33
  L 162.85 176.26
  A 3.82 3.82 0.0 0 1 167.10 180.04
  L 167.13 187.59
  A 0.58 0.58 0.0 0 0 167.71 188.16
  L 168.13 188.16
  A 0.75 0.75 0.0 0 0 168.88 187.37
  Q 168.70 184.64 168.84 181.74
  C 169.08 176.63 166.32 173.70 161.11 175.20
  C 160.00 175.52 159.41 176.39 158.56 176.93
  A 0.24 0.24 0.0 0 1 158.19 176.73
  Z
  M 184.51 185.39
  Q 184.63 189.14 183.00 190.72
  A 2.30 2.25 -75.0 0 1 182.07 191.27
  Q 178.05 192.50 174.64 190.22
  A 0.62 0.62 0.0 0 0 173.72 190.50
  L 173.68 190.59
  A 0.84 0.83 26.5 0 0 174.04 191.65
  C 178.51 194.18 185.77 193.95 186.03 187.24
  Q 186.10 185.37 186.08 175.41
  A 0.61 0.60 0.1 0 0 185.47 174.81
  L 185.06 174.81
  A 0.58 0.57 -8.8 0 0 184.51 175.55
  Q 184.72 176.24 184.69 176.69
  A 0.39 0.39 0.0 0 1 184.01 176.92
  Q 180.71 173.59 176.35 175.36
  C 167.79 178.83 174.92 193.02 184.32 185.30
  A 0.12 0.12 0.0 0 1 184.51 185.39
  Z"
/>
<path fill="#ff9949" d="
  M 117.48 38.70
  L 116.00 41.95
  L 114.20 40.62
  A 1.38 1.37 61.0 0 0 113.31 40.36
  Q 111.37 40.49 110.75 41.83
  Q 102.56 59.38 102.40 59.60
  A 0.81 0.80 -48.6 0 0 102.46 60.64
  Q 104.26 62.53 104.99 65.49
  A 3.30 3.27 -76.6 0 0 106.02 67.18
  L 113.08 73.44
  Q 113.97 75.89 113.01 77.99
  L 104.18 70.45
  A 0.58 0.58 0.0 0 0 103.35 70.52
  Q 99.75 74.78 94.40 72.53
  A 0.78 0.78 0.0 0 0 93.55 72.70
  L 81.39 84.86
  A 0.65 0.65 0.0 0 0 81.30 85.67
  Q 84.32 90.64 82.10 95.97
  A 0.73 0.72 -61.7 0 0 82.36 96.85
  L 92.61 103.78
  A 0.92 0.91 -41.9 0 0 93.54 103.83
  Q 99.95 100.44 103.90 106.10
  L 103.40 106.76
  A 0.96 0.95 -54.4 0 0 103.62 108.12
  L 107.27 110.65
  C 104.24 111.37 103.88 113.82 102.27 115.25
  C 96.62 120.25 89.15 114.54 90.69 107.58
  A 1.08 1.07 23.4 0 0 90.24 106.47
  L 80.11 99.62
  A 0.61 0.60 -49.3 0 0 79.37 99.68
  Q 78.41 100.58 77.24 101.09
  Q 78.23 95.70 78.03 89.51
  Q 77.82 83.40 72.47 80.76
  Q 75.44 80.94 78.10 82.40
  A 0.70 0.69 37.2 0 0 78.93 82.29
  L 90.85 70.37
  A 1.24 1.23 55.9 0 0 91.11 69.01
  Q 89.78 65.98 91.04 63.18
  A 0.70 0.70 0.0 0 0 90.71 62.26
  L 88.67 61.29
  Q 90.09 59.78 92.10 59.17
  Q 94.90 59.89 98.56 58.77
  A 1.23 1.22 3.9 0 0 99.31 58.12
  L 107.63 40.30
  A 1.43 1.41 -39.5 0 0 107.73 39.35
  C 107.11 36.84 106.15 33.90 109.29 32.40
  C 112.68 30.79 115.54 33.03 115.94 36.48
  C 116.05 37.44 116.75 38.14 117.48 38.70
  Z"
/>
<path fill="#ff8147" d="
  M 117.48 38.70
  L 133.40 51.40
  A 1.14 1.12 56.2 0 0 134.42 51.61
  C 135.41 51.33 136.99 50.62 138.03 50.76
  Q 143.91 51.55 143.84 57.87
  A 0.87 0.85 -74.3 0 0 144.24 58.60
  L 147.48 60.63
  Q 148.84 62.76 147.75 64.62
  L 143.14 61.95
  A 2.45 2.44 -75.0 0 0 139.47 64.07
  L 139.47 90.12
  A 0.47 0.46 -81.7 0 0 139.80 90.57
  C 146.37 92.48 148.04 97.62 145.83 103.73
  A 0.71 0.69 -57.9 0 0 145.99 104.46
  L 155.21 113.68
  A 1.14 1.12 61.1 0 0 156.25 113.99
  C 158.22 113.56 159.49 112.61 161.59 113.95
  Q 165.17 116.25 163.63 120.14
  C 161.70 125.01 154.36 123.53 154.27 118.13
  A 1.44 1.39 -68.7 0 0 153.86 117.15
  L 143.89 107.18
  A 0.79 0.78 -35.9 0 0 142.98 107.04
  Q 135.11 111.09 129.96 104.29
  A 0.95 0.93 62.6 0 0 128.94 103.96
  L 107.27 110.65
  L 103.62 108.12
  A 0.96 0.95 -54.4 0 1 103.40 106.76
  L 103.90 106.10
  Q 104.10 106.96 104.55 107.45
  A 0.87 0.85 60.2 0 0 105.44 107.70
  L 128.09 100.67
  A 0.73 0.73 0.0 0 0 128.61 100.00
  Q 128.75 96.71 130.49 94.02
  A 0.81 0.81 0.0 0 0 130.34 92.97
  L 113.01 77.99
  Q 113.97 75.89 113.08 73.44
  L 133.20 90.78
  A 1.97 1.97 0.0 0 0 136.45 89.29
  L 136.46 63.12
  A 0.68 0.67 8.0 0 0 135.96 62.47
  C 132.29 61.42 132.00 58.73 131.78 55.39
  A 2.20 2.20 0.0 0 0 130.96 53.81
  L 116.00 41.95
  L 117.48 38.70
  Z"
/>
<path fill="#ffffff" d="
  M 116.00 41.95
  L 130.96 53.81
  A 2.20 2.20 0.0 0 1 131.78 55.39
  C 132.00 58.73 132.29 61.42 135.96 62.47
  A 0.68 0.67 8.0 0 1 136.46 63.12
  L 136.45 89.29
  A 1.97 1.97 0.0 0 1 133.20 90.78
  L 113.08 73.44
  L 106.02 67.18
  A 3.30 3.27 -76.6 0 1 104.99 65.49
  Q 104.26 62.53 102.46 60.64
  A 0.81 0.80 -48.6 0 1 102.40 59.60
  Q 102.56 59.38 110.75 41.83
  Q 111.37 40.49 113.31 40.36
  A 1.38 1.37 61.0 0 1 114.20 40.62
  L 116.00 41.95
  Z"
/>
<path fill="#ffad48" d="
  M 92.10 59.17
  Q 90.09 59.78 88.67 61.29
  L 68.95 52.46
  A 1.03 1.00 39.5 0 0 67.97 52.54
  C 64.86 54.61 61.94 55.81 58.68 53.17
  C 52.26 47.95 59.05 38.11 66.09 42.00
  Q 69.80 44.04 69.62 48.10
  A 1.36 1.36 0.0 0 0 70.43 49.42
  L 92.10 59.17
  Z"
/>
<path fill="#ff6a45" d="
  M 147.75 64.62
  Q 148.84 62.76 147.48 60.63
  L 163.39 69.95
  A 0.84 0.83 40.1 0 0 164.35 69.87
  L 179.19 57.23
  A 1.57 1.52 75.1 0 0 179.72 56.28
  Q 179.75 56.06 179.69 54.92
  C 179.52 51.49 182.22 49.16 185.26 49.28
  C 193.30 49.59 191.59 62.79 182.43 59.61
  A 0.96 0.94 34.0 0 0 181.50 59.78
  L 166.69 72.39
  A 0.40 0.39 -38.3 0 0 166.62 72.92
  L 182.81 95.56
  A 1.82 1.80 81.8 0 0 183.67 96.21
  C 184.66 96.57 185.88 96.98 186.33 98.07
  C 188.47 103.24 179.87 104.45 180.44 99.11
  Q 180.53 98.24 180.20 97.78
  Q 172.07 86.42 163.76 74.78
  A 6.83 6.83 0.0 0 0 161.61 72.81
  L 147.75 64.62
  Z"
/>
<path fill="#ffffff" d="
  M 113.01 77.99
  L 130.34 92.97
  A 0.81 0.81 0.0 0 1 130.49 94.02
  Q 128.75 96.71 128.61 100.00
  A 0.73 0.73 0.0 0 1 128.09 100.67
  L 105.44 107.70
  A 0.87 0.85 60.2 0 1 104.55 107.45
  Q 104.10 106.96 103.90 106.10
  Q 99.95 100.44 93.54 103.83
  A 0.92 0.91 -41.9 0 1 92.61 103.78
  L 82.36 96.85
  A 0.73 0.72 -61.7 0 1 82.10 95.97
  Q 84.32 90.64 81.30 85.67
  A 0.65 0.65 0.0 0 1 81.39 84.86
  L 93.55 72.70
  A 0.78 0.78 0.0 0 1 94.40 72.53
  Q 99.75 74.78 103.35 70.52
  A 0.58 0.58 0.0 0 1 104.18 70.45
  L 113.01 77.99
  Z"
/>
<path fill="#ffad48" d="
  M 72.47 80.76
  Q 77.82 83.40 78.03 89.51
  Q 78.23 95.70 77.24 101.09
  Q 73.02 103.47 67.91 101.66
  A 0.69 0.69 0.0 0 0 67.11 101.92
  L 58.68 114.32
  A 3.02 2.93 -25.7 0 0 58.19 115.65
  Q 58.17 115.83 58.48 116.58
  Q 58.72 117.16 58.64 117.60
  C 57.50 124.13 48.91 122.05 50.49 116.12
  Q 51.13 113.71 54.65 113.21
  A 1.72 1.70 12.6 0 0 55.82 112.48
  L 64.38 99.80
  A 0.58 0.56 41.9 0 0 64.33 99.10
  Q 60.93 95.36 61.38 90.46
  A 0.76 0.75 -75.4 0 0 60.94 89.70
  L 43.53 81.56
  A 0.66 0.66 0.0 0 0 42.85 81.63
  Q 39.46 84.15 36.59 82.78
  Q 32.59 80.85 33.20 76.62
  C 34.15 70.04 43.96 70.55 44.36 77.66
  A 0.89 0.87 -79.4 0 0 44.86 78.41
  L 61.92 86.38
  A 0.74 0.73 28.1 0 0 62.85 86.10
  Q 66.18 80.67 72.47 80.76
  Z"
/>
<ellipse fill="#3a3a3a" cx="0.00" cy="0.00" transform="translate(179.59,132.30) rotate(-1.2)" rx="4.58" ry="4.08"/>
<path fill="#3a3a3a" d="
  M 171.19 146.26
  C 163.64 145.52 162.86 150.50 163.07 156.96
  Q 163.21 160.91 163.07 164.96
  A 0.30 0.30 0.0 0 1 162.77 165.25
  L 156.14 165.25
  A 0.31 0.31 0.0 0 1 155.83 164.94
  L 155.83 140.69
  A 0.72 0.72 0.0 0 1 156.55 139.97
  L 162.03 139.97
  A 0.74 0.74 0.0 0 1 162.77 140.71
  L 162.77 142.49
  A 0.35 0.35 0.0 0 0 163.37 142.73
  Q 166.42 139.54 171.17 139.64
  A 0.29 0.28 -90.0 0 1 171.45 139.93
  L 171.45 146.01
  A 0.25 0.24 -87.9 0 1 171.19 146.26
  Z"
/>
<path fill="#3a3a3a" d="
  M 195.65 152.61
  C 195.63 159.57 203.37 162.18 207.74 156.81
  A 0.73 0.72 -57.7 0 1 208.61 156.61
  L 212.47 158.41
  A 1.70 1.70 0.0 0 1 212.95 161.16
  Q 205.96 168.09 196.40 164.52
  C 191.27 162.61 188.30 158.04 188.31 152.59
  C 188.33 147.14 191.33 142.59 196.47 140.70
  Q 206.04 137.19 213.00 144.15
  A 1.70 1.70 0.0 0 1 212.50 146.90
  L 208.63 148.68
  A 0.73 0.72 58.0 0 1 207.76 148.48
  C 203.43 143.08 195.66 145.66 195.65 152.61
  Z"
/>
<path fill="#3a3a3a" d="
  M 18.18 141.91
  A 0.46 0.46 0.0 0 0 18.90 142.29
  Q 19.26 142.04 20.35 141.29
  C 24.25 138.60 30.10 139.29 33.25 141.57
  Q 36.71 144.07 37.04 149.14
  Q 37.27 152.78 37.12 164.86
  A 0.50 0.49 -89.9 0 1 36.63 165.36
  L 30.42 165.35
  A 0.56 0.56 0.0 0 1 29.86 164.79
  Q 29.93 156.86 29.76 151.42
  C 29.51 143.44 19.41 144.28 18.74 151.52
  Q 18.50 154.13 18.65 164.79
  A 0.55 0.55 0.0 0 1 18.11 165.34
  L 11.80 165.33
  A 0.49 0.49 0.0 0 1 11.31 164.83
  L 11.35 140.51
  A 0.61 0.61 0.0 0 1 11.96 139.91
  L 17.70 139.92
  A 0.48 0.48 0.0 0 1 18.19 140.40
  L 18.18 141.91
  Z"
/>
<path fill="#3a3a3a" d="
  M 83.14 142.10
  A 0.35 0.35 0.0 0 0 83.71 142.37
  C 88.25 138.56 95.32 138.60 99.16 143.16
  A 0.58 0.57 48.4 0 0 99.99 143.21
  C 105.04 138.52 113.60 138.09 117.53 143.89
  Q 119.17 146.31 119.09 153.99
  Q 119.05 158.46 119.11 164.81
  A 0.44 0.43 -0.6 0 1 118.67 165.25
  L 112.21 165.25
  A 0.41 0.41 0.0 0 1 111.80 164.83
  Q 111.90 156.37 111.77 151.29
  C 111.56 143.21 101.45 144.53 101.27 152.05
  Q 101.09 159.22 101.30 164.83
  A 0.41 0.41 0.0 0 1 100.89 165.25
  L 94.40 165.25
  A 0.44 0.44 0.0 0 1 93.96 164.80
  Q 94.09 156.43 93.97 151.30
  Q 93.87 147.17 91.16 146.24
  C 86.67 144.71 83.52 147.95 83.50 152.50
  Q 83.45 160.85 83.54 164.91
  A 0.29 0.29 0.0 0 1 83.25 165.21
  L 76.65 165.21
  A 0.26 0.25 0.0 0 1 76.39 164.96
  L 76.39 140.53
  A 0.54 0.54 0.0 0 1 76.93 139.99
  L 82.66 139.99
  A 0.48 0.48 0.0 0 1 83.14 140.47
  L 83.14 142.10
  Z"
/>
<path fill="#3a3a3a" d="
  M 131.63 155.42
  C 133.94 160.65 140.58 161.02 144.55 157.95
  A 1.07 1.07 0.0 0 1 146.02 158.11
  L 148.52 161.05
  A 0.89 0.88 50.2 0 1 148.41 162.31
  C 140.83 168.54 125.91 166.12 124.44 154.74
  C 123.31 146.07 129.48 139.11 138.27 139.64
  Q 150.28 140.37 150.97 153.57
  A 1.06 1.06 0.0 0 1 149.91 154.68
  L 132.11 154.68
  A 0.53 0.53 0.0 0 0 131.63 155.42
  Z
  M 131.61 150.51
  L 143.73 150.43
  A 0.11 0.11 0.0 0 0 143.84 150.32
  L 143.84 150.24
  A 6.03 5.13 -0.4 0 0 137.77 145.15
  L 137.49 145.15
  A 6.03 5.13 -0.4 0 0 131.50 150.32
  L 131.50 150.40
  A 0.11 0.11 0.0 0 0 131.61 150.51
  Z"
/>
<path fill="#3a3a3a" d="
  M 61.87 162.87
  Q 61.51 163.12 60.43 163.87
  C 56.57 166.54 50.78 165.87 47.65 163.61
  Q 44.22 161.14 43.88 156.12
  Q 43.64 152.51 43.77 140.54
  A 0.50 0.49 -90.0 0 1 44.26 140.04
  L 50.41 140.04
  A 0.55 0.55 0.0 0 1 50.96 140.60
  Q 50.91 148.45 51.09 153.85
  C 51.35 161.75 61.36 160.90 62.01 153.73
  Q 62.24 151.14 62.07 140.58
  A 0.54 0.54 0.0 0 1 62.61 140.03
  L 68.86 140.03
  A 0.49 0.49 0.0 0 1 69.35 140.52
  L 69.35 164.62
  A 0.60 0.60 0.0 0 1 68.75 165.22
  L 63.06 165.22
  A 0.48 0.48 0.0 0 1 62.58 164.74
  L 62.58 163.25
  A 0.46 0.45 72.9 0 0 61.87 162.87
  Z"
/>
<rect fill="#3a3a3a" x="-3.57" y="-12.59" transform="translate(179.60,152.61) rotate(-0.1)" width="7.14" height="25.18" rx="0.26"/>
<path fill="#ffffff" d="
  M 131.61 150.51
  A 0.11 0.11 0.0 0 1 131.50 150.40
  L 131.50 150.32
  A 6.03 5.13 -0.4 0 1 137.49 145.15
  L 137.77 145.15
  A 6.03 5.13 -0.4 0 1 143.84 150.24
  L 143.84 150.32
  A 0.11 0.11 0.0 0 1 143.73 150.43
  L 131.61 150.51
  Z"
/>
<circle fill="#ff6a45" cx="86.08" cy="170.65" r="1.17"/>
<circle fill="#ff6a45" cx="150.73" cy="170.64" r="1.20"/>
<path fill="#ff6a45" d="
  M 35.72 182.62
  C 36.73 187.01 41.29 187.92 44.90 185.41
  A 0.60 0.59 57.1 0 1 45.75 185.60
  L 45.80 185.68
  A 0.68 0.68 0.0 0 1 45.63 186.57
  Q 42.80 188.74 39.49 188.06
  C 30.82 186.30 32.93 172.82 42.83 175.13
  A 3.51 3.50 78.8 0 1 44.89 176.51
  L 46.75 179.12
  A 1.83 1.82 72.2 0 1 45.27 182.01
  L 36.22 182.01
  A 0.51 0.50 -6.3 0 0 35.72 182.62
  Z
  M 35.81 180.84
  L 45.21 180.80
  A 0.10 0.10 0.0 0 0 45.31 180.70
  L 45.31 180.63
  A 4.72 4.47 -0.2 0 0 40.57 176.18
  L 40.41 176.18
  A 4.72 4.47 -0.2 0 0 35.71 180.67
  L 35.71 180.74
  A 0.10 0.10 0.0 0 0 35.81 180.84
  Z"
/>
<path fill="#ff6a45" d="
  M 52.59 176.94
  C 53.45 176.40 54.04 175.53 55.16 175.21
  C 60.39 173.73 63.14 176.68 62.88 181.80
  Q 62.73 184.71 62.90 187.45
  A 0.75 0.75 0.0 0 1 62.15 188.24
  L 61.73 188.24
  A 0.58 0.58 0.0 0 1 61.15 187.66
  L 61.15 180.09
  A 3.83 3.83 0.0 0 0 56.90 176.28
  L 56.23 176.35
  A 4.40 4.39 86.9 0 0 52.32 180.72
  L 52.32 187.60
  A 0.62 0.61 -0.0 0 1 51.70 188.21
  L 51.35 188.21
  A 0.65 0.65 0.0 0 1 50.70 187.56
  L 50.70 175.52
  A 0.68 0.68 0.0 0 1 51.38 174.84
  L 51.64 174.84
  A 0.58 0.58 0.0 0 1 52.22 175.42
  L 52.22 176.74
  A 0.24 0.24 0.0 0 0 52.59 176.94
  Z"
/>
<path fill="#ff6a45" d="
  M 78.55 185.40
  A 0.12 0.12 0.0 0 0 78.36 185.31
  C 68.97 193.04 61.82 178.86 70.37 175.38
  Q 74.73 173.60 78.04 176.93
  A 0.39 0.39 0.0 0 0 78.71 176.69
  Q 78.74 176.24 78.53 175.56
  A 0.58 0.57 -8.8 0 1 79.08 174.81
  L 79.49 174.81
  A 0.61 0.60 -0.0 0 1 80.10 175.41
  Q 80.14 185.37 80.07 187.24
  C 79.82 193.95 72.56 194.19 68.08 191.67
  A 0.84 0.83 26.4 0 1 67.72 190.61
  L 67.76 190.52
  A 0.62 0.62 0.0 0 1 68.68 190.24
  Q 72.10 192.51 76.11 191.28
  A 2.30 2.25 -75.0 0 0 77.04 190.73
  Q 78.67 189.15 78.55 185.40
  Z
  M 78.46 181.15
  A 5.10 5.10 0.0 0 0 73.36 176.05
  A 5.10 5.10 0.0 0 0 68.26 181.15
  A 5.10 5.10 0.0 0 0 73.36 186.25
  A 5.10 5.10 0.0 0 0 78.46 181.15
  Z"
/>
<rect fill="#ff6a45" x="85.30" y="174.85" width="1.66" height="13.30" rx="0.53"/>
<path fill="#ff6a45" d="
  M 93.57 176.68
  A 0.24 0.24 0.0 0 0 93.94 176.88
  C 94.80 176.34 95.38 175.46 96.50 175.14
  C 101.72 173.63 104.48 176.56 104.25 181.68
  Q 104.12 184.59 104.30 187.33
  A 0.75 0.75 0.0 0 1 103.56 188.12
  L 103.14 188.13
  A 0.58 0.58 0.0 0 1 102.55 187.55
  L 102.51 179.98
  A 3.83 3.83 0.0 0 0 98.24 176.20
  L 97.57 176.27
  A 4.40 4.39 86.6 0 0 93.69 180.66
  L 93.73 187.54
  A 0.62 0.61 -0.3 0 1 93.11 188.15
  L 92.76 188.15
  A 0.65 0.65 0.0 0 1 92.11 187.51
  L 92.04 175.47
  A 0.68 0.68 0.0 0 1 92.72 174.79
  L 92.98 174.79
  A 0.58 0.58 0.0 0 1 93.56 175.36
  L 93.57 176.68
  Z"
/>
<path fill="#ff6a45" d="
  M 110.13 182.00
  A 0.51 0.50 -6.3 0 0 109.63 182.61
  C 110.63 187.00 115.19 187.91 118.79 185.40
  A 0.60 0.58 57.1 0 1 119.64 185.59
  L 119.69 185.67
  A 0.68 0.68 0.0 0 1 119.52 186.56
  Q 116.70 188.72 113.39 188.04
  C 104.73 186.28 106.84 172.82 116.73 175.13
  A 3.51 3.50 78.8 0 1 118.79 176.51
  L 120.64 179.12
  A 1.83 1.82 72.2 0 1 119.16 182.00
  L 110.13 182.00
  Z
  M 109.74 180.78
  L 119.04 180.82
  A 0.12 0.12 0.0 0 0 119.16 180.70
  L 119.16 180.65
  A 4.68 4.43 0.2 0 0 114.50 176.20
  L 114.32 176.20
  A 4.68 4.43 0.2 0 0 109.62 180.61
  L 109.62 180.66
  A 0.12 0.12 0.0 0 0 109.74 180.78
  Z"
/>
<path fill="#ff6a45" d="
  M 125.42 181.97
  A 0.51 0.50 -6.0 0 0 124.92 182.58
  C 125.91 186.97 130.46 187.90 134.07 185.41
  A 0.60 0.58 57.4 0 1 134.92 185.61
  L 134.97 185.69
  A 0.68 0.68 0.0 0 1 134.80 186.57
  Q 131.96 188.73 128.66 188.03
  C 120.01 186.23 122.19 172.78 132.06 175.14
  A 3.50 3.50 0.0 0 1 134.11 176.53
  L 135.95 179.14
  A 1.83 1.82 72.5 0 1 134.46 182.02
  L 125.42 181.97
  Z
  M 125.02 180.78
  L 134.42 180.82
  A 0.11 0.11 0.0 0 0 134.53 180.71
  L 134.53 180.66
  A 4.70 4.42 0.2 0 0 129.85 176.22
  L 129.63 176.22
  A 4.70 4.42 0.2 0 0 124.91 180.62
  L 124.91 180.67
  A 0.11 0.11 0.0 0 0 125.02 180.78
  Z"
/>
<path fill="#ff6a45" d="
  M 141.84 176.95
  Q 143.58 175.05 145.76 174.78
  A 0.71 0.70 86.4 0 1 146.55 175.48
  L 146.55 175.84
  A 0.43 0.43 0.0 0 1 146.15 176.27
  Q 141.80 176.54 141.59 180.81
  Q 141.40 184.84 141.53 187.48
  A 0.66 0.66 0.0 0 1 140.87 188.17
  L 140.57 188.17
  A 0.68 0.67 -0.0 0 1 139.89 187.50
  L 139.89 175.66
  A 0.83 0.82 0.0 0 1 140.72 174.84
  L 140.99 174.84
  A 0.37 0.37 0.0 0 1 141.36 175.21
  L 141.36 176.76
  A 0.28 0.28 0.0 0 0 141.84 176.95
  Z"
/>
<rect fill="#ff6a45" x="149.86" y="174.87" width="1.60" height="13.26" rx="0.48"/>
<path fill="#ff6a45" d="
  M 158.19 176.73
  A 0.24 0.24 0.0 0 0 158.56 176.93
  C 159.41 176.39 160.00 175.52 161.11 175.20
  C 166.32 173.70 169.08 176.63 168.84 181.74
  Q 168.70 184.64 168.88 187.37
  A 0.75 0.75 0.0 0 1 168.13 188.16
  L 167.71 188.16
  A 0.58 0.58 0.0 0 1 167.13 187.59
  L 167.10 180.04
  A 3.82 3.82 0.0 0 0 162.85 176.26
  L 162.18 176.33
  A 4.38 4.38 0.0 0 0 158.30 180.70
  L 158.33 187.56
  A 0.62 0.61 -0.2 0 1 157.71 188.17
  L 157.36 188.17
  A 0.65 0.65 0.0 0 1 156.71 187.53
  L 156.67 175.52
  A 0.68 0.68 0.0 0 1 157.34 174.84
  L 157.60 174.84
  A 0.58 0.58 0.0 0 1 158.18 175.42
  L 158.19 176.73
  Z"
/>
<path fill="#ff6a45" d="
  M 184.51 185.39
  A 0.12 0.12 0.0 0 0 184.32 185.30
  C 174.92 193.02 167.79 178.83 176.35 175.36
  Q 180.71 173.59 184.01 176.92
  A 0.39 0.39 0.0 0 0 184.69 176.69
  Q 184.72 176.24 184.51 175.55
  A 0.58 0.57 -8.8 0 1 185.06 174.81
  L 185.47 174.81
  A 0.61 0.60 0.1 0 1 186.08 175.41
  Q 186.10 185.37 186.03 187.24
  C 185.77 193.95 178.51 194.18 174.04 191.65
  A 0.84 0.83 26.5 0 1 173.68 190.59
  L 173.72 190.50
  A 0.62 0.62 0.0 0 1 174.64 190.22
  Q 178.05 192.50 182.07 191.27
  A 2.30 2.25 -75.0 0 0 183.00 190.72
  Q 184.63 189.14 184.51 185.39
  Z
  M 174.1281 180.8497
  A 5.20 4.99 -176.8 0 0 179.0415 186.1222
  A 5.20 4.99 -176.8 0 0 184.5119 181.4303
  A 5.20 4.99 -176.8 0 0 179.5985 176.1578
  A 5.20 4.99 -176.8 0 0 174.1281 180.8497
  Z"
/>
<path fill="#ffffff" d="
  M 35.81 180.84
  A 0.10 0.10 0.0 0 1 35.71 180.74
  L 35.71 180.67
  A 4.72 4.47 -0.2 0 1 40.41 176.18
  L 40.57 176.18
  A 4.72 4.47 -0.2 0 1 45.31 180.63
  L 45.31 180.70
  A 0.10 0.10 0.0 0 1 45.21 180.80
  L 35.81 180.84
  Z"
/>
<circle fill="#ffffff" cx="73.36" cy="181.15" r="5.10"/>
<path fill="#ffffff" d="
  M 109.74 180.78
  A 0.12 0.12 0.0 0 1 109.62 180.66
  L 109.62 180.61
  A 4.68 4.43 0.2 0 1 114.32 176.20
  L 114.50 176.20
  A 4.68 4.43 0.2 0 1 119.16 180.65
  L 119.16 180.70
  A 0.12 0.12 0.0 0 1 119.04 180.82
  L 109.74 180.78
  Z"
/>
<path fill="#ffffff" d="
  M 125.02 180.78
  A 0.11 0.11 0.0 0 1 124.91 180.67
  L 124.91 180.62
  A 4.70 4.42 0.2 0 1 129.63 176.22
  L 129.85 176.22
  A 4.70 4.42 0.2 0 1 134.53 180.66
  L 134.53 180.71
  A 0.11 0.11 0.0 0 1 134.42 180.82
  L 125.02 180.78
  Z"
/>
<ellipse fill="#ffffff" cx="0.00" cy="0.00" transform="translate(179.32,181.14) rotate(-176.8)" rx="5.20" ry="4.99"/>
</svg>
