<?xml version="1.0" encoding="UTF-8"?><svg id="Layer_1" xmlns="http://www.w3.org/2000/svg" viewBox="0 0 341.67 97.79"><defs><style>.cls-1{fill:#03509d;}.cls-2{fill:#f8981c;}.cls-3{fill:#fdb92f;}</style></defs><path class="cls-3" d="M39.58.01c1.23.03,2.43.12,3.6.27.26.03.44.26.41.52,0,0,0,.01,0,.02-1.59,9.15-3.13,18.36-4.62,27.61-.03.17-.08.25-.16.24-.09,0-.15-.08-.17-.25-.99-9.32-2.02-18.59-3.1-27.82-.03-.26.16-.49.42-.52,0,0,0,0,.01,0,1.18-.08,2.38-.1,3.61-.07Z"/><path class="cls-3" d="M30.37.86c1.2-.26,2.38-.46,3.55-.6.26-.03.49.16.52.42,0,0,0,0,0,.01.65,9.22,1.36,18.48,2.13,27.78.01.17-.03.26-.13.28-.07.02-.14-.05-.19-.21-3.18-8.77-6.39-17.49-9.64-26.14-.09-.24.03-.51.28-.6,0,0,0,0,.01,0,1.12-.35,2.28-.66,3.47-.93Z"/><path class="cls-3" d="M48.87,1.42c1.18.33,2.32.71,3.42,1.13.24.09.36.37.27.61,0,0,0,.01,0,.02-3.76,8.47-7.49,16.99-11.19,25.58-.07.16-.15.23-.24.2-.07-.02-.1-.12-.07-.29,1.31-9.25,2.56-18.47,3.76-27.66.03-.26.27-.44.53-.4,0,0,.01,0,.02,0,1.16.21,2.33.48,3.51.81Z"/><path class="cls-3" d="M21.57,3.93c1.1-.54,2.2-1.02,3.31-1.44.24-.09.51.03.6.28,0,0,0,0,0,.01,2.87,8.84,5.81,17.71,8.8,26.6.05.17.04.27-.05.31-.07.03-.15-.02-.24-.16-5.23-7.79-10.48-15.52-15.74-23.19-.14-.22-.09-.51.13-.65,0,0,0,0,.01,0,1.01-.62,2.06-1.2,3.17-1.75Z"/><path class="cls-3" d="M57.46,4.93c1.06.61,2.07,1.25,3.04,1.92.21.15.26.44.11.66,0,0,0,0-.01.01-5.67,7.3-11.33,14.66-16.98,22.09-.1.13-.18.18-.25.15-.09-.05-.1-.16-.03-.31,3.49-8.65,6.92-17.28,10.29-25.89.1-.24.37-.36.61-.26,0,0,0,0,.01,0,1.07.49,2.14,1.03,3.21,1.63Z"/><path class="cls-2" d="M82.62,12.7c-.3.33-.41.67-.34,1.03.04.19.26.38.66.59,4.18,2.22,9.35,4.94,15.51,8.15,1.12.58,1.58,2.07,1.46,3.32-.32,3.44-1.95,6.19-4.89,8.25-1.13.79-2.82,1.16-5.09,1.13-7.29-.09-18.23-.08-32.82.01-.25,0-.45-.2-.45-.45,0-.12.05-.24.13-.32l5.36-5.36c.28-.28.67-.44,1.07-.44h26.31c.05,0,.11-.01.16-.04.62-.36.75-.84.4-1.45-.15-.24-.34-.42-.58-.55-7.19-3.63-12.12-6.16-14.81-7.59-1.07-.57-1.4-1.73-1-3.49.97-4.24,3.15-7.23,6.54-8.97,1.53-.79,4.9-1.17,10.11-1.14,3.73.02,9.04.02,15.92,0,.66,0,.88.31.67.94l-1.74,5.09c-.21.63-.65.94-1.32.94h-20.48c-.3,0-.58.12-.78.34Z"/><path class="cls-2" d="M181.96,26.4c.25.96,1.23,1.54,2.2,1.29.19-.05.37-.13.53-.24,1.39-.91,2.39-1.92,2.98-3.01,0,0,3.52-6.27,10.53-18.8.09-.15.22-.23.39-.23h6.81c.07,0,.12.06.12.12,0,.02,0,.04-.02.06-7.18,12.66-11.39,19.99-12.63,21.98-1.44,2.3-6.36,7.86-9.99,7.65-.24-.01-1.81-.05-4.7-.12-.35-.01-.66-.14-.91-.39-2.67-2.62-3.1-6.45-2.71-10.13.64-6.05,1.36-12.26,2.16-18.63.05-.37.25-.55.62-.55h6.25c.29,0,.53.23.53.53,0,.02,0,.04,0,.06-1.35,10.66-2.1,16.94-2.24,18.84-.05.66-.02,1.18.08,1.57Z"/><path class="cls-3" d="M32.4,31.13c-.06.05-.15.02-.28-.1-7.01-6.36-14.01-12.65-21.02-18.88-.19-.17-.21-.47-.04-.66,0,0,.01-.01.02-.02.83-.85,1.72-1.68,2.67-2.48s1.91-1.54,2.9-2.22c.22-.14.51-.09.65.13,0,0,0,0,0,.01,4.95,7.96,9.97,15.93,15.06,23.91.09.15.1.25.03.31Z"/><path class="cls-2" d="M109.6,28.83c.28.38.72.62,1.19.63,1.37.04,3.74.05,7.09.03,1.43-.01,2.59-1.05,3.48-3.12.46-1.09,2.33-6.53,5.61-16.32.11-.33.43-.56.79-.56h5.07c.24,0,.44.19.44.44,0,.05,0,.1-.02.14-3.29,9.77-5.45,16.15-6.5,19.12-.69,1.96-2.1,3.62-4.23,4.98-1.13.73-3.13,1.06-5.98,1.01-2.95-.05-5.85-.05-8.72,0-4.54.09-7.2-2.07-5.61-6.8,1.17-3.48,3.26-9.63,6.28-18.45.1-.27.35-.45.64-.45h5.47c.17,0,.3.14.3.3,0,.03,0,.06-.02.09-1.22,3.43-3.08,8.9-5.59,16.41-.32.96-.22,1.81.31,2.54Z"/><path class="cls-2" d="M148.5,20.63c.69,1.4,1.18,2.36,1.46,2.89.08.16.28.23.44.15.08-.04.14-.11.17-.2l4.67-13.7c.06-.17.22-.28.4-.28h5.7c.12,0,.22.1.22.22,0,.02,0,.05-.01.07l-8.47,24.83c-.12.36-.37.54-.75.54h-5.19c-.41,0-.71-.19-.88-.56-1.75-3.79-3.44-7.31-5.05-10.56-.69-1.4-1.18-2.37-1.46-2.9-.08-.16-.28-.23-.44-.15-.08.04-.14.11-.17.2l-4.67,13.7c-.06.17-.22.28-.4.28h-5.7c-.12,0-.22-.1-.22-.22,0-.02,0-.05.01-.07l8.47-24.83c.12-.36.37-.54.75-.54h5.19c.41,0,.71.19.88.56,1.75,3.79,3.44,7.32,5.05,10.57Z"/><path class="cls-2" d="M234.28,26.92c-.34,1.01.19,2.11,1.2,2.45.2.07.41.1.62.1h15.42c.17,0,.31.14.31.31,0,.03,0,.06-.02.09l-1.65,4.84c-.09.27-.28.4-.56.41-8.85.03-14.69.04-17.52.02-4.16-.04-6.34-1.74-4.85-6.2,2.14-6.41,4.34-12.79,6.59-19.13.08-.23.24-.34.48-.34h5.62c.13,0,.23.11.22.24,0,.03,0,.05-.01.07l-5.85,17.14Z"/><path class="cls-2" d="M261.68,26.91c-.35,1.01.18,2.11,1.18,2.45.2.07.42.11.64.11l15.41.02c.17,0,.31.14.31.31,0,.03,0,.06-.02.09l-1.66,4.84c-.09.27-.28.4-.56.4-8.85.02-14.68.02-17.51,0-4.16-.05-6.34-1.75-4.84-6.21,2.15-6.41,4.35-12.78,6.62-19.11.08-.23.24-.34.48-.34h5.62c.13.01.23.12.22.25,0,.03,0,.05-.01.07l-5.88,17.12Z"/><path class="cls-2" d="M292.91,19.52h16.61c.43,0,.58.21.44.62l-1.42,4.17c-.17.48-.5.72-1.01.72h-16.66c-1.07,0-1.61.54-1.61,1.62v.8c0,1.35.68,2.03,2.03,2.03h15.09c.15,0,.27.12.28.26,0,.03,0,.06-.02.1l-1.66,4.85c-.1.3-.31.45-.63.45-10.36-.03-16.61-.06-18.75-.1-3.77-.07-4.69-2.93-3.51-6.17.95-2.61,2.32-6.66,4.12-12.15,1.59-4.85,4.88-7.26,9.88-7.23,5.19.02,10.93.01,17.22-.02.15,0,.21.07.16.22l-1.83,5.36c-.05.13-.14.19-.27.19h-14.99c-1.26,0-2.45.57-3.24,1.55l-.96,1.2c-.82,1.02-.58,1.53.73,1.53Z"/><path class="cls-2" d="M218.66,25.61c.08-.23-.04-.48-.27-.56-.05-.02-.09-.02-.14-.02h-10.87c-.45,0-.85.29-.99.71l-3.03,8.87c-.11.33-.41.55-.76.55h-5.22c-.36,0-.48-.17-.36-.52,1.43-4.08,3.32-9.63,5.69-16.65,1.75-5.19,4.02-8.32,9.63-8.44,3.51-.07,7.01-.08,10.5-.03,4.08.07,7.21,1.27,5.56,6.1-3.55,10.33-5.73,16.72-6.54,19.15-.08.25-.25.38-.52.38h-5.55c-.25,0-.34-.12-.26-.37l3.13-9.17ZM209.9,19.52h9.69c1.07,0,1.61-.54,1.61-1.62v-.77c0-1.21-.6-1.81-1.81-1.81h-6.21c-1.24,0-2.41.56-3.19,1.53l-.85,1.07c-.85,1.07-.59,1.6.76,1.6Z"/><path class="cls-2" d="M319.82,26.45c-1.07-.11-2.12-.22-3.15-.32-4.48-.43-4.14-3.65-3-7.01.9-2.68,1.96-5.81,3.18-9.4.04-.13.13-.19.27-.19h5.82c.14,0,.25.11.25.25,0,.03,0,.06-.01.09l-2.79,8.2c-.33.96.18,2,1.15,2.33.15.05.3.08.45.09,2.29.17,4.51.19,6.67.08,2.3-.12,3.54-1.59,4.27-3.68,1.04-3.01,1.83-5.34,2.37-6.99.08-.24.25-.36.5-.36h5.6c.23,0,.31.11.24.34-2.22,6.69-3.6,10.54-4.14,11.56-2.57,4.86-5.93,4.39-10.56,5.06-.29.04-.54.24-.63.52l-2.72,7.95c-.07.21-.21.31-.42.31h-5.53c-.17,0-.3-.14-.29-.31,0-.03,0-.06.01-.08l2.74-8.01c.09-.26,0-.4-.28-.43Z"/><path class="cls-3" d="M7.47,15.77c.73-1,1.48-1.95,2.27-2.84.17-.2.47-.22.66-.05,0,0,.01.01.02.02,6.7,6.53,13.47,13.06,20.31,19.58.12.12.16.21.11.27-.05.08-.16.08-.31,0-8.31-4.49-16.6-8.92-24.88-13.29-.23-.12-.32-.4-.2-.63,0,0,0-.01,0-.02.61-1.03,1.28-2.04,2.01-3.04Z"/><path class="cls-3" d="M3.01,23.8c.47-1.13.97-2.21,1.52-3.26.12-.23.41-.31.64-.19,0,0,0,0,.01,0,7.95,4.7,15.97,9.38,24.06,14.03.15.09.2.17.16.26-.03.07-.12.09-.29.04-9.02-2.37-18.01-4.67-26.98-6.92-.25-.07-.4-.33-.33-.58,0,0,0,0,0,0,.34-1.13.74-2.26,1.21-3.39Z"/><path class="cls-3" d="M.43,32.77c.18-1.22.41-2.41.69-3.56.06-.25.32-.41.57-.35,0,0,.02,0,.02,0,8.93,2.65,17.92,5.27,26.97,7.86.17.05.24.11.23.18-.01.09-.1.14-.27.14-9.41-.11-18.78-.17-28.1-.18-.26,0-.47-.22-.46-.48,0,0,0,0,0-.01.05-1.19.17-2.39.35-3.61Z"/><path class="cls-3" d="M.17,41.91C.06,40.67,0,39.46,0,38.27c0-.26.21-.47.47-.47.01,0,.02,0,.03,0,9.35.48,18.76.91,28.21,1.3.17,0,.26.05.27.12,0,.1-.07.17-.24.21-9.22,2.11-18.38,4.27-27.49,6.46-.25.07-.51-.09-.57-.34,0-.01,0-.02,0-.03-.22-1.17-.39-2.38-.5-3.61Z"/><path class="cls-3" d="M76.81,42.77l-.6,4.5c-.05.38-.4.65-.79.6-.04,0-.07-.01-.11-.02l-26.03-7.47c-1.14-.33-1.12-.49.07-.49h291.71c.41,0,.61.2.61.6v1.15c0,.43-.21.64-.64.64H77.38c-.29,0-.53.21-.57.49Z"/><path class="cls-3" d="M2.17,50.99c-.4-1.16-.74-2.31-1.02-3.46-.05-.25.11-.5.36-.56,0,0,0,0,0,0,9.09-1.73,18.22-3.52,27.38-5.37.17-.03.26-.02.28.05.03.09-.03.18-.18.26-8.35,4.19-16.64,8.4-24.87,12.64-.23.11-.51.02-.63-.22,0,0,0,0,0,0-.49-1.07-.93-2.18-1.33-3.34Z"/><path class="cls-3" d="M74.22,52.93c-.47,1.15-.97,2.25-1.52,3.31-.12.23-.41.32-.64.19,0,0-.02,0-.02-.01-8.07-4.71-16.21-9.41-24.41-14.09-.15-.08-.21-.17-.17-.26.03-.07.12-.09.29-.04,9.15,2.35,18.26,4.65,27.34,6.88.25.06.41.32.35.57,0,0,0,.02,0,.02-.34,1.14-.74,2.28-1.21,3.43Z"/><path class="cls-3" d="M6.27,59.24c-.67-1.03-1.27-2.08-1.82-3.13-.12-.23-.03-.51.2-.63,0,0,.01,0,.02,0,8.46-3.89,16.94-7.83,25.43-11.84.16-.07.27-.07.32,0,.04.07,0,.15-.14.26-7.14,6.11-14.22,12.22-21.23,18.35-.2.17-.49.15-.66-.05,0,0-.01-.01-.02-.02-.73-.93-1.43-1.91-2.1-2.94Z"/><path class="cls-3" d="M69.61,60.98c-.73,1.01-1.5,1.97-2.3,2.87-.18.2-.48.21-.68.03,0,0,0,0-.01-.01-6.75-6.6-13.58-13.19-20.47-19.78-.12-.12-.15-.22-.1-.3.05-.06.15-.05.3.03,8.38,4.55,16.75,9.03,25.1,13.44.23.13.31.42.18.65,0,0,0,0,0,0-.61,1.03-1.28,2.05-2.02,3.06Z"/><path class="cls-3" d="M12.2,66.33c-.9-.84-1.74-1.7-2.52-2.59-.17-.19-.15-.49.04-.66,0,0,.01-.01.02-.02,7.27-5.79,14.55-11.65,21.82-17.58.13-.11.23-.13.28-.08.07.07.06.17-.04.31-5.46,7.63-10.86,15.25-16.19,22.87-.15.21-.44.26-.66.11,0,0,0,0-.01-.01-.93-.73-1.85-1.51-2.74-2.35Z"/><path class="cls-3" d="M63.33,67.71c-.94.8-1.9,1.54-2.87,2.21-.21.15-.5.1-.66-.11,0,0,0-.01-.01-.02-4.93-7.9-9.93-15.81-15-23.73-.09-.15-.11-.24-.05-.29.07-.07.17-.04.3.08,6.97,6.31,13.95,12.55,20.92,18.72.2.17.22.47.05.66,0,0-.01.01-.02.02-.83.85-1.72,1.67-2.66,2.46Z"/><path class="cls-1" d="M300.66,46.6c6.67-.05,7.05,8.15,7.09,13.26.03,5.11-.23,13.31-6.9,13.35-6.67.05-7.05-8.14-7.09-13.26-.03-5.11.23-13.31,6.9-13.35ZM303.78,52.65c-.01-1.64-1.35-2.96-2.99-2.95h-.22c-1.64.01-2.96,1.35-2.95,2.99h0s.1,14.38.1,14.38c.01,1.64,1.35,2.96,2.99,2.95h.22c1.64-.01,2.96-1.35,2.95-2.99h0s-.1-14.38-.1-14.38Z"/><path class="cls-3" d="M19.68,71.84c-1.06-.59-2.07-1.23-3.04-1.9-.21-.15-.26-.44-.11-.65,0,0,0,0,0-.01,5.63-7.31,11.24-14.67,16.85-22.1.1-.14.19-.19.28-.14.06.04.06.14,0,.3-3.45,8.64-6.84,17.26-10.16,25.86-.1.24-.36.36-.6.27,0,0-.01,0-.02,0-1.07-.48-2.14-1.02-3.21-1.62Z"/><path class="cls-1" d="M94.21,46.91c.27,0,.55.06.84.18.32.14.52.38.59.72l5.44,24.34c.13.56-.1.84-.68.84h-1.63c-.52,0-.83-.26-.94-.77l-.8-3.91c-.06-.31-.34-.52-.84-.63-.15-.03-.82-.04-2.01-.05-1.19,0-1.85.02-2,.05-.5.11-.78.31-.84.62l-.81,3.91c-.11.51-.42.77-.94.77h-1.63c-.58-.01-.81-.29-.68-.85l5.5-24.32c.07-.34.27-.58.59-.72.29-.12.57-.18.84-.18ZM94.07,65.28c.57,0,1.13-.06,1.67-.19.33-.07.47-.28.42-.62-1.13-7.86-1.76-11.79-1.91-11.79-.15,0-.9,3.9-2.25,11.73-.06.34.07.55.4.64.54.15,1.1.22,1.67.23Z"/><path class="cls-1" d="M197.47,67.65c-1.19,0-1.86,0-2,.04-.51.11-.79.31-.85.62l-.81,3.91c-.11.51-.43.77-.95.77h-1.63c-.58,0-.8-.29-.67-.85l5.53-24.32c.07-.34.27-.58.6-.71.29-.13.56-.19.83-.18.27,0,.55.06.84.18.32.14.52.38.59.72l5.41,24.34c.13.56-.1.84-.68.84h-1.63c-.52,0-.83-.26-.94-.77l-.8-3.91c-.06-.31-.34-.52-.84-.63-.14-.03-.81-.05-2-.05ZM197.59,53.12c-.14-.83-.28-.83-.42,0l-1.96,11.67c-.05.29.08.43.37.43h3.74c.16,0,.29-.13.29-.29,0-.02,0-.04,0-.05l-2.02-11.76Z"/><path class="cls-1" d="M128.58,65.25c.23.03,1.29-5.81,3.17-17.5.08-.49.37-.74.87-.74h1.72c.51,0,.72.25.62.75-2.69,13.57-4.36,21.72-4.99,24.43-.13.58-.61.87-1.42.86-.81,0-1.28-.29-1.41-.87-.61-2.72-2.22-10.88-4.81-24.47-.09-.5.12-.75.63-.74h1.72c.5.02.79.27.87.76,1.79,11.7,2.8,17.54,3.03,17.52Z"/><rect class="cls-1" x="162.48" y="47.01" width="3.46" height="25.96" rx=".53" ry=".53" transform="translate(-.1 .29) rotate(-.1)"/><path class="cls-1" d="M231.89,47.02c1.85,0,3.55,0,5.1,0,.47,0,.71.24.71.71v1.62c0,.42-.21.63-.62.63h-2.93c-.29,0-.53.24-.53.53h0v21.73c0,.33-.16.53-.47.62-.29.07-.71.11-1.26.11s-.97-.04-1.26-.11c-.31-.09-.47-.29-.47-.62v-21.73c0-.29-.24-.53-.53-.53h-2.93c-.41,0-.62-.21-.62-.63v-1.62c0-.47.23-.71.7-.71,1.56,0,3.26,0,5.11,0Z"/><rect class="cls-1" x="264.7" y="47" width="3.38" height="25.98" rx=".6" ry=".6"/><path class="cls-1" d="M336.45,64.27l-.34-16.61c-.01-.43.2-.66.64-.68l1.92-.08c.41-.02.62.18.62.59v24.74c0,.37-.3.67-.67.67h-1.77c-.41,0-.68-.2-.81-.59l-5.32-16.54c-.54-1.67-.77-1.63-.69.12l.7,16.3c.02.38-.27.69-.65.71-.01,0-.02,0-.03,0h-2.18c-.48,0-.72-.24-.72-.72v-24.73c0-.35.18-.53.53-.53h2.14c.39,0,.65.18.78.55,1.95,5.54,3.71,11.02,5.3,16.44.05.15.11.26.2.33.1.08.19.12.26.12.06,0,.09-.03.09-.09Z"/><path class="cls-3" d="M55.51,72.83c-1.09.53-2.18,1.01-3.27,1.42-.24.09-.5-.02-.6-.26,0-.01,0-.02-.01-.03-2.82-8.72-5.7-17.47-8.65-26.24-.05-.16-.04-.26.05-.3.07-.03.15.02.24.16,5.15,7.69,10.32,15.31,15.5,22.87.15.21.1.49-.11.64,0,0-.02.01-.03.02-.99.61-2.03,1.18-3.12,1.72Z"/><path class="cls-3" d="M28.26,75.36c-1.17-.33-2.29-.7-3.38-1.12-.24-.09-.36-.36-.27-.59,0,0,0-.01,0-.02,3.7-8.36,7.37-16.78,11.02-25.26.07-.15.13-.22.2-.2.09.03.13.12.11.29-1.29,9.14-2.52,18.24-3.69,27.3-.03.25-.26.43-.51.4-.01,0-.02,0-.03,0-1.15-.21-2.3-.47-3.46-.8Z"/><path class="cls-3" d="M37.4,76.67c-1.21-.04-2.39-.13-3.55-.28-.25-.03-.43-.27-.39-.52,0,0,0-.01,0-.02,1.61-9.01,3.17-18.07,4.69-27.18.03-.17.09-.25.18-.24.08,0,.13.08.14.25.93,9.19,1.9,18.34,2.92,27.43.03.25-.15.48-.41.51,0,0-.02,0-.02,0-1.16.07-2.35.09-3.56.05Z"/><path class="cls-3" d="M46.78,75.85c-1.17.26-2.34.46-3.49.6-.25.03-.48-.15-.51-.41,0,0,0,0,0-.01-.67-9.08-1.39-18.2-2.16-27.36-.01-.17.02-.26.09-.28.09-.02.17.05.23.21,3.15,8.63,6.34,17.21,9.55,25.73.09.24-.03.5-.27.59,0,0-.01,0-.02,0-1.1.35-2.24.66-3.42.92Z"/><path class="cls-1" d="M3.39,87.43l2.22,6.73h.09l2.22-6.73h1.7l-3.01,8.55h-1.91l-3.01-8.55h1.7Z"/><path class="cls-1" d="M13.79,95.97h-1.65l3.01-8.55h1.91l3.01,8.55h-1.65l-2.28-6.79h-.07l-2.28,6.79ZM13.84,92.62h4.51v1.24h-4.51v-1.24Z"/><path class="cls-1" d="M24.13,95.97v-8.55h1.55v7.25h3.76v1.3h-5.31Z"/><path class="cls-1" d="M33.72,95.97v-8.55h1.55v7.25h3.76v1.3h-5.31Z"/><path class="cls-1" d="M43.31,95.97v-8.55h5.56v1.3h-4.01v2.32h3.72v1.3h-3.72v2.33h4.04v1.3h-5.59Z"/><path class="cls-1" d="M52.8,87.43h1.75l2.09,3.78h.08l2.09-3.78h1.75l-3.11,5.36v3.19h-1.54v-3.19l-3.11-5.36Z"/><path class="cls-1" d="M72.59,87.43v8.55h-1.55v-8.55h1.55Z"/><path class="cls-1" d="M84.23,87.43v8.55h-1.38l-4.03-5.82h-.07v5.82h-1.55v-8.55h1.39l4.02,5.83h.08v-5.83h1.54Z"/><path class="cls-1" d="M88.47,88.73v-1.3h6.82v1.3h-2.64v7.25h-1.54v-7.25h-2.64Z"/><path class="cls-1" d="M99.54,95.97v-8.55h5.56v1.3h-4.01v2.32h3.72v1.3h-3.72v2.33h4.04v1.3h-5.59Z"/><path class="cls-1" d="M109.61,95.97v-8.55h3.2c.66,0,1.21.11,1.65.34.45.23.78.55,1.01.96.23.41.34.89.34,1.43s-.12,1.02-.35,1.42c-.23.4-.57.71-1.02.93-.45.22-1,.33-1.66.33h-2.28v-1.29h2.07c.38,0,.7-.05.94-.16.25-.11.43-.26.54-.47.12-.21.18-.46.18-.77s-.06-.56-.18-.78c-.12-.21-.3-.38-.55-.49-.25-.11-.56-.17-.95-.17h-1.42v7.25h-1.55ZM114.03,92.1l2.12,3.87h-1.73l-2.08-3.87h1.69Z"/><path class="cls-1" d="M127.22,87.43v8.55h-1.38l-4.03-5.82h-.07v5.82h-1.55v-8.55h1.39l4.02,5.83h.08v-5.83h1.54Z"/><path class="cls-1" d="M132.93,95.97h-1.65l3.01-8.55h1.91l3.01,8.55h-1.65l-2.28-6.79h-.07l-2.28,6.79ZM132.99,92.62h4.51v1.24h-4.51v-1.24Z"/><path class="cls-1" d="M141.87,88.73v-1.3h6.82v1.3h-2.64v7.25h-1.54v-7.25h-2.64Z"/><path class="cls-1" d="M154.48,87.43v8.55h-1.55v-8.55h1.55Z"/><path class="cls-1" d="M166.73,91.7c0,.92-.17,1.71-.52,2.36s-.81,1.16-1.4,1.5c-.59.35-1.26.52-2.01.52s-1.42-.17-2.01-.52c-.59-.35-1.06-.85-1.4-1.51-.34-.66-.52-1.44-.52-2.36s.17-1.71.52-2.36c.34-.66.81-1.16,1.4-1.5.59-.35,1.26-.52,2.01-.52s1.42.17,2.01.52c.59.35,1.06.85,1.4,1.5s.52,1.44.52,2.36ZM165.18,91.7c0-.65-.1-1.2-.3-1.64-.2-.45-.48-.78-.84-1.01s-.77-.34-1.23-.34-.88.11-1.23.34-.63.57-.84,1.01c-.2.45-.3.99-.3,1.64s.1,1.2.3,1.64.48.78.84,1.01.77.34,1.23.34.88-.12,1.23-.34.63-.57.84-1.01.3-.99.3-1.64Z"/><path class="cls-1" d="M178.16,87.43v8.55h-1.38l-4.03-5.82h-.07v5.82h-1.55v-8.55h1.39l4.02,5.83h.08v-5.83h1.54Z"/><path class="cls-1" d="M183.88,95.97h-1.65l3.01-8.55h1.91l3.01,8.55h-1.65l-2.28-6.79h-.07l-2.28,6.79ZM183.93,92.62h4.51v1.24h-4.51v-1.24Z"/><path class="cls-1" d="M194.22,95.97v-8.55h1.55v7.25h3.76v1.3h-5.31Z"/><path class="cls-1" d="M211.35,95.97h-1.65l3.01-8.55h1.91l3.01,8.55h-1.65l-2.28-6.79h-.07l-2.28,6.79ZM211.4,92.62h4.51v1.24h-4.51v-1.24Z"/><path class="cls-1" d="M223.24,87.43v8.55h-1.55v-8.55h1.55Z"/><path class="cls-1" d="M227.86,95.97v-8.55h3.21c.66,0,1.21.11,1.65.34.45.23.78.55,1.01.96.23.41.34.89.34,1.43s-.12,1.02-.35,1.42c-.23.4-.57.71-1.02.93-.45.22-1,.33-1.66.33h-2.28v-1.29h2.07c.38,0,.7-.05.94-.16s.43-.26.54-.47.18-.46.18-.77-.06-.56-.18-.78c-.12-.21-.3-.38-.55-.49s-.56-.17-.95-.17h-1.42v7.25h-1.55ZM232.27,92.1l2.12,3.87h-1.73l-2.08-3.87h1.69Z"/><path class="cls-1" d="M238.44,95.97v-8.55h3.21c.66,0,1.21.12,1.65.37.45.25.78.58,1.01,1.01.23.43.34.91.34,1.45s-.12,1.04-.35,1.46c-.23.43-.57.76-1.02,1-.45.24-1.01.37-1.67.37h-2.12v-1.27h1.92c.38,0,.7-.07.94-.2s.43-.32.54-.55.18-.5.18-.81-.06-.57-.18-.8-.3-.41-.55-.54c-.25-.13-.56-.19-.95-.19h-1.42v7.25h-1.55Z"/><path class="cls-1" d="M256.57,91.7c0,.92-.17,1.71-.51,2.36-.34.66-.81,1.16-1.4,1.5s-1.26.52-2.01.52-1.42-.17-2.01-.52c-.59-.35-1.06-.85-1.4-1.51-.34-.66-.52-1.44-.52-2.36s.17-1.71.52-2.36c.34-.66.81-1.16,1.4-1.5s1.26-.52,2.01-.52,1.42.17,2.01.52,1.06.85,1.4,1.5c.34.66.51,1.44.51,2.36ZM255.02,91.7c0-.65-.1-1.2-.3-1.64-.2-.45-.48-.78-.84-1.01s-.77-.34-1.23-.34-.88.11-1.23.34-.63.57-.84,1.01c-.2.45-.3.99-.3,1.64s.1,1.2.3,1.64c.2.45.48.78.84,1.01s.77.34,1.23.34.87-.12,1.23-.34.63-.57.84-1.01c.2-.45.3-.99.3-1.64Z"/><path class="cls-1" d="M260.98,95.97v-8.55h3.21c.66,0,1.21.11,1.65.34.45.23.78.55,1.01.96.23.41.34.89.34,1.43s-.12,1.02-.35,1.42c-.23.4-.57.71-1.02.93-.45.22-1,.33-1.66.33h-2.28v-1.29h2.07c.38,0,.7-.05.94-.16s.43-.26.54-.47.18-.46.18-.77-.06-.56-.18-.78c-.12-.21-.3-.38-.55-.49s-.56-.17-.95-.17h-1.42v7.25h-1.55ZM265.39,92.1l2.12,3.87h-1.73l-2.08-3.87h1.69Z"/><path class="cls-1" d="M271.19,88.73v-1.3h6.82v1.3h-2.64v7.25h-1.54v-7.25h-2.64Z"/><path class="cls-1" d="M289,92.49c0-1.04.14-2,.42-2.88.28-.88.69-1.68,1.24-2.43h1.42c-.21.28-.41.61-.59,1.01s-.34.84-.48,1.31c-.13.47-.24.97-.32,1.48-.08.51-.12,1.01-.12,1.51,0,.66.07,1.33.2,2s.31,1.3.54,1.88.48,1.05.77,1.42h-1.42c-.55-.74-.96-1.55-1.24-2.43-.28-.88-.42-1.83-.42-2.87Z"/><path class="cls-1" d="M296.25,95.97v-8.55h1.55v3.93h.1l3.33-3.93h1.89l-3.3,3.83,3.33,4.71h-1.86l-2.55-3.66-.95,1.12v2.54h-1.55Z"/><path class="cls-1" d="M307.14,95.97v-8.55h1.55v3.62h3.96v-3.62h1.55v8.55h-1.55v-3.63h-3.96v3.63h-1.55Z"/><path class="cls-1" d="M318.82,95.97v-8.55h3.21c.66,0,1.21.11,1.65.34.45.23.78.55,1.01.96.23.41.34.89.34,1.43s-.12,1.02-.35,1.42c-.23.4-.57.71-1.02.93-.45.22-1,.33-1.66.33h-2.28v-1.29h2.07c.38,0,.7-.05.94-.16s.43-.26.54-.47.18-.46.18-.77-.06-.56-.18-.78c-.12-.21-.3-.38-.55-.49s-.56-.17-.95-.17h-1.42v7.25h-1.55ZM323.23,92.1l2.12,3.87h-1.73l-2.08-3.87h1.69Z"/><path class="cls-1" d="M329.4,95.97v-8.55h1.55v7.25h3.76v1.3h-5.31Z"/><path class="cls-1" d="M341.62,92.49c0,1.04-.14,2-.42,2.87-.28.88-.69,1.68-1.24,2.43h-1.42c.21-.28.41-.61.59-1.01.18-.4.34-.83.48-1.31s.24-.97.32-1.48c.08-.51.11-1.01.11-1.5,0-.66-.07-1.33-.2-2-.13-.68-.31-1.3-.54-1.88-.23-.58-.48-1.05-.77-1.42h1.42c.55.74.96,1.55,1.24,2.43.28.88.42,1.83.42,2.88Z"/></svg>