<?xml version="1.0" encoding="UTF-8"?><svg id="Layer_1" xmlns="http://www.w3.org/2000/svg" xmlns:xlink="http://www.w3.org/1999/xlink" viewBox="0 0 318 76"><defs><style>.cls-1{fill:#0e0e0e;}.cls-1,.cls-2{fill-rule:evenodd;}.cls-2{fill:url(#linear-gradient);}</style><linearGradient id="linear-gradient" x1="-143.85" y1="429.6" x2="-143.18" y2="430" gradientTransform="translate(10366 32703) scale(72 -76)" gradientUnits="userSpaceOnUse"><stop offset="0" stop-color="#fe6e64"/><stop offset=".33" stop-color="#fc8446"/><stop offset=".65" stop-color="#f7951d"/><stop offset="1" stop-color="#ffc14f"/></linearGradient></defs><g id="MPC-Homepage"><g id="Group-3"><g id="Group-4"><g id="Group"><path id="Combined-Shape" class="cls-2" d="M13,28l28,16.45v31.55l-28-16.49v-31.51ZM72,13v30.5l-28,16.5v-31.5l.04-.02,27.96-15.47ZM28.43,0l28.57,17.04-28.43,15.96L0,15.96,28.43,0Z"/></g><g id="Group-21"><path id="Fill-5" class="cls-1" d="M136.31,21.47h-10.83v9.97h10.88c2.11,0,3.82-.41,5.13-1.23,1.43-.88,2.15-2.08,2.15-3.6,0-3.43-2.44-5.14-7.32-5.14M143.63,33.46c-2.16,1.2-4.85,1.8-8.07,1.8h-10.09v12.16h-4.21v-29.77h14.78c7.9,0,11.84,2.97,11.84,8.91,0,3.05-1.42,5.34-4.26,6.89"/><path id="Fill-7" class="cls-1" d="M177.46,26.03c-1.29-1.75-2.74-3.01-4.36-3.75-1.62-.75-3.65-1.12-6.08-1.12-3.95,0-7.07,1.03-9.37,3.1-2.3,2.06-3.44,4.84-3.44,8.32s1.09,6.21,3.27,8.25c2.18,2.05,5.2,3.08,9.06,3.08,2.31,0,4.29-.38,5.94-1.14,1.65-.76,3.19-2.02,4.63-3.78l3.6,2.15c-3.63,4.39-8.34,6.58-14.12,6.58-5.03,0-9.05-1.35-12.06-4.06-3.01-2.71-4.52-6.34-4.52-10.91s1.55-8.46,4.65-11.24c3.1-2.78,7.22-4.17,12.37-4.17,6.02,0,10.69,2.18,13.99,6.54l-3.55,2.15Z"/><path id="Fill-9" class="cls-1" d="M200.66,47.72c-3.83,0-6.9-.69-9.21-2.06-2.89-1.67-4.34-4.29-4.34-7.86v-1.06h2.24v.88c0,5.36,3.79,8.03,11.36,8.03,2.6,0,4.78-.39,6.54-1.18,2.25-1.03,3.38-2.61,3.38-4.74,0-1.49-.41-2.63-1.23-3.42-.67-.64-1.83-1.21-3.47-1.71-.88-.23-2.95-.7-6.23-1.41-3.77-.79-6.32-1.52-7.63-2.19-2.66-1.35-3.99-3.35-3.99-6.02,0-5.1,3.92-7.64,11.76-7.64s12.33,3.19,12.41,9.57h-2.19c-.18-3.07-1.23-5.14-3.16-6.19-1.58-.88-3.93-1.32-7.06-1.32-6.35,0-9.52,1.86-9.52,5.58,0,1.81.86,3.18,2.59,4.08,1.2.62,3.23,1.19,6.1,1.71,5.32.94,8.87,1.95,10.66,3.03,2.13,1.29,3.2,3.31,3.2,6.06s-1.42,4.83-4.26,6.23c-2.19,1.08-4.84,1.62-7.94,1.62"/><polygon id="Fill-11" class="cls-1" points="220.31 28.98 220.31 47.42 218.16 47.42 218.07 28.98 213.73 28.98 213.73 26.91 218.07 26.91 218.07 20.46 220.31 20.46 220.31 26.91 224.74 26.91 224.74 28.98 220.31 28.98"/><path id="Fill-13" class="cls-1" d="M242.95,47.46v-2.98c-1.73,2.28-4.34,3.42-7.85,3.42-2.75,0-4.93-.66-6.54-1.98-1.7-1.43-2.54-3.44-2.54-6.01v-13.92h2.24v13.87c0,3.98,2.28,5.97,6.84,5.97,2.63,0,4.62-.76,5.97-2.28,1.26-1.44,1.89-3.43,1.89-5.97v-11.59h2.24v21.47h-2.24Z"/><path id="Fill-15" class="cls-1" d="M264.35,29.81c-1.58-1.73-3.82-2.59-6.71-2.59-2.69,0-4.81.92-6.36,2.77-1.46,1.73-2.19,3.92-2.19,6.59s.72,4.87,2.15,6.54c1.52,1.81,3.66,2.72,6.4,2.72s4.9-.91,6.54-2.72c1.61-1.73,2.41-3.91,2.41-6.54,0-2.87-.74-5.12-2.24-6.76h0ZM266.59,47.42v-3.86c-1.96,2.89-4.93,4.34-8.9,4.34-3.39,0-6.07-1.1-8.03-3.29-1.84-2.08-2.76-4.75-2.76-8.03s.93-6.04,2.81-8.12c1.96-2.19,4.68-3.29,8.16-3.29,3.92,0,6.83,1.39,8.73,4.17v-11.68h2.24v29.77h-2.24Z"/><path id="Fill-17" class="cls-1" d="M272.03,47.42h2.24v-21.78h-2.24v21.78ZM273.08,22.08c-.47,0-.82-.29-1.05-.88v-3.08c.26-.58.61-.88,1.05-.88.35,0,.75.26,1.19.79v3.25c-.41.53-.81.79-1.19.79h0Z"/><path id="Fill-19" class="cls-1" d="M293.92,30.05c-1.61-1.68-3.85-2.52-6.71-2.52s-5.03.83-6.67,2.48c-1.64,1.65-2.46,3.89-2.46,6.7s.82,5,2.48,6.65c1.65,1.66,3.87,2.48,6.65,2.48s4.99-.82,6.65-2.48c1.65-1.65,2.48-3.87,2.48-6.65s-.81-4.97-2.41-6.65M287.16,47.9c-3.48,0-6.24-1.04-8.27-3.12-2.03-2.08-3.05-4.77-3.05-8.08s1.04-6.15,3.14-8.19c2.09-2.03,4.85-3.05,8.27-3.05s6.16,1.02,8.23,3.05c2.06,2.03,3.09,4.76,3.09,8.19s-1.04,6.15-3.13,8.16c-2.09,2.02-4.85,3.03-8.27,3.03"/><path id="Fill-20" class="cls-1" d="M309.18,47.99c-6.52,0-9.78-2.93-9.78-8.78h2.33c0,2.31.6,4,1.8,5.05,1.2,1.05,3.1,1.58,5.7,1.58,1.76,0,3.2-.28,4.34-.83,1.4-.73,2.11-1.81,2.11-3.25,0-1.76-1.46-2.97-4.39-3.64-.2-.06-1.67-.29-4.39-.7-4.39-.67-6.58-2.58-6.58-5.71,0-2.05.88-3.65,2.63-4.79,1.49-1,3.32-1.49,5.48-1.49,6.28,0,9.43,2.61,9.43,7.81h-2.37c0-1.99-.54-3.43-1.62-4.32-1.08-.89-2.82-1.34-5.22-1.34-1.61,0-2.97.32-4.08.96-1.29.76-1.93,1.82-1.93,3.16,0,1.75,1.43,2.88,4.3,3.38.76.15,2.31.43,4.65.83,4.27.73,6.4,2.68,6.4,5.84,0,2.22-.97,3.88-2.9,4.96-1.55.85-3.52,1.27-5.92,1.27"/><polygon id="Fill-4" class="cls-1" points="112.81 48 112.81 26.85 101.51 48 98.49 48 87.19 26.85 87.19 48 83 48 83 18 87.1 18 99.98 42.12 112.9 18 117 18 117 48 112.81 48"/><path id="Fill-5-2" class="cls-1" d="M136.31,21.47h-10.83v9.97h10.88c2.11,0,3.82-.41,5.13-1.23,1.43-.88,2.15-2.08,2.15-3.6,0-3.43-2.44-5.14-7.32-5.14M143.63,33.46c-2.16,1.2-4.85,1.8-8.07,1.8h-10.09v12.16h-4.21v-29.77h14.78c7.9,0,11.84,2.97,11.84,8.91,0,3.05-1.42,5.34-4.26,6.89"/><path id="Fill-7-2" class="cls-1" d="M177.46,26.03c-1.29-1.75-2.74-3.01-4.36-3.75-1.62-.75-3.65-1.12-6.08-1.12-3.95,0-7.07,1.03-9.37,3.1-2.3,2.06-3.44,4.84-3.44,8.32s1.09,6.21,3.27,8.25c2.18,2.05,5.2,3.08,9.06,3.08,2.31,0,4.29-.38,5.94-1.14,1.65-.76,3.19-2.02,4.63-3.78l3.6,2.15c-3.63,4.39-8.34,6.58-14.12,6.58-5.03,0-9.05-1.35-12.06-4.06-3.01-2.71-4.52-6.34-4.52-10.91s1.55-8.46,4.65-11.24c3.1-2.78,7.22-4.17,12.37-4.17,6.02,0,10.69,2.18,13.99,6.54l-3.55,2.15Z"/><path id="Fill-9-2" class="cls-1" d="M200.66,47.72c-3.83,0-6.9-.69-9.21-2.06-2.89-1.67-4.34-4.29-4.34-7.86v-1.06h2.24v.88c0,5.36,3.79,8.03,11.36,8.03,2.6,0,4.78-.39,6.54-1.18,2.25-1.03,3.38-2.61,3.38-4.74,0-1.49-.41-2.63-1.23-3.42-.67-.64-1.83-1.21-3.47-1.71-.88-.23-2.95-.7-6.23-1.41-3.77-.79-6.32-1.52-7.63-2.19-2.66-1.35-3.99-3.35-3.99-6.02,0-5.1,3.92-7.64,11.76-7.64s12.33,3.19,12.41,9.57h-2.19c-.18-3.07-1.23-5.14-3.16-6.19-1.58-.88-3.93-1.32-7.06-1.32-6.35,0-9.52,1.86-9.52,5.58,0,1.81.86,3.18,2.59,4.08,1.2.62,3.23,1.19,6.1,1.71,5.32.94,8.87,1.95,10.66,3.03,2.13,1.29,3.2,3.31,3.2,6.06s-1.42,4.83-4.26,6.23c-2.19,1.08-4.84,1.62-7.94,1.62"/><polygon id="Fill-11-2" class="cls-1" points="220.31 28.98 220.31 47.42 218.16 47.42 218.07 28.98 213.73 28.98 213.73 26.91 218.07 26.91 218.07 20.46 220.31 20.46 220.31 26.91 224.74 26.91 224.74 28.98 220.31 28.98"/><path id="Fill-13-2" class="cls-1" d="M242.95,47.46v-2.98c-1.73,2.28-4.34,3.42-7.85,3.42-2.75,0-4.93-.66-6.54-1.98-1.7-1.43-2.54-3.44-2.54-6.01v-13.92h2.24v13.87c0,3.98,2.28,5.97,6.84,5.97,2.63,0,4.62-.76,5.97-2.28,1.26-1.44,1.89-3.43,1.89-5.97v-11.59h2.24v21.47h-2.24Z"/><path id="Fill-15-2" class="cls-1" d="M264.35,29.81c-1.58-1.73-3.82-2.59-6.71-2.59-2.69,0-4.81.92-6.36,2.77-1.46,1.73-2.19,3.92-2.19,6.59s.72,4.87,2.15,6.54c1.52,1.81,3.66,2.72,6.4,2.72s4.9-.91,6.54-2.72c1.61-1.73,2.41-3.91,2.41-6.54,0-2.87-.74-5.12-2.24-6.76h0ZM266.59,47.42v-3.86c-1.96,2.89-4.93,4.34-8.9,4.34-3.39,0-6.07-1.1-8.03-3.29-1.84-2.08-2.76-4.75-2.76-8.03s.93-6.04,2.81-8.12c1.96-2.19,4.68-3.29,8.16-3.29,3.92,0,6.83,1.39,8.73,4.17v-11.68h2.24v29.77h-2.24Z"/><path id="Fill-17-2" class="cls-1" d="M272.03,47.42h2.24v-21.78h-2.24v21.78ZM273.08,22.08c-.47,0-.82-.29-1.05-.88v-3.08c.26-.58.61-.88,1.05-.88.35,0,.75.26,1.19.79v3.25c-.41.53-.81.79-1.19.79h0Z"/><path id="Fill-19-2" class="cls-1" d="M293.92,30.05c-1.61-1.68-3.85-2.52-6.71-2.52s-5.03.83-6.67,2.48c-1.64,1.65-2.46,3.89-2.46,6.7s.82,5,2.48,6.65c1.65,1.66,3.87,2.48,6.65,2.48s4.99-.82,6.65-2.48c1.65-1.65,2.48-3.87,2.48-6.65s-.81-4.97-2.41-6.65M287.16,47.9c-3.48,0-6.24-1.04-8.27-3.12-2.03-2.08-3.05-4.77-3.05-8.08s1.04-6.15,3.14-8.19c2.09-2.03,4.85-3.05,8.27-3.05s6.16,1.02,8.23,3.05c2.06,2.03,3.09,4.76,3.09,8.19s-1.04,6.15-3.13,8.16c-2.09,2.02-4.85,3.03-8.27,3.03"/><path id="Fill-20-2" class="cls-1" d="M309.18,47.99c-6.52,0-9.78-2.93-9.78-8.78h2.33c0,2.31.6,4,1.8,5.05,1.2,1.05,3.1,1.58,5.7,1.58,1.76,0,3.2-.28,4.34-.83,1.4-.73,2.11-1.81,2.11-3.25,0-1.76-1.46-2.97-4.39-3.64-.2-.06-1.67-.29-4.39-.7-4.39-.67-6.58-2.58-6.58-5.71,0-2.05.88-3.65,2.63-4.79,1.49-1,3.32-1.49,5.48-1.49,6.28,0,9.43,2.61,9.43,7.81h-2.37c0-1.99-.54-3.43-1.62-4.32-1.08-.89-2.82-1.34-5.22-1.34-1.61,0-2.97.32-4.08.96-1.29.76-1.93,1.82-1.93,3.16,0,1.75,1.43,2.88,4.3,3.38.76.15,2.31.43,4.65.83,4.27.73,6.4,2.68,6.4,5.84,0,2.22-.97,3.88-2.9,4.96-1.55.85-3.52,1.27-5.92,1.27"/></g></g></g></g></svg>