<?xml version="1.0" encoding="utf-8"?>
<!-- Generator: Adobe Illustrator 21.0.0, SVG Export Plug-In . SVG Version: 6.00 Build 0)  -->
<svg version="1.1" id="Layer_1" xmlns="http://www.w3.org/2000/svg" xmlns:xlink="http://www.w3.org/1999/xlink" x="0px" y="0px"
	 width="892.5px" height="848.4px" viewBox="0 0 892.5 848.4" style="enable-background:new 0 0 892.5 848.4;" xml:space="preserve"
	>
<g>
	<defs>
		<path id="SVGID_1_" d="M256.3,0.7l-0.2,8.1l-0.3,9.7l-0.1,3.3l-0.4,9.5l-0.2,4.6l-0.9,25l0,0.1l-0.3,9.3l-1.3,34.6v0.1l-0.7,18.3
			l-0.5,13.7l-0.1,2.7l-1,30.1l-0.1,4.6l0,0.6l-0.6,15.6l0,0.7l0,0.4l-0.2,2.6l-0.1,2.9l0.1,1.7l-0.4,8.4l-0.2,3.6l-0.1,2l-0.3,5.8
			l-0.5,8.7l-0.3,5.3l-0.7,14.5l-0.7,14.4l-0.8,16.4l-0.1,3.4l-1.2,34.7l-1.2,34.5l-0.2,6.8l-16.5-0.6l-1.2,0l-0.9,0l-2.6-0.1
			l-1.2,0l-21.7-0.9l-16.3-0.6l-1.2,0l-1.2-0.1l-0.4,0l-0.1,0l-0.7,0l-1.1,0l-0.1,0l-2.3-0.1l-5.8-0.3l-17.1-0.8l-22.2-1.1l-1-0.1
			l-5.6-0.3l-1.1-0.1l-1,0l-3.4-0.2l-0.6,0l-0.6,0l-1.1-0.1l-1.1-0.1l-3.4-0.1l-1.1-0.1l-1.1-0.1l-1.1,0l-1.2-0.1l-4.5-0.2l-0.5,0
			l-0.8,0l-1.4-0.1l-2-0.1l-2.3-0.1l-0.3,0l-0.6,0l-2.7-0.2l-1.1-0.1l-1.2-0.1l-1.2,0l-1.2-0.1l-3.4-0.2l-1.1-0.1l-1.1,0l-1.2-0.1
			l-3.4-0.2l-3.4-0.2l-3.4-0.2l-1.2-0.1l-0.5,0l-1.3-0.1l-3.4-0.2l-1.1-0.1l-1.4-0.1L60,349l-1.5-0.1l-1.9-0.1l-1.1-0.1l-1.6-0.1
			l-1.1-0.1l-3.3-0.2l-1.1-0.1l-3.6-0.2l-3.1-0.2l-8.2-0.5l-3.7-0.2l-6.2-0.4l-4-0.2l-5.7-0.3l-1.1-0.1l-1.1-0.1l-3.4-0.2l-1.2-0.1
			L6,345.8l-2.9-0.2v0.3L2.9,346L2.5,346l-0.3,0.1l-0.2,0.2l-0.2,0.3l0,0l-0.1,0.3l-0.1,0.3l0.1,0.2l0.3,0.1l0.3,0l0.3,0l0.3,0.1
			l0.2,0.1l0.1,0.1l0,0.3l-0.1,0.2l-0.2,0.1l-0.2,0.1l-0.2,0.2L2.3,349l0.1,0.2l0.1,0.1l0.2,0l0.2-0.1h0.2l0.1,0.2v0.1L3,349.5
			l-0.1,0.1l-0.2,0.3l-0.1,0.2l0,0.3l-0.1,0.3l0,0.2L2.4,351l-0.1,0.1L2,351.3l-0.1,0.1l0,0.2l0.1,0.1l0.2,0l0.3,0l0.2,0l0.1,0.1
			l0.1,0.1v0.2l-0.1,0.1l-0.2,0.1l-0.2,0.1l-0.2,0l-0.3,0.1l-0.2,0.1l-0.4,0.2L1,353.1l-0.1,0.2l-0.1,0.2l0,0.2l0.1,0.2l0.2,0.2
			l0.1,0.1l0.3,0.4l0.1,0.3l0,0.3l-0.1,0.3l-0.1,0.3l-0.1,0.2l0,0l0.1,0.2l0.2,0.3l0.8,1l0.5,0.5l0.3,0h0.2l0.1,0.1v0.3l0,0.2
			l-0.1,0.3l0,0.3l0,0.1l0.1,0.3l0.2,0.1l0.2,0l0.2,0.1l0.1,0.1l0.1,0.1l0.2,0.1l0.3,0.4l0.2,0.4l0.2,0.1l0.2,0.1l0.2,0l0.2,0l0.2,0
			h0.1l0.1,0l0.3,0l0.3,0.1l0.4,0.3l0.1,0.2l0.1,0.1l0.2,0.4l0.2,0.3l0.2,0.1l0.2,0.1l0.1,0.1l0.1,0.1v0.1L8.2,363L8,363.1L8,363.5
			l0.1,0.4l0.3,0.3l0.4,0.3l0.3,0.4l0.3,0.4l0.5,0.4l0.8,0.6l0.6,0.2l0.7,0l0.4-0.2l0.5-0.2h0.4l0.2,0l0.7,0l0.8,0.1l0.6,0.3
			l0.7,0.6l0.6,0.3l0.7,0.5l0.3,0.4l0.1,0.6l0,0.3l0.2,0.3l0.3,0.4l0.3,0.2l0.6,0.4l0.4,0.4l0.2,0.4l0.1,0.4l0.1,0.7l0.4,1l0.5,0.8
			l0.6,1.1l0.6,0.9l0.3,0.4l0.1,0.4l0,0.5l0.1,0.5l0.2,0.6l0.3,0.5l0.2,0.5l0.1,0.4l0.1,0.7l0.2,0.8l0.2,0.5l0.3,0.2l0.6,0.3
			l0.7,0.4l0.4,0.3l0.1,0.3l0.1,0.6l0.1,0.4l0.2,0.7l0.4,0.7l0.3,0.5l0.1,0.3l0.1,0.5v0.4l0.2,0.7l0.4,0.8l0.6,0.8l0.6,0.3l0.5,0.2
			l0.6,0.2l0.4,0.2l0.2,0.5l0.4,0.4l0.6,0.7l0.7,0.6l0.6,0.3l0.5,0.1h0.6l0.4,0.2l0.4,0.4l0.4,0.5l0.4,0.5l0.6,0.6l0.4,0.3l0.5,0.1
			l0.8,0.1l1.4,0.1l1,0.2l0.6,0.1l0.5,0.1l0.4,0.3l0.6,0.7l0.8,0.9l0.4,0.3l0.4,0.1h0.4l0.2,0.1l0.1,0.3l0.2,0.3l0,0.4l0,0.5v0.5
			l0,0.6l0.3,0.7l0.1,0.4l0.3,0.3l0.3,0.1l0.5,0.1l0.6,0l0.4,0l0.2,0.6l0.2,0.7l0.3,0.4l0.2,0.2l0.2,0h0.4l0.5,0l0.3,0.1l0.2,0.3
			l0.3,0.4l0.4,0.6l0.1,0.3l0.2,0.4l0.2,0.4l0.4,0.5l0.8,1.2l1,1.3l0.7,1.1l0.5,0.7l0.3,0.2l0.4,0.2l0.1,0.3l0,0.4l0,0.4l0,0.3
			l0.1,0.4l0.2,0.6l0.2,0.3l0.2,0.1l0.3,0.1l0.5,0l0.6,0l0.4,0.1l0.4,0.2l0.7,0.6l0.3,0.4l0.2,0.5l0.2,0.4l0.4,0.3l0.8,0.3l1.1,0.5
			l1.1,0.5l0.6,0.3l0.4,0.3l0.1,0.3l0,0.4l0,0.3l0.2,0.3l0.3,0.1l0.4,0.1l0.3,0l0.3,0.1l0.4,0.2l0.6,0.6l0.5,0.5l0.2,0.5l0,0.4
			l0.1,0.3l0.2,0.3l0.3,0.2l0.1,0.3l0.1,0.5l0.1,0.4l0.1,0.8l-0.1,0.7l0.2,0.4l0.3,0.2l0.2,0.3l0.1,0.3l0,0.2l0.1,0.4l0,0.4l0.2,0.4
			l0.2,0.4l0.4,0.3l0.4,0.2l0.3,0.1l0.4,0.1l0.2,0.1l0.2,0.2l0.1,0.2l0.2,0.1l0.3,0.1l0.1,0.3v0.2l0.1,0.3h0.1l0.4-0.1h0.4l0.3,0.1
			l0.3,0.4l0.1,0.3l-0.1,0.1l-0.1,0.1l0,0.3l0.1,0.1l0.1,0.1l0.1,0.2l0,0.2l0.1,0.1l0.4,0l0.4,0.2l0.2,0.2l0.1,0.1l0.1,0.1l0.2,0.4
			l0.1,0.2l0.3,0l0.4-0.1l0.2,0.1l0.1,0.2l-0.1,0.2l-0.1,0.2l0.1,0.1H77l0.2-0.1l0.2,0v0.1l0,0.2l0.1,0.2l0.2,0.1l0.4,0.1l0.3,0.1
			l0.2,0.2l0.1,0.1l0.3,0.2l0.3,0l0.3,0.1l0.1,0.2l0,0.3l0,0.1l0.2,0.2H80l0.2,0l0.2,0.2v0.2l-0.1,0.1l-0.1,0.2l0,0.2l0.2,0l0.3,0.1
			l0.1,0.1l0,0.2v0.2l-0.1,0.4l-0.1,0.2l-0.1,0.2l-0.2,0.2l0,0.3l0.2,0.1l0.3,0.1l0.3-0.1l0.4,0l0.3,0.1l0.2,0.1l0.5,0.1l0.2,0
			l0.3,0.1l0.3,0.2l0.2,0.1l0.1,0.2l0,0.2l0.1,0.1l0.2-0.1l0.3-0.3l0.3,0l0.2,0.2v0.2l0.1,0.1l0.2,0.1l0.3,0.1l0.1,0.2l0,0.1
			l-0.1,0.2l0.1,0.1l0.2,0l0.3-0.1l0.2,0l0.1,0.2v0.3l-0.1,0.2l0,0.2l0.1,0.1H86l0.2,0l0.2,0.1l0.1,0.2l0,0.1h0.2l0.1-0.1l0.1-0.2
			l0-0.3l0.1-0.3l0.1-0.1l0.2-0.1l0.2,0l0.2,0l0.1,0.2v0.2l0.1,0.2l0.2,0l0.3,0.1l0.2,0.2l0,0.3v0.1l0.1,0.1h0.2l0.2,0l0.2,0.1
			l0.1,0.1l0.1,0.3l0.1,0.3l0.2,0.2l0.3,0.1l0.3-0.1l0.3-0.1l0.4-0.2h0.5l0.3,0.1l0.2,0.1l0.1,0l0.2-0.1l0.1-0.1l0.3-0.1h0.2
			l0.2,0.1l0.2,0.3v0.2l-0.2,0.2l-0.1,0.1l-0.3,0.2l0,0.2l0.1,0.1l0.2,0.1l0.3,0.1l0.3-0.1l0.1-0.1l0.2-0.1l0.1-0.1l0.1-0.1L94,447
			l0.2,0.1l0.1,0.3l0.1,0.1l0.2,0.2l0.1,0.2l0.1,0.3l0.2,0.3l0.3,0.3l0.3,0.1l0.2-0.2l0.1-0.3l0.1-0.2l0.2,0l0.1,0.1v0.1l0.1,0.1
			l0.2,0l0.2,0.2l0.1,0.2l0,0.2l0,0.3l-0.2,0.2l-0.1,0.1l0,0.3v0.1l0.2,0l0.2,0l0.4,0l0.5,0l0.6,0.2l0.4,0.2l0.3,0l0.3,0l0.1,0.2
			l-0.1,0.2l-0.1,0.1l0.1,0.1H99l0.1-0.1l0.2-0.1h0.1l0.1,0.2v0.4l-0.1,0.2l0,0.2l0.1,0.1h0.3l0.2,0.1v0.1l0,0.2l0.1,0.2l0.1,0.1
			l0,0.3l0.1,0.1l0.2,0.1l0.3,0l0.3,0l0,0.2l0,0.1l0.1,0.1l0.1,0l0.2,0l0.1,0.1l0,0.2l-0.1,0.1l-0.1,0.1l-0.1,0.2l0.1,0l0.1,0.1h0.2
			l0.2,0l0.1-0.1h0.2l0.3,0.1l0.2,0.2l0.1,0.2l-0.1,0.2l-0.1,0.2l0,0.2l0.2,0l0.1-0.1l0.2,0l0,0.1l0,0.1l0,0.1l0.1,0l0.2,0l0.2,0.1
			l0.1,0l0.1-0.1l0-0.2l0-0.1l0.2-0.1l0.1,0l0.2,0l0.2,0.1l0.1,0.2l0.1,0.1l0.2,0.1l0.3,0l0.3,0l0.4-0.1l0.2-0.1l0.3-0.1l0.3,0
			l0.2,0.2l0.1,0.4v0.2l0.1,0.3l0.4,0.4l0.2,0.2l0.1,0.2l0.1,0.1l0.1,0.3l0,0.3l0.1,0.6l0.1,0.5v0.1l0.2,0.4l0,0.4v0.4l0,0.3
			l0.1,0.3l0.2,0.3l0.2,0.1l0.3,0.1h0.5l0.2,0.1l0.2,0.2l0.2,0.1l0.3,0.1l0.2,0.1l0.1-0.1l0.3,0l0.1,0l0,0.2l0,0.1l0.1,0.1h0.1
			l0.1-0.2l0.3-0.2h0.1l0.3,0.1l0.1,0.2v0.2l0,0.3l-0.1,0.3v0.1l0,0.2l0.1,0l0.3,0l0.2,0.1l0.2,0.2l0.1,0.4l0.3,0.4l0.2,0.3l0.1,0.4
			l0,0.3l0,0.3v0.3l0.1,0.3l0.2,0.2l0.1,0.2l0,0.1l0,0.1l-0.1,0.2l0,0.2l0,0.2l0.1,0.2l0.2,0.1l0.2,0.2l0.1,0.3v0.1l-0.2,0.1
			l-0.1,0.2l0,0.3l0.1,0.1l0.1,0.1l0.2,0.1l0.1,0.1l0.1,0.1l0,0.3l0,0.4l0,0.3l0,0.1l0.1,0.1l0.1,0.1l0.1,0.1l0,0.1l-0.1,0.3l0,0.3
			v0.3l0,0.4l0.1,0.5l0,0.5l-0.1,0.2l-0.1,0.3l0,0.3l0.1,0.2v0.3l0,0.1l0,0.3l0.1,0.2l0.2,0.1l0.2,0.1l0.1,0.2l0,0.2l-0.1,0.2
			l-0.1,0.2l0.1,0.2l0.1,0.2l0.2,0.2l0.2,0.1h0.1l0.1,0.3l0,0.1l-0.1,0.1l-0.3,0.1l-0.1,0.1l0,0.1l0,0.3l0.1,0.2l0,0.3l-0.1,0.2
			l-0.1,0.2l0,0.3l0,0.3l0.2,0.1l0.2,0.2l0.6,0.5l0.4,0.3l0.4,0.1l0.2,0l0.3-0.1l0.2,0l0.1,0.1l-0.1,0.3v0.2l0,0.1l0.2,0.1l0.1,0
			l0.2,0.2v0.2l-0.1,0.2l-0.1,0.2l-0.3,0.1l-0.2,0.1l-0.1,0.1l0,0.2l0.1,0.2l0.2,0.2l0.2,0.3l0,0.3l0,0.2l0,0.2l0.1,0.1l0.3,0.2
			l0.4,0.2l0.3,0.2l0.1,0.2l0,0.2l0.1,0.2l0.3,0.2l0.3,0.3l0.1,0.3l0,0.2l0,0.2l0.1,0.1l0.3,0h0.2l0.2,0.1l0.1,0.2l0.2,0.3l0.1,0.3
			v0.5l0,0.4l-0.1,0.2l-0.1,0.1l0,0.2l0.1,0.1l0.1,0h0.6l0.1,0.2v0.2l-0.1,0.2l-0.1,0.2l0,0.2l0.2,0.1l0.3,0.1l0.1,0.1l0.2,0
			l0.2-0.1h0.2l0.3,0.3l0.3,0.3l0.1,0.3l0.2,0.3l0.3,0.5l0.2,0.1l0.2,0.1l0.1,0.2v0.3l0,0.2l-0.1,0.3l0,0.3l0.1,0.3l0,0.1l0.1,0.2
			l0,0.1l0,0.2l0,0.3l0.1,0.2l0.1,0.1l0.1,0.2l0,0.2l0.1,0.3l0,0.3l0.2,0.3l0.3,0.4l0.1,0.7l0,0.7v0.4l-0.1,0.4l-0.1,0.3l-0.1,0.4
			l0.1,0.2l0.2,0.1l0,0.2l-0.2,0.2l-0.1,0.1l-0.3,0.2l-0.2,0.4l0,0.4l0.1,0.4l0.2,0.2l0.1,0.4l0,0.3l-0.2,0.3l-0.1,0.3l0.1,0.3
			l0.1,0.1l0.2,0l0.1,0.2l0,0.2l-0.1,0.1l-0.1,0.3l0.1,0.3l0,0.1l0,0.1l0,0.2l-0.1,0.3l-0.1,0.2l-0.1,0.2l-0.3,0.2l-0.3,0.2
			l-0.1,0.2l0,0.2l-0.1,0.2l-0.2,0.2l-0.1,0.2l0,0.3l0.3,0.2l0.2,0.2l0.2,0.1l0,0.1l-0.1,0.1l-0.1,0.1l-0.3,0.4l-0.1,0.2l0,0.3
			l0,0.2l0.2,0.3l0.7,0.4l0,0.3l-0.1,0.3l-0.1,0.2l-0.1,0.2l0,0.3l0.2,0.1l0.1,0.1v0.1l-0.1,0.1l-0.1,0.1l-0.1,0.1l0.1,0.1l0.1,0.1
			l0.1,0.1l0,0.1v0.2l-0.2,0.2l-0.3,0.3l0,0.2v0.1l0.1,0.2h0.2l0.3,0l0.1,0.1l0,0.1l-0.1,0.3v0.3l0,0.2v0.3l0.2,0.2l0.2,0h0.1l0,0.1
			l-0.1,0.1l-0.1,0.1l-0.1,0.2v0.3l-0.1,0.2l-0.2,0.2l-0.2,0.1l-0.1,0.2v0.3l0.1,0.4l0.1,0.5l0.3,0.7l0.1,0.5l0.1,0.3l0.2,0.1l0.3,0
			l0.2,0l0.3-0.1h0.2l0.1,0.1v0.2l0,0.3l0,0.4l0.1,0.2l0.1,0.1h0.2l0.2,0.1l0.1,0.2l0.1,0.3l0,0.3l0.1,0.1l0.3,0.3l0.2,0.1l0.2,0.1
			l0.2,0.2l0.1,0.4l0.1,0.4l0,0.3v0.2l0.1,0.2l0.2,0.1l0.1,0l0.2,0.2v0.1l-0.1,0.1l0,0.2l0.2,0.1l0.1,0l0.2,0l0.2,0l0.2,0.2l0.1,0.2
			l0,0.1l-0.1,0.1l-0.3,0.1l-0.1,0.1l-0.1,0.1l-0.1,0.1l0.1,0.2l0.1,0.1l0.2,0h0.2l0.2,0l0.1,0l0.1,0.1v0.2l-0.2,0.2v0.2l0.1,0.1
			l0.3,0.1l0.3,0.2l0.1,0.2v0.1l0.1,0.2l0.2,0l0.2,0l0.1,0.2l0.1,0.2l0,0.2l-0.1,0.1l0,0.1l0,0.1l0.2,0l0.2,0.1l0.1,0.2l0,0.3
			l0.1,0.4l0.3,0.3l0.3,0.3l0.2,0.3l0.1,0.3l0,0.3l-0.1,0.2l-0.1,0.2l0,0.1l-0.1,0.2v0.2l0.1,0.4l0.2,0.1l0.2,0.2l0.3,0.3l0.3,0.2
			l0.2,0.1v0.1l0,0.1h-0.3l-0.2,0v0.1l0.1,0.2l0.2,0.1l0.2,0.1l0.2,0.1v0.3l0,0.3l0,0.1l0.1,0.2l0.1,0.2l0,0.1v0.4l0,0.4v0.4
			l0.2,0.3l0.3,0.2l0.3,0l0.2,0.2v0.1l-0.1,0.1l-0.3,0l-0.3,0.1l-0.1,0.1l-0.1,0.2l0.1,0.3l0.2,0.2l0.1,0.3v0.2l0,0.3l0.1,0.1
			l0.1-0.1l0.2-0.1l0.2,0.1l0.1,0.2l-0.1,0.3l0,0.2l0.2,0.2l0.1,0.1l0.2,0.2l0,0.3l0.1,0.2l0.1,0l0.1,0.1v0.2l-0.1,0.1l0,0.3
			l0.1,0.2l0.2,0.1h0.2l0.2-0.1l0.2-0.2l0.2-0.1l0.2,0l0,0.2l0,0.1l0.3,0.1h0.1l0.2,0.1l0.1,0.1l0.1,0.2l0.2,0.1h0.1l0.2,0.1
			l0.2,0.1l0,0.2l0.1,0.1l0.2,0l0.1,0.1l0,0.1v0.5l0.1,0.1l0.1,0l0.1,0.1l0.1,0.1l0.1,0.1v0.1l0,0.1l-0.1,0.2l0.1,0.3l0.2,0.2
			l0.2,0.1l0.2,0.2l0.2,0.1l0.2,0l0.3,0.1l0.2,0.2l0.1,0.3l0.1,0.2l0.2,0.1h0.1l0.2,0l0.2,0.1l0.1,0.2l0.1,0.2l0.2,0.1l0.3,0.1h0.5
			l0.2,0.1l0.2,0.1l0,0.1l0,0.1v0.3l0,0.3l0.1,0.3l0.2,0.1l0.3,0.1l0.1,0.1l0,0.2l0,0.3l0.1,0.2l0,0.1h0.4l0.3,0l0.2,0.2l0.4,0.3
			l0.1,0l0.1-0.1l0.1,0l0.1-0.1h0.2l0.1,0.1l0,0.1l-0.1,0.2l0,0.2l0.1,0.2h0.1l0.2,0l0.2,0l0.4,0.1l0.1,0.3v0.2l0,0.1l0.1,0h0.2
			l0.3-0.2l0.3,0l0.1,0l0-0.1l0-0.2l0.3-0.3l0.2-0.1l0.2,0l0.1,0.1v0.4l0.1,0.1l0.1,0.1l0.1,0h0.3l0.3,0l0.2,0.1l0.3,0.2l0.3,0.1
			l0.4,0l0.5,0.1l0.5,0.2l0.2,0.2l0.1,0.2l0,0.2l0.1,0.1h0.1l0.3,0l0.3,0.1l0.2,0.2l0.1,0.1l0.1,0.1l0.2,0.1l0.1,0.1l0.1,0.1
			l0.1,0.3l0.1,0.2l0,0.3v0.2l0,0.2l0.1,0.1h0.2l0.3,0l0.3-0.1l0.3-0.1l0.3,0.1l0.1,0.2l0,0.1l0,0.3l-0.1,0.3l-0.1,0.4l-0.2,0.4
			l-0.1,0.2v0.2l0.1,0.3l0.1,0.2l0.3,0.3l0.3,0.2l0.4,0.1l0.2,0.2l0.1,0.3l0.2,0.3l0.2,0.2l0.3,0.2l0.1,0.2l0.1,0.3l0,0.3v0.3l0,0.2
			l0.2,0.1l0.2,0.1l0.2,0.2l0.1,0.2l0.2,0.3v0.4l0.2,0.3l0.2,0h0.3l0.3,0l0.1,0.2l0.2,0.3h0.1l0.1,0.1l0.1,0.2l0.2,0.1l0.3,0h0.3
			l0.3,0.1l0.3,0.1l0.2,0.1l0.2,0.2v0.2l0,0.3l0.1,0.1l0.3-0.1l0.2-0.1h0.2l0.2,0l0.2,0.1l0.3,0.3l0.1,0.1l0.1,0.3l0.1,0.2l0.2,0.1
			l0.1,0.1l0,0.2l0,0.3l0.1,0.3l0.3,0.2l0.3,0.1l0.4,0.1l0.4,0.2l0.2,0.2l0.2,0.2l0.3,0.1l0.1,0.2l0.2,0.3l0.2,0.2l0.3,0.2l0.7,0.3
			l0.5,0.2l0.4,0.3l0.3,0.3l0.3,0.1l0.3,0.2l0.5,0.2l0.7,0.3l0.6,0.4l0.5,0.2l0.3,0.1l0.3-0.1l0.3-0.1l0.4,0l0.3,0.1l0.5,0.2
			l0.5,0.2l0.4,0.1l0.3,0l0.3,0l0.3,0.1l0.2,0.2l0.1,0.2l0.1,0.2l0.1,0.1h0.5l0.4-0.1h0.3l0.2,0.1l0.2,0.2l0.1,0.1l0.1,0.1l0.1,0
			l0.2-0.1l0.1-0.1l0.2,0l0.3,0l0.3,0.2l0.2,0.1l0.2,0.1l0.3,0l0.3,0l0.4,0l0.4,0.1l0.4,0.2l0.3,0.2l0.2,0.3l0.1,0.1l0.3,0.1
			l0.3,0.1l0.2-0.1l0.2-0.1l0.3,0l0.2,0l0.2,0.4l0,0.3l0.3,0.3l0.4,0.2l0.4-0.1l0.1-0.1l0.4-0.3l0.3,0l0.2,0.3l0.1,0.3l0.2,0.3
			l0,0.3v0.2l-0.1,0.2l-0.3,0.2l-0.1,0.3l0,0.4v0.4l0.2,0.4l0.2,0.3l0.2,0.1h0.2l0.2-0.2l0.1-0.4l0.1-0.3l0.2-0.1l0.2,0l0.1,0.1v0.2
			l-0.1,0.3l0.1,0.2l0.2,0.2h0.3l0.3-0.1l0.2,0l0.1,0.1l0,0.2l-0.1,0.3l0.1,0.4l0.1,0.3l0.3,0.3l0.2,0.3l0.1,0.2l0.1,0.2l0.2,0.1
			l0.2,0.1l0.1,0.3l0.1,0.2l0.3,0.2l0.3,0l0.3,0l0.3,0l0.3,0.1l0.3,0.2l0.3,0.1l0.4,0h0.3l0.3,0.2l0.8,0.2l0.5,0.2l0.2,0.3l0.2,0.4
			l0.1,0.3l0.1,0.2l0.1,0.1l0.2-0.1l0.2-0.2l0.2,0l0.2,0.1l0.1,0h0.2l0.2-0.1l0.2-0.1h0.3l0.5-0.1l0.3,0l0.3,0.1l0.2,0.2l0.4,0.4
			l0.2,0.3l0.5,0.1l0.4,0l0.3,0l0.4-0.1l0.5-0.1l0.3-0.1l0.3-0.1l0.3,0l0.2,0.1l0.1,0.2l0,0.2l0,0.3l0.1,0.1l0.2,0l0.3,0h0.3
			l0.1,0.1l0.3,0.1l0.2,0.1l0.3,0.2l0.1,0.3l0.1,0.3v0.2l-0.1,0.3v0.2l0.1,0.1l0.2,0.1h0.2l0.2,0l0.2,0.1l0.2,0.2l0.3,0.1l0.1,0.1
			l0,0.3v0.3l0.1,0.1h0.2l0.2,0l0.1,0.2l0,0.2l0.1,0.4l0.1,0.4l0.2,0.1l0.3,0.2l0.5,0.4l0.2,0.2l0,0.3v0.2l-0.1,0.2l-0.1,0.3
			l-0.1,0.3l0.1,0.3l0.1,0.1l0.3,0l0.3-0.1l0.1-0.2l0.1-0.2l0.1-0.1l0.2,0l0.2,0l0.2,0.1l0.1,0.3l0,0.2l0.1,0.2l0.1,0.1l0.3,0.1
			l0.4,0.2l0.1,0.3l0.1,0.3l0,0.2l0,0.3l0.3,0.1l0.3,0.1l0.3,0l0.2,0.1l0.2,0.2l0.2,0.1h0.2l0.1,0.1l0.1,0.2l0.1,0.1l0.2,0.1l0.2,0
			l0.2,0l0.3,0l0.1,0l0.1,0.3v0.3l0.3,0.2h0.2l0.3,0.1l0.3,0.1l0.4,0.1h0.4l0.2-0.1l0.2-0.3l0.2-0.4l0.2-0.5l0.1-0.3l0.1-0.3l0.3,0
			l0.4,0.1l0.5,0.2l0.2,0.2v0.3l-0.1,0.3l-0.3,0.2l-0.6,0l-0.1,0.1l0,0.3l0.2,0.3l0.3,0.2l0.3,0.1l0.4,0l0.3-0.2l0.3-0.3l0.4-0.1
			l0.2,0l0.2,0.2l0,0.3L218,593l-0.3,0.3l0,0.3l0,0.2l0.1,0.1h0.5l0.4,0l0.4,0.2l0.3,0.2l0.1,0.2l0.1,0.2l0,0.3l0,0.3l-0.1,0.4
			l0,0.2l0.1,0.2l0.2,0l0.2-0.2l0.2-0.3l0.3-0.2l0.1-0.3l0.1-0.3l0.2-0.1l0.3,0.1l0.2,0.3l0.2,0.3l0.1,0.2l0.1,0.2l0.3,0.2h0.3
			l0.3-0.1l0.3-0.2l0.2-0.2l0.3-0.1l0.3,0l0.3,0l0.1,0.1l0.3,0.1l0.3,0l0.4,0l0.7,0.1l0.4,0l0.3,0.1l0.3,0.2l0.2,0.2l0.3,0.1l0.3,0
			l0.2,0.2v0.2l0.1,0.2l0.2,0.1l0.3,0l0.5,0l0.3-0.3l0.3-0.3l0.3-0.2l0.3-0.1h0.3l0.3,0h0.4l0.4,0l0.1-0.2l0-0.2l-0.1-0.2l0-0.3
			l0-0.3l0.1-0.4l0.1-0.3l0.2-0.3l0.2-0.2l0.3-0.2l0.3-0.1l0.2-0.1l0.1-0.2l0-0.3l0-0.3l-0.1-0.3l-0.1-0.2l-0.2-0.3l0-0.2l0-0.3
			l0.1-0.2l0.1-0.1l0-0.3l0.1-0.3l0-0.3l0.1-0.2l0.1-0.1l0.1-0.1h0.1l0.1,0.1l0,0.1l0.1,0.3l0.1,0.1h0.1l0.2-0.1l0-0.1l0-0.2l0-0.4
			l0.1-0.3l0.1-0.1l0.2-0.2l0.2-0.3l0-0.2l0-0.2l-0.1-0.2v-0.2l0.2-0.3l0.1-0.2l0.2,0l0.3,0.1l0.3,0l0.2-0.1l0.1-0.1l0.3-0.2h0.3
			l0.2,0.1l0.4,0.2l0.4-0.2l0.3-0.3l0-0.3l0-0.2l-0.1-0.2l0-0.2l0.2-0.1l0.2-0.1l0.3-0.2l0.4-0.4l0.1-0.1l0.1-0.3l0-0.1l0-0.3
			l0.1-0.1l0.1-0.1l0.1-0.3l0.1-0.1l0-0.2l0.1-0.2l0.2-0.1l0.1-0.1l0.1-0.2l0.1-0.1l0.1-0.3l0.1-0.3l0.1-0.3v-0.3l-0.1-0.5l0-0.2
			l0.1-0.1l0.3-0.2l0.3-0.1l0.3-0.1l0.4-0.1h0.3l0.3,0.2l0.4,0.3l0.2,0.2l0.1,0.1l0.2,0l0.1-0.1l0.1-0.1l0.1-0.3l0.1-0.2l0.2-0.3
			l0.1-0.1l0.2-0.1l0.3-0.1l0.1-0.1h0.7l0.3,0l0.2-0.1l0-0.1l-0.1-0.2l0.1-0.1l0.2-0.3l0.1-0.2v-0.2l-0.1-0.2l-0.1-0.2l0-0.2
			l0.1-0.2l0.2-0.1l0.3,0.1l0.2,0.3l0.2,0.3l0.3,0.1l0.4,0l0.4-0.1l0.4-0.2l0.2-0.1l0.2-0.2l0.5-0.3l0.1-0.1l0.1-0.3v-0.2l-0.2-0.2
			l-0.1-0.1l0-0.2l0-0.2l0-0.4l-0.1-0.1l-0.2-0.2l-0.3-0.1h-0.4l-0.3-0.1l-0.1-0.1l-0.2-0.3l-0.2-0.2l-0.1-0.1l-0.2,0L247,575
			l-0.1,0l-0.1-0.1l0-0.2l0.1-0.1l0.1-0.1l0.2-0.3l0-0.2v-0.2l0-0.1v-0.2l0-0.2l0.2-0.2l0.2-0.2l0.2-0.2l0.2-0.1l0.1-0.2v-0.3l0-0.2
			v-0.2l-0.1-0.4l0-0.2l0-0.1l0-0.1l0.1-0.1l0.1-0.2l0-0.4l0.2-0.3l0.2-0.6l0.2-0.3l0.1-0.2v-0.3l-0.1-0.3l-0.1-0.2v-0.2l0-0.3
			l0.1-0.1l0.1-0.1l0.3,0l0.3,0.1l0.3,0.1h0.4l0.4-0.1l0.3-0.1l0.2-0.1l0.2-0.1l0.2-0.1l0.1-0.1v-0.2l-0.1-0.1l-0.1-0.3l0-0.3l0-0.1
			v-0.1l0.3-0.3l0.4-0.1l0.2-0.1l0-0.2l0.1-0.4l0-0.1v0l0-0.1l0.1-0.2l0.4-0.4h0.5l0.2-0.1l0.1-0.2l0.1-0.1l0-0.2l0-0.2l-0.2-0.3
			l-0.2-0.2l-0.2-0.3l-0.1-0.2l-0.2-0.2l0,0l-0.2-0.3l0-0.3l-0.1-0.4v-0.3l0.1-0.2l0.3-0.3l0.1-0.1l0.2-0.1l0.1-0.1v-0.1l-0.1-0.1
			l-0.1-0.1l-0.1-0.1l0-0.2l0.1-0.3l0.2-0.4l0.1-0.3l0.2-0.3l0.1-0.2l0-0.3l0.1-0.2l0.2-0.1l0.2-0.1l0.2,0h0.1l0.1,0l0.1-0.1l0-0.2
			l-0.1-0.1l-0.1-0.1l0-0.2l0-0.3l0-0.3v-0.5l-0.1-0.5l-0.1-0.5v-0.1l0.1-0.2l0.2-0.1l0.2-0.1l0.2-0.1l0.1-0.1l0.1-0.2l0.1-0.1
			l0.1-0.1l0.1-0.2l0-0.2v-0.1l0.1-0.2l0.1-0.1l0.2,0l0.2,0l0.2,0h0.2l0.2-0.1l0.1-0.1l0-0.1v-0.1l-0.1-0.1l-0.2-0.3l0-0.2l0.1-0.2
			l0.2-0.3l0-0.2l0-0.2l0.1-0.2l0.1,0l0.1,0h0.2l0.2,0l0.1-0.1v-0.2l0-0.3l-0.2-0.3l-0.2-0.4v-0.3l0.1-0.2l0.1-0.1h0.2l0.2,0
			l0.4,0.1l0.2,0.1l0.2,0h0.2l0.2-0.2v-0.2l0.1-0.3l0.1-0.5l0.1-0.7v-0.6l-0.1-0.3l-0.1-0.2l0-0.3l0-0.2l0.2-0.2l0.2-0.2h0.1l0.2,0
			l0.2,0l0.2-0.1l0-0.2v-0.2l0.1-0.2l0.3-0.2l0.4-0.4l0.2-0.4l0.2-0.3l0.4-0.2l0.3,0l0.2-0.1l0.1-0.2l0-0.2l-0.1-0.2l-0.1-0.2l0-0.3
			l0-0.3l0.1-0.4l0.1-0.3l0.2-0.3l0.2-0.2l0.1-0.2l0-0.3l0-0.3l0.1-0.3l0.1-0.4l0.2-0.2l0.2-0.3l0.1-0.3l0.2-0.3l0.1-0.3l0.2-0.2
			l0.1-0.2h0.1l0.1,0.1v0.2l0.1,0.1l0.1,0.2l0.3,0.1l0.4,0.1l0.8,0.1l0.7,0l0.4-0.1l0.3-0.2l0.2-0.3l0.3-0.3l0.3-0.1l0.4-0.1
			l0.5-0.1l0.3-0.1l0.3,0.1h0.1l0.3,0l0.3-0.2l0.2-0.1h0.3l0.2,0l0.1-0.2l0-0.2v-0.2l0-0.2l0.1-0.3l0.2-0.2l0.2,0l0.2,0.1l0.3,0.4
			l0.1,0.7l0.1,0.5l0.1,0.3l0.1,0.1h0.3l0.2-0.1l0.3-0.3l0.2-0.2l0.2-0.2l0.3-0.1l0.4-0.1l0.5-0.4l0.3-0.3l0.1-0.3V535l-0.1-0.2
			l-0.1-0.1l-0.1-0.1l-0.1-0.2l0-0.2l0.1-0.2l0.2,0l0.2,0l0.4,0.2l0.4,0l0.3,0l0.3-0.2l0.2,0l0.3,0.1l0.1,0.1l0,0.2l0,0.2l0.1,0.1
			l0.3,0.1l0.3,0l0.2-0.2l0.2-0.3l0.1,0l0.1,0l0.1,0.2l0.1,0.1l0.1,0.2l0.4,0l0.2-0.1l0.2,0l0.2,0.1l0.1,0.2l0.4,0l0.1-0.1l0.1-0.1
			l0.3,0.1l0.3,0.2l0.3,0.3l0.4,0.1l0.3,0.1l0.2,0.1h0.3l0.3-0.1l0.2-0.1l0.3,0.2l0.1,0.3v0.1l0.2,0.1l0.1,0l0.1-0.3l0.1-0.3l0-0.3
			V535l-0.1-0.1l-0.1-0.1l-0.1-0.1l0-0.3l0.2-0.1l0.2-0.1l0.2-0.1l0.2-0.2l0.1-0.2v-0.2l0.1-0.3l0.2-0.5l0.1-0.5l0.2-0.8l0.3-0.5
			l0.1-0.3v-0.4l0-0.4v-0.3l0.1-0.1l0.2-0.2l0.4-0.2l0.2-0.3l0.1-0.2l0.1-0.2l0.1-0.2l0.2-0.2l0.3-0.1h0.3l0.2,0.2v0.3l0.1,0.2h0.2
			l0.2-0.1l0.2-0.3v-0.2l0.1-0.3v-0.3l0.2-0.3h0.2l0.2,0.1l0.1,0.1l0.2,0l0.3,0l0.3,0.1l0.1,0.2l0.1,0.1h0.4l0.3,0.1l0.1,0.4
			l0.1,0.2l0.2,0.1h0.3l0.3-0.1l0.3-0.1l0.3,0l0.1,0.1l0,0.2l-0.1,0.3l0,0.3l0,0.2l0.1,0.1l0.3,0.1h0.2l0.2-0.1l0.1-0.3l0-0.3
			l0.2-0.3l0.2,0l0.1,0.1v0.3l-0.1,0.1l-0.1,0.4v0.2l0.1,0.2l0.2,0l0.2,0h0.5l0.2,0.1l0.2,0.2l0.1,0.2l0.3,0l0.3-0.1l0.3,0l0.2,0
			l0.3,0.2l0.2,0.1l0.2,0.1l0.2,0.1l0.2-0.1l0-0.3l0.1-0.3l0.2-0.2l0.3,0.1l0.2,0.1l0.1,0.1l0.1,0.2l0,0.4l-0.1,0.3l0,0.1l0,0.3
			l0.1,0.2l0.3,0.1l0.3,0h0.3l0.1,0.2l0.1,0.3l0.2,0.3l0.2,0.2l0.3,0.2l0.3,0.1l0.1,0.2l0.1,0.2l0.2,0.1l0.2,0.1l0.3,0l0.3,0
			l0.1,0.1l0.2,0l0.2,0h0.3l0.1,0.1l0,0.2l0,0.3l0.2,0.1l0.3,0l0.4,0l0.3,0l0.3,0l0.3,0l0.3-0.1h0.4l0.3,0.2l0.1,0.2l0.1,0.2
			l0.1,0.1l0.2,0l0.3,0l0.4,0l0.5-0.1l0.3-0.1l0.4-0.1h0.1l0.1-0.1v-0.7l0.1-0.3l0.2-0.1l0.2,0l0.1,0.1l0.1,0.1h0.1l0.2,0l0.1,0.1
			l0.1,0.1l0.1,0l0.2,0l0.4-0.1l0.3-0.2l0.3-0.2l0.3-0.2l0.2,0.1l0.1,0.2l0.1,0.2l0.1,0.1h0.1l0.1,0l0.2-0.1l0.1-0.7l0-0.3l0.1-0.3
			h0.3l0.1,0.1l0.3,0.1l0.2,0.1l0.1,0.2l0,0.1v0.3l0,0.2l0.1,0.3l0.2,0.2l0.2,0l0.2,0l0.3-0.2l0.4-0.1h0.3l0.4,0.1l0.2,0.1l0,0.3
			v0.6l0,0.2l0.2,0.1l0.3,0l0.2-0.1l0.2-0.3l0.1-0.2l0.2-0.3l0.2-0.1l0.3-0.1l0.2,0l0.5,0l0.7,0.1l0.6,0.1h0.4l0.5-0.1l0.3-0.2
			l0.4-0.3l0.4-0.2h0.3l0.1,0.2l0,0.3l0.1,0.3l0.3,0.1l0.3,0.2l0.3,0.2l0.2,0.2l0.3,0h0.3l0.2-0.2v-0.2l0-0.2l-0.1-0.2l-0.2-0.3
			v-0.2l0.1-0.3l0.3-0.1l0.3,0l0.4,0.2l0.3,0.4l0.1,0.3l0,0.1l-0.2,0.1l-0.3,0.1l-0.2,0.1l-0.2,0.3l0.1,0.3l0.2,0.2l0.3,0.3l0.4,0.1
			l0.4,0l0.3,0l0.2-0.1l0.1-0.4l0-0.2l0.3-0.2l0.4,0.1l0.4,0.2l0.7,0.4l0.1,0.1l0.4,0.3h0.4l0.3-0.1l0.2,0.1l0,0.2l0.2,0.1l0.3,0.1
			l0.3-0.1l0.3-0.1l0.3,0l0.3,0.2l0.1,0.3l0.3,0.4l0.2,0.1l0.4-0.1l0.4-0.2l0.4-0.3h0.3l0.2,0.2l0.1,0.3l0.1,0.2l0.1,0.1l0.2,0
			l0.1-0.1l0-0.2l0.1-0.3l0.3-0.1l0.3-0.1h0.1l0.2,0.1l0.1,0.1l0.1,0.1l0.1,0.2l0.1,0.1l0.1,0.4l0.2,0.2l0.3,0.1l0.3-0.1l0.4-0.3
			l0.2-0.3l0.1-0.3l0.2-0.2l0.3-0.1l0.3-0.1l0.5,0l0.4-0.2h0.4l0.4,0.1l0.4,0.1l0.4,0.1l0.3,0l0.3-0.1l0.2-0.3l0.1-0.4l0-0.4l0-0.5
			l0.1-0.3l0.3-0.3l0.3-0.2l0.3-0.1l0.4-0.3l0.2-0.2l0.3-0.2l0.2,0.1l0.1,0.3l0.1,0.3l0.1,0.3l-0.1,0.4l0,0.5l0,0.4v0.3l0,0.7
			l-0.1,0.5l0,0.3l0.1,0.2l0.3,0l0.4-0.1l0.3-0.2l0.5,0l0.4,0l0.4-0.1l0.4-0.2l0.4-0.3l0.3-0.2l0.3-0.4l0.3-0.4l0.2-0.2l0.3-0.1
			l0.5-0.1l0.4,0l0.2,0.1l0.1,0.2l-0.1,0.3l-0.1,0.3v0.2l0.1,0.2l0.1,0.4l0.1,0.3v0.4l0.1,0.5l0.3,0.2l0.4,0l0.4-0.1l0.3-0.3
			l0.4-0.4l0.8-0.5l0.4-0.3l0.3,0l0.3,0.1l0.1,0.3l-0.1,0.2l-0.3,0.2l-0.3,0.2l-0.2,0.1l-0.4,0.3l-0.1,0.2v0.3l0.1,0.3l0.2,0.1
			l0.2,0.1l0.3,0.1l0.3,0.2l0.2,0.2l0.1,0.2v0.2l-0.1,0.3l-0.1,0.2l-0.1,0.4l0.1,0.4l0.3,0.3l0.5,0.3l0.5,0.2l0.3,0.3l0.1,0.3l0,0.3
			l-0.1,0.3l-0.1,0.2l0,0.3l0.1,0.3l0.1,0.2l0.1,0.4l0.1,0.4l0,0.4l0.1,0.5l0.1,0.2l0.2,0.1h0.2l0.2-0.3l0.1-0.4l0.2-0.3l0.4,0
			l0.5,0h0.7l0.8,0.1l0.5,0.3l0.3,0.4l0.1,0.4l0.1,0.6l-0.1,0.7l-0.3,0.7L358,549l-0.1,0.5l0,0.4v0.5l-0.1,0.9l0.2,0.4l0.2,0.3
			l0.3,0.3l0.4,0.2l0.3,0l0.3,0l0.2-0.1l0.1-0.3l0.1-0.6l0.2-0.3l0.2-0.3l0.1-0.3l0-0.4l0-0.4l0-0.4l-0.1-0.3l0-0.3l0.1-0.3l0.4-0.4
			l0.4-0.3l0.3-0.1l0.5,0.2l0.4,0.3l0.1,0.3v0.5l-0.1,0.4l-0.2,0.4l0,0.3l0.1,0.4l0.1,0.3l0.1,0.3l0,0.3l0,0.4l0,0.6l0.1,0.2
			l0.1,0.3l0,0.3l-0.2,0.3l-0.4,0.2l-0.2,0.2l-0.1,0.3l0,0.3l0,0.3l-0.1,0.3l-0.1,0.2l-0.1,0.3l-0.1,0.2l0,0.2l0.1,0.3l0.1,0.2
			l0.1,0.2l0.3,0.2l0.2,0.1h0.1l0.3-0.1l0.3-0.1h0.4l0.4,0.1l0.4,0.1l0.3,0.1l0.4,0.1h0.3l0.3-0.1l0.3-0.1l0.6,0.2l0.4,0l0.4,0.1
			l0.3,0.1l0.3,0.2l0.2,0.3l0,0.3l0,0.4l0.1,0.3l0.2,0.4l0.2,0.3l0.3,0.5l0.4,0.5l0.3,0.2l0.3,0.1h0.3l0.3-0.2l0.3-0.2l0.3,0
			l0.2,0.2l0.1,0.1l0.1,0.2l0.3,0.2l0.3,0.1l0.2,0l0.6-0.2l0.6-0.1l0.3,0.2l0.4,0.3l0.4,0.1l0.4,0.1l0.3,0.2l0.3,0.1l0.1,0.2
			l0.1,0.2l0.1,0.1l0.1,0.4v0.1l0,0.2l0.1,0.3l0.1,0.3l0.4,0.5l0.3,0.5l0.2,0.6l0.1,0.4l0.1,0.3l0.2,0.3l0.2,0.2l0.4,0.4l0.2,0.3
			l0.3,0.5l0.1,0.3l0.1,0.3l0.1,0.4l0.1,0.3l0.3,0.3l0.3,0.2l0.4,0.3l0.6,0.2l0.5,0.1l0.3,0.3l0.3,0.2l0.3,0.3l0.3,0h0.4l0.4,0
			l0.4,0.1l0.2,0.1l0.1,0.3l0,0.3l0.1,0.3l0.2,0.3l0.4,0.2l0.3,0.2l0.3,0.1l0.3,0.1l0.1,0.1l0.1,0.2l0.3,0.1l0.2,0.1l0.1,0.1
			l0.2,0.3l0.3,0.2l0.3,0.1l0.3,0l0.4,0l0.1,0.1l0.1,0.4l0,0.3l0.1,0.5l0.2,0.5l0.3,0.3l0.5,0.2l0.6,0.3l0.4,0.2l0.4,0.3l0.3,0.2
			l0.3,0.1l0.3,0.1l0.4,0.1l0.3,0l0.3,0l0.4-0.1l0.1,0.1l0,0.2l-0.1,0.2l-0.1,0.1l0,0.2l0.1,0l0.3,0l0.4,0.1l0.4,0.3l0.3,0.2
			l0.1,0.1v0.3l-0.1,0.2l-0.1,0.4v0.3l0.1,0.1l0.3-0.1l0.2,0l0.2,0.1l0.3,0.3l0.1,0.3l0.2,0.5l0,0.3l0,0.4v0.3l0.1,0.2l0.3,0.1
			l0.2,0l0.2,0.2l0,0.3v0.5l-0.2,0.4l-0.2,0.1l-0.2,0.2l-0.1,0.3l0.1,0.2l0.2,0.1l0.3,0.1l0.2,0.2l0.1,0.3l0.1,0.3l0.2,0.2l0.3,0.1
			l0.3,0.1l0.5,0.1l0.4,0.2l0.1,0.2l0,0.3l-0.1,0.3l0.1,0.3l0.3,0.3l0.7,0.5l0.6,0.5l0.5,0.3l0.4,0.2l0.4,0.1l0.4,0.2l0.5,0.3
			l0.2,0.3l0.2,0.4l0.4,0.7l0.2,0.7l0.1,0.4l0.1,0.8l0.1,0.8l0,0.9l0.1,1l0.2,0.8l0.2,0.7l0.2,0.5l0.1,0.7l0.1,0.6l0.1,0.8l-0.1,0.5
			l0.1,0.7l0,0.6l-0.1,0.5l-0.1,0.3v0.3l0.1,0.3l0.2,0.3l0.1,0.4l0.2,0.3l0.3,0.1l0.2,0.1l0.3,0.2l0.1,0.3l-0.1,0.2l-0.2,0h-0.3
			l-0.3,0.1l0,0.2l0.2,0.2l0.1,0.2l0.1,0.3l0.1,0.2l0.1,0l0.2-0.1l0.2-0.2l0.1-0.1l0.2,0l0.2,0.1l0.1,0.1l0.1,0.2l0.4,0h0.2l0.2,0.1
			l0.1,0.2l-0.1,0.1l-0.2,0.3l0,0.2l0.1,0.1l0.3,0h0.3l0.3,0l0.1,0.1l0,0.2l-0.2,0.1l-0.2,0.2l-0.1,0.2l0.1,0.2l0.1,0.1l0.1,0.3v0.2
			l0.1,0.3l0.2,0.2l0.5,0.4l0.4,0.3l0.2,0.3v0.2l-0.1,0.3l-0.1,0.3l0,0.4v0.2l0.1,0.2l0.3,0.1l0.3-0.1l0.3-0.1h0.7l0.2,0.1l0.1,0.3
			l0,0.4l0.1,0.5l0.3,0.3l0.4,0.3l0.2,0.4l0,0.4v0.3l-0.1,0.3l-0.1,0.3l0,0.3l0,0.1l0.1,0.1l0.1,0.3l0,0.4v0.8l0.1,0.1l0.3,0l0.4,0
			l0.2,0.1l0.1,0.2l0,0.3l0,0.2l0,0.2l0.1,0.1l0.2,0l0.2,0.1l0.1,0.2v0.3l0,0.5v0.5l-0.1,0.5l-0.1,0.4l-0.1,0.6v0.6l0.2,0.9l0.3,1
			l0.1,0.4l0.1,0.3l0.2,0.2l0.3,0.2l0.3,0l0.4,0.1l0.2,0.1l0.1,0.3l0.3,0.3l0.3,0.3l0.4,0.2l0.3,0l0.3,0l0.3,0l0.1,0l0.2,0.2l0,0.2
			l0,0.3l0,0.7v0.7l0,0.4l0.1,0.1l0.2,0.1l0.3,0.1l0.3,0l0.1,0.1l0.1,0.3l0,0.3l0.1,0.1l0.4,0.2l0.3,0.1l0.7,0.3l0.6,0.2l0.2,0.1
			l0.1,0.3l0,0.4l-0.1,0.3l-0.2,0.4l-0.3,0.3l-0.3,0.3l-0.2,0.3l-0.1,0.4l0,0.3l0.2,0.3l0.2,0.3l0.5,0.5l0.3,0.3l0.2,0.3l0.2,0.4
			l0.2,0.3l0.3,0.2l0.5,0.2l0.4,0.1l0.4,0.2l0.6,0.2l0.4,0.1l0.5,0l0.3,0.1l0.1,0.2v0.3l-0.2,0.3l-0.3,0.3l-0.4,0.1l-0.3,0.1l-0.5,0
			l-0.4,0.1l-0.2,0.1l-0.1,0.1l0,0.3l0.2,0.2l0.3,0.4l0.4,0.4l0.6,0.6l0.5,0.6l0.1,0.7l0.1,0.6l-0.1,0.7l-0.3,0.6l-0.3,0.6l-0.1,0.4
			l-0.1,0.4l0.1,0.6l0.5,0.8l0.6,0.7l0.5,0.5l0.2,0.4l0.3,0.4l0.1,0.4l0.1,0.5l0.2,0.4l0.3,0.5l0.5,0.7l0.4,0.6l0.3,0.4l0.1,0.5v0.4
			l-0.1,0.5l-0.1,0.4l-0.1,0.4v0.4l0.1,0.4l0.1,0.2l0.2,0.2l0.2,0.2l0.3,0.3l0.3,0.6l0.4,0.4l0.5,0.5l0.5,0.5l0.3,0.2l0.4,0.2h0.3
			l0.5-0.1l0.3,0l0.4,0l0.3,0.2l0.2,0.3l0.1,0.3l0.1,0.6l0.1,0.5l0.1,0.9l0,0.2l0.1,0.4l0.2,0.2l0.3,0.1l0.4,0.2l0.5,0.2l0.5,0.3
			l0.4,0.2l0.3,0.3l0.3,0.4l0.4,0.2l0.4,0.1l0.3,0l0.4,0l0.3,0.1l0.3,0.1l0.4,0.2l0.7,0.4l0.7,0.3l0.5,0l0.7,0.3l0.5,0.1l0.3,0.3
			l0.1,0.3l0.2,0.7l0.4,0.7l0.4,0.6l0.5,0.5l0.3,0.3l0.1,0.2v0.3l0,0.3l0.1,0.4l0.1,0.4l0.3,0.4l0.4,0.2l0.4,0.2l0.5,0.2l0.4,0.1
			l0.4,0.3l0.2,0.3l0.1,0.4l0.1,0.4l0.1,0.8l0.3,1.2l0.4,0.8l0.4,0.5l0.6,0.8l0.5,0.7l0.5,0.5l0.5,0.1l0.5,0.2l0.7,0.1h0.9l0.3,0.2
			l0.1,0.3l0,0.3l-0.1,0.6l-0.1,0.4l-0.2,0.6l-0.1,0.4l0,0.4l0.1,0.3l0.3,0.3l0.2,0.2l0.2,0.2l0,0.2l0.1,0.3l0.4,0.5l0.4,0.2
			l0.4,0.2l0.4,0.2l0.3,0.2l0.2,0.4l0.1,0.4v0.5l-0.2,0.4l-0.2,0.3l-0.3,0.4l-0.1,0.6l0.1,0.5l0.3,0.5l0.7,0.6l0.4,0.5l0.3,0.6
			l0.1,0.4v0.6l-0.1,0.5l0,0.3v0.5l0,0.5l0,0.3l0,0.3l0.2,0.3l0.3,0l0.5,0l0.5,0l0.4,0l0.1,0.2l0,0.3l0,0.4l0.1,0.3l0.1,0.3l0.1,0.4
			l0.1,0.3l0.3,0.1l0.4,0l0.4-0.1l0.2-0.1l0.2-0.3l0.1-0.2l0.3-0.1l0.3,0.1l0.3,0.2l0.2,0.4l0.1,0.6l0.2,1l0.2,0.6l0.3,0.5l0.5,0.2
			h0.5l0.4-0.1l0.5,0.1l0.3,0.2l0.3,0.3l0.3,0.5l0.5,1l0.5,0.7l0.4,0.5l0.5,0.7l0.5,0.8l0.2,0.7l0.4,0.5l0.5,0.3l0.5,0l0.1,0
			l0.2-0.4l0.2-0.3l0.3-0.2l0.2,0.2l0.1,0.1l0.1,0.2l0.3,0.1l0.3,0l0.5,0l0.5,0.1l0.3,0.2l0.2,0.2l0.1,0.4v0.3l-0.1,0.2l-0.2,0.2
			l-0.1,0.1l0.1,0.1l0.1,0.2l0.3,0.1l0.4,0.1l0.7,0.2l0.3,0.1h0.3l0.3-0.1l0.2-0.2l0-0.2l0-0.3l0-0.2l0.1-0.2h0.2l0.2,0l0.2,0.1
			l0.3,0h0.2l0.5-0.2l0.3,0l0.3,0.1l0.2,0.2l0.1,0.3l-0.1,0.3l0.1,0.3l0.1,0.2l0.3,0.1l0.4,0.2l0.2,0.2l0.1,0.3l-0.1,0.2l-0.3,0.1
			l-0.2,0l-0.1,0.2l0,0.2l0.2,0.2l0.3,0l0.4,0l0.3,0l0.3-0.2l0.3-0.2l0.2-0.2l0.3-0.1l0.4,0.1l0.4,0.2l0.3,0.3l0.2,0.5l0.3,0.7
			l0.1,0.6l0.2,0.4l0.3,0.3l0.3,0.2l0.3,0.2l0.1,0.2l0.1,0.4l-0.1,0.3l-0.3,0.4l-0.2,0.3l-0.1,0.4v0.5l0,0.4l-0.2,0.4l-0.1,0.3
			l-0.1,0.6l0,0.4l0,0.6l0,0.2l0.1,0.2l0.3,0.2l0.2,0l0.5-0.2l0.5-0.1l0.5,0l0.4,0.1l0.3,0.3l0.3,0.5l0.1,0.6l0,0.5l-0.1,0.6
			l-0.2,0.4l-0.3,0.5l-0.3,0.4l-0.2,0.4l-0.1,0.6l0,0.4l0,0.5l0.3,0.6l0.3,0.7l0,0.5l-0.1,0.6l-0.1,0.7l-0.1,0.7l-0.1,0.4l-0.3,0.4
			l-0.3,0.4l-0.3,0.6l-0.1,0.4l0.1,0.6l0,0.6l-0.1,0.4l-0.3,0.4l-0.4,0.2l-0.3,0l-0.4,0l-0.4,0.1l-0.2,0.1l-0.2,0.4l0,0.4l0.1,0.3
			l0.3,0.3l0.4,0.2l0.3,0.1l0.5,0l0.5-0.1l0.5-0.1l0.6,0.1l0.3,0.2l0.1,0.4l0,0.4l-0.2,0.5l-0.2,0.6l-0.1,0.4v0.4l0.1,0.3l0.3,0.3
			l0.3,0.3h0.3l0.3-0.1l0.3-0.3l0.2-0.2l0.5-0.1l0.4,0.1h0l0.4,0.2l0.4,0.4l0.1,0.4l0.1,0.5v0.6l-0.1,0.5l0,0.4l-0.1,0.4l0.1,0.4
			l0.4,0.4l0.2,0.3l0.1,0.3l0.1,0.5l0.3,0.9l0.2,0.8v0.4l-0.1,0.5l-0.1,0.3l-0.2,0.4l-0.2,0.2l-0.2,0.2l-0.1,0.3l0.1,0.3l0.2,0.3
			l0.2,0.3l0.1,0.3l0,0.3l-0.1,0.4l-0.1,0.4l-0.2,0.3l-0.3,0.3l-0.1,0.1l0,0.3l0.2,0.3l0.4,0.3l0.1,0.1l0.1,0.3l0,0.4l-0.1,0.4
			l-0.3,0.4l-0.3,0.3l-0.4,0.3l-0.3,0.3l-0.1,0.3l0,0.3l0,0.4l0.1,0.4l0.1,0.4l0.1,0.4l0.1,0.4v0.4l0,0.5l0,0.3l0.1,0.3l0.2,0.2
			l0.2,0.1l0.2,0.1h0.2l0.2-0.2l0.3-0.2l0.2-0.1l0.3,0l0.3,0.2l0.3,0.3l0.3,0.4l0.6,1l0.4,0.4l0.3,0.3l0.3,0.1l0.1,0.2l0.1,0.3v0.3
			l-0.1,0.1l-0.4,0.2l-0.2,0.3l-0.1,0.4l0,0.3l0.1,0.5l0.3,0.4l0.5,0.6l0.5,0.3l0.3,0.1l0.5,0.1l0.5,0.1l0.6,0.2l0.7,0.2l0.4,0.2
			l0.3,0.3l0.1,0.3l0.1,0.3l0,0.5l-0.1,0.6l-0.1,0.4l0,0.3v0.4l0.2,0.4l0.3,0.4l0.4,0.3l0.3,0.2l0.3,0.1l0.5,0.1l0.5,0.1l0.6,0.3
			l0.3,0.3l0.3,0.4l0.2,0.5l0.3,0.7l0.1,0.5l0,0.4l0.3,0.8l0.5,0.9l0.4,0.6l0.3,0.3l0.2,0.4l0,0.5v0.5l-0.1,0.5l-0.1,0.3v0.4
			l0.2,0.5l0.2,0.3l0.6,0.7l0.5,0.4l0.5,0.2l0.2,0.2l0.1,0.3l0.2,0.4l0,0.5l0,0.7l0,0.9l0.3,0.9l0.3,1.1l0.4,1l0.1,0.5l0.1,0.4
			l0.1,0.4l0.2,0.3l0.3,0.2l0.3,0.2l0.4,0.1l0.2,0.1l0.1,0.2l0,0.2v0.3l-0.1,0.7l-0.1,0.6l-0.1,0.3l-0.1,0.3l0,0.3l0.2,0.2l0.6,0.7
			l0.2,0.5l-0.1,0.3l-0.2,0.5l-0.3,0.6l-0.1,0.4l0.1,0.5l0.3,0.3l0.5,0.3l0.6,0.2l1,0.2l0.6,0.2l0.6,0.3l0.4,0.3l0.3,0.3l0.4,0.6
			l0.4,0.6l0.4,0.7l0.3,0.8l0.1,0.5l-0.1,0.5l-0.2,0.4l-0.3,0.4l-0.1,0.4l-0.2,0.4l-0.2,0.4l-0.2,0.3l-0.2,0.3l0,0.4l0.2,0.4
			l0.3,0.3l0.4,0.2l0.3,0.2l0.2,0.3l0.1,0.3l0.4,0.4l0.5,0.3l0.4,0.1l0.7-0.1l0.6-0.3l0.4-0.4l0.4-0.3l0.3-0.2l0.4-0.1l0.3,0
			l0.4,0.1l0.4,0.3l0.2,0.3l0.3,0.4l0.2,0.5l0.2,0.2l0.4,0l0.3,0l0.4,0l0.3,0.1l0.4,0l0.2-0.1l0.3-0.3l0.3-0.2l0.3,0l0.3,0l0.3,0.1
			l0.5,0.3l0.3,0.5v0.3l-0.2,0.3l-0.1,0.1v0.2l0.2,0.3l0.3,0.1l0.3,0.1l0.3,0l0.3-0.1l0.2-0.3l0-0.3l0-0.3l0-0.3l0.1-0.3l0.2-0.3
			l0.2-0.1l0.3,0l0.1,0.1v0.2l-0.1,0.3l0,0.3v0.3l0.2,0.2l0.4,0.1h0.4l0.3,0l0.3,0.2l0.1,0.3l0,0.2l0,0.3l0.1,0.2l0.2,0.1l0.3,0
			l0.4-0.3l0.3-0.3l0.3-0.2l0.4,0h0.4l0.4,0l0.4,0.1l0.3,0l0.2,0.1l0.3,0.1l0.5,0l0.3,0l0.3-0.2l0.2-0.1l0.2-0.2l0.3-0.1l0.3,0
			l0.2,0l0.4,0.1l0.3,0l0.4,0l0.2,0.3l0.1,0.4l0.2,0.6l0.2,0.5l0.2,0.3l0.1,0.3l0,0.2l0.2,0.3l0.3,0.2l0.4,0.1l0.3,0.1l0.5,0
			l0.4-0.2l0.3-0.2l0.4-0.1l0.3,0l0.5,0.2l0.4,0.2l0.3,0.4l0.1,0.3l0,0.4l-0.1,0.3l-0.2,0.2l-0.3,0l-0.3-0.1l-0.4-0.1h-0.2l-0.2,0.1
			l0,0.3l0.2,0.3l0.3,0.1l0.3,0.1l0.1,0l0.5-0.1l0.4-0.1l0.3,0l0.2,0.1l0.2,0.3l0.1,0.3l0.1,0.1l0.3,0l0.2,0h0.4l0.3,0.2l0.1,0.3
			v0.3l-0.2,0.1h-0.3l-0.2,0l-0.3-0.1l-0.4,0.1l-0.1,0.2l0.1,0.2l0.3,0.2l0.4,0.1l0.5,0.1l0.7,0l0.5,0.2l0.3,0.4l0.2,0.4l0,0.2
			l0.2,0l0.2-0.2l0.3-0.1l0.4,0.1l0.2,0.2l0.2,0.4v0.1l-0.1,0.1h-0.3l-0.3-0.1l-0.3-0.2l-0.1-0.1l-0.1,0l-0.1,0.1l0,0.3l0.3,0.3
			l0.4,0.1l0.5,0l0.5-0.1l0.3-0.1l0.3-0.1l0.4-0.2l0.4-0.2l0-0.1l-0.1-0.1l-0.3-0.1l-0.3,0l-0.3-0.1l-0.2-0.1l-0.2-0.3l0-0.2l0-0.2
			l0.3-0.1l0.4,0l0.3,0.1l0.3,0.2l0.2,0.1l0.2,0l0.3-0.1l0.3-0.1l0.2,0.2l0,0.2l0,0.2l0,0.2l0.1,0.1l0.2-0.1l0.2-0.3l0.1-0.2
			l0.5-0.3l0.7-0.1l0.4,0h0.1l0.5,0.2l0.2,0.2l0,0.3l-0.2,0.2l-0.1,0.3l0,0.3l0,0.2l0.1,0.2l0.2,0l0.2,0l0.3-0.2l0.2-0.1l0.2,0
			l0.2,0.2v0.3l0,0.5l0.1,0.2l0.3-0.1l0.2-0.2l0.1-0.3l0.2-0.3l0.1-0.1l-0.1-0.2l-0.1-0.1l-0.2,0l-0.1,0l-0.1-0.2l0.2-0.2h0.3
			l0.4,0.1l0.3,0.3l0.1,0.3l0.1,0.3l0.1,0.2l0.1,0.2l0.2,0l0.2-0.1l0.1-0.2l0.2-0.2l0.2-0.1l0.2,0.1l0.1,0.2l-0.1,0.1l-0.1,0.1
			l-0.1,0.2l0,0.2l0.1,0.1l0.2,0l0.2-0.2l0.3-0.1l0.3-0.1h0.2l0.3,0.1l0.1,0.2v0.3l-0.1,0.3l-0.2,0.4l0,0.1l0.2,0.1l0.2-0.1l0.4-0.2
			l0.2-0.1l0.2,0l0.2,0.1l0.1,0.2l0.1,0.3l0.1,0.1l0.1,0l0.4-0.1l0-0.1l0-0.1l-0.1-0.2l-0.1-0.2l-0.1-0.1v-0.1l0.1-0.1l0.2-0.1
			l0.4-0.1l0.4-0.2l0.4-0.2l0.1,0.1v0.4l0.1,0l0.3-0.1l0.2-0.1l0.3-0.1h0.3l0.2,0.2l0.1,0.3l0,0.3l-0.1,0.4l-0.1,0.4L559,820l0,0.2
			l0.2,0.1l0.2,0.1l0.3,0.1l0.3,0.2l0.5,0.5l0.5,0.2l0.3,0.1l0.2,0.1l0.2,0.1l0.1,0.3l0.1,0.3l0.2,0.3l0.3,0.1l0.1,0l0.1,0.3
			l0.1,0.2l0.2,0.3l0.3,0.1l0.3,0l0.4-0.1l0.4-0.1l0.1-0.2V823l0-0.4l0.2-0.2h0.2l0.2,0.2l0,0.3l0,0.4l0,0.5l0.2,0.2l0.2,0l0.3-0.2
			l0.1-0.3l0-0.4l0.2-0.3l0.2-0.1l0.3,0.1l0.1,0.4l0,0.3l-0.2,0.4l0,0.1l0.1,0.2l0.3,0h0.1l0.1,0.2l0,0.2l-0.2,0.3l0,0.2v0.2
			l0.2,0.4l0.5,0.6l0.4,0.3l0.4,0.3l0.3,0.4l0.2,0.2l0.2,0.1l0.2-0.1l0.1-0.3l-0.1-0.3l-0.1-0.2l-0.2-0.2l-0.1-0.2l0-0.3l0.2-0.2
			h0.2l0.2,0.3l0.1,0.2h0.2l0.2-0.2l0.1-0.2l0.3-0.1h0.1l0.1,0l0,0.3l0,0.3l0.2,0.3h0.4l0.3,0l0.3,0.2l0,0.2l-0.1,0.2l-0.3,0.1
			l-0.3,0l-0.4,0l-0.3,0.1l-0.1,0.2l0.1,0.2l0.4,0.2l0.4,0.2l0.3,0.2l0.2,0.3l0.1,0.3l0.1,0.2l0.3,0.2l0.3,0.1l0.3,0.1l0.1,0.2
			l0,0.2l0.2,0.1l0.3,0l0.3-0.1l0.4-0.1l0.4-0.1h0.4l0.4,0.1l0.5,0.3l0.4,0.4l0.3,0.4l0.2,0.3l0.1,0.2l0.3,0l0.2-0.1l0-0.3l0-0.3
			l0.3-0.1l0.3,0h0.1l0.1-0.1v-0.1l-0.1-0.1v-0.4l0.1-0.2l0.2,0l0.1,0.1l0.1,0.1l0.1,0.3l0.3,0.1l0.3,0l0.3,0l0.1,0.3l-0.1,0.2
			l-0.3,0.3l0,0.2l0.1,0l0.2-0.2l0.3-0.1l0.2,0l0.1,0.1l0.1,0.1l0.1,0.1l0.3-0.1l0.2-0.2l0.1-0.3l0-0.3v-0.1l0-0.2l0.1-0.5l0.1-0.1
			l0.1-0.1l0.3,0l0.1,0.2l0,0.2l-0.1,0.3l0.2,0.2l0.3,0l0.5-0.1l0.6-0.2l0.5,0l0.2,0.3l0.1,0.2l0.3,0l0.3-0.1l0.2-0.2l0.1-0.1
			l0.2-0.3l0.3-0.1l0.2,0.1l0.1,0.3l0.1,0.4l0.1,0.3l0.1,0.3l0,0.3l-0.1,0.3l-0.2,0.3l-0.2,0.2l-0.1,0.3l0.1,0.2h0.1l0.3-0.1
			l0.1-0.2l0.2-0.3l0.2-0.1h0.5l0.5,0.1l0.6,0.1l0.3-0.1l0.1-0.2l0.1-0.4l0-0.4v-0.2l0-0.3l0.1-0.2l0.2-0.1l0.2,0l0.1,0.2l0.1,0.2
			h0.2l0.1-0.1l0.2-0.2l0.2,0l0.2,0.1l0,0.2l-0.1,0.2l0.1,0.1h0.1l0.1-0.1l0.1-0.3l0.2-0.2l0.2-0.1l0.2,0l0.1,0l0.3,0l0.2-0.2
			l0.1-0.1l0.3,0l0.3,0.2l0.2,0.4l0.3,0.3l0.3,0.1l0.3-0.1l0.2-0.1l0.3-0.3l0.4-0.3h0.3l0.1,0.2l0.2,0.3l0.2,0.1h0.1l0.1-0.1l0-0.1
			l0-0.2l0.1-0.3l0.2,0l0.1,0.2l0,0.2l0.2,0.1h0.2l0.2,0l0.7-0.1l0.6-0.1l0.2-0.1l0.3,0l0.2,0.1v0.1l-0.3,0.2l-0.1,0.2l0.1,0.2
			l0.2,0.1l0.3,0l0.3-0.2l0.1-0.2l0.1-0.3l0-0.2l0-0.2l0.1-0.1l0.3,0.1l0.3,0.2l0.3,0l0.3,0l0.1-0.1l0.2-0.1l0.1,0.2v0.2l0.1,0.2
			l0.2,0.1l0.3,0l0.4-0.1l0.3,0l0.3,0.1l0.1,0.2l0.1,0.2l0.2,0.1l0.3-0.1l0.2-0.2l0.1-0.3l0.4-0.2l0.2,0l0.1,0.2l0,0.4v0.3l0.1,0.1
			l0.2,0l0.2-0.2l0-0.2l0-0.3l0.1-0.3l0.1-0.3l0.3,0l0.1,0.1l0,0.2l0.3,0.2l0.2,0l0.3,0.1l0.1,0.2l-0.3,0.2l-0.3,0.1l-0.1,0.2v0.3
			l0.2,0.4l0.4,0.1l0.6,0.1l0.1,0.1h0.3l0.2-0.1l0.1-0.2l-0.1-0.2l-0.2-0.2l-0.1-0.2l0.1-0.3l0.2-0.2l0.3-0.1l0.3,0.2l0.2,0.4l0,0.3
			l-0.1,0.3l-0.1,0.3l0.1,0.2l0.2,0.1l0.3-0.1l0.1-0.2l0.3,0l0.2,0.1h0.2l0.5-0.1l0.2,0.1v0.3l0,0.1l0.2,0l0.3-0.1l0.1-0.1l0-0.1
			l-0.2-0.1l0-0.2l0.2-0.2l0.3,0l0.3,0.1l0.1,0.3l0,0.2l0.1,0.1h0.3l0.3-0.1l0.1-0.3l0-0.3l0.1-0.1l0.2,0l0.2,0.1l0.3,0.1l0.1,0.2
			l0,0.2l0.1,0.2l0.3,0l0.2-0.1l0-0.1l-0.2-0.2l-0.1-0.2l0.2-0.1l0.2,0.1l0.1,0.1l0.2,0.1l0.3,0l0.2-0.1l0.1-0.2l0.2-0.2h0.1
			l0.1,0.1l0.1,0h0.1l0.1,0l0,0.2l-0.2,0.1l-0.1,0.1v0.1l0,0.2l0.1,0l0.4,0l0.3,0.1h0.1l0.2-0.1l0.2-0.3l0.2-0.2l0.2-0.1l0.3,0.2
			l0.1,0.3l0.1,0.3l-0.1,0.1l-0.3,0.2l-0.2,0.2l0,0.2l0.1,0.1l0.3,0.3l0.2,0.2h0.2l0.1,0l0.1-0.2l0.2-0.1l0.2,0l0.4,0.1l0.2,0.1
			l0.1,0.3l-0.1,0.3l-0.3,0.1h-0.2l-0.3,0l-0.2,0.1l0,0.2l0.2,0.1h0.4l0.3,0l0.3,0.1l0.1,0.3v0.2l0.1,0.2l0.3,0l0.2,0.1l0.1,0.2
			l0,0.2l-0.1,0.3l0,0.4l0.1,0.3l0.2,0.2l0.2,0.1l0.3-0.1l0.3-0.2l0.3-0.2l0.3,0l0.2,0.1l0.1,0.2v0.3l0,0.3l0.1,0.3l0.2,0.2h0.3
			l0.2-0.1l0-0.2l0.1-0.2l0.2-0.1l0.3,0.1l0.1,0.2l0,0.2l-0.3,0.2l-0.2,0.1l-0.3,0.2l-0.3,0.1l-0.2,0.1l-0.1,0.1l0,0.1l0.1,0.1
			l0.3,0l0.3,0l0.3,0l0.1,0.1l0.1,0.2l0.1,0.2l0.2,0.2h0.2l0.1-0.1l0.1-0.3l0-0.1l0.1-0.3l0.3-0.2l0.3,0.1l0.2,0.2l0,0.1l0.2,0.1
			l0.3-0.1l0.1,0l-0.1,0.2l-0.2,0.1l-0.1,0.2l0.1,0.3l0.5-0.1l0.3,0l0,0.3l-0.2,0.3l0,0.2l0.1,0.2l0.2,0.2l0.2,0.2l0.1,0.4l0.1,0.4
			l0,0.3l0.1,0.2l0.2,0.1l0.2,0l0.3-0.1l0.1-0.1l0.2-0.2l0.1-0.2l0.2-0.1l0.2,0l0.1,0.1l0,0.2l-0.1,0.3v0.4l0.1,0.3l0.2,0l0.2-0.1
			l0.3-0.1l0.2,0l0.1,0.1l0.2,0l0.3-0.2l0.2-0.3l0.4-0.1l0.1,0.1l-0.1,0.2l-0.3,0.3l-0.1,0.2v0.2l0.1,0.1l0.4-0.1l0.2-0.2l0.2-0.3
			l0.2-0.2l0.3,0l0.1,0.1l0,0.3l-0.2,0.3l-0.1,0.3l0,0.2l0.1,0.2h0.3l0.2-0.1l0.2-0.1l0.1,0.1l0,0.2l-0.1,0.2l-0.3,0.3l-0.1,0.2
			l0,0.2l0.1,0.1l0.2,0l0.2,0l0.1,0.2l0.1,0.2l0.3,0.2l0.2,0l0.3,0.1l0.2,0.2l0.3,0.3l0.5,0.1l0.4-0.2l0.1-0.2v-0.3l-0.1-0.3
			l-0.1-0.3l0.1-0.3l0.2-0.2l0.2,0l0.1,0.2l-0.1,0.2l-0.1,0.1l0.1,0.2l0.1,0l0.2,0.1l0.2,0.1l0,0.2l-0.1,0.2l-0.2,0.1l-0.1,0.2
			l0.1,0.2h0.5l0.3,0l0.2-0.2l0.3-0.2l0.3,0.1h0.2l0.3-0.1l0.2-0.2l0.2-0.3l0.1-0.1l-0.1-0.1l-0.2-0.1l-0.1-0.2V846l0.1-0.3l0.2-0.2
			l0.2-0.1l0.3-0.3l0.1-0.1l0.1-0.3l0-0.3l-0.1-0.1l-0.3,0l-0.3,0.1l-0.3,0l-0.2-0.2l0-0.2l0.1-0.3l0.3-0.1l0.3,0h0.2l0.1-0.1l0-0.1
			l-0.2-0.1l-0.1-0.1l-0.1-0.2l-0.1-0.3l-0.1-0.4l-0.1-0.1l-0.1-0.1l0-0.4l0.1-0.3l0.2-0.2l0.3-0.1l0.3,0l0.3-0.2l0.2-0.4l0.1-0.2
			l0.3-0.3l0.3-0.1l0.3,0l0.1,0.2l0,0.2l-0.1,0.2v0.3l0.1,0l0.3-0.3h0.2l0,0.2l0,0.1l0.1,0.2h0.3l0.2-0.2l0.1-0.4l0-0.3l0.2-0.2
			l0.2-0.1l0.2,0.1l0.2,0.3l0.1,0.2h0.2l0.1-0.1l0-0.3l0-0.3l0.1-0.1l0.1,0l0.3,0.1l0.6,0l0.5,0l0.2-0.2l0-0.2l-0.1-0.3l-0.2-0.2
			l-0.3-0.2l-0.2-0.1l-0.2-0.2l0-0.3l0.1-0.1l0.2-0.1l0.3,0.1l0.2,0.3l0.2,0.2l0.3,0.1l0.3,0l0.4,0l0.4,0.2l0.3,0.2l0.4-0.1l0.3-0.2
			l0.2-0.3l0.4-0.2l0.5-0.1l0.5,0l0.5-0.2l0.2-0.2l0.2-0.1l0.2,0l0,0.2l0,0.1l0.2,0l0.3,0.1l0.3,0.1l0.3,0.1l0.2-0.1l0.2-0.1
			l0.3-0.3l0.2-0.1h0.3l0.4,0.2l0.5-0.2l0.3-0.1l0,0.3l-0.2,0.4l-0.1,0.3l0.2,0.2l0.3-0.1l0.4-0.2l0.1-0.4l0.1-0.3l-0.1-0.6
			l-0.2-1.2l-0.1-0.8l-0.2-0.7l-0.1-1l-0.1-2.5l0-0.6v-0.4l-1.2,0.1l-0.3,0.1l-0.2,0.2l-0.1,0.1h-0.1l-0.2,0l-0.1,0.1v0l-0.1,0.2
			l0,0.2l-0.3,0.2l-0.3,0.1l-0.3,0.1l-0.5,0.1l-0.4,0.2l-0.4,0.3l-0.4,0.1l0,0.2l0.1,0.2l0.2,0l0.4-0.2l0.3-0.1l0.3-0.2l0.4,0l0.3,0
			l0.2-0.1l0.1-0.2l0.1-0.2l0.3-0.1l0.1-0.1l0-0.2l0-0.2l0.2-0.1l0.2,0.1l0.1,0.1l0.2-0.1l0,0l0.1-0.1l0-0.3l-0.1-0.2l0.3-0.1
			l0.4-0.1l0,0.3l-0.1,0.2l0.2,0.2l0.1,0.1l0,0.1l-0.4,0l-0.2,0.1l-0.1,0.1l0.1,0.3l0,0.3l-0.1,0.3l-0.1,0.3h0.1l0.3,0l0.3,0
			l0.1,0.1l-0.1,0.1l-0.2,0.2l0,0.1l0.1,0l0.1,0.1v0.1l-0.2,0.2v0.1l0.1,0l0.2-0.1l0.3,0.1l-0.1,0.1l-0.1,0.2l0,0.3l0.1,0.2l0.1,0.1
			l0,0.1l-0.3-0.1l-0.1-0.2l-0.2-0.1l-0.4,0.2l-0.2,0.2l-0.1,0.2l-0.2,0.2l-0.2,0.1l-0.1,0.1l-0.2,0.2v0l-0.3,0.1l-0.2,0.3l0,0.2
			l-0.3,0.3l-0.3,0l-0.1-0.3l0.1-0.3l0-0.3l-0.2-0.1l-0.3,0.1l-0.3,0.2l-0.2,0.2l-0.2,0.4l0.1,0.4l-0.1,0.1l-0.3,0.1l-0.6,0.2
			l-0.4,0l-0.3,0L645,837l-0.3,0l-0.1-0.3l0-0.3l0.3-0.1l0.1-0.1v-0.1l-0.2-0.2l-0.1-0.2l0.2-0.1l0.1-0.1l0.1-0.2l0.2-0.3l0-0.1
			l-0.2-0.1l-0.2,0l-0.1-0.4l0.1-0.1l-0.2,0.1l-0.2,0.2l-0.2,0.1l-0.2,0.2l-0.2,0.1l-0.2-0.2l0.5-1.4l-0.3,0.4l-0.2,0.2l-0.4,0.4
			l-0.3,0.2l-0.2,0.1l-0.5,0.2l0.1,0.2l0,0.3l-0.4-0.1l-0.9,0.2l-0.6,0.6l-0.1,0.4l-0.2,0.4l-0.3,0.1l0-0.3l-0.1-0.1l-0.2,0.3
			l-0.5,0.1l0.1-0.6l0-0.2l0.3-0.5l0.6-0.4l0.6-0.3l0.7-0.4l0.6-0.4l0.8-0.5l0.4-0.3l0.9-0.5l0.7-0.4l0.5-0.3l0.5-0.3l0.1-0.4
			l-0.2-0.3l-0.5-0.5l0-0.5l0.1-0.4l0.3-0.2l0.3,0.4l0.4,0.2l0.4,0.6h0.3l0.1-0.4v-0.3l0.1-0.2l0.1,0.4l0.2,0.4l0.4,0.3l0.3-0.2
			l0-0.4l0-0.4l0.1-0.4l0.2-0.2l0.3-0.1l0-0.1l-0.4,0l-0.1-0.1l-0.5-0.4l-1.2,0l-1.8,0l-1.5-0.4l-0.8-0.5l-1-1L641,826l0-0.2
			l-0.1-0.2l-0.5-0.2h-0.3l-0.2-0.3l0.3-0.2l0.5,0.1l0.1-0.4l0.3-0.1l0.4,0.5l0.3,0.4l0.3-0.1l-0.1-0.5l-0.5-0.5l-0.3-0.4l-0.1-0.4
			l-0.1-0.3l0-0.2l-0.1-0.1l-0.1-0.2l-0.4-0.1l-0.1-0.1l-0.1-0.4l0-0.3l0.2-0.1l-0.1-0.5l-0.1-0.3v-0.2l0.2,0l0.4,0.3l0-0.3l-0.1,0
			l0.1-1.1l0.3-0.4l-0.2-0.4l-0.3,0l-0.3,0l-0.1-0.3l-0.2-0.3l-0.3-0.4l-0.1-0.3l-0.2-0.3l-0.4-0.1l-0.3,0.3l-0.1,0.4l0.3,0.6
			l0.1,0.3v0.3l-0.1,0.3l-0.2,0.3l-0.2,0.5l0,0.3l-0.1,0.3h-0.4l-0.3-0.4l-0.1-0.5l-0.2-0.5l0.1-0.5l0-0.5l0.2-0.2l0.3,0.6l0.3-0.2
			l-0.1-0.6l0.1-0.3l0.1-0.3l0.1-0.2l0.2-0.3l-0.2-0.4l0-0.1l0.2-0.2l0.4,0l0.8-0.1l0.3-0.1l-0.1-0.2l-0.4,0l-0.2-0.1l0-0.2h0.3
			l0.7-0.1l0.4-0.4l0.1-0.4l-0.2-0.1l-0.3,0.1l-0.3,0l-0.3,0.1l-0.5,0.4l-0.5,0.3l-0.3,0l-0.2-0.3l0.4-1l0.2-0.2l0.2,0.3l0.3,0
			l0-0.3l0.2-0.3l0-0.3l-0.2,0l-0.3,0.1l-0.4,0.1l-0.5,0.4l-0.3,0l-0.3,0.1l-0.2,0.1l-0.3,0.1l-0.1-0.6l0.2-0.3l0.1-0.2l-0.1-0.2
			l0.2-0.2l-0.2-0.2h0l-0.2-0.3v-0.6l0-0.5v-0.2l-0.1-0.7l-0.3-0.1l0.1-0.4l0.5-0.4l0.8-0.9l0-0.4l0-0.4l0.1-0.4V807l-0.3-0.2
			l-0.6,0.3l-0.2,0.5l-0.1,0.7l-0.1,0.3l-0.1,0.2l-0.2,0.3l-0.2,0.1l-0.1-0.2l0.1-0.3l0.1-0.2l0-0.1l-0.2-0.4l-0.1,0l-0.1,0.1
			l-0.2,0l-0.2-0.1l0-0.3l0.2-0.4l0.7-0.4l0.3-0.3l0.1-0.3l0.4-0.2l0.3-0.2l-0.2-0.3l-0.2-0.2l-0.3-0.1l-0.1,0.1l-0.2,0.4l-0.5,0.2
			l-0.5,0.2l-0.5-0.1l-0.4,0.1l-0.5,0.1l-0.7,0.4l-0.3,0l-0.3-0.1v-0.3l0.5-0.1l0.3-0.1l0.4-0.7l0.3,0l0.1-0.2l0.1-0.6l0-0.2
			l-0.2-0.2l-0.2-0.1l-0.4,0.1l-0.3,0.3l-0.3,0.2L633,805l0-0.3l0.2-0.3l0.1-0.3V804l0-0.3l-0.1-0.1l0,0l-0.3,0.1l-0.4,0.4l-0.2,0.3
			l-0.3,0.3l-0.3,0.3l-0.3,0l-0.3,0l-0.2,0l-0.1,0v-0.1l0.1-0.2l0.5-0.1l0.4,0l0.3-0.3l0.1-0.3l0.3-0.3l0.2-0.1l0.2-0.5l0.7-0.6
			l0-0.3l-0.1,0l-0.2,0.2l-0.5,0.3l-0.2-0.1l0-0.3l-0.3-0.1l-0.3,0.2l-0.3-0.4l-0.3,0l0.1,0.5l-0.1,0.2l-0.1,0.1l-0.3,0l-0.1,0
			l0,0.1v0.3l-0.3,0.1l-0.3,0l-0.2,0.1h-0.3l-0.4-0.1l-0.1-0.3l0.1-0.1l0.2,0l0.3-0.1l0.2-0.1l0.1-0.1l0-0.1l-0.2,0l-0.3-0.1
			l-0.1-0.3l0.2,0l0.3-0.1l0.2-0.2l0.2-0.2l0.1-0.1h0.1l0.1-0.4l0.3-0.8l-0.2-0.3h0.4l0.2-0.1l-0.1-0.2l-0.6,0l0-0.2l-0.4-0.3
			l-0.2,0.1l-0.9,0.6l0-0.1l-0.3,0l-0.2,0.1l-0.4-0.2l-0.1-0.2l-0.1,0l-0.2,0.1h-0.3l0-0.2l0.1-0.1l0.2-0.2h0.1l0.2-0.2l0.4-0.7
			l0.1-0.3l0.1-0.2l0.2,0l0.1,0.3l-0.1,0.4l-0.1,0.3l-0.1,0.3l0.1,0.1l0.5-0.1v-0.3l0.2-0.2l0.2-0.1l0.4,0.1l0.2,0.2l0.4,0.1
			l0.2,0.2l0.2-0.3l0-0.1l0.2-0.2l0.3-0.4l-0.2-0.4l-0.2,0.2l-0.2,0.2l-0.5,0.3l-0.2-0.1l-0.2-0.1l-0.1-0.2l0.3,0l0.2-0.1l0.3-0.1
			l0.2-0.3l0.1-0.2l0-0.4l0.2-0.2l-0.1-0.1l-0.4,0.1l-0.2,0l-0.3,0.2l-0.2,0.2l-0.3,0.2h-0.4l-0.7-0.1l-0.3,0l-0.3,0l-0.2-0.2
			l-0.2-0.2l-0.5-0.1l-0.3-0.1h-0.3l-0.1-0.2l-0.1-0.3l0.3-0.3h0.3l0.3,0.2l0.5,0.4l0.7,0.1l0.2,0.1l0.1,0.1l0.2,0.1l0.5,0.2l0.3,0
			l0.1-0.1l0-0.4l0.1-0.2l0.5,0l0.3-0.1l0.2-0.3l0.1-0.5l-0.1-0.2l-0.3,0.1l-0.4-0.2l0.4-0.2l0.2-0.1l0-0.8l-0.1-0.2l-0.3-0.1
			l-0.3-0.1l0.1-0.3l0.1-0.1v-0.3l0-0.2l0.1-0.4l0.1-0.2l0-0.3l0-0.3l0.3,0l0.2,0l0,0.4l-0.1,0.1v0.2l0.1,0.2v0.2l-0.1,0.2l-0.1,0.1
			v0.1l0.3,0.1l0.1,0.1l0.1,0.1v0.2l0,0.2l-0.1,0.4l-0.1,0.1l0.1,0.2l0.4-0.1l0.3,0.1l0.1,0.3l0,0.3v0.4l-0.1,0.2l-0.1,0.3v0.1
			l0.1,0.1l0.4,0l0.4-0.5l0-0.4l-0.5-1.1l-0.3-0.5l-0.2-0.8l-0.1-1.1l0.1-0.5l0.2-0.3l0.2-0.3l0-0.2l-0.1,0l-0.3,0.1l-0.2,0
			l-0.2-0.2l-0.2-0.3l-0.2-0.2l-0.2-0.1l-0.2-0.3l0-0.3l0.1-0.2l0.1-0.2l-0.2-0.5l-0.1-0.3l-0.1-0.2l0-0.4l-0.1-0.4l0,0l-0.3-0.4
			l-0.2-0.3l-0.1-0.2l-0.1-0.4l0.1-0.3l0.1-0.4l0.1-0.7l-0.2-0.7l-0.3-0.4l-0.5-1.6l-0.4-0.9l-0.2-1.4l-0.1-1l0-0.9l-0.1-0.9l0-0.7
			l-0.1-0.1l-0.3-1.1l-0.4-0.2l-0.2-0.3l-0.1-0.1l0-0.3l-0.2-0.8l-0.1-0.3l-0.2-0.1l-0.2,0l-0.3-0.1l-0.2-0.1v-0.2l0.2,0l0.2,0
			l0.1-0.2l-0.1-0.3l-0.1-0.3l-0.2-0.1h-0.2l-0.1-0.1l-0.2-0.1l-0.3,0l-0.2,0l-0.3-0.1l-0.2-0.2l-0.2-0.2l-0.1-0.2l-0.2-0.1
			l-0.5-0.4l-0.4-0.1l-0.3-0.1l-0.2,0h-0.1l-0.1,0.1l0.5,0.7l-0.2,0l-0.4-0.1l-0.4-0.9l-0.1-0.3l-0.1-0.3l-0.2-0.2l-0.2-0.2
			l-0.1-0.2l-0.2-0.3l-0.1-0.3l0.1-0.2h0.2l0.3,0.2l0.1,0.1l0.1-0.1l0.1-0.1v-0.2l-0.1-0.1l-0.1-0.1l0-0.2l0-0.3l0.1-0.3l0-0.3
			l-0.1-0.2l-0.1-0.3l0-0.2l0.3,0l0.3,0l0-0.2l0-0.5l0-0.3l-0.1-0.2l-0.1-0.1l-0.1-0.3l0.1-0.2l0.1-0.1l0.3,0.2l1,1l0.8,0.7l0.6,0.6
			l0.4,0.3l0.4,0.4l0.4,0.3l0.2,0.3l0.1,0.1h0.2l0.1-0.3l0.1-0.2h0.1l0.2,0l0-0.2l0.1-0.2l0.3-0.2l0.2,0l-0.1-0.3l0-0.3l-0.1-0.3
			l-0.4-0.2l-0.3-0.1l-0.3-0.2l-0.1-0.2l-0.1-0.3l-0.3-0.3l-0.2-0.1l-0.1-0.2l-0.2-0.3l-0.1-0.2l-0.1-0.2l-0.1-0.2l-0.2,0.1l0.1,0.3
			l0,0.3l0.1,0.2l0,0.2l0.1,0.2l0.2,0.2l0.3,0.2l0.1,0.1l-0.1,0.1l-0.3,0.1l-0.6-0.1l-0.6-0.2l-0.8-0.7l-0.3-0.3l-0.3-0.3l-0.2-0.3
			l-0.1-0.7l-0.3-0.3l-0.2-0.1l-0.3-0.7l-0.1-0.2l0-0.3l0.1-0.2l-0.1-0.2l-0.1-0.2l-0.1-0.4l0-0.4l-0.2-0.5l0-0.3l0.1-0.2l-0.4-0.6
			l0.2-0.2l0.3,0.2h0.3l0.2-0.1l-0.2-0.2l-0.2-0.2l-0.1-0.2l-0.2-0.1l0-0.1l0.2-0.1l0.3,0l0.1-0.2l-0.1-0.4l-0.3-0.6l0.1-0.2
			l0.5-0.3l0.1,0.1l0.5-0.1l0.3,0.2l0.3-0.1l0.2-0.1l0.3,0l0.3,0.2l0.3,0.1l0.2,0l0.4-0.4l0.2,0l0.6,0.3h0.5l0.2-0.1l0.2,0l0.2,0
			l0.3,0.1l0.2,0.1l0.1,0.1l0.2-0.1l0.2-0.1v-0.2l-0.1-0.1l-0.1-0.1l0-0.1l0-0.1l0-0.1l-0.1-0.2l0.1-0.1l0.1-0.2v-0.2l-0.1-0.2
			l-0.1-0.2l-0.1-0.4l-0.1-0.1l-0.1-0.2l-0.1-0.2l-0.2-0.2h-0.2l-0.1-0.1l-0.1-0.3l-0.2-0.2l-0.2-0.1l-0.2-0.2l-0.2-0.2l-0.2-0.3
			l0.3-0.2l0.2,0.2l0.1,0.2l0.2,0.2l0.2-0.1l0-0.3l-0.1-0.2l0.2,0l0.3,0.1l0.1,0l0-0.1l-0.1-0.2l-0.1-0.2l0.1-0.2l0.3-0.1l0.3,0
			v-0.3l-0.1-0.2l-0.2-0.1l-0.7-0.4l-0.2-0.1l-0.6-0.6l0.2-0.3l0.1-0.3l0-0.3l0.1-0.2l0.3,0.1l0-0.1l0-0.3l0.2-0.3l0.2-0.1l0.2,0.1
			l0.1,0.1l0.2,0.1l0.1,0l0.4,0.2l0.4,0l0.1-0.4l0.1,0l0.2,0l0.2-0.1l0-0.2l-0.1-0.4l0.3-0.5l0.2-0.2l0.2-0.1l0.1,0.1l0.2,0l0.1-0.2
			l0-0.6l0.1-0.9l0-0.5l0.2-0.6v-0.3l-0.2,0l-0.2,0.2l-0.1,0.5l0,0.3l-0.1,0.4l-0.3,0l-0.1-0.5l-0.1-0.4l0.1-0.3l0.1-0.1v-0.3
			l-0.1-0.2l0.1-0.2l0.1-0.1l0.2-0.2l-0.1-0.3l0.1-1l0.2-1l0.2-0.3l0.1-0.4l-0.1-0.3l0-0.3l-0.3-0.2l-0.1-0.3l0-0.2l0.2-0.1l0-0.3
			l-0.2-0.1l-0.1,0l-0.1-0.1v-0.1l0.1-0.2l0.2-0.1l0.2-0.1h0.4l0.2,0.1l0,0.2l-0.4,0.1l0.2,0.5l0.1,0.6l-0.2,0.5l0.1,0.1l0.1-0.1
			l0.2-0.5l0-0.6l0.2-0.8l0.1-0.7l0.1-0.6l0.2-0.6l0-0.2l-0.1-0.1l0.1-1.1l0.3-3.3l0.3-0.1l0.2-0.4l0.3-0.5l0-0.6l0.4-0.7l0.3-0.4
			l0.1-0.4l0.1-0.3l0.1-0.4l0-0.5l0.4-0.3l0.2-0.7l0.3-0.7l0.2-0.7l0.3-0.5l-0.1-0.7l0-0.3l0.1-0.6l0-0.5l0-0.2l0.3-0.2l0-0.3
			l0.2-0.3l0.2-0.4l0.3-1.4l0.5-0.5l0.1-0.3l0-0.3l-0.1-0.5l0.2-0.4l0.1-0.6l0.1-0.6l0.3-0.6l-0.2-0.3l0.2-0.3l0.3-0.2l0.1-0.4
			l0.1-0.6l0.4-0.8l0.2-0.7l0-0.1l0.3-0.3l0.2-0.4l0.7-0.8l0.3-0.4l0.2-0.3l0.1-0.3l0.1-0.3l0-0.7l0.1-0.4l0.1-0.6l0.3-0.4l0.4-0.9
			l0.3-0.8l0.2-0.8v-0.1l0-0.2l0.1-0.1l0.2,0l0.2,0.1l0.1,0l0.2,0l0.1-0.1l0-0.3l-0.1-0.1l-0.1-0.2l0-0.1l0.3-0.1l0.1,0l0.1-0.1
			l0-0.1l-0.1-0.1l0-0.1l0-0.2l0.1-0.1l0.1-0.1l0-0.1v-0.2l-0.1-0.2l0-0.2l0.1-0.1l0.2-0.1l0.3,0.1l0.2,0.1l0.2,0.1l0.1-0.3
			l-0.2-0.4l-2.2-0.7l-0.9-0.2l-0.3,0l-0.3-0.1l-0.2-0.1l-0.8-0.2l-1.4-0.6l-1.2-0.5l-0.6-0.4l-0.6-0.5l-0.3-0.3l-0.3-0.4l-0.1-0.3
			l-0.1-0.3l-0.1-0.1l-0.1-0.5l-0.3-0.3l-0.6-0.4l-0.3-0.6l0.3-0.5l0-0.4l0-0.6l0.1-0.6l0.7-0.4l0.1-0.5l0.2-0.4l-0.1-0.2l-0.2-0.2
			l1.7-2l0.1,0.1l0.2-0.1l1.2-0.8l1.5-0.8l1.4-0.5l1.2-0.2l0.8,0l0.5,0.1l0.4,0.2l0.2,0.1l0.4,0.4l0,0.3l0.1,0.3l0.3,0.7l0.1,0.1
			l0.1,0.1l0.3,0.2h0.3l0.2-0.1l0.4-0.1l0.1,0.1l-0.2,0.2l-0.1,0.2l0.1,0.2l-0.1,0.3l0,0.1v0.1l-0.2,0.1l-0.4,0l-0.5-0.2l-0.3-0.1
			l-0.2,0.1l0.7,0.3l1.2,0.5l0.6,0.3l0.5,0.2l0.7-0.1l0.4-0.4l0.1-0.1v-0.2l0.1-0.1l0.1-0.4l0.1-0.2l0-0.2l-0.2-0.1l0-0.2l0.1-0.1
			l0.4-0.7l0.6-0.7l1-1.3l0.2-0.1l0.5-0.8l0.6-0.8l0.1-0.1l0.1-0.2l0.1-0.3l0.1-0.2l0.1-0.1l0.3-0.4l0.2-0.4l0.1-0.3l0.2-0.4
			l0.1-0.3l0.2-0.3l0.2-0.3l0.2-0.3l0.3-0.5l0.2-0.3l0.2-0.4v-0.1l0.2-0.4l0.3-0.6l0.3-0.3l0.4-0.1l0.4,0l0.1-0.3l0.2-0.3l0-0.3
			l0.2-0.1l-0.1-0.3l0.3-0.3l0.4-0.7l0.1-0.2l0.2-0.4l0-0.3l0.3-0.3l0.1-0.2l0.2-0.3l0-0.4l0.2-0.4l0-0.3l0.3-0.1l0.1,0.3l-0.1,0.3
			l0.1,0.2l0.1,0.2l0.4-0.1l0.1-0.4l-0.1-0.7l-0.1-0.3l-0.3-0.6v-0.3l0-0.7l0-0.7l0-0.7l0-0.6l0.2-0.7l0.3-0.1l0.2-0.1l-0.1-0.2
			l-0.1-0.2l0-0.4l-0.3-0.1l1-1.7l0.6-0.1l0.4,0l0.4,0.3l0.3,0.3l0.2,0.1l0.1,0.1h0.1l0.2,0.1l0.1,0l2.9-0.6l0.5-0.4l0.2-0.3l0.4,0
			l0.2-0.3l0.3-0.2l0.2-0.4l0.4-0.3l0.3,0.7l-0.3,0.5l0,0.1v0.1l0,0.1l0.2-0.1l0.1-0.2l0.6-0.5l0.4-0.1l0.2,0l0.1,0l0-0.2l-0.1-0.3
			v-0.2l0.2-0.3l0.2-0.2l0.4-0.2l0.2,0l0.1-0.2l-0.3,0l-0.4,0.1l-0.2-0.1l-0.5-0.2l-0.1-0.1l0.1-0.3l0.2-0.2l0.3-0.1l0.3-0.2
			l1.2-0.9l0.8-0.5l0.6-0.7l0.6-0.5l0.5-0.3l0.2-0.3l0.5-0.4l0.2-0.1l0.4,0l0.2,0l0.4-0.1l0.3-0.1l0.5-0.4l0-0.4l0-0.3l-0.3-0.6
			l-0.2-0.8l-0.6-0.9l-0.1-0.4l0-0.1l-0.5-0.6l-0.1-0.4v-0.4l0.2-0.4l0.4-0.4l0.3-0.7l0.2-0.5l0-0.1l0.1-0.5l-0.1-0.6l-0.2-0.6
			l-0.1-0.8l0-0.6l0.1-0.3l0.3-3.2l0.5-0.1l0.4-0.2l0.6-0.8l0.8-0.4l0.1,0.3l0.3,0.3l0.4,0.2l0.5,0.1l0.7,0.1l0.3,0l0.2-0.1l0.3,0.1
			l0.2,0.1l0,0.3l-0.1,0.5l-0.1,0.3l0,0.2l0.4,0.4l0.1,0.2l0,0.3v0.2l-0.1,0.3l-0.1,0.9l-0.1,0.3l-0.1,0.2l0,0.2v0.2l0,0.2l0.2,0.2
			l0.3,0.3l0.1,0.2l0.1,0.2l0.2,0.3l0.1,0.1l0,0.1l0.1,0.1l0.2,0l0.2-0.1l0.4-0.2l0.3-0.1l0.2-0.1l0.1-0.2l0.1-0.1l0.2-0.1l0.1-0.2
			l0.2-0.2l0.2-0.1l0.2,0l0.1,0.2l0,0.2l0,0.3l0,0.1L682,649l-0.4,0.2l-0.3,0.3l-0.1,0.2l0.1,0.1l0.3-0.2l0.3-0.2l0.3-0.1l0.3,0
			l0.3,0l0.5,0l0,0.2l-0.3,0.2l-0.2,0.1l-0.3,0.2l-0.2,0.1l-0.1,0.1l-0.2,0.2l0.1,0.1h0.2l0.1,0l0.3-0.1l0.4-0.3l0.9-1l1-0.6
			l1.3-0.9l0.4-0.3l1.1-0.6l1.4-0.8l0.7-0.4l1.5-0.8l1-0.6l0.9-0.5l0.6-0.4l0.3-0.2l0.1-0.1l0.1-0.1l0.3-0.1l0.2,0h0.1l0.2,0
			l0.1-0.1l0.2-0.1l1-0.7l1-0.5l1.1-0.6l1.9-0.7l0.1-0.1l0.1-0.1v-0.1l-0.1-0.1l-0.4-0.3l-0.2-0.1l-0.2-0.3l-0.2-0.2l-0.2-0.3
			l-0.1-0.1l-0.1-0.1l-0.1-0.1H699l-0.2,0.2l0,0.1l-0.1,0.1v0.1l0,0.1l-0.1,0l-0.1,0l-0.1-0.1v-0.3l0-0.3l0-0.3v-0.4l-0.1,0
			l-0.1,0.1l-0.1,0.1l-0.1,0.2l-0.1,0.1l-0.1,0.1l-0.1-0.1l-0.1-0.2l0-0.2l-0.1-0.1l0-0.1v-0.2l0-0.2l-0.1-0.1l-0.2-0.1l-0.3-0.2
			l-0.4-0.2l-0.3-0.2l-0.3-0.2l-0.3-0.2l-0.1-0.1l-0.3-0.2l-0.2-0.2L695,635l-0.1,0l-0.1-0.1h-0.1l-0.2,0.1l-0.4-0.1l0-0.2l0-0.3
			l-0.1-0.2l-0.3-0.3l-0.4-0.2l-0.3-0.2l-0.3-0.4l-0.4-0.5l-0.1-0.3l-0.5-1.1l2-0.7l0.1,0l0.2-0.1l0.4-0.2l0.3-0.3l0.4-0.1l0.4-0.2
			l1.6-0.8l1.3-0.8l0.7-0.4l0.8-0.5l0.7-0.4l0.6-0.4l0.4-0.2l0.3-0.1l0.8-0.7l1.2-0.8l0.3-0.2l0.6-0.2l0.7-0.2l0.7-0.1l0.4,0h0.2
			l0-0.3l1.4-1.7l3,2l0.3,0.1l0.6,0.3l0.6,0.6l0.2,0.3l0.1,0.2l0.1,0.3l0,0.2l0.1,0.2l-0.1,0.4l-0.3,0.1l-0.3,0.2l-0.3,0.2l-0.5,0.1
			l-0.3,0l-0.2,0l-0.1,0.2v0.1l0.2,0.3l0.1,0.3l0.2,0.2l0.2,0.2l0.1,0.1v0.1l0,0.1l-0.1,0.1l0,0.4l0.7-0.3l1-0.4l0.9-0.4l0.6-0.3
			l0.4-0.3l0.1,0l0.3,0.1l1.1-0.8l1.2-0.6l0.9-0.3l0.9-0.3l0.8-0.2l0.5-0.2l0.8-0.4l0.4-0.3l0.4-0.1l0.4-0.4l0.3-0.2l0.3-0.3
			l0.2-0.1l0.2-0.1l0.1-0.2l0.4-0.1l0.3,0l0.3-0.1l0.2-0.1l0.3-0.1l0.2,0l0.1,0l0.2,0l0.2,0l0.1,0.1l0.1,0.2l0.1,0.2l0.2,0l0.1-0.1
			l0.1-0.1l0.1-0.2l0.2-0.3l0.1-0.3l0.3,0.2l0.5-0.5l0.1,0.4l0.4,0l0.8,0.1l-0.2,0.1l-0.3,0.5l0,1l0.1,1.1l0.1,0.8l-0.6,0.8
			l-1.3,0.7l-4.5,2.1l-4.7,2.2l-2.7,1.6l-1.8,1.3l-1.4,1.2l-1.2,0.8l-2,1.1l-2.2,1.3l-2.3,2l-2.2,2.1l-0.3,0.5l0.5-0.1l0.4-0.1
			l0.5-0.4l0.4-0.2l0.4-0.3l0.7-0.6l1.4-1.1l1.1-0.9l1.2-0.8l1.1-0.8l0.7-0.4l0.9-0.5l0.6-0.5l0.3-0.2l0.1-0.2l0-0.2l0.1-0.3l0.1,0
			l0.2,0l0.5-0.1l0.3-0.1l0.5-0.4l1.6-0.9l1.3-0.8l1.8-1.1l0.9-0.5l0.8-0.5l0.7-0.4l1-0.5l0.5-0.3l0.4-0.3l0.7-0.3l1.1-0.5l0.2-0.1
			l0.5-0.1l0.8-0.5l0.9-0.5l0.7-0.3l0.8-0.4l0.6-0.2l0.4-0.2l0.5-0.3l0.3-0.1l0.4-0.3l0.4-0.3l0.5-0.2l0.4-0.1l0.3-0.1l0.3-0.2
			l0.5-0.3l0.8-0.3l0.3-0.1l0.4-0.3l0.9-0.4l1.4-0.6l1.4-0.7l1.5-0.8l1.6-0.9l1.2-0.8l1.5-0.9l1.4-0.9l1.4-0.9l1-0.7l0.4-0.3
			l0.3-0.4v-0.3l-0.1-0.1l-0.2,0l-0.6,0.3l-0.4,0.2l-0.6,0.2l-0.3,0.2l-0.4,0.1l-0.1,0.2l-0.8,0.4l-0.3,0.1l-0.3,0.2L744,618
			l-0.2,0.2l0,0.2l-0.6,0.1l-0.6,0.1l-0.3,0.2l-0.1,0.3l-0.3,0.3l-0.4,0l-0.7,0.2l-0.7,0.4l-0.5,0.4l-0.4,0.2l0.1,0.4l-0.1,0.2
			l-0.5,0.1l-0.3,0.1l-0.5,0.1l-0.2,0.3l-0.2,0.1l-0.3,0.1l-0.2,0l-0.2,0.3l-0.2,0.4l-0.3-0.1l-0.2,0l-0.4,0.2l-0.2,0.3l-0.3,0.1
			l-0.3,0.1l-0.1,0.3l-0.7,0.1l-0.3,0l-0.3,0.1l-0.2,0.1l-0.4,0.2l-0.4,0.3l-0.5,0.1l-0.4,0.1l-0.3,0.1l-0.3,0.1l-0.4,0l-0.1-0.1
			l0.4-0.4l0.2-0.2v-0.3l-0.1-0.7l0.3-0.5l0.1-0.3l0.2-0.2l0.5-0.1l0.1-0.4l-0.1-0.2v-0.1l-0.1-0.3l-0.3-0.2l-0.3-0.2l0.1-0.4
			l0.2-0.1l0.6-0.6l0.1-0.1l0.4-0.2l0.7-0.1l0.4-0.4l0.7-0.2l0.8-0.5l1.9-0.7l1.3-0.6l1.7-0.7l1.1-0.4l0.8-0.3l0.5-0.2l0.7-0.1
			l0.4,0.2l0.2,0.1l0.3-0.1l0.2-0.1l0.2-0.1h0.1l0.1,0.1l0.1,0.3l0.2,0.3l0.1,0.1l0.3,0.1l0.5-0.1l1.2-0.4l1.3-0.6l1.3-0.8l0.5-0.4
			h0.3l0.6,0.1l-0.3,0.3l-0.1,0.2l0,0.3l-1.4,1l0,0.2l-0.4,0l-0.2,0.3l0,0.3l0,0.1h0.3l0.3-0.1l0.8-0.5l0.5-0.3l0.3-0.3l0.7-0.4
			l0.5-0.3l0.3-0.3l0.4-0.2l0.6-0.3l0.4-0.2l0.5-0.3l0.5-0.3l0.8-0.4l0.6-0.4l0.5-0.4l0.5-0.3l0.6-0.4l0.5-0.4l0.8-0.5l1-0.7
			l0.2-0.1l1-0.7l0.3-0.2l0.6-0.4l1-0.6l0.4-0.3l0.5-0.4l0.6-0.4l0.6-0.4l0.6-0.4l0.4-0.2l0.1-0.3l0.3,0l0.3-0.2l0.3-0.2l0.4-0.3
			l0.2-0.1l0.3-0.1l0.2-0.1l0.2-0.1l0-0.2l0.1-0.1l0.3-0.1l0.3-0.3l0.3-0.3l0,0.7l0.3,0l0.4,0.4l0.2,0.2l0,0.2l0.1,0l0.1-0.5
			l0.1-0.3l-0.1-0.2l-0.3-0.3l-0.1-0.3l0.1-0.2l0.2-0.1l0.2,0l0.2,0l0.4-0.2l0.4-0.3l0.6-0.3l0.7-0.3l0.8-0.4l0.5-0.3l0.4-0.3
			l0.5-0.4l0.3-0.1l0.6-0.5l-0.1-0.3l0.2-0.4l0.3-0.5l0.4-0.6l0.5-0.5l0.4-0.5l0.7-0.7l0.6-0.6l0.6-0.5l0.1-0.2l0.2-0.1l0.8-0.8
			l0.8-0.9l0.6-0.5l0.6-0.5l1.1-0.8l0.7-0.5l0.6-0.5l0.5-0.3l0.5-0.5l0.4-0.3l0.5-0.4l0.6-0.6l-0.6,0l-0.4,0.2l-0.2,0.1l-0.2,0
			l-0.2,0l-0.2-0.2l-0.3,0l-0.2,0.2l-0.2,0.4l-0.1,0.1l-0.1,0.5l-0.3,0.4l-0.4,0.5l-0.5,0.2l-0.4,0.2l-0.7,0.7l-0.2,0.4l-0.2,0.6
			l-0.4,0.1l-0.4-0.1l-0.2,0.3l0,0.1l-0.2,0.1l-0.3,0.3l-0.3,0.3l-0.3,0.1l-0.5,0.3v-0.4l0.5-0.9l0.1-0.4l0.1-0.3l0.1-0.3l0-0.2
			l0-0.1l0-0.2l0.1,0h0.1l0.5,0.1l-0.1-0.2l-0.3-0.3l0.1-0.5l0.3-0.4l0.4-0.8l0.4-0.4l0.1-0.3l0.1-0.3l0.4-0.3l0.5-0.3v-0.2
			l-0.1-0.1l-0.5-0.1l-0.3-0.4l0-0.4l0.3-0.4l-0.1,0l-0.1-0.1l-0.4,0.2l-0.4,0.4l-0.2,0.4l0,0.2l-0.2,0.1l0.1,0.4l-0.2,0.7l-0.4,0.3
			l-0.4,0.2l-0.3,0h-0.2l-0.2,0l-0.2-0.4l-0.4-0.1l-0.1-0.1l-1,0.5l-0.4,0.2l-0.4-0.4l0.2-0.2l0.2-0.4l0-0.3l0.4-0.2l0.4-0.3
			l0.4-0.3l0.4-0.1l0.4,0.4l0.6,0l0.1,0.3v0.2l0.3,0.1l0.1-0.8l0.4-0.5l0.2-0.2l0.3-0.3l0.8-0.4l0.6-0.6l0.4-0.2l0.4,0.3l0.6,0
			l0.2,0.6l0.3,0.3l0.1,0.2l0.1,0.3l0,0.5l0,0.3l0.2,0.1l0.3,0.4l0.1,0.3l0.3,0.1l0.3,0l0.4,0l0.1-0.4l0-0.5l-0.1-0.2l-0.2-0.4
			l-0.4-0.5l-0.4-0.3l-0.4-0.4l-0.1-0.2l-0.1-0.2l0-0.3v-0.5l0.1-0.5l0.1-0.3l0.2-0.7v-0.4l0.1-0.3l0.2-0.4l0.1-0.9l0-0.7l0.1-0.6
			l-0.2-0.3l-0.3-0.1l-0.1-0.2l-0.1-0.2l0-0.2l-0.3,0.1l-0.6,0.3l-0.5,0.1l-0.5-0.2l-0.2-0.8l-0.3-0.1l-0.1,0l-0.4,0.1l-0.3-0.1
			l-0.1-0.2l0-0.3l-0.3,0l-0.4-0.1l-0.3-0.3v-0.3l0.2-0.1l0.3,0.3l0.4,0l0.3-0.1l0.4,0.2l0.3,0.2l0.3,0.1l0.3,0h0.3l0.4,0.3l0.4,0.4
			l0.5,0.1l0.3,0l0.5,0.1l0.2,0.4l0.7,0.2l0.3,0.3l0.6-0.5l0.4-0.1l0.4-0.1l0.3,0.1l0.4,0.8l-0.1,0.4l-0.2,0.4l0.1,0.2l0.1,0l0.4,0
			l1-0.4l1.1-0.8l0.8-0.6l0.6-0.4l0.1,0l0.7-0.4l0.5-0.4l0.6-0.5l0.1-0.8l0.3-0.6l0.8-0.8l0.4-0.3l0.6-0.6l0.3-0.4l0.2-0.4l-0.3-0.1
			l-0.5-0.2l-0.4-0.5l0.3-0.5l-0.1-0.1l-0.3,0l0-0.1l0.1-0.2l0.4-0.1l0.4,0.1l0.1,0.2l-0.1,0.3h0.3l0.1,0.1l0,0.2l-0.2,0.1v0.2
			l0.2,0l0.2,0.1l0.2-0.1l0.5-0.5l0.4-0.4h0.3l0.1-0.1l0.1-0.2l-0.1-0.2l0.1-0.2l0.3-0.1l0.3-0.3l0.2-0.3l0.2-0.3l0.3-0.4l0.1-0.5
			l-0.1-0.5l-0.2-0.3l-0.1-0.5l0.2-0.1l0.3,0.2l0.3,0.6l0.2,0.4l1.2,0.1l0.4,0.1l0.5,0.1l0.6,0.1l0.3-0.3l0.1-0.6l-0.2-0.7l-0.2-0.4
			l-0.1-0.3l0.4-0.6l0.2-0.4l0-0.6l-0.1-0.4l0-0.5l0.3-0.2l0.1-0.7l-0.5-0.2v-0.2l0.2-0.3l5.3,2l0-0.4l0-0.2l-0.3,0l-5-1.8l-0.4-0.5
			l0.3-0.9l0.1-0.8l-0.6-1.3l-0.5-0.2l-0.4-0.3l-0.8,0.5l-0.1,0.2l0.2,0.2l0.4,0.1l0.3-0.1l0.4,0.2l-0.1,0.5l-0.3,0.4l-0.7-0.2
			l-0.6,0l-0.5,0.3l-0.3,0.1l-0.1-0.3l-0.5-0.1l-0.1-0.3l0.6-0.3l0.3-0.2l0.2-0.4l-0.1-0.7l0-0.4l0-0.2l-0.5-0.6l-0.4-0.3l-0.3,0
			l-0.4,0.2l-0.2,0.2l-0.3,0l-0.3,0.3l-0.3,0.1l-0.2,0.1l0.5-1l0.7-0.1l0.4-0.1l1.1-0.8l0.5-0.1l0.4,0.2l-0.1,0.4l0.1,0.3l0.2,0
			l0.2-0.5l0.4-0.7l0.3-0.5l0-0.5l-0.2-0.1l-0.1,0l-0.2,0l-2.8-0.5l-1.9-0.6l-0.8-0.4l-0.6-0.4l-0.4-0.5l-0.7-1.4l-0.1-0.5l0.1-0.2
			l0.3-0.7l0.3-0.5l0.7-0.8l0.9-1l0.2-0.4l0-0.3l-0.4-0.3l-0.9-0.8l-1-0.7l-0.2-0.4l0.1-0.8l0.3-0.7l0.4-0.7l0.4-0.4l0.2-0.4
			l0.3-0.3l0.3-0.5l1.5-1.9l0.8,0l0.4,0l0.3,0.4l0.3,0.4l0.1,0.5l0,0.4l0.3,0.2l0.4,0.9l0.1,0.5l0.6,0.2l1.5-0.1l1.1-0.5l0,0
			l0.8-0.7l0.1-1.3l0.2-0.9l0.5-1.2l0.4-1l0.7-0.9l0.6-0.5l0.6-0.8l0.3-0.3l3.2-1.7l1-0.5l1-0.3l0.6-0.1l0.4,0.2l0.1,0.6l0,0.4
			l0.1,0.3l-0.1,0.3v0.4l0.4,0.3l0.2-0.1l0.2-0.2l0.2-0.3l0.6-0.4l0.7,0l0.4,0.2l-0.2,1.1l-0.4,0.9l0,0.7l0.3,1l0.2,1.2l-0.3,2
			l-0.2,1.1l0,1v0.1l-0.3,1.5l-0.2,1.1l-0.5,1.3l-0.3,0.9l-0.6,1.1l-0.6,0.7l-0.6,0.5l-0.3,0.5l0.2,0.2l0.3,0.3l-0.5,0.4l-0.5,0.3
			l-0.7,0.2l-0.3-0.3l-0.1-0.3l-0.5-0.2h0l-0.2,0.1l0,0.3l0,0.4l0.3,0.7l0.3,0.4l0.7,0.3l0.7,0.2l0.5-0.2l0.7-0.1l0.7-0.2l1.4-0.7
			l1.5-0.1l0.9-0.3l1.5-0.6l0.8-0.2l1.3-0.3l2.3-0.8l1.1-0.6l0.6-0.4l0.6-0.2l0.4,0l0.7,0.1l0.3,0.3l0.1,0.3l0.4,0.3l0.4,0.4
			l0.3,0.3l0,0.3l0.2,0.3l0.1,0.2l1.6-0.3l0.2-0.2l0.1-0.3l0.8-0.4l0.5-0.2l0.3,0l0.2,0.2l0,0.2l0,0.2l0.3,0.3l-0.1,0.1h-0.5
			l-0.6,0.3l-0.4,0.5l0.1,0.9l-0.1,0.6l-0.2,0.3l-0.6,0.3l-0.3,0.1l-0.3-0.3l-0.1-0.1l-0.9-0.1l-0.6,0l-0.5-0.2l-0.4-0.3l-0.4-0.3
			l-0.4-0.2l-0.9,0.1l-0.2,0.1l-0.4,0.5L823,551l-0.2,0.4l-0.2,0.5l-0.2,0.4l-0.4,0.4l-0.7,0.4l-0.7,0.4l-0.4,0.1l-0.6,0.2l-0.7-0.1
			l-0.7,0l-0.6,0.2l-0.4,0.2l-0.3,0.3l-0.7,0.8l-0.3,0.3l-0.2,0.3l-0.2,0.3l-0.2,0.5l-0.1,0.2l-0.2,0.2l-0.3,0.3l-0.6,0.5l-0.4,0.5
			l-0.4,0.6l-0.3,0.3l-0.4,0.3l-0.4,0.3l-0.5,0.4L811,561l-0.5,0.7l0.1,0.4l0,0.3l0,0.5l0.1,0.4l1.5-0.3l0.8-0.6l1.3-0.9l0.2-0.4
			l0.3-0.4l0.4-0.5l0.5-0.6l0.7-0.7l0.3-0.3l0.6-0.5l0.5-0.3l0.6-0.5l0.6-0.4l0.7-0.4l0.5-0.4l1.2-0.7l0.2-0.1l0.3-0.2l0.6-0.3
			l0.7-0.4l0.7-0.3l0.4-0.2l0.2-0.1l0.4-0.3l1.1-0.5l1-0.5l1.2-0.6l1.3-0.7l1-0.6l1-0.5l1.6-0.8l1.2-0.6l0.6-0.2l0.4-0.2l1.2-0.6
			l1.8-0.8l0.2-0.1l0.7-0.3l0.6-0.3l0.5-0.1l0.5-0.3l0.5-0.3l1.2-0.5l0.8-0.4l0.9-0.5l0.8-0.4l0.9-0.4l1.1-0.6l0.6-0.2l0.6-0.3
			l1-0.6l1.1-0.4l0.5-0.3l0.9-0.4l0.6-0.3l1.8-1l1.9-1l1.6-0.7l1.3-0.5l1.1-0.5l0.9-0.3l1.7-0.4l1.1-0.2l0.6-0.1l1.1-0.1l1.2-0.1
			l1.3-0.1l0.6,0l0.5,0l0.4,0l1.6,0.2l1,0.1l0.5,0.1l0.4-0.1l0.4,0l0.4-0.1l0.3-0.1l0.3-0.1l0.3-0.1l0.3-0.1h0.2l0.1,0l0.3-0.8
			l-0.2-0.4l-0.4-0.6l-0.5-0.8l-0.5-0.8l-0.2-0.3l-0.1-0.1l-0.3-0.4l-0.3-0.3l-0.2-0.2l-0.2-0.2l-0.2-0.1l-0.2-0.1l-0.4-0.1
			l-0.2-0.1l-0.2-0.1l-0.2-0.2l-0.1-0.3l0-0.3l0.1-0.3l0-0.3l-0.1-0.3l-0.1-0.3l-0.3-0.2l-0.4-0.2l-0.6-0.3l-0.3-0.2l-0.5-0.3
			l-0.3-0.4L868,526l0-0.4l0-0.4l0.1-0.4l0.2-0.4l0.3-0.4l0.4-0.5l0.6-0.6l0.6-0.5l1.1-0.8l0.9-0.6l0.8-0.8l0.3-0.3l0.3-0.5l0.3-0.5
			l0.3-0.4l0.3-0.6l0.3-0.6l0.2-0.8l0.1-0.3l0.2-0.6l0.1-0.5l0.1-0.5l0.1-0.5l0.1-0.4l0.1-0.5l0.2-0.4l0.2-0.4l0.2-0.4l0.2-0.4
			l0.2-0.4l0.1-0.3l0.1-0.4l0.1-0.1l0.1-0.2l0.1-0.1l0.1-0.1l0.2-0.1l0.2-0.1l0.2,0l0.2-0.3l0.1-0.2l0.2-0.4l0.2-0.3l0.2-0.2
			l0.1-0.2l0.3-0.2l0.2-0.1l0.3-0.1l0.2-0.1l0.1-0.2l0.1-0.2l0-0.1l0-0.3l0.1-0.3l0.1-0.3l0.1-0.1l0.2-0.3l0.2-0.2l0.2-0.2l0.2-0.2
			l0.2-0.2l0.2-0.2l0.1-0.2l0-0.2l0-0.3l0-0.2l0.1-0.1l0.1,0l0.2,0.1l0.1,0.2l0.1,0.3l0.2,0.2l0.2,0l0.2,0l0.1-0.1l0.1-0.2l0-0.1
			l-0.2-0.4l-0.2-0.1l-0.2,0l-0.3,0l-0.2,0l-0.2-0.1l-0.3-0.3l-0.5-0.4l-0.1-0.1l-0.2-0.2l-0.2-0.2l0-0.3l0.1-0.1l0.2,0l0.1,0.1
			l0.1,0.1l0.1,0.1l0.2,0l0.1-0.1l0-0.1l0-0.2l0-0.2l0.1-0.2l0.1-0.1l0.2-0.1l0.1-0.1l0.1-0.3l0.1-0.2l0-0.2l0.1-0.1l0.1-0.1l0.1,0
			l0.2,0l0.2,0l0.1-0.1l0.1-0.1l0-0.1l0-0.1l-0.1-0.1l-0.1-0.1l-0.1-0.1l0-0.1l0.1-0.1l0.2-0.1l0.1,0l0.1-0.1l0-0.1l0-0.3l0-0.2
			l0-0.2l0-0.2l0.1-0.1l0.1-0.1l0.1,0l0.1,0.1l0.1,0.1l0.2,0l0.1-0.1l0.1-0.2l0-0.1l-0.1-0.1l-0.2-0.1l-0.1-0.2l0-0.1l-0.1-0.1
			l-0.1-0.2l-0.2-0.1l-0.1,0.1l-0.2,0.1l-0.1,0.1l-0.1,0.2l-0.2,0l0-0.1l0-0.1l0.1-0.1l0-0.2v-0.3l0.1-0.2l0.1-0.1l0.1-0.2l0-0.3
			l0-0.2l0-0.2l0-0.1l-0.1-0.1l-0.1-0.1l-0.1-0.1l-0.1,0l-0.1-0.2l0-0.1l0-0.4l-0.1-0.3l-0.1-0.2l-0.1-0.2l0-0.2l-0.1-0.2L881,493
			l-0.1-0.2l-0.1-0.3l0-0.1l0.1-0.2l-0.1-0.2l0-0.2l0.1-0.1l0.1,0l0.1-0.1l0.1-0.3l0-0.2l0-0.1l0-0.2l-0.1-0.1l0-0.3l0.1-0.1l0.1,0
			l0.1,0l0.1,0l0.1,0l0-0.1l0-0.1l-0.1-0.2l0-0.1l0-0.1l0.1-0.1l0-0.1l-0.1-0.1l-0.1-0.1l0-0.2v-0.2l0-0.2l0.1-0.1l0.1-0.2l0-0.2
			l-0.1-0.1l-0.1-0.1l0-0.2l0-0.1l-0.1-0.2l-0.1-0.1l0-0.1l0.1-0.1l0.2-0.1l0-0.1l0-0.2l-0.1-0.2l-0.1-0.3l0-0.1l-0.1-0.1l-0.1-0.1
			l-0.2-0.1l-0.1-0.1l-0.3-0.1l-0.2-0.1l0,0l-0.2-0.1l-0.2-0.1l-0.2,0l-0.2,0l-0.2-0.1l-0.2-0.1l-0.2-0.1l-0.1-0.1l-0.1-0.1l0-0.1
			l0-0.2l-0.1-0.1l-0.1-0.1l-0.1-0.1l-0.1-0.2v-0.1l-0.1-0.2l-0.1-0.1l-0.1-0.1l-0.1-0.1l0-0.1l0-0.2l0-0.1l-0.1-0.1l0-0.1l-0.1-0.1
			h-0.2l-0.2,0.1l-0.1,0l0-0.1l0-0.1l0-0.2l0-0.1l0-0.2l-0.1-0.1l0-0.1l0-0.2l0-0.2l0-0.1l0-0.1l0.1-0.2l0.1-0.1l0-0.1l0-0.1l0-0.1
			l0.1-0.1l0.1,0l0.1,0l0.1-0.1v-0.1l-0.1-0.2l-0.1-0.1l-0.1-0.1l0-0.1l0.1-0.1l0.1-0.1l0-0.2l0-0.3l-0.1-0.1l-0.1-0.1l0-0.1
			l0.1-0.1l-0.1-0.1l-0.1-0.1l0-0.1l0.1-0.1l0.2-0.1l0.1-0.1l0-0.1l0.1-0.1l0.1-0.1l0.2-0.1l0.1-0.1l0.1-0.2l0.1-0.2v-0.2l0-0.1
			l0-0.1l0.1,0l0.1,0l0.1-0.1l0-0.1l0-0.1l0-0.1l0.1,0l0.1,0l0.2,0l0.1-0.2l0.1-0.2l0.1-0.1l0-0.1l-0.1-0.1l-0.1-0.1v-0.4l0.1,0
			l0.1,0l0.1,0.1l0.1,0.1l0,0.1l0,0.1l0.1,0.1l0.1,0l0.1-0.1l0.2-0.3l0.1-0.1l0-0.1l0-0.1l0.1,0l0.1,0.1l0.2,0.1l0.1,0l0.1-0.1
			l0-0.1l0-0.1l0-0.2v-0.1l0.2-0.2l0.1-0.2V474l-0.1-0.1l-0.1-0.1H881l-0.1-0.1l0-0.1l0-0.1l0-0.2l-0.1-0.1l-0.1-0.2v-0.1l0-0.1
			l0.2-0.1l0.1,0l0-0.1l0-0.1l-0.1-0.1l-0.1,0l0-0.1l0.1-0.1l-0.1-0.1l-0.1-0.1l-0.1,0l-0.2-0.1l-0.2-0.3v-0.1l0-0.2l-0.1-0.1
			l-0.1-0.1l-0.1-0.1l0-0.1l0.1-0.1l0.1-0.1l0.1-0.1l0-0.1l-0.1-0.1l-0.2-0.2l-0.1-0.2v-0.1l0.1-0.2l0.1-0.1l0.1-0.1l0.1-0.1l0-0.1
			l-0.2-0.1l-0.1,0l-0.1-0.1l0-0.1l0.1-0.1l0.2-0.1l0.2-0.1l0.1-0.1l0-0.2l-0.1-0.1l-0.1-0.1l-0.1-0.1l-0.1-0.2l0,0l0-0.2l0-0.2
			l-0.1-0.1l-0.1,0.1l-0.1,0.1l-0.1,0l-0.1-0.1l-0.2-0.2l-0.1-0.1l-0.2,0l-0.1,0l-0.2-0.1l-0.2-0.1l-0.1-0.2l-0.1-0.2l-0.1-0.2
			l-0.1-0.1l-0.1,0l-0.1-0.1l0-0.1l0.1-0.1l0.2-0.1l0.1,0l0.1-0.1l0-0.1v-0.2l0-0.3l0.1-0.2l0.1-0.2l0.1-0.1l0-0.1l0-0.1l0-0.1
			l-0.1-0.2l-0.1-0.3l0-0.3l0-0.2l0.1-0.2l0.1-0.1l0.1-0.1l0.1,0l0.2,0l0.1-0.1l0-0.2l0.1-0.2l0-0.2l0-0.1l0.1,0l0.2,0l0.1,0l0.1,0
			l0.1,0.1l0.1,0.1l0.1,0l0,0l0-0.1l0-0.2l0-0.1l0.1-0.2l0.1,0l0.1,0l0.1,0.1l0.1,0.1l0,0.1l0,0.1l0,0.1l0,0.2l0.1,0.1l0.2-0.1
			l0.1-0.1l0.1-0.1l0-0.2l0.1-0.2l0.1-0.1l0.1,0l0-0.1l0-0.1l-0.1-0.3l-0.1-0.2l-0.1-0.2l-0.1-0.1l-0.1-0.1l-0.1-0.2l0-0.2l0-0.1
			l0.1-0.2l0.1-0.1l0-0.2l0-0.2l-0.2-0.2l-0.2-0.1l-0.2-0.1l-0.1-0.1l0.1-0.1l0.1,0l0.1-0.1l0.1-0.1l0.1-0.2l0-0.1l0-0.2l0.1-0.1
			l0.1-0.2l0.1-0.1l0.1-0.1l0.1-0.2l0.1-0.2l0-0.2l0.2-0.3l0.1-0.2l0.1-0.1l0.1-0.1l0.2-0.1l0.1,0l0.1-0.1l0-0.2l0-0.1l0.1-0.1
			l0.1,0l0.1,0l0.1,0l0.1,0l0.2,0l0.1-0.1l0-0.1l0.1-0.1l0.2-0.1l0.1-0.1l0.1-0.1l0.2-0.1l0.2-0.1l0-0.2l0.1-0.3l0.1-0.2l0.2-0.3
			l0.1-0.3v-0.3l-0.1-0.2l0-0.2l0-0.1l0-0.1l0.1-0.1l0.1-0.1l0.1-0.1l0.1-0.2l0.1-0.2l0-0.2l0.1-0.2l0-0.1l-0.1-0.2l-0.1-0.2
			l-0.1-0.2l0.1-0.1l0.1-0.1h0.2v-0.1l-0.1-0.1l-0.2-0.2l-0.1-0.1l-0.1-0.1l-0.1-0.1l0-0.2l0-0.2l0.1-0.2l0.1-0.1l0.2,0l0.1,0l0-0.1
			l-0.1-0.1l-0.1-0.1l-0.1-0.2l0-0.2l0-0.1l0.1,0l0.1,0l0.2,0l0.1-0.1l0-0.1v-0.1l0.1-0.1l0.2,0l0.1,0l0.2,0l0.1,0l0.1-0.1l0-0.1
			l0-0.3l0-0.2l0.1-0.2l0.1-0.1l0.1-0.1l0.1-0.1l0.1-0.1l0-0.1l-0.1-0.1l-0.1-0.1l-0.1-0.2l0-0.2l0-0.1l0.1-0.1l0.1-0.1l0.1,0l0-0.2
			l0-0.1l-0.1-0.1l0-0.1l0.1-0.2l0.1-0.2l0.1-0.1l0.1,0l0.1,0l0.2,0.1h0.2l0.2-0.1l0.2-0.1l0.2-0.1l0.1-0.2l0-0.2l0-0.3l0-0.3
			l0.1-0.2l0.1-0.2l0.1-0.2l0.1-0.3l0-0.3l0-0.2l-0.1-0.2l-0.1-0.2L889,442l-0.2-0.1l-0.1-0.1l-0.1-0.1l0-0.1l0.1-0.1l0.1-0.2
			l0.1-0.1l0.1-0.1l0.1-0.1l0-0.1l0-0.1l0-0.1l-0.1-0.2l-0.1-0.1l0-0.2l0.1-0.2l0.1-0.2v-0.2l0-0.1l-0.1,0l-0.1,0l-0.1,0l-0.1-0.1
			v-0.1l0-0.1l-0.1,0l-0.1,0l-0.1-0.1l-0.1-0.2v-0.3l0-0.2l0.1-0.2l0.1-0.2l0.1-0.2l0.1,0l0.2-0.1l0.2-0.1l0.1-0.1l0.3,0l0.2-0.1
			v-0.1l-0.1-0.1l-0.1-0.1l-0.1-0.1l0-0.2v-0.1l-0.1-0.1l-0.1-0.1l-0.1-0.1l-0.1-0.1l0-0.1l0.1-0.1l0.1-0.1l0.1-0.1l0.1-0.2l0.2-0.2
			l0.1-0.1l0.1-0.1l0.1,0l0.1,0.1l0.1,0.1l0.1,0.1l0.1,0l0.2-0.1l0.3-0.1l0.1-0.1l0.1-0.2l0-0.1l0-0.2l0-0.1l0-0.2l0-0.2l0-0.2
			l-0.1-0.1l0-0.1l-0.1-0.1l-0.2-0.2l-0.1-0.3l0-0.2l0-0.2l-0.1-0.1l-0.2-0.1l-0.2,0l-0.2,0l-0.2,0l-0.1-0.2l-0.1-0.1l-0.1-0.2
			l-0.2-0.1l-0.2-0.1l-0.3-0.1l-0.3,0l-0.1,0l-0.2,0l-0.3,0l-0.1,0l-0.1-0.1l0-0.1l0.1-0.2l0.1-0.1l0.1-0.2l0.1-0.2l0-0.2l0-0.3
			l0-0.1l-0.1-0.1l-0.1-0.1l-0.2,0l-0.3-0.1l-0.2-0.2l-0.1-0.2l0.1-0.3l0.1-0.4l0.1-0.2l0.1-0.2l0.1-0.2l0.1,0h0.1l0.1,0l0.2,0.2
			l0.1,0.1l0.2,0.1l0.2,0l0.1,0l0.1-0.1l0.1-0.1l0.1-0.1l0.2,0h0.2l0.2,0l0.2-0.1l0.1-0.1l0.2-0.3l0.1-0.2l0.1-0.1l0.1-0.1l0.1,0
			l0.2-0.1l0.2,0l0.1-0.1l0.2-0.1l0.1-0.1l0.1-0.1l0.2-0.1l0.1-0.2l0-0.1l-0.1-0.1l-0.2-0.1l-0.2,0l-0.2,0l-0.2-0.1l-0.2-0.1
			l-0.1-0.2v-0.1l0.1-0.1l0-0.1l0-0.1l-0.2-0.1l-0.2-0.1l-0.2-0.1l-0.1-0.2l-0.1-0.1l0.1-0.1l0.1,0l0.2,0l0.2,0l0.1-0.1l0.1-0.1
			l0-0.2l0-0.1l-0.1-0.2l-0.1-0.1l-0.3-0.1l-0.1-0.1l-0.1-0.1l0-0.2l0-0.1l-0.1-0.1l-0.1-0.1l-0.3-0.1l-0.4,0l-0.3,0l-0.2-0.1
			l-0.1-0.2l0-0.2l0.1-0.2l0.1-0.2l0-0.2l-0.1-0.1l-0.1,0l-0.1,0.1l-0.1,0.1l0,0.1l-0.1,0.1l-0.2,0l-0.1-0.1l-0.1-0.1l-0.2-0.1
			l-0.1-0.2v-0.1l0.1-0.1l0.1,0l0.1,0l0.1,0l0-0.1l0-0.2l0.1-0.1h0.1l0.2,0l0.1-0.1l0-0.1l0-0.2l0-0.1l0.1-0.1l0.1-0.2l0.1-0.2
			l0.1-0.3l0.1-0.2l0-0.3l-0.1-0.3l-0.2-0.5l-0.2-0.4l-0.2-0.7l-0.1-0.3l-0.1-0.2l0-0.1l0.1-0.1l0.1-0.1l0.2,0l0.2-0.1l0.1-0.1
			l0-0.2l0-0.2l-0.1-0.1L889,416l-0.2-0.2l0-0.1l0,0l0.1-0.1h0.1l0.3-0.1l0.1-0.1l0-0.1V415l0-0.2l-0.1-0.2l-0.1,0l-0.2,0l-0.1,0
			l-0.1,0.1l-0.2,0l-0.2-0.1l-0.2-0.1h-0.2l-0.1,0l-0.2,0.1l-0.2,0.1l-0.2,0.1l-0.2,0.2l-0.1,0.1l-0.4,0.5l-0.3,0.3l-0.2,0.1
			l-0.1,0.1l-0.1,0l-0.2,0l-0.3-0.1l-0.3-0.2l-0.2-0.3l-0.2-0.2l0-0.1l-0.1-0.3l0-0.6l0-0.3v-0.2l0-0.2l-0.1-0.2l-0.1-0.1l-0.1-0.2
			l0-0.2l0-0.3l0-0.2l0.1-0.1l0.1-0.1l0.1-0.1l0.1-0.1l0.1-0.1l0-0.1l0-0.1l-0.1-0.1l0-0.1l0-0.1v-0.1l-0.1-0.1l-0.1,0l-0.2,0.1
			l-0.1,0.1l-0.1,0l-0.2-0.1l-0.2-0.1l-0.1-0.1l-0.1-0.1l-0.1-0.1l0-0.4l0-0.3v-0.1l-0.1-0.2l-0.1-0.1l-0.1-0.1l-0.1-0.1l0-0.2
			l0.1-0.1l0.1,0l0.1-0.2l0-0.1l0-0.2l0-0.1l-0.1-0.2l-0.1-0.1l-0.1-0.1l-0.1-0.1l0-0.1l-0.1-0.2l-0.1,0l-0.2,0l-0.4,0.1l-0.2,0
			l-0.2,0l-0.2,0l-0.2-0.1l-0.1-0.2l0-0.2l-0.1-0.2l-0.1-0.2l-0.2-0.1l-0.2,0l-0.2,0h-0.2l-0.2-0.1l-0.2-0.2l-0.1-0.2l-0.1-0.3
			l-0.1-0.1l-0.1-0.1l-0.1-0.1l-0.2-0.1l-0.1,0l-0.2,0l-0.2,0l-0.2,0l-0.2-0.1l-0.1-0.1l-0.1-0.1l0-0.2l0-0.1l0.1-0.2l0.1-0.1
			l0.1-0.2l0-0.1l0-0.1l0.1-0.1l0.2-0.1h0.2l0.1-0.1l0-0.2l-0.1-0.2l-0.1-0.1l-0.1-0.1l0-0.1l0.1-0.1l0.1-0.1l0.1-0.1l0.1-0.1
			l0.1-0.1l0-0.2l0-0.1l0-0.3v-0.1l0-0.1l0.1-0.2l0-0.1l0.1-0.1l0.2-0.1l0.2-0.1l0.2-0.1l0.2-0.1l0.2-0.1l0.2-0.2l0.1-0.1l0.1-0.2
			l0.1-0.2l0.1-0.1l0-0.2l-0.1-0.1l-0.1-0.1l-0.2,0l-0.2,0.1l-0.1,0.1l-0.2,0.1l-0.2,0.1l-0.1,0.1l-0.3,0.1l-0.2,0.1l-0.2,0
			l-0.2-0.1l-0.1-0.1l0-0.1l0-0.2l0.1-0.1l0.1-0.1l0-0.2v-0.1l0-0.2l-0.1-0.3l-0.1-0.4l0-0.2l0-0.2l-0.1-0.2l-0.1-0.1l-0.2,0l-0.2,0
			l-0.1-0.1l-0.1-0.1l-0.1-0.1l-0.1-0.1l-0.1-0.1l-0.2,0l-0.1,0l-0.2,0l-0.2-0.1l-0.2-0.1l-0.1-0.2l-0.1-0.3l-0.1-0.2l0.1-0.3l0-0.3
			l0-0.1l0.1-0.3l0.2-0.2l0.1-0.2l0.1-0.2l0-0.1l-0.1-0.1l-0.2,0h-0.4l-0.2,0h-0.1l-0.1,0l0-0.1v-0.1l0.1-0.1l0.1-0.1l0.2-0.2
			l0.1-0.2l0-0.2l-0.1-0.1l-0.1,0l-0.1,0l-0.1,0.2l-0.1,0.1l-0.1,0l-0.1,0l-0.1-0.1l-0.2-0.1l-0.1,0h-0.1l-0.2,0.1l-0.1,0l-0.2,0
			l-0.2-0.1l-0.6-0.4l-0.2-0.2l-0.2-0.1l-0.2-0.1l-0.1-0.1h-0.1l-0.1-0.2v-0.2l0-0.1l0-0.1l0.1-0.2l0.1-0.1l0-0.1l-0.1-0.1h-0.1
			l-0.2,0l-0.1-0.1l0-0.1l0.1-0.1l0.1,0h0.1l0.1,0l0.1,0l0.2,0l0.1-0.1l0-0.1l0-0.1v-0.1h0.1l0.1,0l0.1,0l0.1,0l0.3-0.3l0.1-0.1
			l0.1-0.1l0-0.2l-0.1-0.1v-0.1l0.1-0.1l0.2-0.1l0.2,0l0.1-0.1l0-0.1l-0.1-0.1l-0.1-0.1l0-0.1l0.1-0.1l0.2,0l0.1-0.1l0-0.1l-0.1-0.1
			l0-0.1l-0.3-0.1l-0.4,0.1l-0.6,0.1l-0.3,0l-0.2,0l-0.1-0.1l-0.1-0.1l0.1-0.3v-0.1l-0.1-0.1l-0.1-0.2l-0.1,0l-0.1-0.1l-0.1-0.1
			l-0.1-0.1l-0.1,0l-0.1,0.1l-0.1,0.1l-0.1,0.2l-0.2,0.1l-0.2,0l-0.3,0l-0.2,0l-0.3-0.1l-0.2-0.1l-0.2,0l-0.1,0l-0.2,0l-0.2-0.1
			l-0.3-0.3l-0.3-0.2l-0.2-0.2l-0.1-0.2l-0.1-0.1l-0.2-0.1l-0.2-0.1l-0.2-0.1l0-0.1l0-0.1l-0.1-0.1l-0.2-0.1l-0.1-0.1l-0.2-0.1
			l-0.1-0.1l0-0.1l-0.1-0.2l-0.1-0.1l-0.1-0.2l-0.1-0.2l0.1-0.2l0.1-0.1l0-0.1l-0.1-0.1l-0.1-0.1l-0.2-0.1l-0.2-0.1l-0.3-0.2
			l-0.2-0.2l-0.1-0.3l-0.1-0.4l-0.1-0.4l-0.1-0.4l0-0.2l0-0.2l0-0.1l0.1-0.1l0.1-0.1l0.1-0.1l0-0.2l0.1-0.1l0.2,0l0.2,0.1h0.2
			l0.1-0.1l0-0.1l0-0.1l-0.1-0.1v-0.1l0.1-0.1l0.1-0.1v-0.1l0-0.1l-0.1-0.1l0-0.1l0-0.3l0-0.3l0-0.2l0-0.2l-0.1-0.2l0-0.2l0-0.1
			l0.1,0h0.1l0.1,0l0.1-0.1l-0.1-0.2l-0.2-0.1l-0.2,0l-0.2-0.1l0-0.1l-0.2-0.2l-0.1-0.1l-0.1-0.2l-0.1-0.3l0.1-0.1l0.1-0.2v-0.1
			l0-0.2l0.1-0.1h0.1l0.1,0l0.1,0.1l0.1,0.1h0.1l0-0.1l0-0.1l0-0.2l0.1-0.2l0.1-0.2l0.1-0.1l0.2-0.3l0-0.1l0-0.2l0.2-0.2l0.1-0.2
			l0.1-0.2l0.1-0.3l0.1-0.2l0.1-0.2l0-0.1l0-0.1l-0.1,0h-0.2l-0.2,0.1l-0.2,0.1l-0.1,0l-0.2-0.1l-0.2-0.1l-0.1-0.1l0-0.2l0.1-0.3
			l0.1-0.2v-0.2l-0.1-0.4l0-0.3l-0.1-0.2l-0.1-0.1l-0.2-0.1l-0.3-0.2l-0.2-0.2l-0.2-0.2l-0.1-0.1l-0.1-0.2l-0.1-0.1l-0.1-0.1
			l-0.2-0.3l0-0.2l0.1-0.1l0.1-0.1l0.1-0.2l0.1-0.1l0.1-0.2l0.1-0.3l0.2-0.4l0.1-0.3l0-0.1l-0.1-0.1l-0.2,0l-0.2,0l-0.1,0l-0.1-0.1
			l0-0.1l0-0.1l-0.1-0.1l-0.1,0l-0.1-0.1v-0.1l0.1,0l0.1-0.1l0-0.1l-0.1-0.1l0-0.2l0-0.3l0-0.2l-0.1-0.1l-0.1-0.1L866,367l-0.2-0.1
			h-0.1l-0.1,0h-0.1l-0.1-0.1l-0.1-0.1l-0.1-0.1l-0.1-0.1l-0.2-0.1l-0.1-0.1l-0.1-0.1l-0.1-0.1l-0.1-0.2l-0.2,0l-0.1,0L864,366
			l-0.1-0.1l0-0.1l0-0.1l0-0.2l-0.1-0.1l-0.1-0.1l-0.1-0.2l0-0.3l0-0.3l0.1-0.2l0-0.1l0-0.2l-0.1-0.2l-0.1-0.1l-0.1-0.1l0,0
			l-0.2-0.2l0-0.2l0-0.1l0-0.1l-0.1-0.1l-0.1-0.1l-0.1-0.1l-0.1-0.1l0.1-0.1l0.2-0.2l0.1-0.2l0-0.1l-0.1-0.2l-0.2-0.1l-0.1,0
			l-0.1,0.1h-0.1l-0.1,0l0-0.1l0-0.1l0,0l0-0.1l-0.2-0.1l-0.1,0l-0.1,0.1l-0.1,0l-0.1-0.1l0-0.1l0-0.2l0.1-0.2l0.1-0.1l0.1-0.2
			l0-0.1l0-0.2l-0.1-0.2l-0.1-0.1l-0.1,0l-0.1,0l-0.1,0.1l-0.1,0.1l-0.1,0l-0.1,0l-0.4-0.2l-0.1,0.1l-0.1,0.2l-0.1,0.1l-0.1,0.2
			l-0.1,0.1h-0.2l-0.1-0.1l-0.1-0.2l0-0.1l-0.2-0.1l-0.1,0l0-0.1l0-0.1l0.1-0.1l0.1-0.1l0.2-0.2l0.1-0.2l0-0.2l-0.1-0.2l-0.2-0.1
			l-0.2-0.1l-0.2,0l-0.2,0l-0.1,0l-0.3,0.1l-0.3,0.1l-0.2,0l-0.2-0.1l-0.1-0.1l-0.1-0.1l-0.1-0.2l-0.1-0.2l-0.1-0.2l-0.1-0.1l-0.1,0
			l-0.1,0l-0.1,0h-0.3l0,0l-0.2-0.1l-0.1-0.1l-0.2-0.2l-0.1-0.3l0-0.1l0-0.1l-0.1-0.2l-0.1-0.1l-0.1-0.1l-0.1-0.1l0-0.2l0-0.2
			l-0.1-0.2l-0.2-0.3l-0.2-0.3l-0.3-0.3l-0.3-0.3l-0.1-0.1l-0.1-0.3L854,354l-0.2-0.3l-0.2-0.1l-0.1-0.1l-0.1-0.1l-0.1,0l-0.1-0.2
			l-0.1-0.3l0-0.2l-0.1-0.2l-0.1-0.2l-0.1-0.1l-0.2-0.2l-0.3,0l-0.2,0l-0.2,0.1h-0.3l-0.3-3.4l-0.7-12.3l0-0.4l-0.6-11.6l-0.2-3.7
			l-0.4-8.3l-0.6-12.1l-0.1-1.7l-0.1-1.8l-0.1-1.2l-0.4-7.3l-0.3-6.3l-0.3-5.8l-0.3-5.4l-0.3-6.9l-0.6-12.1l0-0.8l-0.6-11.4
			l-0.5-10.8l-0.4,0.1h-0.5l-0.5,0.1l-0.2,0l-0.2-0.1l-0.2-0.1l-0.1-0.2l0-0.1l0.1-0.1l0.2-0.1l0.3,0h0.2l0.1-0.1l0.2-0.1l0.1-0.2
			l0-0.1l-0.1-0.1l-0.4-0.2l-0.2-0.1l-0.2-0.2l-0.2-0.1l-0.3,0l-0.3,0l-0.3,0l-0.4,0l-0.3,0.1l-0.2,0.1l-0.2,0.2l-0.3,0.1l-0.3,0.1
			l-0.1,0l-0.2,0l-0.2,0l-0.2,0.2l-0.1,0.2l0,0.2l0,0.3l0,0.2l-0.1,0.1l-0.1,0l-0.1,0l-0.2-0.1l-0.1-0.2l-0.1-0.2l0-0.3l-0.1-0.2
			l-0.1-0.1l-0.2-0.1l-0.2,0l-0.1,0.1l-0.1,0.2l-0.1,0.1l-0.1,0l-0.1-0.1l-0.1-0.1l-0.1-0.1l0-0.1l0.1-0.2l0.2-0.1l0.1-0.2l0.1-0.2
			l-0.2-0.2l-0.2,0l-0.1,0.1l-0.3,0.3l-0.2,0l-0.1-0.1l0-0.3v-0.2l-0.1-0.2l-0.3-0.2l-0.3-0.1l-0.2,0l-0.3,0l-0.4,0l-0.4,0.1
			l-0.4,0.3l-0.1,0.1L835,227l-0.2,0.1l-0.2,0l-0.2-0.1l-0.3-0.1h-0.2l-0.2,0.1l-0.1,0.2l0,0.2l0,0.1l0.2,0.2l0.2,0.1l0.1,0l0.2-0.1
			l0.2-0.1l0.1,0l0.1,0l0.2,0.1l0.2,0.1l0.1,0.1l0.2,0.2l0.1,0.2l0.1,0.3l0,0.2l-0.1,0.1l-0.2,0.1l-0.2,0l-0.2-0.2l-0.1-0.1
			l-0.1-0.1l-0.1-0.2l-0.2-0.1l-0.2,0l-0.1,0l-0.2,0.2l-0.1,0.2l-0.2,0.4l-0.3,0.2l-0.3,0.1l-0.4,0.1l-0.5-0.1l-0.3,0l-0.3-0.1
			l-0.2-0.2l-0.1-0.2l0-0.2l0.2-0.3l0.2-0.3l0.2-0.3l0.2-0.3l0.2-0.3l0.1-0.4l0-0.3l-0.1-0.1l-0.3-0.1l-0.1,0l-0.3,0.1l-0.5,0.3
			l-0.3,0.2l-0.2,0.3l-0.3,0.5l-0.1,0.4l-0.2,0.4l-0.2,0.3l0,0.1l-0.4,0.2l-0.3,0.1l-0.3,0l-0.2-0.1l-0.1-0.2l0-0.3l0.1-0.2l0.1-0.2
			l0.2-0.2l0.2-0.1l0.2-0.2l0.1-0.2l-0.1-0.2l-0.3-0.2l-0.3,0.1l-0.3,0.2l-0.3,0.3l-0.3,0.4l-0.1,0.2l-0.1,0.2l0,0.3l0,0.3l-0.1,0.2
			l-0.1,0.2l-0.1,0.2l-0.2,0.1L827,230l-0.2,0l-0.2,0l-0.2-0.1l-0.1-0.1l-0.2-0.2l-0.1-0.2l-0.1-0.3l-0.2-0.2l-0.3-0.1l-0.2,0
			l-0.1,0l-0.2,0.2l-0.2,0.2l-0.1,0.1l0,0.2l0,0.1l0.1,0.2l0,0.2l0.1,0.2l-0.1,0.2l-0.1,0.1l-0.1,0.1l-0.2,0l-0.2,0l-0.2,0l-0.3,0.1
			l-0.3,0.1l-0.4,0.1l-0.4-0.1l-0.2-0.1l-0.2-0.2l-0.3-0.2l-0.3-0.2l-0.2-0.1l-0.1-0.2l0-0.2l0-0.1l0.1-0.1l0.2-0.1l0.2-0.1l0.2-0.1
			l0.3-0.1l0.3-0.1l0.1-0.1l0.1-0.1l0.1-0.3l0-0.3l0-0.2l-0.1-0.2l-0.1-0.1h-0.1l-0.2,0.1l-0.2,0.3l-0.4,0.5l-0.3,0.3l-0.3,0.1
			l-0.2,0.1l-0.2-0.1l-0.2-0.1l-0.2-0.3l0,0l-0.1-0.3l-0.4-0.5l-0.2-0.3l-0.2-0.1l-0.4-0.1l-0.1,0h-0.2l-0.2,0.1l-0.2,0.2l-0.2,0
			l-0.2-0.1l-0.2-0.1l-0.1-0.1l-0.2-0.1l-0.2,0.1l-0.3,0l-0.2-0.1l-0.1-0.2l-0.1-0.3l0.1-0.2l0.1-0.2l0.2-0.2l0.2-0.2l0.3-0.1
			l0.2-0.2l0.1-0.2l-0.1-0.2l-0.2-0.1l-0.1-0.1l-0.1-0.2l-0.1-0.1l0-0.2l0.1-0.2l0.1-0.1l0.2-0.1l0.2,0l0.1-0.1l0.1-0.1l0-0.2
			L818,223l-0.2-0.2l-0.2-0.1l-0.2,0h-0.1l-0.2,0.1l-0.1,0.2l-0.2,0.2l-0.3,0.1l-0.3,0h-0.3l-0.5-0.1l-0.1,0.8l0,0.2l-0.1,0.1
			l-0.3,0.2l-0.3,0.2l-1.4,0.5l-0.4,0.1l-0.3-0.1l-0.3-0.4l0.1-0.5l0.2-0.2l0.3-0.2l0.4-0.3l0-0.4l-0.6-0.1l-0.4,0.1l-0.3,0.2
			l-0.2,0.3l-0.3,0.3l-0.4,0.3l-0.6,0.1l-0.5-0.1l-0.1-0.2l0-0.6l0.4-0.2l0.5-0.1l0.4-0.2l0.3-0.4l0.1-0.4l-0.1-0.5l-0.2,0l-0.3,0
			l-0.4,0.2l-0.6,0.5l-0.3,0.4l-0.4,0.3l-0.6,0v-0.1l0.1-0.5l0.4-0.3l0.3-0.5l-0.3-1.2l-0.6-0.6l-0.3,0.1l0.1,0.3l0.1,0.2l0,0.2
			l-0.1,0.7l-0.2,0.2l-0.4,0.2l-0.4-0.1l-0.4-0.4L807,221l-0.2-0.3l-0.4-0.2l-0.5,0l-0.1,0.1l-0.1,0.4l-0.1,0.3l-0.1,0.4l-0.3,0.3
			l-1,0.3l-0.3,0l-0.4-0.1l-0.3-0.3l0-0.3l0.1-0.2l0.3-0.3l0.4,0.1l0.5,0.3l0.4-0.3l0.4-1.9L805,219l-0.2,0l-1.5,0.8l-0.4,0.2
			l-0.7,0.4l-1.4-0.1l-0.3-0.2l0-0.2l0.2-0.3l0.4-0.1l0.2-0.3l-0.2-0.3l-1-0.6l-0.7-0.3l-0.4,0l0.1,0.5l0.7,0.4l0.3,0.1l0,0.4
			l-0.1,0.3l-0.3,0.3h-0.5l-0.3,0l-0.2-0.7l-0.5-0.3l-0.5,0l-0.2-0.1l-0.1-0.3l-0.1-0.4l0.8-0.7l-0.3-0.7l-0.4,0.2l-0.3,0.3
			l-0.4,0.1v0l-0.4-0.1l-0.9-0.3l0.2-0.6l0.4-0.2l0.4-0.1l0.8-0.3l0-0.5l-0.1-0.5l-0.5-0.3l-0.3,0l-0.3,0.2l-0.3,0.3l-0.3,0.2
			l-0.3,0.6l-0.1,0.2l-0.4,0.3l-0.3,0.1l-0.1-0.1l-0.2-0.1l-0.1-0.1l0-0.2l0-0.5l-0.7-1.2l-0.4-0.3l-0.3,0l-0.2,0.6l0,0.8l0.2,0.3
			l0.1,0.2v0.2l-0.1,0.1l-0.1,0l-1.3,0.1l-1.1-0.3l-0.2-0.2l-0.4-0.5l0.1-0.2l-0.1-0.5l-0.7-0.4l-1-0.5l-0.3-0.1l-0.3-0.2l-0.5-0.7
			l-0.3-0.6l0.2-0.7l0.1-0.2l0.2-0.4l0.2-0.7l-0.1-0.3l-0.1-0.2l-0.3-0.3l-0.2-0.1l-0.3,0l0.1,0.8l-0.1,0.5l0,0.2l-0.6,0.4l-0.4,0.1
			l-0.4-0.1l-0.3-0.3l-0.1-0.4l-0.7-1.5l-0.1-0.2l0-0.3l-0.2-1.4l-0.2-0.2l-0.3,0l-0.4,0.6l-0.9-0.1l0,0l-0.1-0.2l-0.2-0.2l-0.2-0.2
			l-0.4-0.1l-0.2,0.1l-0.3,0.3l-0.6,0.2l-0.5-0.1l-0.4-0.5l-1-0.6l-0.4-0.3l0-0.4l0.1-0.7l0-0.1l0-0.3l-0.1-0.2l-0.1-0.1l0-0.1
			l0-0.1l-0.3,0l0,0l-0.4-0.1l-0.3-0.2l0,0.2l0,0.1l0.1,0.3l0.3,0.5l-0.2,0.7l-0.4,0.1l-0.2-0.1l-1-0.4l-0.2-0.6l0.1,0l0.3-0.3
			l0.4-0.3l0.5-0.4l0-0.3l-0.1-0.3l-0.1-0.2l-0.3-0.1l-0.4,0.1l-0.3,0.2l-0.3,0.4l-0.9,0.6l-0.7,0l-0.1-0.1l0.1-0.4l0.3-0.9
			l-0.1-0.4l-0.3-0.4l-0.6-0.2l-0.8,0l-0.6,0h0l-0.4,0l-0.3-0.1l-0.3-0.2l-0.3-0.3l-0.4-0.3l-0.8-0.3l-1.2-0.4l-0.7-0.2l-0.4,0
			l-0.3,0.1l-0.1,0.2l0,0.3l-0.3,0.5l-0.2,0.2l-0.3,0.3l-0.2,0.2l-0.1,0.3l-0.1,0.3l0,0.3l0.1,0.4l0.1,0.3l0.1,0.4l0,0.5l-0.1,0.4
			l-0.1,0.4l-0.1,0.3l-0.3,0.3l-0.3,0.2l-0.2,0l0-1l0-0.7l-0.2-0.3l-0.5,0.1l0,0l-0.1,0l-0.1,0.3l-0.1,0.1l-0.2,0.2l-0.1,0.6
			l0.2,0.3l0.1,0.4l0,0.3l0,0.3l0,0.3l-0.2,0.2l-0.2,0.1l-0.4,0.1H761l-0.3-0.1l-0.4-0.2l-0.2-0.2l-0.1-0.1l-0.1-0.1l-0.2-0.1
			l-0.4-0.4l-0.5-0.1l-0.3,0.1l0,0.8l-0.2,0.4l-0.4,0.1l-1.7,0.3l-0.5,0.1l-1.2,0.1l-1.3,0.1l-1.8-0.2l-0.5-0.1l-0.4,0l-0.1-0.1
			l0-0.6l0-0.3l-0.1-0.2l-0.4-0.1l-0.5,0.3l-0.3,0.3l-0.9,0.4l-0.8,0l-0.2-0.2l0.1-1.2l-0.2-0.3l-0.3,0.1l-0.3,0.2l-0.5,0.7
			l-0.5,0.4l-0.3,0.1l-0.1,0.1l-0.3,0.1l-0.3-0.1l-0.2-0.2l-0.2-0.4l-0.2-0.3l0-0.3l0.1-0.4v-0.2l0.1-0.6l-0.3-0.8l-0.5-0.8
			l-0.3-0.1l0,0l-0.4,0l-0.8-0.1l-0.2-0.1l-0.5-0.4h-0.2l-0.2,0.7l-0.3,0.5l-0.6,0.4l-0.8,0.3l-0.2,0.5l-0.3,0.4l-0.3,0.1l-1.7-0.1
			l-0.6,0.3l-0.5,0.3l-0.5,0.8l-0.7,0.6l-0.9,0.1l-0.7-0.6l-1.1-0.3h0l0,0l-0.4,0l-0.5,0.3l-0.4,0.3l-0.2,0.5l0,0.5l0.2,0.2l0,0.1
			l0.3,0.4l0.2,0.7l-0.3,0.5l-0.6,0.4l-0.3,0.2l-0.8-0.6l-0.4-0.5l-0.9-0.2l-0.5,0.1l-0.6,0.3l0,0.3l0.2,0.8l-0.2,0.4l-0.5,0.3
			l-0.5,0l-0.4-0.2l-0.9-0.9l-2-1l-1.9-1.3l-0.8-0.3l-0.3-0.2l-0.2-0.1l-0.1,0.1l0,0.2l0.1,0.1l0,0.8l-0.4,0.9L718,210l-2.2,0.5l0-1
			l-0.7-0.4l-0.6,0l-0.1,0.4l0.2,0.3l0.4,0.1l0.1,0.6l-0.6,0.6l-1.1,0.4l-0.1-0.1v-0.3l0.1-0.6l-0.1-0.3l-0.3-0.1l-0.2,0.2l-0.3,0.9
			l-0.9,0.5l-2.4-0.8l-1-0.2l0.1,0.5l0.1,0.6l-0.1,0.4l-0.5,0l-0.4-0.2l-0.8-0.4l-1.4,0l-0.3,0.3l0.1,0.8l0.1,0.7l-0.8,0l-0.7,0.1
			l-0.6,0.4l0,0.7l0.5,0.2l0.2-0.2l0.4-0.3l0,1.1l-0.1,1l-0.4,1.2l-0.9,0.9l-0.8,0.3l-1.7,0.4l-0.5,0l-0.5-0.5l-0.5-0.4l-0.7-0.3
			l-1.3-0.6l-1,0.2l-0.5,0.8l-0.4,1.6l0.1,0.8l-0.1,1.1l-0.7,1.6l-1.6,0.8l-0.7-0.1l-0.3-0.2l-0.5-1.3l-0.2-0.9l-0.5-0.6l-0.3-0.2
			l-0.2-0.2l-0.8-0.7l-0.5-0.6l0,0l-0.5-0.6l-0.2-0.5l-0.3-0.6l-0.3-0.3l-0.2-0.2l-0.7-0.2l-0.7-0.1l-0.5,0l-0.5,0l-0.5,0.1
			l-0.4,0.3l-0.6,0.2l-0.4,0l-0.5,0.1l-0.3,0l-0.3-0.3l-0.3-0.3l-0.1-0.4l-0.1-0.5l-0.1-0.5l-0.1-0.5l-0.1-0.5l-0.2-0.3l-0.3-0.3
			l-0.2-0.2l-0.1-0.1l-1,0.1l-0.1,0l-0.6,0.1l-0.5,0.1l-0.4,0.1l-0.1,0l-0.4-0.1l-0.5-0.2l-0.3-0.3l-0.4-0.3l-0.3-0.2l-0.4-0.2
			l-0.4-0.2l-0.4-0.3l-0.2-0.3l-0.2-0.4l0-0.3l0.1-0.3l0.2-0.4l0.4-0.4l0.1-0.1l0.3-0.3l0,0l0.4-0.4l0.3-0.3l0.3-0.2l0.2-0.4l0-0.3
			l-0.2-0.3l-0.6,0l-0.8,0l-1.3,0l-0.3-0.1l-0.4-0.4l-0.1-0.1l-0.3-0.3l-0.4-0.4l-0.4-0.2l-0.5-0.1l-0.3,0.1l-0.3,0.3l0,0.1
			l-0.3,0.6l-0.2,0.8l-0.1,0.2l-0.1,0.9v0.1l0,0.6l0,0.2l0,0.3l-0.1,0.6l-0.3,0.6l-0.2,0.5l-0.3,0.4l-0.5,0.5l-0.6,0.2l-0.8,0.1
			l-0.7,0.2l-0.4,0.1L665,214l-0.4,0.1l-0.3-0.1l-0.2-0.1l-0.2-0.3l-0.3-0.5l-0.1-0.4l-0.1-0.4l-0.2-0.4l-0.1-0.4l-0.2-0.3l-0.4-0.3
			l-0.4-0.2l-0.4-0.1l-0.4-0.1l-0.4-0.1l-0.1,0l-0.5,0.1l-0.6,0.4l-0.5,0.4l-0.2,0.3l-0.2,0.3l-0.3,0.2l-0.4,0.1l-0.4-0.1l-0.4-0.3
			l-0.3-0.4l-0.4-0.6l-0.4-0.8l0-0.1l-0.3-0.7l0-0.1l-0.4-0.9l-0.2-0.5l-0.1-0.4L655,207l-0.1-0.4l0-0.1l-0.1-0.5l0-0.3l0-0.3
			l-0.1-0.3l-0.1-0.4l-0.2-0.3l-0.3-0.3l-0.3-0.2l-0.4-0.2l-0.4,0l-0.4,0.1l-0.5,0.3l-0.4,0.3l-0.1,0l-0.3,0.2l-0.4,0.3l-0.3,0.2
			l-0.3,0.1l-0.3-0.2l-0.3-0.2l-0.2-0.3l-0.1-0.3l-0.1-0.2l-0.2-0.1l-0.2,0.1l-0.1,0.1l-0.1,0.4v0.3l0.1,0.9l0.1,0.3l0.4,1.2l0,0.1
			l0.2,0.4l0.1,0.5l0,0.1l0.1,0.5l0,0.1l-0.1,0.5l-0.3,0.6l-0.5,0.5l-0.7,0.8l-0.5,0.7l-0.4,0.4l-0.3,0.3l-0.3,0.3l-0.2,0.1
			l-0.4,0.1l-0.3-0.1l-0.2-0.1l-0.2-0.2l-0.3-0.3l-0.3-0.3l-0.3-0.3l-0.3-0.2L644,212l-0.4,0.1l-0.3,0.1l-0.3,0.3l-0.2,0.4v0.3
			l0,0.1l0.1,0.2l0.2,0.1l0.3,0h0.4l0.4,0.1l0.5,0.1l0.3,0.1l0.3,0.1l0.2,0.2l0.2,0.3l0.1,0.4l-0.1,0.3l-0.2,0.2l-0.4,0.1l-0.6,0.2
			l-0.8,0.2l-0.6,0.3l-0.3,0.4l-0.1,0.4l0,0.5l0,0.1l0,0.2l0,0.4l0.1,0.2l0.2,0.6l0.2,0.7l0.1,0.6l0,0.7l-0.1,0.5l-0.3,0.6l-0.4,0.5
			l-0.5,0.5l-0.5,0.3l-0.7,0.1l-0.8-0.1l-0.7-0.2l-0.7-0.3l-0.7-0.5l-0.7-0.8l-0.5-0.8l-0.4-0.6l-0.2-0.3l-0.1-0.3l0-0.4l0.1-0.4
			l0.1-0.3l-0.1-0.2l-0.1-0.3l-0.3-0.4l-0.3-0.3l-0.1-0.4l0-0.4v-0.4l0-0.4l0.2-0.4l0.3-0.4l0.2-0.2l0,0l0.3-0.2l0.5-0.2l0.3-0.2
			l0.3-0.3l0.2-0.4v-0.4l-0.2-0.6l-0.3-0.9l-0.3-0.9l-0.2-0.5l-0.3-0.5l-0.4-0.5l-0.5-0.4l-0.5-0.2l-0.5-0.1l-0.5-0.1l-0.4,0.1
			l-0.4,0.3l-0.5,0.4l-0.3,0.5l-0.2,0.5l0,0.5l-0.2,0.6l0,0.1l-0.2,0.5l-0.3,0.3l-0.3,0.1l-0.4-0.1l-0.6-0.2l-0.6-0.3l-0.6-0.5
			l-0.1-0.1l-0.3-0.2l-0.3-0.3l-0.3-0.2l-0.2,0l-0.1,0.2l0.1,0.3l0,0.2l0,0.2l-0.2,0.6l-0.3,0.4l-0.2,0.2l-0.2,0.1H627l-0.1-0.1
			l0-0.2l0-0.3l0-0.3l-0.2-0.2l-0.1,0l-0.2,0l-0.2,0.2l-0.1,0.3l0,0.3l0,0.7l-0.1,0.5l-0.2,0.6l-0.3,0.5l-0.7,0.7l-0.4,0.4l-0.8,0.3
			l-1.5,0.1l-0.8,0l-0.8-0.2l-0.9-0.3l-0.4-0.2l-0.3-0.4l-0.2-0.4l-0.1-0.5l0-0.6l0.2-0.6l0.2-0.7l0-0.1l0.2-0.5l0-0.5l0-0.6
			l-0.1-0.5l-0.2-0.5l-0.5-0.5l-0.7-0.5l-0.7-0.3l-0.5-0.1h-0.5l-0.4,0.1l-0.2,0l-0.7,0.2l-0.6,0.3l-0.8,0.5l-0.6,0.2l-0.4,0.1
			l-0.6,0.1l-0.4-0.1l0,0l-1.2,0l-0.4-0.7l-0.3-0.9l0.4-2.7l-0.6-0.2l-0.6-0.9l-1.2-0.7l0-0.1l-0.5-0.4l-0.8-0.3l-0.6-0.1l-0.7-0.1
			l-0.6-0.1l-0.6,0.3l-0.5,0.4l-0.4,0.7l0,0.1l-0.3,0.5l-0.4,0.8l-0.7,0.9l-0.5,0.4l-0.3,0.2h-1.3l-0.7,0.2l0.1,0.2l0.2,0.9
			l-0.3,0.4l-0.3,0l-0.1,0l-0.4-0.1l-0.3,0.2l-0.2,0.3l0,0.2l0.1,0.4v0.4l-0.2,0.4l-0.1,0.2h-0.2l-0.1,0h-0.2l-0.3,0.2l-0.3,0.3
			l-0.1,0.4l-0.1,0.1l-1,0.7l-0.4,0.4l-0.1,0.1l-0.6,0.4l-0.7,0.2l-0.5,0.2l-0.1,0l-0.5,0.1h-0.5l-0.6-0.2l-0.5-0.1l-0.7-0.3
			l-0.6-0.3l-0.7-0.4l-0.5-0.3l-0.5-0.2l-0.7-0.2l-0.4,0l-0.4,0l-0.6-0.1l-0.3-0.2l-0.4-0.3l-0.2-0.2l-0.1-0.2l-0.2-0.5l0.2-0.8
			l0.3-0.1l0.7-0.1l0.8-0.5l0-0.9l-0.3-0.3l-0.7-0.2l-0.4-0.2v-0.3l0.3-0.2l0.5-0.3l0.4-0.8l0.2-0.9l0.3-1.3l-0.2-0.1l-0.6,0.1
			l-0.4-0.2l-0.5-0.7h-0.7l-0.3,0.2l-1.1,0.3l-1.3,0.1l-0.5,0l-1.4-0.2l-1.7-0.5l-0.3-0.1l0,0l0-0.2l0.1-0.1l0.3-0.1l0.1-0.2
			l-0.1-0.3l-0.4-0.4l-0.4-0.2l-0.6-0.8l-0.1-0.2l0-0.2l0.2-0.1l0.2,0l0.2,0.1l0.1,0.2l0.1,0.1l0.2,0l0.2-0.1l0.2-0.1l0.1-0.2l0-0.2
			l-0.1-0.2l-0.2-0.2l-0.6-0.3l-0.4-0.3l-0.7-0.7l-0.3-0.3l-0.3-0.9l0.3-0.8l1.2-1.1l0.4-1.7l-0.1-1l-0.7-0.9l-0.1-0.1l0-0.2
			l-0.2-0.3l-0.4-0.1h-0.1l-0.8,0.2l-0.3,0.3l-0.2,0.3l-0.4,0.4l0,0.2l-0.2,0.3l-0.3,0.6l-0.2,0.2l-0.4,0.3l-0.3,0.2l-0.3,0.2
			l-0.7-0.1l-0.7,0h-0.2l-0.8,0l-0.3-0.2l-0.6-0.3l-0.4-0.3l-0.3-0.2l-0.5-0.2l-0.3,0.1l-0.6,0.1l-0.5,0.1l-0.7-0.1l-1-0.1l-0.3-0.1
			l-0.5-0.1l-0.5-0.4l-0.3-0.1l-0.5-0.2l-0.2-0.3l-0.2-0.2l-0.3,0l-0.2-0.1l-1.6-0.4l-0.7,0l-0.2,0.4l-0.5,0.4l-0.2,0.5l0,0.3
			l0.1,0.2l0,0.2l-0.2,0.2h-0.2l-0.3,0l-0.4,0.3v0.3l0,1.1v0.3l-0.1,0.3l-0.2-0.1l-0.3-0.1l-0.2,0l-0.1,0.1v0.2l0.1,0.2l0,0.2
			l-0.1,0.3l-0.1,0.2l-0.1,0.1l-0.2,0.1l-0.3,0.1l-0.2-0.1l-0.2-0.1h-0.3l-0.5,0.1l-0.3,0.3l-0.2,0.5l-0.4,0.1l-0.3-0.1l-0.3-0.1
			l-0.3,0.4l-0.2,0.3l-0.6,0.3l-0.3,0l-0.1-0.1l-0.1-0.3l-0.2-0.1l-0.1-0.1l-0.1-0.1l-0.3,0l-0.3,0l-0.2-0.3v-0.2l-0.3-0.2l-1.2-1.3
			l0,0l-0.4-0.7l-0.1-0.4l-0.2-0.4l-0.6-0.1l-0.5-0.1l-0.4-0.2l-0.1-0.1l0-0.3l0.1-0.1h0.1l0.2,0.1l0.2,0l0.1-0.2l0-0.2l0-0.2
			l-0.2-0.1l-0.4,0l-0.4-0.2l-0.3-0.6l-0.5-0.4l-0.6-0.3l-0.6-0.4l-0.4-0.2h-0.2l-0.6,0.3h-0.8l-1.6-0.5l-0.6,0.6l-1,0.7l-1.1,1.1
			h-0.2l-0.5-0.2h-0.2l-0.5,0.3h-0.2l0-0.2l-0.3-0.1l-1.1,0.1l-0.2,0.1l-0.2,0.7l-0.3,0.1l-0.8,0.1l-0.2-0.1l-0.1-0.6l-0.3-0.2
			l-1-0.4l-0.4-0.4l-0.2,0l-0.3,0.2l-0.2,0l-0.3-0.5l-0.4-0.4l-1.6-0.5l-0.1,0l-0.3,0.3l-0.2,0l-1.1-0.3l-0.2,0.1l0,0.4v0.3
			l-0.2,0.2l-0.5,0l-0.4-0.2l-0.1-0.3l0.2-0.4l0-0.3l-0.2-0.2l-0.8-0.1l-0.6-0.4l-0.9-0.3l-0.7-0.5l-0.6-0.8l-1.2-1.2l-0.4-0.3
			l-0.3-0.1l-0.1,0l-0.2,0.1l0,0.2l0,0.3l0,0.1l-0.2,0.2l-0.1,0l-0.2,0l-0.2-0.2l-0.2-0.3l-0.3-0.8l-0.3-0.2L517,185l-0.3,0
			l-0.5,0.3l-0.3,0.3v0.2l0.1,0.2l-0.6,0.4l-0.2,0l-0.4,0l-0.9-0.2l-0.1,0.1l-0.2,0.3l-0.2,0.3l-0.4,0.1l-0.7-0.2l-0.1-0.3l-0.4-0.1
			l-0.5-0.2l-0.5-0.1l-0.4,0.2l-0.4-0.1h-0.4l-0.3,0.4l-0.5,0l-0.1,0l-0.1,0.1l-0.7,0.2l-0.4-0.3l0.3-0.7l0-0.2l-0.1-0.2l-0.3,0
			l-0.5,0.1l-0.6,0.7l-0.5,0.1h-0.3l-0.6-0.2l-0.3-0.1l-1.1-0.3l-0.2-0.4l0-0.4l0-0.4l-0.1-0.1l-0.2-0.9l0-0.1l0.1-0.7l0-0.3
			l-0.1-0.1l-0.2-0.2l0.1-0.2l0.1-0.3l0.2-0.8l-0.1-0.2l-0.5-0.2l-0.3-0.1l-0.1-0.1l-0.1-0.1l-0.1-0.2l-0.1-0.5l0-0.2l-0.2-1
			l0.1-0.2l0.3-0.3l0.1-0.3l-0.3-0.5l-0.2-0.7l-0.1-0.2l-0.2-0.2l-0.3-0.2l-0.3-0.1l-0.4-0.3l-0.2-0.2l-0.1-0.2l-0.1-0.2v-0.3
			l-0.1-0.2l-0.1-0.2l-0.5-0.4l-0.3-0.3l-0.3-0.3l-0.2-0.2l-0.1,0l-0.2-0.3l-0.1-0.2v-0.3l0.1-0.3l0-0.3l-0.1-0.2l-0.1-0.1l-0.3-0.2
			l-0.3-0.1l-0.3-0.1l-0.3-0.1l-0.1,0l-0.2,0l-0.2-0.1l-0.1-0.1l-0.1-0.2l-0.1-0.1l0,0l-0.2-0.1l-0.4,0l-0.3,0l-0.1,0l-0.4-0.2
			l-0.1-0.1l-0.2-0.2l-1-1l-0.7-0.7l-0.2-0.3l-0.2-0.4l0,0l-0.8-0.7l-0.1-0.1l0,0l-0.4,0.1l-0.4,0.3l-0.3,0.4l-0.1,0.4l-0.1,0.6
			l0,0.4l0.1,0.3l0.1,0.4l0.1,0.1l0.1,0.2l0.1,0.5l0,0.3l0,0.1l-0.2,0.3l-0.2,0.4l-0.2,0.4l-0.1,0.2l-0.1,0.3l-0.1,0.3l-0.1,0.1
			l-0.2,0.3l-0.4,0.2l-0.4,0l-0.7,0.1l-0.5,0l-1-0.2l-0.6-0.2l-0.8-0.3l-0.2-0.1l-0.3-0.1v-0.1l-0.3-0.2l-0.6-0.5l-0.6-0.4l-0.4-0.4
			l-0.5-0.2l-1.6-0.4l-0.7,0.1l-0.1,0l-0.6-0.2l-0.1,0l-0.5-0.1l-0.5,0.1l-0.1,0l-0.3,0.1l0,0l-0.2,0.4l0,0.1l-0.1,0.4l-0.1,0.8
			l0,0.1l-0.1,0.3l-0.1,0.3l-0.5,0.6l-0.3,0.1l-0.3,0.2l-0.3,0l-0.2,0l-0.2,0l-0.3,0l-0.2,0l-0.2-0.1l-0.1,0l-0.5-0.1h-0.2l-1,0
			l-0.7-0.1l-0.1,0l-1.1-0.1l-0.3,0l-0.1,0l-0.5-0.1l-0.1,0l-0.6-0.3l0,0l-0.2-0.2l-0.4-0.5l-0.1-0.2l-0.2-0.4l-0.1-0.3l0-0.1
			l-0.4-0.3l-0.5-0.2l-0.2-0.1l-0.5-0.2l-0.2-0.1l-0.3-0.2l-0.7-0.7l-2.5-2.4l0,0l-0.4-0.8l-0.3-0.6l-0.4-0.6l-0.5-0.7l-0.7-0.8
			l-0.5-0.4l-0.4-0.5l-0.3-0.5l-0.1-0.4l-0.1-0.4l-0.1-0.3l-0.2-0.3l-0.3-0.2l-0.4-0.2l-0.6-0.5l-0.3-0.3l-0.5-0.2l-0.1-0.1
			l-0.7-0.7l-0.6-0.6l-1-0.5l-0.2-0.1l-0.5-0.1l-0.1,0l-0.4,0.2l-0.1,0.1l-0.4,0.4l-0.2,0.2l-0.3,0.2l-0.1,0.1l-0.5,0.3l-0.1,0.1
			l-0.6,0.2l-0.8,0.1l0.1-14.9l0-8.7l0.1-13.7l0-12.1l0-1.7l0-5.2l0-1.9l0.1-10.3l0-2.7l0.1-13l0-1.6l0-12.7l0-6.1l0-5.5l0-8.4
			l0-10.7l0-9.9v-1.7l0-13.1l-9.1,0l-11.2-0.1l-14.5-0.1l-10-0.2L393.9,4l-3.8,0l-8.9-0.2L347,3l-15.7-0.4l-18.7-0.2l-53.7-1.6
			L256.3,0.7z M796.5,538.6l-0.2,0.1v0.3l0.2,0.8l0.1,0.8l0.2,0.6l0.2,0.5l0,0.4l0.1,0.2l0.1,0.4l0.1,0.3l0.2,0.2l0.1,0l0.1-0.4
			l-0.2-0.4l-0.1-0.3l0-0.4l0-0.2l0-0.4l0-0.3l-0.1-0.2l-0.1-0.2l-0.2-0.4l-0.2-0.4l-0.1-0.3l-0.1-0.3l0-0.2L796.5,538.6z
			 M802.4,550.9L802.4,550.9l0,0.1l0.1,0l0.1,0.1l0.1,0l0,0l0,0.1l0,0l0.1,0l0.1,0.1l0.1,0.1l0.1,0l0.1,0.1l0,0l0,0l0.1,0l0.1,0.1
			l0,0l0,0l0,0v0.1l0,0l0,0h0l0,0l0,0v0l0-0.1l0-0.1l0,0l-0.1-0.1l-0.1-0.1l-0.1-0.1l0-0.1l-0.1-0.1l0-0.1l-0.1-0.1l-0.1-0.1
			l-0.1-0.1l-0.1-0.1l-0.1-0.1l0,0l-0.1-0.1l-0.1,0L802.4,550.9L802.4,550.9z M807.7,563.9l-0.3,0l-0.3,0.1l-0.2,0.1l-0.1,0.3l0,0.1
			v0.2l0.1,0.1l0.3-0.2l0.4-0.4l0.1,0.1l0.3,0.2l0.3,0.2l0.1,0.2l0.1,0.1l0.1,0.2l-0.2,0.2l-0.3,0.3l-0.2,0.3v0.4l0.1,0.5h0.4
			l0.8-0.2l0.5-0.2l0.4-0.1l0.3-0.4l0.1-0.2l0.1-0.3l0-0.3l-0.2-0.2l-0.3-0.1l-0.4-0.1l-0.3-0.2l-0.3-0.2l-0.3-0.2l-0.4-0.3
			l-0.3-0.1L808,564L807.7,563.9z M812,565.1l-0.5,0.1l-0.2,0.8l-0.3,0.7l-0.8,0.4l-0.7,0.3l-0.9,0.2h-0.4l-0.4,0.3l-0.3,0.4
			l-1.3,0.2l-0.7,0.2l-0.3,0l-0.5,0.4l-0.3,0.2l-0.2,0.1l0.1,0.1l-0.1,0.4l0.6,0l1.4-0.6l0.4,0.1l0.6-0.1l0.1,0.5l-0.6,0l-0.7,0.4
			l-0.3,0l-0.2-0.2l-0.9,0.2l-0.1,0.2l-0.4,0l-0.6,0.1l-0.8,0.6l-0.9,0.4l-0.3,0.4l0.1,0.1l-0.1,0.2l-0.2,0.3l-0.7,0.3l-0.2,0.3
			l0,0.3l-0.3,0l-0.2,0.1l-0.1,0.2l0.3,0.2l-0.6,0l-0.3,0.2l-0.2,0.1v0.2l0.2,0.2l0.1,0.1l0,0.3l-0.1,0.3l-0.4,0.1l-0.3,0.1
			l-0.2,0.4l-0.5-0.1l-0.4,0.3l0,0.3l0,0.1l-0.2,0.1H797l-0.1,0.1l0.1,0.2l-0.1,0.1l-0.2,0l-0.1,0l-0.2-0.1l-0.1,0.2l0,0.2l0,0.2
			l-0.1,0.1l-0.3,0.3l0,0.2l0,0.3l-0.2,0.1l-0.4-0.3h-0.2l0,0.2l-0.1,0.3l-0.3,0.1l0,0.2l0.1,0.1l-0.1,0.2l-0.5,0l-0.1,0.2l-0.3,0.1
			l-0.3,0l-0.2,0.2l0.1,0.3l0.3,0.2l0,0.2l-0.3,0.1l-0.4,0.3h-0.3l-0.2,0.3l-0.3,0.1l-0.1,0.2l0,0.1l-0.4,0.2l-0.3,0.3l-0.3,0.1
			l-0.2,0.3l-0.5,0.1l-0.1,0.1l-0.1,0.2l-0.2,0.1l-0.6,0.1l-0.4,0.4l-0.2,0.4L789,584l-0.2,0.5l-0.5,0.8l0.1,0.2h0.2l0.1,0l0.7-0.7
			l0.8-0.9l0.5-0.4l0.5-0.5l0.8-0.7l0.8-0.6l0.6-0.5l0.6-0.3l0.6-0.5l1.1-0.8l0.5-0.4l0.6-0.5l0.6-0.4l0.9-0.6l0.5-0.4l0.6-0.5
			l0.4-0.3l0.6-0.3l0.7-0.6l0.7-0.5l0.7-0.5l0.9-0.7l0.8-0.6l0.6-0.4l0.6-0.4l0.4-0.4l0.5-0.4l0.3-0.2l0.2-0.1l0.3-0.2l0.5-0.3
			l0.6-0.5l1.2-0.9l0.5-0.4l0.2,0l0.1-0.3l0.3-0.2l0.4-0.4l0.3-0.4l0.4-0.3l0.4-0.4l0.4-0.4l0.3-0.3l0.7-0.5l0.7-0.7l-0.1-0.1
			l-0.5,0l-0.5-0.1l-0.4,0l-0.3,0L812,565.1z M801.3,568.4l-0.4,0l-0.3,0.1l0.3,0.2l0.2,0l0.3,0.1l0.3-0.1l0.1,0l0.1,0l0.1-0.1v-0.1
			l-0.1-0.1l-0.3,0L801.3,568.4z M801,569.4l-0.4,0.1l-0.1,0l0,0.2l0.2,0.1l0.5,0.1l0.2-0.1l-0.1-0.3L801,569.4z M787.9,585.5
			l-0.1,0.1l-0.1,0.5l0.1,0.2l0.3,0.2l0.2-0.1l0.1-0.2l-0.1-0.2l-0.2-0.1l0-0.1l0-0.2L787.9,585.5L787.9,585.5z M787.4,586.5l-0.3,0
			l0,0.3l0,0.2l0.3,0.1l0.2,0l0.2,0l0.1-0.2l-0.1-0.2l-0.1-0.1L787.4,586.5z M699.7,641.8l-0.3,0.1l-0.1,0.1l0,0.1l0.1,0.2l-0.1,0.2
			l-0.2,0.2l-0.4,0.1l-0.3,0.2l-0.3,0.2l-0.2,0.3l0,0.2l0.4-0.1l0.4-0.2l0.5-0.2l0.4,0l0.2,0l0.2-0.1l0.1-0.5l0-0.4l-0.1-0.3
			L699.7,641.8z M699.4,643.3l-0.4,0.1l-0.4,0.2l-0.1,0.4l-0.2,0.5l-0.3,0.4l-0.4,0.4v0.2l0.3,0.1l0.4,0l0,0.4l-0.5,0.5l-0.3,0.3
			l-0.1,0.4l0.3,0l0.3-0.2l0.1,0.1l-0.2,0.3l-0.4,0.4l-0.5,0.4l-1,0.3l-0.4,0.3l-0.7,0l-1,0.1l-1.1,0.2l-0.9,0.1l-0.6,0.1l-0.5,0.3
			l-0.3,0.3l-0.1,0.3l0,0.2l0.3,0l-0.1,0.4l-0.4,0l-0.1,0.2l-0.4,0l-0.3,0.1l-0.2,0.2l0.3,0.3l0.5,0.1l0,0.1l-0.2,0.2l-0.4,0.1
			l-0.3,0l-0.6,0.1l0.1-0.3l0.1-0.4l-0.2-0.1l-0.3,0.2l-0.3,0.5l-0.3,0.2l-0.3,0.2l-0.7,0.1l-0.5,0.1l-0.2,0.3l0.2,0.1l0.3,0
			l0.5-0.1l0.4,0l-0.1,0.3l-0.5,0.1l-0.4,0.1l-0.5,0.3l-0.4,0l-0.5,0l-0.3,0.1l0,0.2l0.5,0.2l0.3,0.1l-0.2,0.1l-1,0.3l-0.5,0.1
			l-0.5,0.3l-0.1,0.5l0,0.4l0.1,0.4l-0.2,0.1l-0.1-0.1l-0.2,0.1l-0.2,0.4l0.1,0.3l-0.3,0.1l-0.2,0.1l-0.7,0.3l-0.3,0.2l-0.3,0.2
			l-0.1,0l-0.3,0.2l-0.1-0.2l-0.3-0.1l-0.2,0l-0.2,0.3l0.2,0.2l0.7,0.3l0,0l-0.4,0.6l-0.9,0.6l-0.9,0.2l-0.6,0.1l-0.3,0.1l-0.7,0.6
			l-0.2,0.1l-0.2-0.1l-0.2-0.4l-0.6,0.3l-0.1,0.5l0,0.5l-0.1,0.3l-0.3-0.1l-0.3,0.3l0.2,0.6l0.2,0.6l0.3,0.2l-0.1,0.2l-0.2-0.1
			l-0.3-0.2l-0.3-0.1l-0.2,0.1l-0.3,0.3l-0.1,0.3l-0.1,0.1l-0.3,0l-0.1-0.2l0.4-0.6l0.2-0.3l-0.1-0.4l-0.1-0.3l0.3-0.5l0-0.3
			l-0.1-0.1l-0.8-1l-1.6,1.3l-0.2,1.2l0.1,0.4l0.1,0.1l0.1,0.3l0.3,0.2l0.1,0.2l0.4,0.1l0,0.2l-0.2,0.1l-0.1,0.3l0.1,0.4l-0.1,0.2
			l-0.3,0.1l-0.2,0.2l-0.3,0.3v0.2l-0.3,0.2l-0.2,0.3l-0.4-0.1l-1.1,0l-0.4-0.5l-0.3-0.3l-0.4-0.3l-0.4-0.2l-0.2-0.2l-0.3-0.3
			l-0.2,0l-0.3,0.1l-0.4,0.7l-0.3,0.4l-0.3,0.2l-0.1,0.2l0.2,0.1l0.3,0.1l0.3,0.1l0.1,0.1l-0.1,0.2l-0.3,0.1l-0.5,0.1l-0.7,0.2
			l-0.7,0.4l-0.6,0.5l-0.4,0.5l-0.2,1.2l0,0.6l-0.1,0.4l-0.2,0.2l-0.2,0.1l-0.5,0.2l0.1,0.4l-0.6,0.5l-0.2,0.7l-0.4,0.7l-0.5,0.8
			l-0.3,0.5l-0.1,0.3l0,0.1l0.4,0.1l0.5,0.1l0.3,0.1l0.3,0.2l0.2,0.3l0,0.3l-0.2,0.2l-0.3,0.1l-0.2,0.2l-0.1,0.3l-0.1,0.2l-0.3,0.2
			l-0.4,0.3l-0.3,0.6l-0.3,0.9l-0.2,0.4l-0.3,0.5l-0.3,0.3l-0.4,0.4l-0.2,0.1l-0.2,0.3L658,682l-0.2,0.2l-0.3,0.3l-0.1,0.3l0,0.2
			l0.1,0.4l0,0.1l0.4,0.5l-0.4,0.8l-0.3,0.7l-0.1,0.1l-0.2,0.3l0,0.6l-0.5,0.4l0,0.1l0.1,0.3l0,0.2l0,0.1l-0.1,0.1l-0.1,0.3l0,0.4
			l-0.1,0.3l0.1,0.2h0.2v-0.1l0.2-0.7l0.4-0.9l0.1-0.3l0.2-0.4l1.1-2.1l0.3-0.4l0.4-0.4l0.6-0.6l0.5-0.7l0.6-0.7l0.6-0.9l0.8-0.9
			l0.6-0.7l0.8-1l0.8-1l0.7-0.9l0.7-0.8l0.8-0.9l0.7-0.8l0.6-0.5l0.4-0.4l0.5-0.5l0.6-0.6l0.2-0.2l0.6-0.6l1-1l0.1-0.1l0.9-0.8
			l0.6-0.5l1.9-1.8l1.4-1.3l1.1-0.9l0.7-0.5l0.8-0.8l0.7-0.5l0.8-0.6l0.7-0.6l0.8-0.6l0.7-0.7l1.1-0.8l1.1-0.8l0.9-0.6l0.8-0.6
			l1-0.6l0.8-0.6l0.8-0.6l1.1-0.6l1.4-0.8l1.1-0.7l1.3-0.7l1.8-0.9l1.4-0.7l0.8-0.5l0.7-0.3l0.4-0.2l0.4-0.1l0.4-0.2l0.6-0.6
			l0.5-0.7l0-0.8l-0.1-0.4l-0.1-0.5l-0.1-0.2l-0.3-0.1l0.1-0.2l0.2-0.3l0.3-0.4l0-0.8l-0.2-0.4l-0.3-0.3L699.4,643.3z M694.4,643.6
			l-0.4,0.1l-0.3,0.2l-0.3,0.3l-1,0.5L692,645l-0.5,0.3l-0.3,0.2l-0.3,0.1l-0.2,0.1v0.2l0.1,0.1l0,0.2l0.3-0.1l0.4-0.3l0.9-0.4
			l0.6-0.4l0.6-0.3l0.4-0.3l0.3-0.2l0.2-0.3L694.4,643.6z M702.4,644.1l-0.2,0.2l-0.1,0.1v0.1l0.2,0.1l0.1,0l0.1,0l0.1-0.2l0.1-0.2
			v0l-0.2-0.1H702.4z M697.1,644.6l-0.3,0.1l-0.3,0.4l-0.2,0.1l-0.3,0.1l-0.3,0.1l-0.1,0.1l-0.1,0.1l-0.3,0.3l0,0.2l0,0.2l0.1,0
			l0.2-0.1h0.1l0.5-0.4l0.5-0.3l0.4-0.2l0.2-0.1l0.2-0.3l0-0.2L697.1,644.6z M696.8,646l-0.3,0.1l-0.1,0.1l-0.1,0.2l0.1,0.1l0.2,0
			l0.2,0l0.2-0.1l0.1-0.1L697,646L696.8,646z M686.8,647.9l-0.3,0.2l-0.1,0.3l-0.1,0.1l-0.3,0.1l-0.2,0l-0.1,0.2l-0.1,0.3l-0.1,0.1
			l-0.2,0.3l-0.3,0.2l-0.1,0.2l0.2,0l0.3-0.1l0.2-0.3l0.3-0.3l0.1-0.1l0.1-0.3l0.3-0.2l0.2-0.3l0.3-0.2v-0.3L686.8,647.9z
			 M684,649.8l-0.4,0.3l-0.2,0l-0.1,0.1l0.1,0.2l0.3-0.1h0.2l0.2,0h0.2v-0.1l-0.1-0.1l0-0.2L684,649.8z M685,650.4l-0.3,0.1l0,0.1
			l0.1,0.2l0.3,0.4l0,0h0.1l0.2,0.1l0.2-0.2l0-0.1l-0.1-0.2l-0.1-0.2l-0.1-0.1L685,650.4z M687.9,651.3l-0.3,0.1l-0.3,0.2l-0.3,0
			l-0.2,0.1l-0.1,0.2l0.1,0.1h0.2l0.2-0.1l0.1-0.1l0.4-0.1l0.3-0.1L687.9,651.3z M665.1,666.4l-0.1,0l-0.1,0.1l-0.1,0.2l0,0.1v0.1
			l0.1,0.1l0.1,0l0.4-0.4l0.1-0.1l0.1,0l0.1-0.1l0-0.1l-0.1-0.1h-0.2l-0.2,0L665.1,666.4z M654.1,678.1l-0.2,0.1l-0.2,0.1l-0.1,0.1
			v0.2l0.1,0.2v0l0.1-0.1l0.2-0.2l0.2-0.3L654.1,678.1z M653.9,680l-0.1,0.1l-0.1,0.2l-0.1,0.3v0.2l0,0.1l-0.1,0.2l0,0.3l0,0.2
			l0.2,0.1l0.2-0.2l0.1,0l0-0.3l0-0.3l0-0.2v-0.2l0-0.2L653.9,680z M658.7,680l-0.1,0l-0.2,0l-0.2,0l-0.1,0.2l-0.3,0l0.1,0.4
			l0.1-0.2l0.2-0.2l0.3,0.2l0.1,0l0.3,0l0.2,0.1l0.3,0l0.2-0.1l-0.1-0.2l-0.2-0.1l-0.4,0L658.7,680z M656.8,680.4l-0.4,0.3l-0.3,0.3
			l-0.1,0.1v0.1l0.1,0.1l0,0.1l0.1,0.1l0.1-0.3l0.3-0.2l0.1,0h0.2l0.4,0l0.1-0.1l0.2-0.2l-0.2-0.2l-0.2-0.1L656.8,680.4z
			 M652.8,682.2l-0.3,0l-0.3,0l-0.2,0h-0.2l-0.2,0.1l-0.1,0l-0.2,0.1l0.1,0.1l0.1,0.1l0.2,0l0.3,0h0.5l0.2,0l0.3,0l0.3,0l0.1-0.1
			v-0.1l-0.1-0.1L652.8,682.2z M653.2,683.7l-0.1,0.1l-0.1,0l-0.2,0.2l-0.1,0.2l0.1,0.1l0.1-0.1l0.2-0.1l0.1-0.1l0.1-0.1l0.2-0.3
			l-0.1,0l0-0.1L653.2,683.7z M652,683.7l-0.2,0.1l-0.1,0.1l-0.1,0.1l0,0.1l0,0.1l0.2,0l0.3-0.3l0-0.1L652,683.7z M655.6,685.1
			l-0.2,0.1l-0.2,0.3l-0.1,0.4l-0.1,0.2l-0.2,0.1l-0.1,0l-0.2,0l-0.1,0.1l0.1,0.2l0.3,0h0.1l0.1,0h0.1l0.2-0.2h0.2l0-0.3l0-0.3
			l0.2-0.4l0.1-0.2L655.6,685.1z M654.3,687.5l-0.2,0.1l-0.2,0.1l-0.2,0l-0.2,0.2l-0.1,0.3l-0.3,0.1l-0.3,0.1l-0.3,0h-0.4l-0.2,0.2
			l-0.1,0.3l0,0.2l0,0.1l0.2-0.1l0.4-0.1l0.3,0l0.3-0.1l0.3,0l0.3,0l0.4-0.1l0.3,0l0.4-0.1l0.1-0.3l-0.1-0.3l-0.1-0.3L654.3,687.5z
			 M654.7,688.9l-1.4,0.3l-1.2,0.3l-0.4,0.1l-0.1,0.2v0l0,0.1l0.2,0l0.6-0.3l1.1,0l0.7-0.4l0.1,0.3l-0.3,0.4l0.1,0.3l-0.2,0.4
			l-0.4,0l-0.1,0.1v0.2l-0.1,0.3l-0.1,0.2l-0.3,0.1l-0.1,0.4l-0.2,0l-0.4,0l-0.2,0.1l0.1,0.3l0.1,0.4l-0.2,0.2l-0.3,0.4l-0.2,0.2
			l-0.2,0.1l0,0.2l-0.2,0.6l-0.2,0.3l-0.3,0.2l-0.1,0.5l-0.4,0.1l0,0.2l-0.2,0.3l-0.2,0.1l-0.1,0.1l-0.1,0.1l-0.2,0.1l0,0.1
			l-0.2,0.5l-0.2,0.3l-0.3,0.3h-0.2l-0.2,0l-0.1,0.2l0.1,0.1l-0.1,0.1l-0.1,0.1l-0.3,0l-0.2,0.3l0.1,0.3l0.1,0.2l0,0.2l-0.1,0.3
			l-0.2,1l-0.1,0.3l-0.3,0.3l-0.4,0l-0.3,0l0.1,0.3l0.4,0.2l0,0.4l-0.4,0.3l-0.3,0.4l-0.1,0.3l-0.1,0.3l-0.2,0.3l0,0.2l0.2,0.1
			l0.1,0.1l0,0.2l-0.2,0.1l-0.4,0l0,1.1l-0.3,0.5l-0.5,1.2l-0.3-0.2l0-0.4l-0.1-0.5l0-0.4l-0.4-0.1l-0.4,0l-0.6-0.5l-0.4-0.5
			l-0.2-0.2l-0.3-0.1l-0.2,0.1l0,0.3l0.5,0.7l0.8,0.7l0,0.1v0.2l-0.1,0.4L643,707l-0.3,0.4l0.1,0.3l0.3,0.3l-0.1,0.2v0.3l-0.2,0.2
			l-0.1,0.3l-0.1,0.2l-0.6,0.2l0.1,0.3l-0.2,0.3l-0.1,0.3l-0.3,0.3l0,0.4l-0.2,0.7l-0.2,0.3l-0.1,0.8l-1.4,3.3l-0.3,0.5l-0.5,0.7
			l-0.5,0.8l-0.2,0.3l-0.1,0.3l0,0.3l-0.3,0.3l-0.1,0.4l-0.1,0.6l-0.2,0.3l-0.1,0.1l-0.2,0.3l0,0.2l0,0.5l0,0.4l0.1,0.6l-0.4,0.3
			l-0.3,0.7l-0.4,0.9l-0.2,0.5l-0.3,0.7l-0.8,2l-0.1,0.7l-0.1,0.4l0,0.6l0.2,0.1l-0.3,0.8l0.3,0.3l0,0.3l0.2,0.4l0.2,0.2l-0.2,0.3
			l-0.7,0.4l0.1,0.6l0,0.6v0.4l0,0.1l0.1,0.4l-0.2,0.1l-0.3,0l-0.3,0.2l0,0.6l0,0.3l-0.1,0.3l0.1,0l0.2-0.2l0.1,0.4l-0.1,0.9
			l-0.1,0.5h-0.3l-0.3,0.1l-0.1,0.2l0.1,0.1l0.1,0.1l-0.2,0.1l-0.1,0.2l0.1,0.2l0.2,0.3l-0.3,0.5l0.6,0.3l0.5,0l0.3-0.1l0.2-1.1
			l0.3-1.4l0.2-1.1l0.2-0.7l0.3-1.5l0.3-1.4l0.3-1.2l0-0.5l0.2-0.8l0.4-1.1l0.3-1.4l0.3-1l0.3-0.9l0.4-1.3l0.5-1.3l0.4-1.3l0.3-0.9
			l0.5-1.4l0.7-1.6l0.4-1.1l0.3-0.8l0.3-0.7l0.6-1.3l0.7-1.5l0.5-1l0.3-0.8l0.2-0.4l0-0.1l0.3-0.6l0.5-1.2l0.4-0.7l0.1-0.1l0.2-0.5
			l0.1-0.3l0.3-0.8l0.1-0.2l0.1-0.3l0.3-0.8l0.4-0.8l0.5-0.8l0.5-0.9l0.6-1.2l0.6-1l0.5-0.9l0.4-0.7l0.4-0.5l0.4-0.7l0.3-0.5
			l0.4-0.8l0.3-0.5l0.3-0.5l0.3-0.4l0.4-0.6l0.5-0.7l0.5-0.7l0.6-0.8l0.6-0.7l0.7-0.8l0.3-0.3l-0.1-0.3l-0.4-0.4L654.7,688.9z
			 M650.5,690l-0.2,0l-0.2,0.1l-0.2,0.1l-0.2,0.1l0,0l-0.1,0.1l-0.1,0.1l0.3-0.1l0.3,0l0.5,0.1l0.2-0.1l0.3-0.1l0-0.2h0l-0.1,0
			L650.5,690z M646.2,690.6l-0.2,0.1l-0.3,0l-0.1,0h-0.1l-0.3,0l-0.4,0.1l-0.4,0.2l-0.1,0.2l0.2,0.1l0.4-0.1h0l0.3-0.1l0.3-0.1
			l0.2-0.1l0.2,0l0.3,0.1l0.2-0.2l-0.1-0.1L646.2,690.6z M634,732.8L634,732.8l-0.2,0.1l-0.1,0.2l0,0.4l0.2,0l0.2-0.1l0.1-0.2l0-0.1
			L634,732.8z M634.1,739.7l-0.2,0.1l-0.3,0.1l0,0.3l0,0.2l0,0.2l-0.2,0.1l0,0.4l0.1,0.3v0.1l-0.1,0.2l-0.1,0.3l-0.2,0.5l-0.1,0.3
			l0.1,0.4l0.1,0.3l0,0.3l-0.1,0L633,744l0.1,0.2l0.1,0.3l-0.1,0.3l-0.2,0.2l-0.1,0.1l0.1,0.2l0.3,0.1l0.2,0.2l-0.1,0.3l-0.2,0.2
			l-0.2,0.3l0.1,0.3l0,0.3l-0.1,0.3l-0.2,0.3l0,0.3l0.3,1l0,0.8l-0.1,0.4l0,0.3l0,0.2l0.1,0.2l0.1,0.2l0,0.3l-0.1,0.3l-0.1,0.4
			l0.1,0.8l0,0.8l0.1,0.7l0.1,0.4l0,0.3l0.1,0.2l0,0.1l0,0.2l-0.1,0.4l-0.1,0.4l0.1,0.5l0.1,0.2l0.1,0.3v0.2l-0.1,0.6l0.1,0.4
			l0.1,0.2l0,0.2l-0.1,0.3l0,0.3v0l0.2,0l0,0.1l0.1,0.3l0,0.6l-0.2,0.4l0.1,0.6l0.4,0.1l-0.1,0.4l-0.4,0.1l-0.2,0.1l0.1,0.2l0.2,0.3
			l0.1,0.4l0,0.4v0.3h0.3l0.2,0.4l-0.1,0.2l0.1,0.4v0.4l-0.2,0.7l-0.1,0.2l0.1,0.1l0.3,0.3l0.2,0.4l0,0.4l-0.1,0.4l-0.1,0.2
			l-0.1,0.2l-0.1,0.4l0.1,0.7l0,0.3l0.3,0.2l0.4,0.3l0.2,0.2l0.1,0.5l0,0.5l0.1,0.4l0.1,0.3l0.1,0.1l0.2,0.4l0.1,0.5l0,0.4l0.3,0.2
			l0.1,0.3v0.3l0.5,0.9l-0.1,0.3l0.2,0.3l0,0.1l-0.1,0.2l-0.3,0.1l-0.1-0.5l-0.1-0.3l-0.1,0.1l-0.1,0.2l-0.1,0.3l-0.3,0.1l-0.2,0.1
			l0,0.3l0.4-0.1h0.2l0.1,0.1l0,0.2l0,0.3l0.5,0l0.2,0.1l0.4,0.3l0.2,0.6l0.1,0.3l0.1,0.1l0.3,0.2l-0.3,0.4l-0.4-0.4l-0.4-0.5
			l-0.1-0.3l-0.2-0.3l-0.1,0.1v0.4l0.2,0.3l0.1,0.4l-0.1,0.3l0.2,0.1l0.3,0.1l0.3,0.4v0.2l-0.1,0.4l0,0.2l0.1,0.2l0.4,0.2l-0.1,0.4
			l-0.1,0.1l-0.1,0.4l0.2,0.1l0.1,0l0.1,0.1l-0.1,0.2l-0.1,0.1l0,0.1l0.3,0.1l0.2-0.1l0.2-0.1l0.4,0.4l-0.5,0.4l-0.3,0.1l-0.3,0.1
			l-0.1,0.1l0.1,0.4l-0.1,0.1l-0.3,0.2l-0.1,0.1l0.3,0l0.3,0l0.4,0.3l0.2,0.3l-0.1,0.3l-0.3,0.4l-0.1,0.3l0.2,0.1l0.3-0.1l0.3-0.4
			l0.2-1.8l0.5,1.4l-0.2,0.2l-0.1,0.3l-0.1,0.3l0.1,0.1l0.1-0.1l0.1-0.2l0.2-0.3l0.1-0.1l0.2,1l0.2,0.4l0.5,0.7l0.2,0.3l0.6,2.1
			l0.1,0.3l0.6,1.7l0.2,1.1l-0.2,0.1l-0.2,0.2l0,0.2l0,0.1l0.1,0.1l0.1-0.1l0.2-0.1l0.1,0.1l0,0.4l-0.3,0.2l0,0.3l0.1,0l0.2,0
			l0.2-0.1l0.2,0l0,0.1l-0.1,0.2l-0.1,0.4h0.2l0.2,0.4l-0.2,0.1l-0.1,0.1l0,0.1l0.2,0.1l0.3,0.3l0,0.1l0.3,0.3l0.1,0.2l-0.1,0.2
			l-0.3,0.2l0.1,0.3l0.2,0l0.1,0.4l0.1,0.1l0.1,0h0.1l0.1,0.3l-0.1,0.1l0,0.2l0.2,0l0.1,0.1l0,0.2l-0.1,0.2L644,799l-0.2,0.2
			l0.3,0.4l0.1-0.1l0.2-0.1l0.3-0.1l0,0.1l-0.1,0.4l-0.2,0.1l-0.1,0.3l0.1,0.4l0.1,0.6l0,0.2l0,0.3l0,0l0.2,0.5l0.1,0.3l0.1-0.2
			l0.1-0.3l0.2-0.1l0.2,0.2l-0.1,0.2l-0.1,0.2l-0.1,0.3l0.4,0.8l-0.1,0.1l0,0.1l0.2,0.1l0.3,0.4l0.1,0.3v0.3l0.1,0.2l0.2,0.2l0,0.3
			l-0.1,0.3l-0.1,0.3l0.3,0.1l0.1,0.4l-0.1,0.2l-0.2,0.3l0,0.1l0.3,0.1l0.2,0l-0.1,0.4l0,0.3l0.1,0.1l0.4,0.5l0,0.3l-0.1,0.4
			l0.2,0.7l0.2,0.6l-0.3,0l-0.2,0l-0.1,0.2l0.1,0.3l0.2,0.3l0,0.4l0.1,0.3l0.3,0.1l0.2,0.3l-0.1,0.6l-0.2,0.1v0.2l0.1,0.3l-0.1,0.4
			l0.2,0.1l0.2,0l0,0.4l-0.2,0l0.1,0.1l-0.1,0.3l0,0.2l0.1,0.3l0.3,0.2l0.2,0.1l0.1,0.3l-0.2,0.2l-0.3,0.3l0.1,0.3l0.2,0l0.3,0.2
			l0,0.3l0.1,0.5l0.1,0.7l0.1,0.2l-0.1,0.2l-0.2,0.4l0.2,0.1l0.1,0.2l0,0.2l0,0.2l0,0.2l0.2,0.2l-0.1,0.3l0,0.3l0.1,0.5l0,0.5
			l0.3,0.3l0.1,0.4l0.1,0.8l0,0.5l0.1,0.1l0,0.8l-0.1,0.6l0.1,0.3l0,0.3l0,0.4l0.3,0.2v0.2l0,0.3l0.2,0.4l0.1,0.1l0.1,0.4l0.1,0.8
			l0.1,0.3l0.1,0.3l0.4,0.1l0.3-0.1l-0.2-0.3l-0.1-0.3l-0.2-0.7l-0.1-0.7l-0.1-1.4l-0.3-2.3l-0.2-1.3l-0.2-1.1l-0.1-1.2l-0.1-1
			l-0.1-0.8l-0.1-0.7l-0.1-1l-0.2-1l-0.2-1.1l-0.2-0.9l-0.2-1l-0.2-1.1l-0.1-0.9l-0.2-0.8l-0.2-0.7l-0.2-0.8l-0.3-0.9l-0.2-1
			l-0.2-0.8l-0.3-0.9l-0.3-1l-0.2-0.8l-0.1-0.4l-0.1-0.4l0-0.1l-0.2-0.6l-0.2-0.8l-0.3-1.1l-0.4-1.1l-0.1-0.5l-0.4-1.6l-0.7-1.4
			l-2.5-7.3l-1-3l-1.1-3.8l-1.2-3.7l-0.6-3.2l-1.6-6.6l-0.6-3.3l-0.5-4.4l-0.1-1.4l-0.1-1l-0.1-1.2l0-1.3l-0.1-0.8l0-1.5l0-1.5
			l0.1-1.9l0-1.6l0.1-1.4l0.1-1.6l0-1.1l0.2-1.4l0-0.7l0.1-0.9l0-0.1L634.1,739.7z M628.9,747.5l-0.1,0l-0.2,0.2l-0.1,0.2l-0.1,0.3
			l-0.1,0.2l0.2,0.1h0.2l0.2-0.1l0-0.1l0-0.6L628.9,747.5z M628.6,749.1l-0.2,0.1l0,0.5l0,0.3l0,0.4l-0.1,0.4l0,0.3l0.1,0.3l0.2-0.1
			l0.1-0.2h0.1l0-0.3l0-0.4l0-0.5l-0.1-0.4L628.6,749.1z M627.4,751l-0.1,0l0,0.2v0.2l0,0.2l0,0.3l0,0.2l0.1,0.1l0.1,0l0.2,0
			l0.1-0.3l0,0.1l-0.1-0.4l-0.1-0.3L627.4,751z M627.7,752.6l-0.3,0.2l0.1,0.5l0.1,0.6l0,0.4l0,0.4l0.1,0.3l0,0.2l0.2,0.2l0.3-0.1
			l0.2-0.1l0.2-0.2l0-0.4l-0.2-0.3l-0.1-0.3l0-0.7l-0.1-0.4l-0.2-0.3L627.7,752.6z M627.9,755.9l-0.2,0.2l-0.1,0.1l-0.1,0.1
			l-0.1,0.3l0.1,0.4l0,0.4l-0.1,0.3l-0.1,0.2l0,0.1l0.1,0.1l0.2,0l0.1-0.1l0.1-0.2l0.2-0.2l0.1-0.3l0.2-0.3l0.2-0.2l0.1-0.3l0-0.3
			l-0.2-0.3l-0.2-0.1L627.9,755.9z M627.1,760.3l-0.3,0.3l-0.1,0.2l0.1,0.3l0.1,0.2l0.1,0.1l0.1,0.2l0.2-0.1l0-0.3l0.1,0.1l0.3-0.1
			l0.1,0.1l0.2,0l0-0.2l-0.1-0.1l-0.1-0.2l-0.2-0.3l-0.3-0.1L627.1,760.3z M625.6,763.1l-0.1,0.1l-0.1,0.1l0.1,0.3l0.3,0.3l0.2,0.1
			l0.1,0.2l0.3,0.2l0.3,0.1l0.2,0.2l0.2,0.2l0.1,0l0.1-0.2l0-0.3l-0.4-0.3l-0.4-0.3l-0.3-0.4l-0.3-0.3l-0.2-0.2L625.6,763.1z
			 M622.3,766.8l-0.3,0.1l0,0.2l0.2,0l0.2,0.1l0.1,0.1h0.1l0.1-0.1l0-0.2l-0.3-0.1L622.3,766.8z M627.4,767.2l-0.2,0.2l-0.1,0.1v0.1
			l0.1,0l0.1,0l0.2-0.1l0-0.2L627.4,767.2z M624.2,767.3l-0.2,0.1l0.1,0.2l0.2,0l0.1,0.1l0.1,0.1l0.1-0.1l0.2-0.1v-0.2h-0.1
			l-0.3-0.1l-0.2-0.2L624.2,767.3z M626.9,770.9l-0.3,0l-0.1,0.2l0.2,0.4l0.2,1.4v0.3l0.1,0.4l0.2,0.4l0.1,0.1l0.2,0l0-0.2l-0.1-0.3
			l0-0.3l0-0.3l-0.1-0.6l-0.1-0.4v-0.4l-0.1-0.3L627,771L626.9,770.9z M634.6,771l-0.2,0.1l-0.1,0.1l0,0.1l0,0.2l-0.1,0.1l0.1,0.2
			l0.1,0.1l0.1,0.2v0.2l0,0.2l0.1,0l0.2,0l0.1-0.4l-0.1-0.6v-0.3l-0.1-0.1L634.6,771z M638.7,786.1l-0.3,0.1l-0.1,0.2l-0.1,0.1
			l0.3,0.1l0.3,0h0.1l0.1,0.1v0.3l-0.1,0.2l-0.1,0.2l0,0.1l0,0.1l0.1,0l0.1-0.1l0.1,0l0.1-0.1l0.1-0.1l0.1,0l0.2-0.1l0,0l0.1-0.2
			l-0.1-0.3l0-0.4l-0.2-0.1h-0.4L638.7,786.1z M640,788.2l-0.1,0.2l0,0.4l0.1,0.1l0.1,0.2l0.1,0.4l0.1,0.3l0.1,0.2l0,0.2l0.1,0.2
			l0,0.3l0.1,0.1l0.1,0.2l0,0.2l0,0.1l-0.2,0.1l-0.1,0.2v0.1l0.1,0.1l0.2,0h0.2l0,0.3v0.2l0.1,0.3l0.3,0.3h0.1l0.3-0.1l0.3-0.2
			l0-0.5l-0.2-0.4l-0.2-0.3l-0.3-0.7l-0.2-0.3l0-0.4l-0.1-0.7l-0.1-0.4l-0.1-0.3l-0.2-0.2l-0.1-0.1L640,788.2z M632.7,797.5
			l-0.1,0.1l0,0.2l0.1,0.1l-0.1,0.1l-0.1,0.1l-0.1,0.4l0.1,0.1v0.1l-0.1,0.1l-0.1,0.1l0.2,0.2l0.1,0.1l0.1,0l0.1-0.3l0-0.4l0-0.2
			l0.1-0.3l0-0.3l-0.1-0.2L632.7,797.5z M631.7,798.8l-0.2,0l-0.2,0.1l-0.3,0l-0.1,0.2l0.1,0.1l0.3,0l0.2,0l0.2-0.1l0.1-0.1l0.1-0.2
			L631.7,798.8z M632.1,799.1l-0.3,0.1l-0.1,0.2l-0.1,0.3v0.2l0.4,0l0.1-0.2l0.1-0.2l0-0.2L632.1,799.1z M632.2,800.2l-0.2,0.1
			l-0.2,0.2l-0.2,0l-0.3,0l-0.2,0.2v0.3l0.5-0.1l0.1,0l0.2-0.1l0.1-0.1l0.1-0.2l0-0.2L632.2,800.2z M633.4,800.5l-0.1,0.3l0.1,0
			l0.1,0l0.2,0l0.1,0l0-0.1l-0.1-0.1L633.4,800.5z M643.2,800.6l-0.1,0.1l0,0.1l0.1,0.2l0.2,0.1l0,0.1v0.4l0.1,0.1l0.1,0.1l0.1,0
			l0.1,0l0.1-0.2l0-0.2l-0.1-0.2l-0.2-0.3l-0.3-0.3L643.2,800.6z M634.4,802.2l-0.4,0.3l-0.3,0.3l-0.1,0.3l0,0.4l0.1,0.2l0.4,0
			l0.3,0.1l0.1,0.2l0.1,0.1l0.2,0.1h0.1l0.2-0.2v-0.3l0.1-0.1l0.1-0.1l-0.4-0.1l-0.4-0.1l-0.2-0.1l0.2-0.3l0.2-0.3L634.4,802.2z
			 M638.5,808.5l-0.4,0.2l-0.1,0.1v0.3l0,0.1l0.1,0h0.1l0.3-0.3l0.1-0.1v-0.2L638.5,808.5z M637.8,809.5l-0.2,0.3l0,0.5l0.1,0.2
			l0.2-0.1l0.2-0.2l0-0.1l0.1-0.2l0-0.1l0-0.3L637.8,809.5z M640.6,822l-0.3,0l-0.2,0.1l0,0.1l0.3,0.1h0.4l0-0.1l-0.2-0.2L640.6,822
			z M645.9,832.5l-0.4,0.1l0,0.2l0.3,0.2l0.1,0.1l0.3-0.1l0.1-0.1l-0.1-0.2L645.9,832.5z M646.5,833.5l-0.1,0.2v0.2l0.1,0.1l0.3,0
			l0.1-0.2l0-0.2l-0.1-0.1H646.5z"/>
	</defs>
	<use xlink:href="#SVGID_1_"  style="overflow:visible;fill:#FFFFFF;"/>
	<clipPath id="SVGID_2_">
		<use xlink:href="#SVGID_1_"  style="overflow:visible;"/>
	</clipPath>
	<use xlink:href="#SVGID_1_"  style="overflow:visible;fill:none;stroke:#000000;stroke-miterlimit:10;"/>
</g>
</svg>
