<?xml version="1.0" encoding="UTF-8"?>
<svg width="318px" height="76px" viewBox="0 0 318 76" version="1.1" xmlns="http://www.w3.org/2000/svg" xmlns:xlink="http://www.w3.org/1999/xlink">
    <title>Group 4</title>
    <defs>
        <linearGradient x1="16.1257419%" y1="77.4889494%" x2="83.1720157%" y2="36.9037026%" id="linearGradient-1">
            <stop stop-color="#FE6E64" offset="0%"></stop>
            <stop stop-color="#FC8446" offset="32.8057264%"></stop>
            <stop stop-color="#F7951D" offset="65.4646048%"></stop>
            <stop stop-color="#FFC14F" offset="100%"></stop>
        </linearGradient>
    </defs>
    <g id="Page-1" stroke="none" stroke-width="1" fill="none" fill-rule="evenodd">
        <g id="MPC-Homepage" transform="translate(-785.000000, -6128.000000)">
            <g id="Group-3" transform="translate(587.000000, 6128.000000)">
                <g id="Group-4" transform="translate(198.000000, 0.000000)">
                    <g id="Group" fill="url(#linearGradient-1)">
                        <path d="M13,28 L41,44.449055 L41,76 L13,59.5122922 L13,28 Z M72,13 L72,43.5027235 L44,60 L44,28.4971312 L44.0421447,28.4743748 L72,13 Z M28.4332366,0 L57,17.0372201 L28.569046,33 L0,15.9616234 L28.4332366,0 Z" id="Combined-Shape"></path>
                    </g>
                    <g id="Group-21" transform="translate(83.000000, 17.252046)" fill="#FFFFFF">
                        <path d="M53.3108558,4.21635379 L42.4759919,4.21635379 L42.4759919,14.1827798 L53.3542547,14.1827798 C55.4613827,14.1827798 57.1710688,13.774657 58.486739,12.9538387 C59.9200429,12.0770036 60.6349817,10.8754994 60.6349817,9.35389892 C60.6349817,5.92886883 58.1943678,4.21635379 53.3108558,4.21635379 M60.6349817,16.2039591 C58.471892,17.4031769 55.7811637,18.0033574 52.565081,18.0033574 L42.4759919,18.0033574 L42.4759919,30.1647292 L38.265162,30.1647292 L38.265162,0.396919374 L53.0470365,0.396919374 C60.9421998,0.396919374 64.8914946,3.36809868 64.8914946,9.30931408 C64.8914946,12.3559446 63.4718956,14.6526354 60.6349817,16.2039591" id="Fill-5"></path>
                        <path d="M94.4558147,8.78241276 C93.1675543,7.02759928 91.713693,5.77579422 90.0919468,5.029284 C88.4679163,4.28163057 86.4430177,3.90894705 84.0161087,3.90894705 C80.0668139,3.90894705 76.9466655,4.94125752 74.649953,7.00587846 C72.3543826,9.068213 71.2065974,11.8416185 71.2065974,15.3249519 C71.2065974,18.7797052 72.2972788,21.5313899 74.4740735,23.5788628 C76.6531522,25.6263357 79.671656,26.6540734 83.533011,26.6540734 C85.8422863,26.6540734 87.8237861,26.2722443 89.4775105,25.5120156 C91.1278086,24.751787 92.6707517,23.4919795 94.1051977,21.7348797 L97.7015913,23.8863839 C94.0743617,28.2751324 89.3655872,30.4712214 83.5775519,30.4712214 C78.5467123,30.4712214 74.5266089,29.1199579 71.5138155,26.4105716 C68.5010221,23.7046149 66.9957675,20.0669495 66.9957675,15.5010048 C66.9957675,10.7875872 68.545563,7.04246089 71.6451541,4.25990975 C74.7436031,1.47964501 78.8687774,0.0895126354 84.0161087,0.0895126354 C90.0394113,0.0895126354 94.7036449,2.26959687 98.0065253,6.63205174 L94.4558147,8.78241276 Z" id="Fill-7"></path>
                        <path d="M117.657407,30.4715644 C113.828031,30.4715644 110.758133,29.7856438 108.446574,28.4069434 C105.552556,26.7412996 104.105548,24.1199398 104.105548,20.5508664 L104.105548,19.4956919 L106.34173,19.4956919 L106.34173,20.3748135 C106.34173,25.7318532 110.12885,28.4069434 117.70309,28.4069434 C120.305879,28.4069434 122.483816,28.0125391 124.239185,27.2248736 C126.490214,26.197136 127.617442,24.6183755 127.617442,22.4805897 C127.617442,20.9898556 127.207437,19.8477978 126.389712,19.0567028 C125.715887,18.4130806 124.560108,17.8426233 122.922372,17.3441877 C122.045259,17.1109747 119.968967,16.6411191 116.69578,15.9380505 C112.922365,15.1492419 110.37668,14.4175933 109.062152,13.7442479 C106.401118,12.3975572 105.070601,10.3923827 105.070601,7.72872443 C105.070601,2.63347774 108.987917,0.0875691937 116.827119,0.0875691937 C125.013511,0.0875691937 129.152391,3.27824308 129.24033,9.66073406 L127.047547,9.66073406 C126.871667,6.58666667 125.818674,4.52204573 123.888568,3.46915764 C122.309078,2.5911793 119.956404,2.15219013 116.827119,2.15219013 C110.479467,2.15219013 107.306783,4.0098917 107.306783,7.72872443 C107.306783,9.54298436 108.16905,10.9045367 109.894725,11.8110951 C111.093903,12.4261372 113.125655,12.9977377 115.993404,13.5247533 C121.314331,14.4621781 124.867326,15.4704813 126.652389,16.5530927 C128.785785,17.8426233 129.854767,19.8615162 129.854767,22.613201 C129.854767,25.3625993 128.435168,27.4409386 125.599396,28.8470758 C123.40547,29.9308303 120.759283,30.4715644 117.657407,30.4715644" id="Fill-9"></path>
                        <polygon id="Fill-11" points="137.311944 11.7235259 137.311944 30.1645006 135.161417 30.1645006 135.07462 11.7235259 130.731309 11.7235259 130.731309 9.66119134 135.07462 9.66119134 135.07462 3.2055355 137.311944 3.2055355 137.311944 9.66119134 141.742052 9.66119134 141.742052 11.7235259"></polygon>
                        <path d="M159.946611,30.2081709 L159.946611,27.2244164 C158.219794,29.5051023 155.602158,30.64716 152.093705,30.64716 C149.34473,30.64716 147.165652,29.9886763 145.55761,28.6705656 C143.861629,27.2381348 143.013068,25.2318171 143.013068,22.6573285 L143.013068,8.7388568 L145.250392,8.7388568 L145.250392,22.6127437 C145.250392,26.5933694 147.532258,28.5825391 152.093705,28.5825391 C154.725045,28.5825391 156.713397,27.8223105 158.059903,26.3029964 C159.317328,24.8659928 159.946611,22.8768231 159.946611,20.3309146 L159.946611,8.7388568 L162.182794,8.7388568 L162.182794,30.2081709 L159.946611,30.2081709 Z" id="Fill-13"></path>
                        <path d="M181.352976,12.5581769 C179.773487,10.8319434 177.53502,9.96654031 174.641003,9.96654031 C171.949132,9.96654031 169.829441,10.8891035 168.280788,12.7342298 C166.816648,14.4616065 166.086862,16.6565523 166.086862,19.3202106 C166.086862,22.0135921 166.804085,24.1936763 168.236247,25.8627497 C169.757491,27.6770096 171.892029,28.5824248 174.641003,28.5824248 C177.360283,28.5824248 179.53822,27.6770096 181.177097,25.8627497 C182.783996,24.1365162 183.589159,21.9518592 183.589159,19.3202106 C183.589159,16.4519194 182.844526,14.1986703 181.352976,12.5581769 L181.352976,12.5581769 Z M183.589159,30.1646149 L183.589159,26.3028821 C181.629359,29.1974669 178.661106,30.6470457 174.685544,30.6470457 C171.291297,30.6470457 168.616558,29.5495728 166.656758,27.3534838 C164.813449,25.2751444 163.892936,22.6000542 163.892936,19.3202106 C163.892936,15.9820638 164.827154,13.2761071 166.700156,11.1966245 C168.659957,9.0016787 171.379237,7.90420578 174.860281,7.90420578 C178.777598,7.90420578 181.688746,9.29433815 183.589159,12.0746029 L183.589159,0.394518652 L185.826484,0.394518652 L185.826484,30.1646149 L183.589159,30.1646149 Z" id="Fill-15"></path>
                        <path d="M189.028062,30.1645006 L191.265386,30.1645006 L191.265386,8.38766546 L189.028062,8.38766546 L189.028062,30.1645006 Z M190.081055,4.83002407 C189.612804,4.83002407 189.263329,4.53736462 189.028062,3.95318893 L189.028062,0.877978339 C189.291881,0.293802647 189.642498,0 190.081055,0 C190.432814,0 190.82683,0.262936221 191.266529,0.789951865 L191.266529,4.038929 C190.856524,4.56594465 190.461366,4.83002407 190.081055,4.83002407 L190.081055,4.83002407 Z" id="Fill-17"></path>
                        <path d="M210.917182,12.7980205 C209.309141,11.117515 207.070674,10.2738327 204.205209,10.2738327 C201.399131,10.2738327 199.174369,11.1015102 197.537776,12.755722 C195.90004,14.4099338 195.082315,16.6414621 195.082315,19.4525933 C195.082315,22.232858 195.906893,24.4506679 197.559475,26.1025933 C199.212057,27.7590915 201.427683,28.5833394 204.205209,28.5833394 C206.982734,28.5833394 209.199502,27.7590915 210.850942,26.1025933 C212.503524,24.4506679 213.330386,22.232858 213.330386,19.4525933 C213.330386,16.7009085 212.525224,14.4842419 210.917182,12.7980205 M204.16181,30.6479603 C200.681908,30.6479603 197.926081,29.6099338 195.893188,27.5293081 C193.860295,25.4509687 192.843848,22.7598736 192.843848,19.4525933 C192.843848,16.02642 193.888847,13.2975993 195.981128,11.2627016 C198.071125,9.22894705 200.828093,8.21149819 204.249749,8.21149819 C207.670264,8.21149819 210.412385,9.22894705 212.474972,11.2627016 C214.535275,13.2975993 215.566569,16.02642 215.566569,19.4525933 C215.566569,22.8764801 214.52157,25.5995848 212.431574,27.6161913 C210.340434,29.6373706 207.582324,30.6479603 204.16181,30.6479603" id="Fill-19"></path>
                        <path d="M226.181926,30.7351865 C219.660679,30.7351865 216.400055,27.8097353 216.400055,21.9519735 L218.725319,21.9519735 C218.725319,24.2646691 219.324909,25.9508905 220.522945,27.0049218 C221.723266,28.0555235 223.623678,28.5825391 226.225325,28.5825391 C227.980694,28.5825391 229.428845,28.3058845 230.568635,27.7480024 C231.972245,27.0186402 232.674621,25.9337425 232.674621,24.5013117 C232.674621,22.7430686 231.212766,21.5301324 228.287912,20.8579302 C228.083481,20.7973406 226.620483,20.5652708 223.902345,20.1548616 C219.514493,19.480373 217.320567,17.5792298 217.320567,14.4468592 C217.320567,12.3970999 218.198823,10.8011913 219.95305,9.66141998 C221.4446,8.66569194 223.271919,8.16725632 225.437293,8.16725632 C231.722131,8.16725632 234.868547,10.7726113 234.868547,15.9821781 L232.498742,15.9821781 C232.498742,13.9918652 231.958541,12.551432 230.874712,11.6574489 C229.793167,10.7657521 228.053787,10.3176173 225.656572,10.3176173 C224.047388,10.3176173 222.687177,10.6411432 221.575938,11.2824789 C220.289962,12.0461372 219.645832,13.1001685 219.645832,14.4468592 C219.645832,16.2016727 221.077994,17.330012 223.945744,17.8273045 C224.705223,17.9736342 226.255019,18.2525752 228.59513,18.6618412 C232.865348,19.3934898 234.999886,21.340361 234.999886,24.5013117 C234.999886,26.7248375 234.034833,28.3801925 232.103584,29.4616606 C230.554931,30.311059 228.580283,30.7351865 226.181926,30.7351865" id="Fill-20"></path>
                        <polygon id="Fill-4" points="29.8089508 30.7479543 29.8089508 9.59737245 18.5074367 30.7479543 15.4948361 30.7479543 4.18991276 9.59737245 4.18991276 30.7479543 0 30.7479543 0 0.747954272 4.10240984 0.747954272 16.9789766 24.8640878 29.8975902 0.747954272 34 0.747954272 34 30.7479543"></polygon>
                        <path d="M53.3108558,4.21635379 L42.4759919,4.21635379 L42.4759919,14.1827798 L53.3542547,14.1827798 C55.4613827,14.1827798 57.1710688,13.774657 58.486739,12.9538387 C59.9200429,12.0770036 60.6349817,10.8754994 60.6349817,9.35389892 C60.6349817,5.92886883 58.1943678,4.21635379 53.3108558,4.21635379 M60.6349817,16.2039591 C58.471892,17.4031769 55.7811637,18.0033574 52.565081,18.0033574 L42.4759919,18.0033574 L42.4759919,30.1647292 L38.265162,30.1647292 L38.265162,0.396919374 L53.0470365,0.396919374 C60.9421998,0.396919374 64.8914946,3.36809868 64.8914946,9.30931408 C64.8914946,12.3559446 63.4718956,14.6526354 60.6349817,16.2039591" id="Fill-5"></path>
                        <path d="M94.4558147,8.78241276 C93.1675543,7.02759928 91.713693,5.77579422 90.0919468,5.029284 C88.4679163,4.28163057 86.4430177,3.90894705 84.0161087,3.90894705 C80.0668139,3.90894705 76.9466655,4.94125752 74.649953,7.00587846 C72.3543826,9.068213 71.2065974,11.8416185 71.2065974,15.3249519 C71.2065974,18.7797052 72.2972788,21.5313899 74.4740735,23.5788628 C76.6531522,25.6263357 79.671656,26.6540734 83.533011,26.6540734 C85.8422863,26.6540734 87.8237861,26.2722443 89.4775105,25.5120156 C91.1278086,24.751787 92.6707517,23.4919795 94.1051977,21.7348797 L97.7015913,23.8863839 C94.0743617,28.2751324 89.3655872,30.4712214 83.5775519,30.4712214 C78.5467123,30.4712214 74.5266089,29.1199579 71.5138155,26.4105716 C68.5010221,23.7046149 66.9957675,20.0669495 66.9957675,15.5010048 C66.9957675,10.7875872 68.545563,7.04246089 71.6451541,4.25990975 C74.7436031,1.47964501 78.8687774,0.0895126354 84.0161087,0.0895126354 C90.0394113,0.0895126354 94.7036449,2.26959687 98.0065253,6.63205174 L94.4558147,8.78241276 Z" id="Fill-7"></path>
                        <path d="M117.657407,30.4715644 C113.828031,30.4715644 110.758133,29.7856438 108.446574,28.4069434 C105.552556,26.7412996 104.105548,24.1199398 104.105548,20.5508664 L104.105548,19.4956919 L106.34173,19.4956919 L106.34173,20.3748135 C106.34173,25.7318532 110.12885,28.4069434 117.70309,28.4069434 C120.305879,28.4069434 122.483816,28.0125391 124.239185,27.2248736 C126.490214,26.197136 127.617442,24.6183755 127.617442,22.4805897 C127.617442,20.9898556 127.207437,19.8477978 126.389712,19.0567028 C125.715887,18.4130806 124.560108,17.8426233 122.922372,17.3441877 C122.045259,17.1109747 119.968967,16.6411191 116.69578,15.9380505 C112.922365,15.1492419 110.37668,14.4175933 109.062152,13.7442479 C106.401118,12.3975572 105.070601,10.3923827 105.070601,7.72872443 C105.070601,2.63347774 108.987917,0.0875691937 116.827119,0.0875691937 C125.013511,0.0875691937 129.152391,3.27824308 129.24033,9.66073406 L127.047547,9.66073406 C126.871667,6.58666667 125.818674,4.52204573 123.888568,3.46915764 C122.309078,2.5911793 119.956404,2.15219013 116.827119,2.15219013 C110.479467,2.15219013 107.306783,4.0098917 107.306783,7.72872443 C107.306783,9.54298436 108.16905,10.9045367 109.894725,11.8110951 C111.093903,12.4261372 113.125655,12.9977377 115.993404,13.5247533 C121.314331,14.4621781 124.867326,15.4704813 126.652389,16.5530927 C128.785785,17.8426233 129.854767,19.8615162 129.854767,22.613201 C129.854767,25.3625993 128.435168,27.4409386 125.599396,28.8470758 C123.40547,29.9308303 120.759283,30.4715644 117.657407,30.4715644" id="Fill-9"></path>
                        <polygon id="Fill-11" points="137.311944 11.7235259 137.311944 30.1645006 135.161417 30.1645006 135.07462 11.7235259 130.731309 11.7235259 130.731309 9.66119134 135.07462 9.66119134 135.07462 3.2055355 137.311944 3.2055355 137.311944 9.66119134 141.742052 9.66119134 141.742052 11.7235259"></polygon>
                        <path d="M159.946611,30.2081709 L159.946611,27.2244164 C158.219794,29.5051023 155.602158,30.64716 152.093705,30.64716 C149.34473,30.64716 147.165652,29.9886763 145.55761,28.6705656 C143.861629,27.2381348 143.013068,25.2318171 143.013068,22.6573285 L143.013068,8.7388568 L145.250392,8.7388568 L145.250392,22.6127437 C145.250392,26.5933694 147.532258,28.5825391 152.093705,28.5825391 C154.725045,28.5825391 156.713397,27.8223105 158.059903,26.3029964 C159.317328,24.8659928 159.946611,22.8768231 159.946611,20.3309146 L159.946611,8.7388568 L162.182794,8.7388568 L162.182794,30.2081709 L159.946611,30.2081709 Z" id="Fill-13"></path>
                        <path d="M181.352976,12.5581769 C179.773487,10.8319434 177.53502,9.96654031 174.641003,9.96654031 C171.949132,9.96654031 169.829441,10.8891035 168.280788,12.7342298 C166.816648,14.4616065 166.086862,16.6565523 166.086862,19.3202106 C166.086862,22.0135921 166.804085,24.1936763 168.236247,25.8627497 C169.757491,27.6770096 171.892029,28.5824248 174.641003,28.5824248 C177.360283,28.5824248 179.53822,27.6770096 181.177097,25.8627497 C182.783996,24.1365162 183.589159,21.9518592 183.589159,19.3202106 C183.589159,16.4519194 182.844526,14.1986703 181.352976,12.5581769 L181.352976,12.5581769 Z M183.589159,30.1646149 L183.589159,26.3028821 C181.629359,29.1974669 178.661106,30.6470457 174.685544,30.6470457 C171.291297,30.6470457 168.616558,29.5495728 166.656758,27.3534838 C164.813449,25.2751444 163.892936,22.6000542 163.892936,19.3202106 C163.892936,15.9820638 164.827154,13.2761071 166.700156,11.1966245 C168.659957,9.0016787 171.379237,7.90420578 174.860281,7.90420578 C178.777598,7.90420578 181.688746,9.29433815 183.589159,12.0746029 L183.589159,0.394518652 L185.826484,0.394518652 L185.826484,30.1646149 L183.589159,30.1646149 Z" id="Fill-15"></path>
                        <path d="M189.028062,30.1645006 L191.265386,30.1645006 L191.265386,8.38766546 L189.028062,8.38766546 L189.028062,30.1645006 Z M190.081055,4.83002407 C189.612804,4.83002407 189.263329,4.53736462 189.028062,3.95318893 L189.028062,0.877978339 C189.291881,0.293802647 189.642498,0 190.081055,0 C190.432814,0 190.82683,0.262936221 191.266529,0.789951865 L191.266529,4.038929 C190.856524,4.56594465 190.461366,4.83002407 190.081055,4.83002407 L190.081055,4.83002407 Z" id="Fill-17"></path>
                        <path d="M210.917182,12.7980205 C209.309141,11.117515 207.070674,10.2738327 204.205209,10.2738327 C201.399131,10.2738327 199.174369,11.1015102 197.537776,12.755722 C195.90004,14.4099338 195.082315,16.6414621 195.082315,19.4525933 C195.082315,22.232858 195.906893,24.4506679 197.559475,26.1025933 C199.212057,27.7590915 201.427683,28.5833394 204.205209,28.5833394 C206.982734,28.5833394 209.199502,27.7590915 210.850942,26.1025933 C212.503524,24.4506679 213.330386,22.232858 213.330386,19.4525933 C213.330386,16.7009085 212.525224,14.4842419 210.917182,12.7980205 M204.16181,30.6479603 C200.681908,30.6479603 197.926081,29.6099338 195.893188,27.5293081 C193.860295,25.4509687 192.843848,22.7598736 192.843848,19.4525933 C192.843848,16.02642 193.888847,13.2975993 195.981128,11.2627016 C198.071125,9.22894705 200.828093,8.21149819 204.249749,8.21149819 C207.670264,8.21149819 210.412385,9.22894705 212.474972,11.2627016 C214.535275,13.2975993 215.566569,16.02642 215.566569,19.4525933 C215.566569,22.8764801 214.52157,25.5995848 212.431574,27.6161913 C210.340434,29.6373706 207.582324,30.6479603 204.16181,30.6479603" id="Fill-19"></path>
                        <path d="M226.181926,30.7351865 C219.660679,30.7351865 216.400055,27.8097353 216.400055,21.9519735 L218.725319,21.9519735 C218.725319,24.2646691 219.324909,25.9508905 220.522945,27.0049218 C221.723266,28.0555235 223.623678,28.5825391 226.225325,28.5825391 C227.980694,28.5825391 229.428845,28.3058845 230.568635,27.7480024 C231.972245,27.0186402 232.674621,25.9337425 232.674621,24.5013117 C232.674621,22.7430686 231.212766,21.5301324 228.287912,20.8579302 C228.083481,20.7973406 226.620483,20.5652708 223.902345,20.1548616 C219.514493,19.480373 217.320567,17.5792298 217.320567,14.4468592 C217.320567,12.3970999 218.198823,10.8011913 219.95305,9.66141998 C221.4446,8.66569194 223.271919,8.16725632 225.437293,8.16725632 C231.722131,8.16725632 234.868547,10.7726113 234.868547,15.9821781 L232.498742,15.9821781 C232.498742,13.9918652 231.958541,12.551432 230.874712,11.6574489 C229.793167,10.7657521 228.053787,10.3176173 225.656572,10.3176173 C224.047388,10.3176173 222.687177,10.6411432 221.575938,11.2824789 C220.289962,12.0461372 219.645832,13.1001685 219.645832,14.4468592 C219.645832,16.2016727 221.077994,17.330012 223.945744,17.8273045 C224.705223,17.9736342 226.255019,18.2525752 228.59513,18.6618412 C232.865348,19.3934898 234.999886,21.340361 234.999886,24.5013117 C234.999886,26.7248375 234.034833,28.3801925 232.103584,29.4616606 C230.554931,30.311059 228.580283,30.7351865 226.181926,30.7351865" id="Fill-20"></path>
                    </g>
                </g>
            </g>
        </g>
    </g>
</svg>